<svg xmlns="http://www.w3.org/2000/svg" xmlns:xlink="http://www.w3.org/1999/xlink" width="500" zoomAndPan="magnify" viewBox="0 0 375 374.999991" height="500" preserveAspectRatio="xMidYMid meet" version="1.0"><defs><clipPath id="ee4ff5f06c"><path d="M 160.570312 66.804688 L 213.867188 66.804688 L 213.867188 120.101562 L 160.570312 120.101562 Z M 160.570312 66.804688 " clip-rule="nonzero"/></clipPath><clipPath id="88eac065d7"><path d="M 187.21875 66.804688 C 172.5 66.804688 160.570312 78.734375 160.570312 93.453125 C 160.570312 108.171875 172.5 120.101562 187.21875 120.101562 C 201.9375 120.101562 213.867188 108.171875 213.867188 93.453125 C 213.867188 78.734375 201.9375 66.804688 187.21875 66.804688 Z M 187.21875 66.804688 " clip-rule="nonzero"/></clipPath><clipPath id="9c8a342e0e"><path d="M 160.570312 129.46875 L 213.867188 129.46875 L 213.867188 182.769531 L 160.570312 182.769531 Z M 160.570312 129.46875 " clip-rule="nonzero"/></clipPath><clipPath id="bd4d9190dc"><path d="M 187.21875 129.46875 C 172.5 129.46875 160.570312 141.402344 160.570312 156.121094 C 160.570312 170.839844 172.5 182.769531 187.21875 182.769531 C 201.9375 182.769531 213.867188 170.839844 213.867188 156.121094 C 213.867188 141.402344 201.9375 129.46875 187.21875 129.46875 Z M 187.21875 129.46875 " clip-rule="nonzero"/></clipPath><clipPath id="16a2350746"><path d="M 160.570312 192.136719 L 213.867188 192.136719 L 213.867188 245.4375 L 160.570312 245.4375 Z M 160.570312 192.136719 " clip-rule="nonzero"/></clipPath><clipPath id="4550a4220a"><path d="M 187.21875 192.136719 C 172.5 192.136719 160.570312 204.066406 160.570312 218.785156 C 160.570312 233.503906 172.5 245.4375 187.21875 245.4375 C 201.9375 245.4375 213.867188 233.503906 213.867188 218.785156 C 213.867188 204.066406 201.9375 192.136719 187.21875 192.136719 Z M 187.21875 192.136719 " clip-rule="nonzero"/></clipPath><clipPath id="5fa643a4e8"><path d="M 160.828125 254.695312 L 214.128906 254.695312 L 214.128906 307.996094 L 160.828125 307.996094 Z M 160.828125 254.695312 " clip-rule="nonzero"/></clipPath><clipPath id="7c3f445ab9"><path d="M 187.480469 254.695312 C 172.761719 254.695312 160.828125 266.625 160.828125 281.34375 C 160.828125 296.0625 172.761719 307.996094 187.480469 307.996094 C 202.199219 307.996094 214.128906 296.0625 214.128906 281.34375 C 214.128906 266.625 202.199219 254.695312 187.480469 254.695312 Z M 187.480469 254.695312 " clip-rule="nonzero"/></clipPath></defs><g clip-path="url(#ee4ff5f06c)"><g clip-path="url(#88eac065d7)"><path fill="#00bf63" d="M 160.570312 66.804688 L 213.867188 66.804688 L 213.867188 120.101562 L 160.570312 120.101562 Z M 160.570312 66.804688 " fill-opacity="1" fill-rule="nonzero"/></g></g><g clip-path="url(#9c8a342e0e)"><g clip-path="url(#bd4d9190dc)"><path fill="#00bf63" d="M 160.570312 129.46875 L 213.867188 129.46875 L 213.867188 182.769531 L 160.570312 182.769531 Z M 160.570312 129.46875 " fill-opacity="1" fill-rule="nonzero"/></g></g><g clip-path="url(#16a2350746)"><g clip-path="url(#4550a4220a)"><path fill="#919191" d="M 160.570312 192.136719 L 213.867188 192.136719 L 213.867188 245.4375 L 160.570312 245.4375 Z M 160.570312 192.136719 " fill-opacity="1" fill-rule="nonzero"/></g></g><g clip-path="url(#5fa643a4e8)"><g clip-path="url(#7c3f445ab9)"><path fill="#919191" d="M 160.828125 254.695312 L 214.128906 254.695312 L 214.128906 307.996094 L 160.828125 307.996094 Z M 160.828125 254.695312 " fill-opacity="1" fill-rule="nonzero"/></g></g><path stroke-linecap="butt" transform="matrix(-0.0186383, -0.668783, 0.668783, -0.0186383, 186.137205, 192.164212)" fill="none" stroke-linejoin="miter" d="M 0.00281744 2.002758 L 13.997498 2.001439 " stroke="#000000" stroke-width="4" stroke-opacity="1" stroke-miterlimit="4"/><path stroke-linecap="butt" transform="matrix(-0.0188447, -0.668777, 0.668777, -0.0188447, 186.141585, 254.73259)" fill="none" stroke-linejoin="miter" d="M -0.000671977 2.00197 L 13.842266 2.000695 " stroke="#000000" stroke-width="4" stroke-opacity="1" stroke-miterlimit="4"/><path stroke-linecap="butt" transform="matrix(-0.0186383, -0.668783, 0.668783, -0.0186383, 186.006746, 129.465212)" fill="none" stroke-linejoin="miter" d="M -0.00259386 1.999089 L 13.997923 1.997932 " stroke="#000000" stroke-width="4" stroke-opacity="1" stroke-miterlimit="4"/></svg>