<?xml version="1.0" encoding="UTF-8"?>
<!DOCTYPE svg PUBLIC "-//W3C//DTD SVG 1.1//EN" "http://www.w3.org/Graphics/SVG/1.1/DTD/svg11.dtd">
<!-- Creator: CorelDRAW -->
<svg xmlns="http://www.w3.org/2000/svg" xml:space="preserve" width="80mm" height="15mm" version="1.1" style="shape-rendering:geometricPrecision; text-rendering:geometricPrecision; image-rendering:optimizeQuality; fill-rule:evenodd; clip-rule:evenodd"
viewBox="0 0 8000 1500"
 xmlns:xlink="http://www.w3.org/1999/xlink"
 xmlns:xodm="http://www.corel.com/coreldraw/odm/2003">
 <defs>
  <style type="text/css">
   <![CDATA[
    .str0 {stroke:#373435;stroke-width:20;stroke-miterlimit:22.9256}
    .str1 {stroke:#373435;stroke-width:7.62;stroke-miterlimit:22.9256}
    .fil1 {fill:none;fill-rule:nonzero}
    .fil2 {fill:#FEFEFE;fill-rule:nonzero}
    .fil0 {fill:#ED3237;fill-rule:nonzero}
   ]]>
  </style>
 </defs>
 <g id="Camada_x0020_1">
  <metadata id="CorelCorpID_0Corel-Layer"/>
  <g id="_3044989644704">
   <g>
    <path class="fil0" d="M2243.86 238.32l-2045.21 0 766.95 481.8 -766.95 481.79 1533.91 0 511.3 -963.59zm0 240.89l0 -240.89 -511.3 240.89 511.3 0zm4090.46 722.7l1533.91 0 -766.95 -481.79 766.95 -481.8 -2045.21 0 511.3 963.59zm0 -722.7l-511.3 -240.89 0 240.89 511.3 0zm-4601.76 963.59l4601.76 0 0 -963.59 -4601.76 0 0 963.59 0 0z"/>
    <path id="_1" class="fil1 str0" d="M2243.86 238.32l-2045.21 0 766.95 481.8 -766.95 481.79 1533.91 0m511.3 -722.7l0 -240.89 -511.3 240.89m4601.76 722.7l1533.91 0 -766.95 -481.79 766.95 -481.8 -2045.21 0m511.3 240.89l-511.3 -240.89 0 240.89m-4090.46 963.59l4601.76 0 0 -963.59 -4601.76 0 0 963.59zm-511.31 -1204.48m-639.13 240.9m0 481.79m383.48 240.9m1278.26 -843.15m-255.65 0m5113.06 843.15m383.48 -240.9m0 -481.79m-639.13 -240.9m-766.95 120.44m-255.65 0m-1789.58 1084.04m2300.88 -481.8m-2300.88 -481.79m-2300.88 481.79"/>
   </g>
   <path class="fil2 str1" d="M2221.56 848.33l0 218.93 119.87 0c5.93,0 10.73,1.62 14.32,4.94 3.67,3.32 5.51,7.62 5.51,12.84 0,5.22 -1.84,9.52 -5.58,12.84 -3.73,3.32 -8.46,4.94 -14.25,4.94l-155.43 0 0 -254.49c0,-6.07 1.62,-10.87 4.87,-14.47 3.24,-3.59 7.55,-5.36 12.91,-5.36 5.08,0 9.31,1.84 12.7,5.58 3.39,3.74 5.08,8.46 5.08,14.25zm381.56 -19.83c5.93,0 10.73,1.62 14.32,4.94 3.67,3.32 5.51,7.62 5.51,12.84 0,5.08 -1.84,9.32 -5.58,12.7 -3.73,3.39 -8.46,5.08 -14.25,5.08l-50.02 0 0 203.2 50.02 0c5.93,0 10.73,1.62 14.32,4.94 3.67,3.32 5.51,7.62 5.51,12.84 0,5.22 -1.84,9.52 -5.58,12.84 -3.73,3.32 -8.46,4.94 -14.25,4.94l-135.6 0c-5.93,0 -10.73,-1.62 -14.33,-4.94 -3.67,-3.32 -5.5,-7.62 -5.5,-12.84 0,-5.22 1.83,-9.52 5.57,-12.84 3.74,-3.32 8.47,-4.94 14.26,-4.94l50.02 0 0 -203.2 -50.02 0c-5.93,0 -10.73,-1.62 -14.33,-4.94 -3.67,-3.31 -5.5,-7.62 -5.5,-12.84 0,-5.22 1.83,-9.52 5.57,-12.84 3.74,-3.32 8.47,-4.94 14.26,-4.94l135.6 0zm106.26 0l44.03 0 43.6 61.81 43.6 -61.81 44.03 0 0 254.49c0,5.93 -1.62,10.73 -4.94,14.33 -3.32,3.67 -7.62,5.5 -12.84,5.5 -5.22,0 -9.53,-1.83 -12.84,-5.57 -3.32,-3.74 -4.94,-8.47 -4.94,-14.26l0 -204.04 -34.29 47.34 0 7.69c0,5.93 -1.62,10.73 -4.94,14.32 -3.32,3.67 -7.62,5.51 -12.84,5.51 -5.22,0 -9.53,-1.84 -12.84,-5.58 -3.32,-3.74 -4.94,-8.46 -4.94,-14.25l0 -7.69 -34.29 -47.34 0 204.04c0,5.93 -1.62,10.73 -4.94,14.33 -3.32,3.67 -7.62,5.5 -12.84,5.5 -5.22,0 -9.53,-1.83 -12.84,-5.57 -3.32,-3.74 -4.94,-8.47 -4.94,-14.26l0 -254.49zm417.12 0c5.93,0 10.73,1.62 14.32,4.94 3.67,3.32 5.51,7.62 5.51,12.84 0,5.08 -1.84,9.32 -5.58,12.7 -3.73,3.39 -8.46,5.08 -14.25,5.08l-50.02 0 0 203.2 50.02 0c5.93,0 10.73,1.62 14.32,4.94 3.67,3.32 5.51,7.62 5.51,12.84 0,5.22 -1.84,9.52 -5.58,12.84 -3.73,3.32 -8.46,4.94 -14.25,4.94l-135.6 0c-5.93,0 -10.73,-1.62 -14.33,-4.94 -3.67,-3.32 -5.5,-7.62 -5.5,-12.84 0,-5.22 1.83,-9.52 5.57,-12.84 3.74,-3.32 8.47,-4.94 14.26,-4.94l50.02 0 0 -203.2 -50.02 0c-5.93,0 -10.73,-1.62 -14.33,-4.94 -3.67,-3.31 -5.5,-7.62 -5.5,-12.84 0,-5.22 1.83,-9.52 5.57,-12.84 3.74,-3.32 8.47,-4.94 14.26,-4.94l135.6 0zm106.26 0l175.26 0 0 45.72c0,5.93 -1.62,10.73 -4.94,14.39 -3.32,3.67 -7.62,5.51 -12.84,5.51 -5.22,0 -9.53,-1.84 -12.84,-5.58 -3.32,-3.74 -4.94,-8.53 -4.94,-14.32l0 -10.16 -34.29 0 0 218.93c0,5.93 -1.62,10.73 -4.94,14.33 -3.32,3.67 -7.62,5.5 -12.84,5.5 -5.22,0 -9.53,-1.83 -12.84,-5.57 -3.32,-3.74 -4.94,-8.47 -4.94,-14.26l0 -218.93 -34.29 0 0 10.16c0,5.93 -1.62,10.73 -4.94,14.39 -3.32,3.67 -7.62,5.51 -12.84,5.51 -5.22,0 -9.53,-1.84 -12.84,-5.58 -3.32,-3.74 -4.94,-8.53 -4.94,-14.32l0 -45.72zm261.69 0l155.43 0c5.93,0 10.73,1.62 14.32,4.94 3.67,3.32 5.51,7.62 5.51,12.84 0,5.08 -1.84,9.32 -5.58,12.7 -3.73,3.39 -8.46,5.08 -14.25,5.08l-119.87 0 0 83.82 50.45 0c5.78,0 10.44,1.62 14.04,4.94 3.59,3.32 5.36,7.62 5.36,12.84 0,5.22 -1.77,9.53 -5.36,12.84 -3.6,3.32 -8.26,4.94 -14.04,4.94l-50.45 0 0 83.82 119.87 0c5.93,0 10.73,1.62 14.32,4.94 3.67,3.32 5.51,7.62 5.51,12.84 0,5.22 -1.84,9.52 -5.58,12.84 -3.73,3.32 -8.46,4.94 -14.25,4.94l-155.43 0 0 -274.32zm344.17 35.56l-11.78 0 0 203.2 11.78 0c3.6,0 6.84,-0.99 9.88,-2.89 3.03,-1.91 5.43,-4.59 7.05,-8.05l36.34 -73.8c1.27,-2.47 2.11,-5.15 2.68,-7.9 0.56,-2.75 0.85,-5.78 0.85,-9.1 0,-3.1 -0.29,-6.07 -0.85,-8.82 -0.57,-2.75 -1.41,-5.43 -2.68,-7.9l-36.34 -73.38c-1.76,-3.46 -4.23,-6.21 -7.19,-8.25 -3.04,-2.05 -6.28,-3.11 -9.74,-3.11zm0 -35.56c11.15,0 20.74,2.68 28.71,8.05 7.98,5.36 14.96,13.89 20.89,25.47l36.76 73.16c2.04,4.23 3.67,8.89 4.8,13.97 1.05,5.01 1.62,10.44 1.62,16.37 0,5.93 -0.57,11.5 -1.62,16.58 -1.13,5.08 -2.76,9.81 -4.8,14.04l-36.76 73.17c-5.65,11.43 -12.56,19.89 -20.6,25.33 -8.05,5.43 -17.71,8.18 -29,8.18l-62.65 0c-5.93,0 -10.73,-1.62 -14.33,-4.94 -3.67,-3.32 -5.5,-7.62 -5.5,-12.84 0,-5.22 1.83,-9.52 5.57,-12.84 3.74,-3.32 8.47,-4.94 14.26,-4.94l15.31 0 0 -203.2 -15.31 0c-5.93,0 -10.73,-1.62 -14.33,-4.94 -3.67,-3.31 -5.5,-7.62 -5.5,-12.84 0,-5.22 1.83,-9.52 5.57,-12.84 3.74,-3.32 8.47,-4.94 14.26,-4.94l62.65 0zm310.02 0l155.43 0c5.93,0 10.73,1.62 14.32,4.94 3.67,3.32 5.51,7.62 5.51,12.84 0,5.08 -1.84,9.32 -5.58,12.7 -3.73,3.39 -8.46,5.08 -14.25,5.08l-119.87 0 0 83.82 50.45 0c5.78,0 10.44,1.62 14.04,4.94 3.59,3.32 5.36,7.62 5.36,12.84 0,5.22 -1.77,9.53 -5.36,12.84 -3.6,3.32 -8.26,4.94 -14.04,4.94l-50.45 0 0 83.82 119.87 0c5.93,0 10.73,1.62 14.32,4.94 3.67,3.32 5.51,7.62 5.51,12.84 0,5.22 -1.84,9.52 -5.58,12.84 -3.73,3.32 -8.46,4.94 -14.25,4.94l-155.43 0 0 -274.32zm344.17 35.56l-11.78 0 0 203.2 11.78 0c3.6,0 6.84,-0.99 9.88,-2.89 3.03,-1.91 5.43,-4.59 7.05,-8.05l36.34 -73.8c1.27,-2.47 2.11,-5.15 2.68,-7.9 0.56,-2.75 0.85,-5.78 0.85,-9.1 0,-3.1 -0.29,-6.07 -0.85,-8.82 -0.57,-2.75 -1.41,-5.43 -2.68,-7.9l-36.34 -73.38c-1.76,-3.46 -4.23,-6.21 -7.19,-8.25 -3.04,-2.05 -6.28,-3.11 -9.74,-3.11zm0 -35.56c11.15,0 20.74,2.68 28.71,8.05 7.98,5.36 14.96,13.89 20.89,25.47l36.76 73.16c2.04,4.23 3.67,8.89 4.8,13.97 1.05,5.01 1.62,10.44 1.62,16.37 0,5.93 -0.57,11.5 -1.62,16.58 -1.13,5.08 -2.76,9.81 -4.8,14.04l-36.76 73.17c-5.65,11.43 -12.56,19.89 -20.6,25.33 -8.05,5.43 -17.71,8.18 -29,8.18l-62.65 0c-5.93,0 -10.73,-1.62 -14.33,-4.94 -3.67,-3.32 -5.5,-7.62 -5.5,-12.84 0,-5.22 1.83,-9.52 5.57,-12.84 3.74,-3.32 8.47,-4.94 14.26,-4.94l15.31 0 0 -203.2 -15.31 0c-5.93,0 -10.73,-1.62 -14.33,-4.94 -3.67,-3.31 -5.5,-7.62 -5.5,-12.84 0,-5.22 1.83,-9.52 5.57,-12.84 3.74,-3.32 8.47,-4.94 14.26,-4.94l62.65 0zm334.64 0c5.93,0 10.73,1.62 14.32,4.94 3.67,3.32 5.51,7.62 5.51,12.84 0,5.08 -1.84,9.32 -5.58,12.7 -3.73,3.39 -8.46,5.08 -14.25,5.08l-50.02 0 0 203.2 50.02 0c5.93,0 10.73,1.62 14.32,4.94 3.67,3.32 5.51,7.62 5.51,12.84 0,5.22 -1.84,9.52 -5.58,12.84 -3.73,3.32 -8.46,4.94 -14.25,4.94l-135.6 0c-5.93,0 -10.73,-1.62 -14.33,-4.94 -3.67,-3.32 -5.5,-7.62 -5.5,-12.84 0,-5.22 1.83,-9.52 5.57,-12.84 3.74,-3.32 8.47,-4.94 14.26,-4.94l50.02 0 0 -203.2 -50.02 0c-5.93,0 -10.73,-1.62 -14.33,-4.94 -3.67,-3.31 -5.5,-7.62 -5.5,-12.84 0,-5.22 1.83,-9.52 5.57,-12.84 3.74,-3.32 8.47,-4.94 14.26,-4.94l135.6 0zm106.26 0l175.26 0 0 45.72c0,5.93 -1.62,10.73 -4.94,14.39 -3.32,3.67 -7.62,5.51 -12.84,5.51 -5.22,0 -9.53,-1.84 -12.84,-5.58 -3.32,-3.74 -4.94,-8.53 -4.94,-14.32l0 -10.16 -34.29 0 0 218.93c0,5.93 -1.62,10.73 -4.94,14.33 -3.32,3.67 -7.62,5.5 -12.84,5.5 -5.22,0 -9.53,-1.83 -12.84,-5.57 -3.32,-3.74 -4.94,-8.47 -4.94,-14.26l0 -218.93 -34.29 0 0 10.16c0,5.93 -1.62,10.73 -4.94,14.39 -3.32,3.67 -7.62,5.51 -12.84,5.51 -5.22,0 -9.53,-1.84 -12.84,-5.58 -3.32,-3.74 -4.94,-8.53 -4.94,-14.32l0 -45.72zm417.12 0c5.93,0 10.73,1.62 14.32,4.94 3.67,3.32 5.51,7.62 5.51,12.84 0,5.08 -1.84,9.32 -5.58,12.7 -3.73,3.39 -8.46,5.08 -14.25,5.08l-50.02 0 0 203.2 50.02 0c5.93,0 10.73,1.62 14.32,4.94 3.67,3.32 5.51,7.62 5.51,12.84 0,5.22 -1.84,9.52 -5.58,12.84 -3.73,3.32 -8.46,4.94 -14.25,4.94l-135.6 0c-5.93,0 -10.73,-1.62 -14.33,-4.94 -3.67,-3.32 -5.5,-7.62 -5.5,-12.84 0,-5.22 1.83,-9.52 5.57,-12.84 3.74,-3.32 8.47,-4.94 14.26,-4.94l50.02 0 0 -203.2 -50.02 0c-5.93,0 -10.73,-1.62 -14.33,-4.94 -3.67,-3.31 -5.5,-7.62 -5.5,-12.84 0,-5.22 1.83,-9.52 5.57,-12.84 3.74,-3.32 8.47,-4.94 14.26,-4.94l135.6 0zm203.2 42.41c-1.55,-2.61 -2.96,-4.45 -4.23,-5.44 -1.34,-0.91 -3.03,-1.41 -5.08,-1.41 -1.91,0 -3.81,0.64 -5.57,1.84 -1.77,1.27 -3.18,2.82 -4.17,4.79l-38.17 75.22c-1.27,2.46 -2.26,5.5 -3.03,9.1 -0.78,3.6 -1.13,7.12 -1.13,10.51 0,3.6 0.35,7.2 1.13,10.79 0.77,3.6 1.76,6.64 3.03,9.11l38.6 75c1.41,2.61 2.75,4.44 4.16,5.43 1.34,0.92 3.1,1.41 5.15,1.41 1.9,0 3.81,-0.56 5.57,-1.76 1.77,-1.13 3.18,-2.83 4.17,-5.08l38.02 -74.79c1.2,-2.47 2.26,-5.58 3.04,-9.24 0.85,-3.6 1.27,-7.27 1.27,-10.87 0,-3.53 -0.42,-7.2 -1.27,-10.94 -0.78,-3.74 -1.84,-6.7 -3.04,-8.89l-38.45 -74.78zm33.87 -12.42l36.83 72.53c2.33,4.58 4.16,9.88 5.57,15.94 1.34,6.07 2.05,12.28 2.05,18.56 0,6.49 -0.71,12.77 -2.05,18.84 -1.41,6.07 -3.24,11.36 -5.57,15.94l-36.83 72.53c-5.79,10.87 -12,18.63 -18.56,23.15 -6.63,4.58 -14.81,6.84 -24.62,6.84 -9.95,0 -18.2,-2.26 -24.77,-6.84 -6.63,-4.52 -12.77,-12.28 -18.41,-23.15l-36.83 -72.53c-2.47,-4.86 -4.37,-10.23 -5.64,-16.22 -1.35,-6 -1.98,-12.21 -1.98,-18.56 0,-6.28 0.63,-12.49 1.98,-18.56 1.27,-6.06 3.17,-11.36 5.64,-15.94l36.83 -72.53c5.64,-10.87 11.78,-18.63 18.41,-23.14 6.57,-4.59 14.82,-6.85 24.77,-6.85 9.81,0 17.99,2.26 24.62,6.85 6.56,4.51 12.77,12.27 18.56,23.14zm130.88 -29.99l46.92 0 92.78 211.24 0 -191.41c0,-6.07 1.62,-10.87 4.87,-14.47 3.24,-3.59 7.55,-5.36 12.91,-5.36 5.08,0 9.31,1.84 12.7,5.58 3.38,3.74 5.08,8.46 5.08,14.25l0 254.49 -47.13 0 -92.57 -210.47 0 190.64c0,5.93 -1.62,10.73 -4.94,14.33 -3.32,3.67 -7.62,5.5 -12.84,5.5 -5.22,0 -9.53,-1.83 -12.84,-5.57 -3.32,-3.74 -4.94,-8.47 -4.94,-14.26l0 -254.49z"/>
  </g>
 </g>
</svg>
