<?xml version="1.0" encoding="UTF-8"?>
<!DOCTYPE svg PUBLIC "-//W3C//DTD SVG 1.1//EN" "http://www.w3.org/Graphics/SVG/1.1/DTD/svg11.dtd">
<!-- Creator: CorelDRAW -->
<svg xmlns="http://www.w3.org/2000/svg" xml:space="preserve" width="86mm" height="33mm" version="1.1" style="shape-rendering:geometricPrecision; text-rendering:geometricPrecision; image-rendering:optimizeQuality; fill-rule:evenodd; clip-rule:evenodd"
viewBox="0 0 8600 3300"
 xmlns:xlink="http://www.w3.org/1999/xlink"
 xmlns:xodm="http://www.corel.com/coreldraw/odm/2003">
 <defs>
  <style type="text/css">
   <![CDATA[
    .str1 {stroke:#FEFEFE;stroke-width:75;stroke-miterlimit:22.9256}
    .str0 {stroke:#FEFEFE;stroke-width:20;stroke-miterlimit:22.9256}
    .fil1 {fill:none;fill-rule:nonzero}
    .fil0 {fill:#FEFEFE;fill-rule:nonzero}
   ]]>
  </style>
 </defs>
 <g id="Camada_x0020_1">
  <metadata id="CorelCorpID_0Corel-Layer"/>
  <g id="_3045308191056">
   <g>
    <path class="fil0" d="M524.44 869.88l7560.92 0 0 1562.27 -7560.92 0 0 -1562.27zm114.48 156.22l7331.96 0 0 1249.83 -7331.96 0 0 -1249.83zm-114.48 -156.22l114.48 156.22 -114.48 -156.22zm0 1562.27l114.48 -156.22 -114.48 156.22zm7560.92 0l-114.48 -156.22 114.48 156.22zm0 -1562.27l-114.48 156.22 114.48 -156.22z"/>
    <path id="_1" class="fil1 str0" d="M524.44 869.88l7560.92 0 0 1562.27 -7560.92 0 0 -1562.27zm114.48 156.22l7331.96 0 0 1249.83 -7331.96 0 0 -1249.83zm-114.48 -156.22l114.48 156.22m-114.48 1406.05l114.48 -156.22m7446.44 156.22l-114.48 -156.22m114.48 -1406.05l-114.48 156.22m-3665.98 -156.22m3780.46 781.13m-3780.46 781.14m-3780.46 -781.14m3780.46 -624.91m3665.98 624.91m-3665.98 624.92m-3665.98 -624.92m-57.24 -703.02m0 1406.05m7446.44 0m0 -1406.05"/>
   </g>
   <path class="fil0" d="M1565.19 1349.6l0 328.4 179.81 0c8.89,0 16.09,2.43 21.49,7.41 5.5,4.97 8.25,11.43 8.25,19.26 0,7.83 -2.75,14.29 -8.36,19.26 -5.61,4.98 -12.7,7.41 -21.38,7.41l-233.15 0 0 -381.74c0,-9.1 2.43,-16.3 7.3,-21.7 4.87,-5.39 11.33,-8.04 19.37,-8.04 7.62,0 13.97,2.75 19.05,8.36 5.08,5.61 7.62,12.7 7.62,21.38z"/>
   <path id="_1_0" class="fil0" d="M2137.54 1319.86c8.89,0 16.09,2.43 21.49,7.41 5.5,4.97 8.25,11.43 8.25,19.26 0,7.62 -2.75,13.97 -8.36,19.05 -5.61,5.08 -12.7,7.62 -21.38,7.62l-75.03 0 0 304.8 75.03 0c8.89,0 16.09,2.43 21.49,7.41 5.5,4.97 8.25,11.43 8.25,19.26 0,7.83 -2.75,14.29 -8.36,19.26 -5.61,4.98 -12.7,7.41 -21.38,7.41l-203.41 0c-8.89,0 -16.09,-2.43 -21.48,-7.41 -5.51,-4.97 -8.26,-11.43 -8.26,-19.26 0,-7.83 2.75,-14.29 8.36,-19.26 5.61,-4.98 12.7,-7.41 21.38,-7.41l75.04 0 0 -304.8 -75.04 0c-8.89,0 -16.09,-2.43 -21.48,-7.41 -5.51,-4.97 -8.26,-11.43 -8.26,-19.26 0,-7.83 2.75,-14.29 8.36,-19.26 5.61,-4.98 12.7,-7.41 21.38,-7.41l203.41 0z"/>
   <path id="_2" class="fil0" d="M2296.93 1319.86l66.04 0 65.41 92.71 65.4 -92.71 66.04 0 0 381.74c0,8.89 -2.43,16.09 -7.41,21.49 -4.97,5.5 -11.43,8.25 -19.26,8.25 -7.83,0 -14.29,-2.75 -19.26,-8.36 -4.98,-5.61 -7.41,-12.7 -7.41,-21.38l0 -306.07 -51.43 71.01 0 11.54c0,8.89 -2.44,16.09 -7.41,21.48 -4.98,5.51 -11.43,8.26 -19.26,8.26 -7.84,0 -14.29,-2.75 -19.27,-8.36 -4.97,-5.61 -7.4,-12.7 -7.4,-21.38l0 -11.54 -51.44 -71.01 0 306.07c0,8.89 -2.43,16.09 -7.41,21.49 -4.97,5.5 -11.43,8.25 -19.26,8.25 -7.83,0 -14.29,-2.75 -19.26,-8.36 -4.98,-5.61 -7.41,-12.7 -7.41,-21.38l0 -381.74z"/>
   <path id="_3" class="fil0" d="M2922.62 1319.86c8.89,0 16.09,2.43 21.49,7.41 5.5,4.97 8.25,11.43 8.25,19.26 0,7.62 -2.75,13.97 -8.36,19.05 -5.61,5.08 -12.7,7.62 -21.38,7.62l-75.03 0 0 304.8 75.03 0c8.89,0 16.09,2.43 21.49,7.41 5.5,4.97 8.25,11.43 8.25,19.26 0,7.83 -2.75,14.29 -8.36,19.26 -5.61,4.98 -12.7,7.41 -21.38,7.41l-203.41 0c-8.89,0 -16.09,-2.43 -21.48,-7.41 -5.51,-4.97 -8.26,-11.43 -8.26,-19.26 0,-7.83 2.75,-14.29 8.36,-19.26 5.61,-4.98 12.7,-7.41 21.38,-7.41l75.04 0 0 -304.8 -75.04 0c-8.89,0 -16.09,-2.43 -21.48,-7.41 -5.51,-4.97 -8.26,-11.43 -8.26,-19.26 0,-7.83 2.75,-14.29 8.36,-19.26 5.61,-4.98 12.7,-7.41 21.38,-7.41l203.41 0z"/>
   <path id="_4" class="fil0" d="M3082.01 1319.86l262.89 0 0 68.58c0,8.89 -2.43,16.09 -7.41,21.59 -4.97,5.5 -11.43,8.25 -19.26,8.25 -7.83,0 -14.29,-2.75 -19.26,-8.36 -4.98,-5.61 -7.41,-12.8 -7.41,-21.48l0 -15.24 -51.43 0 0 328.4c0,8.89 -2.44,16.09 -7.41,21.49 -4.98,5.5 -11.43,8.25 -19.26,8.25 -7.84,0 -14.29,-2.75 -19.27,-8.36 -4.97,-5.61 -7.4,-12.7 -7.4,-21.38l0 -328.4 -51.44 0 0 15.24c0,8.89 -2.43,16.09 -7.41,21.59 -4.97,5.5 -11.43,8.25 -19.26,8.25 -7.83,0 -14.29,-2.75 -19.26,-8.36 -4.98,-5.61 -7.41,-12.8 -7.41,-21.48l0 -68.58z"/>
   <path id="_5" class="fil0" d="M3474.55 1319.86l233.15 0c8.89,0 16.09,2.43 21.49,7.41 5.5,4.97 8.25,11.43 8.25,19.26 0,7.62 -2.75,13.97 -8.36,19.05 -5.61,5.08 -12.7,7.62 -21.38,7.62l-179.81 0 0 125.73 75.67 0c8.68,0 15.66,2.43 21.06,7.41 5.4,4.97 8.05,11.43 8.05,19.26 0,7.83 -2.65,14.29 -8.05,19.26 -5.4,4.98 -12.38,7.41 -21.06,7.41l-75.67 0 0 125.73 179.81 0c8.89,0 16.09,2.43 21.49,7.41 5.5,4.97 8.25,11.43 8.25,19.26 0,7.83 -2.75,14.29 -8.36,19.26 -5.61,4.98 -12.7,7.41 -21.38,7.41l-233.15 0 0 -411.48z"/>
   <path id="_6" class="fil0" d="M3990.81 1373.2l-17.67 0 0 304.8 17.67 0c5.4,0 10.27,-1.48 14.82,-4.34 4.55,-2.86 8.15,-6.88 10.58,-12.06l54.5 -110.71c1.91,-3.7 3.18,-7.72 4.03,-11.85 0.84,-4.13 1.27,-8.68 1.27,-13.65 0,-4.66 -0.43,-9.1 -1.27,-13.23 -0.85,-4.13 -2.12,-8.15 -4.03,-11.85l-54.5 -110.07c-2.65,-5.19 -6.35,-9.31 -10.8,-12.38 -4.55,-3.07 -9.41,-4.66 -14.6,-4.66zm0 -53.34c16.72,0 31.11,4.02 43.07,12.06 11.96,8.05 22.44,20.85 31.33,38.21l55.14 109.75c3.07,6.35 5.5,13.33 7.2,20.95 1.58,7.52 2.43,15.67 2.43,24.56 0,8.89 -0.85,17.25 -2.43,24.87 -1.7,7.62 -4.13,14.71 -7.2,21.06l-55.14 109.75c-8.47,17.14 -18.84,29.84 -30.9,37.99 -12.07,8.15 -26.57,12.28 -43.5,12.28l-93.98 0c-8.89,0 -16.09,-2.43 -21.48,-7.41 -5.51,-4.97 -8.26,-11.43 -8.26,-19.26 0,-7.83 2.75,-14.29 8.36,-19.26 5.61,-4.98 12.7,-7.41 21.38,-7.41l22.97 0 0 -304.8 -22.97 0c-8.89,0 -16.09,-2.43 -21.48,-7.41 -5.51,-4.97 -8.26,-11.43 -8.26,-19.26 0,-7.83 2.75,-14.29 8.36,-19.26 5.61,-4.98 12.7,-7.41 21.38,-7.41l93.98 0z"/>
   <path id="_7" class="fil0" d="M4455.85 1319.86l233.15 0c8.89,0 16.09,2.43 21.49,7.41 5.5,4.97 8.25,11.43 8.25,19.26 0,7.62 -2.75,13.97 -8.36,19.05 -5.61,5.08 -12.7,7.62 -21.38,7.62l-179.81 0 0 125.73 75.67 0c8.68,0 15.66,2.43 21.06,7.41 5.4,4.97 8.05,11.43 8.05,19.26 0,7.83 -2.65,14.29 -8.05,19.26 -5.4,4.98 -12.38,7.41 -21.06,7.41l-75.67 0 0 125.73 179.81 0c8.89,0 16.09,2.43 21.49,7.41 5.5,4.97 8.25,11.43 8.25,19.26 0,7.83 -2.75,14.29 -8.36,19.26 -5.61,4.98 -12.7,7.41 -21.38,7.41l-233.15 0 0 -411.48z"/>
   <path id="_8" class="fil0" d="M4972.11 1373.2l-17.67 0 0 304.8 17.67 0c5.4,0 10.27,-1.48 14.82,-4.34 4.55,-2.86 8.15,-6.88 10.58,-12.06l54.5 -110.71c1.91,-3.7 3.18,-7.72 4.03,-11.85 0.84,-4.13 1.27,-8.68 1.27,-13.65 0,-4.66 -0.43,-9.1 -1.27,-13.23 -0.85,-4.13 -2.12,-8.15 -4.03,-11.85l-54.5 -110.07c-2.65,-5.19 -6.35,-9.31 -10.8,-12.38 -4.55,-3.07 -9.41,-4.66 -14.6,-4.66zm0 -53.34c16.72,0 31.11,4.02 43.07,12.06 11.96,8.05 22.44,20.85 31.33,38.21l55.14 109.75c3.07,6.35 5.5,13.33 7.2,20.95 1.58,7.52 2.43,15.67 2.43,24.56 0,8.89 -0.85,17.25 -2.43,24.87 -1.7,7.62 -4.13,14.71 -7.2,21.06l-55.14 109.75c-8.47,17.14 -18.84,29.84 -30.9,37.99 -12.07,8.15 -26.57,12.28 -43.5,12.28l-93.98 0c-8.89,0 -16.09,-2.43 -21.48,-7.41 -5.51,-4.97 -8.26,-11.43 -8.26,-19.26 0,-7.83 2.75,-14.29 8.36,-19.26 5.61,-4.98 12.7,-7.41 21.38,-7.41l22.97 0 0 -304.8 -22.97 0c-8.89,0 -16.09,-2.43 -21.48,-7.41 -5.51,-4.97 -8.26,-11.43 -8.26,-19.26 0,-7.83 2.75,-14.29 8.36,-19.26 5.61,-4.98 12.7,-7.41 21.38,-7.41l93.98 0z"/>
   <path id="_9" class="fil0" d="M5474.08 1319.86c8.89,0 16.09,2.43 21.49,7.41 5.5,4.97 8.25,11.43 8.25,19.26 0,7.62 -2.75,13.97 -8.36,19.05 -5.61,5.08 -12.7,7.62 -21.38,7.62l-75.03 0 0 304.8 75.03 0c8.89,0 16.09,2.43 21.49,7.41 5.5,4.97 8.25,11.43 8.25,19.26 0,7.83 -2.75,14.29 -8.36,19.26 -5.61,4.98 -12.7,7.41 -21.38,7.41l-203.41 0c-8.89,0 -16.09,-2.43 -21.48,-7.41 -5.51,-4.97 -8.26,-11.43 -8.26,-19.26 0,-7.83 2.75,-14.29 8.36,-19.26 5.61,-4.98 12.7,-7.41 21.38,-7.41l75.04 0 0 -304.8 -75.04 0c-8.89,0 -16.09,-2.43 -21.48,-7.41 -5.51,-4.97 -8.26,-11.43 -8.26,-19.26 0,-7.83 2.75,-14.29 8.36,-19.26 5.61,-4.98 12.7,-7.41 21.38,-7.41l203.41 0z"/>
   <path id="_10" class="fil0" d="M5633.47 1319.86l262.89 0 0 68.58c0,8.89 -2.43,16.09 -7.41,21.59 -4.97,5.5 -11.43,8.25 -19.26,8.25 -7.83,0 -14.29,-2.75 -19.26,-8.36 -4.98,-5.61 -7.41,-12.8 -7.41,-21.48l0 -15.24 -51.43 0 0 328.4c0,8.89 -2.44,16.09 -7.41,21.49 -4.98,5.5 -11.43,8.25 -19.26,8.25 -7.84,0 -14.29,-2.75 -19.27,-8.36 -4.97,-5.61 -7.4,-12.7 -7.4,-21.38l0 -328.4 -51.44 0 0 15.24c0,8.89 -2.43,16.09 -7.41,21.59 -4.97,5.5 -11.43,8.25 -19.26,8.25 -7.83,0 -14.29,-2.75 -19.26,-8.36 -4.98,-5.61 -7.41,-12.8 -7.41,-21.48l0 -68.58z"/>
   <path id="_11" class="fil0" d="M6259.16 1319.86c8.89,0 16.09,2.43 21.49,7.41 5.5,4.97 8.25,11.43 8.25,19.26 0,7.62 -2.75,13.97 -8.36,19.05 -5.61,5.08 -12.7,7.62 -21.38,7.62l-75.03 0 0 304.8 75.03 0c8.89,0 16.09,2.43 21.49,7.41 5.5,4.97 8.25,11.43 8.25,19.26 0,7.83 -2.75,14.29 -8.36,19.26 -5.61,4.98 -12.7,7.41 -21.38,7.41l-203.41 0c-8.89,0 -16.09,-2.43 -21.48,-7.41 -5.51,-4.97 -8.26,-11.43 -8.26,-19.26 0,-7.83 2.75,-14.29 8.36,-19.26 5.61,-4.98 12.7,-7.41 21.38,-7.41l75.04 0 0 -304.8 -75.04 0c-8.89,0 -16.09,-2.43 -21.48,-7.41 -5.51,-4.97 -8.26,-11.43 -8.26,-19.26 0,-7.83 2.75,-14.29 8.36,-19.26 5.61,-4.98 12.7,-7.41 21.38,-7.41l203.41 0z"/>
   <path id="_12" class="fil0" d="M6563.97 1383.47c-2.33,-3.92 -4.45,-6.67 -6.35,-8.15 -2.02,-1.38 -4.56,-2.12 -7.62,-2.12 -2.86,0 -5.72,0.95 -8.37,2.75 -2.64,1.91 -4.76,4.23 -6.24,7.2l-57.26 112.82c-1.9,3.7 -3.38,8.25 -4.55,13.65 -1.16,5.4 -1.69,10.69 -1.69,15.77 0,5.4 0.53,10.79 1.69,16.19 1.17,5.4 2.65,9.95 4.55,13.65l57.9 112.5c2.11,3.92 4.12,6.67 6.24,8.15 2.01,1.38 4.66,2.12 7.73,2.12 2.85,0 5.71,-0.85 8.36,-2.65 2.64,-1.69 4.76,-4.23 6.24,-7.62l57.04 -112.18c1.8,-3.7 3.39,-8.36 4.56,-13.86 1.27,-5.4 1.9,-10.9 1.9,-16.3 0,-5.29 -0.63,-10.8 -1.9,-16.41 -1.17,-5.61 -2.76,-10.05 -4.56,-13.33l-57.67 -112.18zm50.8 -18.63l55.24 108.8c3.49,6.87 6.24,14.81 8.36,23.91 2.01,9.11 3.07,18.42 3.07,27.84 0,9.73 -1.06,19.15 -3.07,28.26 -2.12,9.1 -4.87,17.03 -8.36,23.91l-55.24 108.8c-8.68,16.3 -18,27.94 -27.84,34.71 -9.95,6.88 -22.22,10.27 -36.93,10.27 -14.93,0 -27.31,-3.39 -37.15,-10.27 -9.95,-6.77 -19.16,-18.41 -27.62,-34.71l-55.25 -108.8c-3.7,-7.3 -6.56,-15.34 -8.47,-24.34 -2.01,-8.99 -2.96,-18.31 -2.96,-27.83 0,-9.42 0.95,-18.73 2.96,-27.84 1.91,-9.1 4.77,-17.04 8.47,-23.91l55.25 -108.8c8.46,-16.3 17.67,-27.94 27.62,-34.71 9.84,-6.88 22.22,-10.27 37.15,-10.27 14.71,0 26.98,3.39 36.93,10.27 9.84,6.77 19.16,18.41 27.84,34.71z"/>
   <path id="_13" class="fil0" d="M6811.09 1319.86l70.38 0 139.17 316.86 0 -287.12c0,-9.1 2.43,-16.3 7.3,-21.7 4.87,-5.39 11.33,-8.04 19.37,-8.04 7.62,0 13.97,2.75 19.05,8.36 5.08,5.61 7.62,12.7 7.62,21.38l0 381.74 -70.7 0 -138.85 -315.7 0 285.96c0,8.89 -2.43,16.09 -7.41,21.49 -4.97,5.5 -11.43,8.25 -19.26,8.25 -7.83,0 -14.29,-2.75 -19.26,-8.36 -4.98,-5.61 -7.41,-12.7 -7.41,-21.38l0 -381.74z"/>
   <path id="_14" class="fil1 str1" d="M1565.19 1349.6l0 328.4 179.81 0c8.89,0 16.09,2.43 21.49,7.41 5.5,4.97 8.25,11.43 8.25,19.26 0,7.83 -2.75,14.29 -8.36,19.26 -5.61,4.98 -12.7,7.41 -21.38,7.41l-233.15 0 0 -381.74c0,-9.1 2.43,-16.3 7.3,-21.7 4.87,-5.39 11.33,-8.04 19.37,-8.04 7.62,0 13.97,2.75 19.05,8.36 5.08,5.61 7.62,12.7 7.62,21.38z"/>
   <path id="_15" class="fil1 str1" d="M2137.54 1319.86c8.89,0 16.09,2.43 21.49,7.41 5.5,4.97 8.25,11.43 8.25,19.26 0,7.62 -2.75,13.97 -8.36,19.05 -5.61,5.08 -12.7,7.62 -21.38,7.62l-75.03 0 0 304.8 75.03 0c8.89,0 16.09,2.43 21.49,7.41 5.5,4.97 8.25,11.43 8.25,19.26 0,7.83 -2.75,14.29 -8.36,19.26 -5.61,4.98 -12.7,7.41 -21.38,7.41l-203.41 0c-8.89,0 -16.09,-2.43 -21.48,-7.41 -5.51,-4.97 -8.26,-11.43 -8.26,-19.26 0,-7.83 2.75,-14.29 8.36,-19.26 5.61,-4.98 12.7,-7.41 21.38,-7.41l75.04 0 0 -304.8 -75.04 0c-8.89,0 -16.09,-2.43 -21.48,-7.41 -5.51,-4.97 -8.26,-11.43 -8.26,-19.26 0,-7.83 2.75,-14.29 8.36,-19.26 5.61,-4.98 12.7,-7.41 21.38,-7.41l203.41 0z"/>
   <path id="_16" class="fil1 str1" d="M2296.93 1319.86l66.04 0 65.41 92.71 65.4 -92.71 66.04 0 0 381.74c0,8.89 -2.43,16.09 -7.41,21.49 -4.97,5.5 -11.43,8.25 -19.26,8.25 -7.83,0 -14.29,-2.75 -19.26,-8.36 -4.98,-5.61 -7.41,-12.7 -7.41,-21.38l0 -306.07 -51.43 71.01 0 11.54c0,8.89 -2.44,16.09 -7.41,21.48 -4.98,5.51 -11.43,8.26 -19.26,8.26 -7.84,0 -14.29,-2.75 -19.27,-8.36 -4.97,-5.61 -7.4,-12.7 -7.4,-21.38l0 -11.54 -51.44 -71.01 0 306.07c0,8.89 -2.43,16.09 -7.41,21.49 -4.97,5.5 -11.43,8.25 -19.26,8.25 -7.83,0 -14.29,-2.75 -19.26,-8.36 -4.98,-5.61 -7.41,-12.7 -7.41,-21.38l0 -381.74z"/>
   <path id="_17" class="fil1 str1" d="M2922.62 1319.86c8.89,0 16.09,2.43 21.49,7.41 5.5,4.97 8.25,11.43 8.25,19.26 0,7.62 -2.75,13.97 -8.36,19.05 -5.61,5.08 -12.7,7.62 -21.38,7.62l-75.03 0 0 304.8 75.03 0c8.89,0 16.09,2.43 21.49,7.41 5.5,4.97 8.25,11.43 8.25,19.26 0,7.83 -2.75,14.29 -8.36,19.26 -5.61,4.98 -12.7,7.41 -21.38,7.41l-203.41 0c-8.89,0 -16.09,-2.43 -21.48,-7.41 -5.51,-4.97 -8.26,-11.43 -8.26,-19.26 0,-7.83 2.75,-14.29 8.36,-19.26 5.61,-4.98 12.7,-7.41 21.38,-7.41l75.04 0 0 -304.8 -75.04 0c-8.89,0 -16.09,-2.43 -21.48,-7.41 -5.51,-4.97 -8.26,-11.43 -8.26,-19.26 0,-7.83 2.75,-14.29 8.36,-19.26 5.61,-4.98 12.7,-7.41 21.38,-7.41l203.41 0z"/>
   <path id="_18" class="fil1 str1" d="M3082.01 1319.86l262.89 0 0 68.58c0,8.89 -2.43,16.09 -7.41,21.59 -4.97,5.5 -11.43,8.25 -19.26,8.25 -7.83,0 -14.29,-2.75 -19.26,-8.36 -4.98,-5.61 -7.41,-12.8 -7.41,-21.48l0 -15.24 -51.43 0 0 328.4c0,8.89 -2.44,16.09 -7.41,21.49 -4.98,5.5 -11.43,8.25 -19.26,8.25 -7.84,0 -14.29,-2.75 -19.27,-8.36 -4.97,-5.61 -7.4,-12.7 -7.4,-21.38l0 -328.4 -51.44 0 0 15.24c0,8.89 -2.43,16.09 -7.41,21.59 -4.97,5.5 -11.43,8.25 -19.26,8.25 -7.83,0 -14.29,-2.75 -19.26,-8.36 -4.98,-5.61 -7.41,-12.8 -7.41,-21.48l0 -68.58z"/>
   <path id="_19" class="fil1 str1" d="M3474.55 1319.86l233.15 0c8.89,0 16.09,2.43 21.49,7.41 5.5,4.97 8.25,11.43 8.25,19.26 0,7.62 -2.75,13.97 -8.36,19.05 -5.61,5.08 -12.7,7.62 -21.38,7.62l-179.81 0 0 125.73 75.67 0c8.68,0 15.66,2.43 21.06,7.41 5.4,4.97 8.05,11.43 8.05,19.26 0,7.83 -2.65,14.29 -8.05,19.26 -5.4,4.98 -12.38,7.41 -21.06,7.41l-75.67 0 0 125.73 179.81 0c8.89,0 16.09,2.43 21.49,7.41 5.5,4.97 8.25,11.43 8.25,19.26 0,7.83 -2.75,14.29 -8.36,19.26 -5.61,4.98 -12.7,7.41 -21.38,7.41l-233.15 0 0 -411.48z"/>
   <path id="_20" class="fil1 str1" d="M3990.81 1373.2l-17.67 0 0 304.8 17.67 0c5.4,0 10.27,-1.48 14.82,-4.34 4.55,-2.86 8.15,-6.88 10.58,-12.06l54.5 -110.71c1.91,-3.7 3.18,-7.72 4.03,-11.85 0.84,-4.13 1.27,-8.68 1.27,-13.65 0,-4.66 -0.43,-9.1 -1.27,-13.23 -0.85,-4.13 -2.12,-8.15 -4.03,-11.85l-54.5 -110.07c-2.65,-5.19 -6.35,-9.31 -10.8,-12.38 -4.55,-3.07 -9.41,-4.66 -14.6,-4.66zm0 -53.34c16.72,0 31.11,4.02 43.07,12.06 11.96,8.05 22.44,20.85 31.33,38.21l55.14 109.75c3.07,6.35 5.5,13.33 7.2,20.95 1.58,7.52 2.43,15.67 2.43,24.56 0,8.89 -0.85,17.25 -2.43,24.87 -1.7,7.62 -4.13,14.71 -7.2,21.06l-55.14 109.75c-8.47,17.14 -18.84,29.84 -30.9,37.99 -12.07,8.15 -26.57,12.28 -43.5,12.28l-93.98 0c-8.89,0 -16.09,-2.43 -21.48,-7.41 -5.51,-4.97 -8.26,-11.43 -8.26,-19.26 0,-7.83 2.75,-14.29 8.36,-19.26 5.61,-4.98 12.7,-7.41 21.38,-7.41l22.97 0 0 -304.8 -22.97 0c-8.89,0 -16.09,-2.43 -21.48,-7.41 -5.51,-4.97 -8.26,-11.43 -8.26,-19.26 0,-7.83 2.75,-14.29 8.36,-19.26 5.61,-4.98 12.7,-7.41 21.38,-7.41l93.98 0z"/>
   <path id="_21" class="fil1 str1" d="M4455.85 1319.86l233.15 0c8.89,0 16.09,2.43 21.49,7.41 5.5,4.97 8.25,11.43 8.25,19.26 0,7.62 -2.75,13.97 -8.36,19.05 -5.61,5.08 -12.7,7.62 -21.38,7.62l-179.81 0 0 125.73 75.67 0c8.68,0 15.66,2.43 21.06,7.41 5.4,4.97 8.05,11.43 8.05,19.26 0,7.83 -2.65,14.29 -8.05,19.26 -5.4,4.98 -12.38,7.41 -21.06,7.41l-75.67 0 0 125.73 179.81 0c8.89,0 16.09,2.43 21.49,7.41 5.5,4.97 8.25,11.43 8.25,19.26 0,7.83 -2.75,14.29 -8.36,19.26 -5.61,4.98 -12.7,7.41 -21.38,7.41l-233.15 0 0 -411.48z"/>
   <path id="_22" class="fil1 str1" d="M4972.11 1373.2l-17.67 0 0 304.8 17.67 0c5.4,0 10.27,-1.48 14.82,-4.34 4.55,-2.86 8.15,-6.88 10.58,-12.06l54.5 -110.71c1.91,-3.7 3.18,-7.72 4.03,-11.85 0.84,-4.13 1.27,-8.68 1.27,-13.65 0,-4.66 -0.43,-9.1 -1.27,-13.23 -0.85,-4.13 -2.12,-8.15 -4.03,-11.85l-54.5 -110.07c-2.65,-5.19 -6.35,-9.31 -10.8,-12.38 -4.55,-3.07 -9.41,-4.66 -14.6,-4.66zm0 -53.34c16.72,0 31.11,4.02 43.07,12.06 11.96,8.05 22.44,20.85 31.33,38.21l55.14 109.75c3.07,6.35 5.5,13.33 7.2,20.95 1.58,7.52 2.43,15.67 2.43,24.56 0,8.89 -0.85,17.25 -2.43,24.87 -1.7,7.62 -4.13,14.71 -7.2,21.06l-55.14 109.75c-8.47,17.14 -18.84,29.84 -30.9,37.99 -12.07,8.15 -26.57,12.28 -43.5,12.28l-93.98 0c-8.89,0 -16.09,-2.43 -21.48,-7.41 -5.51,-4.97 -8.26,-11.43 -8.26,-19.26 0,-7.83 2.75,-14.29 8.36,-19.26 5.61,-4.98 12.7,-7.41 21.38,-7.41l22.97 0 0 -304.8 -22.97 0c-8.89,0 -16.09,-2.43 -21.48,-7.41 -5.51,-4.97 -8.26,-11.43 -8.26,-19.26 0,-7.83 2.75,-14.29 8.36,-19.26 5.61,-4.98 12.7,-7.41 21.38,-7.41l93.98 0z"/>
   <path id="_23" class="fil1 str1" d="M5474.08 1319.86c8.89,0 16.09,2.43 21.49,7.41 5.5,4.97 8.25,11.43 8.25,19.26 0,7.62 -2.75,13.97 -8.36,19.05 -5.61,5.08 -12.7,7.62 -21.38,7.62l-75.03 0 0 304.8 75.03 0c8.89,0 16.09,2.43 21.49,7.41 5.5,4.97 8.25,11.43 8.25,19.26 0,7.83 -2.75,14.29 -8.36,19.26 -5.61,4.98 -12.7,7.41 -21.38,7.41l-203.41 0c-8.89,0 -16.09,-2.43 -21.48,-7.41 -5.51,-4.97 -8.26,-11.43 -8.26,-19.26 0,-7.83 2.75,-14.29 8.36,-19.26 5.61,-4.98 12.7,-7.41 21.38,-7.41l75.04 0 0 -304.8 -75.04 0c-8.89,0 -16.09,-2.43 -21.48,-7.41 -5.51,-4.97 -8.26,-11.43 -8.26,-19.26 0,-7.83 2.75,-14.29 8.36,-19.26 5.61,-4.98 12.7,-7.41 21.38,-7.41l203.41 0z"/>
   <path id="_24" class="fil1 str1" d="M5633.47 1319.86l262.89 0 0 68.58c0,8.89 -2.43,16.09 -7.41,21.59 -4.97,5.5 -11.43,8.25 -19.26,8.25 -7.83,0 -14.29,-2.75 -19.26,-8.36 -4.98,-5.61 -7.41,-12.8 -7.41,-21.48l0 -15.24 -51.43 0 0 328.4c0,8.89 -2.44,16.09 -7.41,21.49 -4.98,5.5 -11.43,8.25 -19.26,8.25 -7.84,0 -14.29,-2.75 -19.27,-8.36 -4.97,-5.61 -7.4,-12.7 -7.4,-21.38l0 -328.4 -51.44 0 0 15.24c0,8.89 -2.43,16.09 -7.41,21.59 -4.97,5.5 -11.43,8.25 -19.26,8.25 -7.83,0 -14.29,-2.75 -19.26,-8.36 -4.98,-5.61 -7.41,-12.8 -7.41,-21.48l0 -68.58z"/>
   <path id="_25" class="fil1 str1" d="M6259.16 1319.86c8.89,0 16.09,2.43 21.49,7.41 5.5,4.97 8.25,11.43 8.25,19.26 0,7.62 -2.75,13.97 -8.36,19.05 -5.61,5.08 -12.7,7.62 -21.38,7.62l-75.03 0 0 304.8 75.03 0c8.89,0 16.09,2.43 21.49,7.41 5.5,4.97 8.25,11.43 8.25,19.26 0,7.83 -2.75,14.29 -8.36,19.26 -5.61,4.98 -12.7,7.41 -21.38,7.41l-203.41 0c-8.89,0 -16.09,-2.43 -21.48,-7.41 -5.51,-4.97 -8.26,-11.43 -8.26,-19.26 0,-7.83 2.75,-14.29 8.36,-19.26 5.61,-4.98 12.7,-7.41 21.38,-7.41l75.04 0 0 -304.8 -75.04 0c-8.89,0 -16.09,-2.43 -21.48,-7.41 -5.51,-4.97 -8.26,-11.43 -8.26,-19.26 0,-7.83 2.75,-14.29 8.36,-19.26 5.61,-4.98 12.7,-7.41 21.38,-7.41l203.41 0z"/>
   <path id="_26" class="fil1 str1" d="M6563.97 1383.47c-2.33,-3.92 -4.45,-6.67 -6.35,-8.15 -2.02,-1.38 -4.56,-2.12 -7.62,-2.12 -2.86,0 -5.72,0.95 -8.37,2.75 -2.64,1.91 -4.76,4.23 -6.24,7.2l-57.26 112.82c-1.9,3.7 -3.38,8.25 -4.55,13.65 -1.16,5.4 -1.69,10.69 -1.69,15.77 0,5.4 0.53,10.79 1.69,16.19 1.17,5.4 2.65,9.95 4.55,13.65l57.9 112.5c2.11,3.92 4.12,6.67 6.24,8.15 2.01,1.38 4.66,2.12 7.73,2.12 2.85,0 5.71,-0.85 8.36,-2.65 2.64,-1.69 4.76,-4.23 6.24,-7.62l57.04 -112.18c1.8,-3.7 3.39,-8.36 4.56,-13.86 1.27,-5.4 1.9,-10.9 1.9,-16.3 0,-5.29 -0.63,-10.8 -1.9,-16.41 -1.17,-5.61 -2.76,-10.05 -4.56,-13.33l-57.67 -112.18zm50.8 -18.63l55.24 108.8c3.49,6.87 6.24,14.81 8.36,23.91 2.01,9.11 3.07,18.42 3.07,27.84 0,9.73 -1.06,19.15 -3.07,28.26 -2.12,9.1 -4.87,17.03 -8.36,23.91l-55.24 108.8c-8.68,16.3 -18,27.94 -27.84,34.71 -9.95,6.88 -22.22,10.27 -36.93,10.27 -14.93,0 -27.31,-3.39 -37.15,-10.27 -9.95,-6.77 -19.16,-18.41 -27.62,-34.71l-55.25 -108.8c-3.7,-7.3 -6.56,-15.34 -8.47,-24.34 -2.01,-8.99 -2.96,-18.31 -2.96,-27.83 0,-9.42 0.95,-18.73 2.96,-27.84 1.91,-9.1 4.77,-17.04 8.47,-23.91l55.25 -108.8c8.46,-16.3 17.67,-27.94 27.62,-34.71 9.84,-6.88 22.22,-10.27 37.15,-10.27 14.71,0 26.98,3.39 36.93,10.27 9.84,6.77 19.16,18.41 27.84,34.71z"/>
   <path id="_27" class="fil1 str1" d="M6811.09 1319.86l70.38 0 139.17 316.86 0 -287.12c0,-9.1 2.43,-16.3 7.3,-21.7 4.87,-5.39 11.33,-8.04 19.37,-8.04 7.62,0 13.97,2.75 19.05,8.36 5.08,5.61 7.62,12.7 7.62,21.38l0 381.74 -70.7 0 -138.85 -315.7 0 285.96c0,8.89 -2.43,16.09 -7.41,21.49 -4.97,5.5 -11.43,8.25 -19.26,8.25 -7.83,0 -14.29,-2.75 -19.26,-8.36 -4.98,-5.61 -7.41,-12.7 -7.41,-21.38l0 -381.74z"/>
  </g>
 </g>
</svg>
