<?xml version="1.0" encoding="UTF-8"?>
<!DOCTYPE svg PUBLIC "-//W3C//DTD SVG 1.1//EN" "http://www.w3.org/Graphics/SVG/1.1/DTD/svg11.dtd">
<!-- Creator: CorelDRAW -->
<svg xmlns="http://www.w3.org/2000/svg" xml:space="preserve" width="210mm" height="297mm" version="1.1" style="shape-rendering:geometricPrecision; text-rendering:geometricPrecision; image-rendering:optimizeQuality; fill-rule:evenodd; clip-rule:evenodd"
viewBox="0 0 21000 29700"
 xmlns:xlink="http://www.w3.org/1999/xlink"
 xmlns:xodm="http://www.corel.com/coreldraw/odm/2003">
 <defs>
  <style type="text/css">
   <![CDATA[
    .fil0 {fill:#3E4095}
   ]]>
  </style>
 </defs>
 <g id="Camada_x0020_1">
  <metadata id="CorelCorpID_0Corel-Layer"/>
  <g id="_3045262211152">
   <path class="fil0" d="M8922.79 13665.48c0,-160.2 7.81,-311.02 76.2,-440.27 145.3,3.24 326.82,52.56 429.85,154.35 195.88,193.5 230.34,508.8 117.87,748.97 -20.9,44.62 -112.82,180.41 -141.32,180.41 -25.6,0 -67.1,-18.79 -92.06,-26.47 -32.05,-9.87 -61.9,-18.23 -100.46,-26.54 -101.95,-21.99 -138.7,-31.65 -256.22,-31.65 0,-167.28 -33.86,-375.14 -33.86,-558.8zm-76.2 -465.67c-20.22,30.19 -129.24,91.85 -198.39,258.81 -81.82,197.56 -98.32,392.1 -67.7,608.41 9.36,66.12 6.96,132.78 20.55,191.11 -99.72,47.85 -199.43,47.7 -362.95,170.45 -28.79,21.62 -85.79,60.37 -94.25,92.02 177.61,-41.38 278.21,-50.8 474.14,-50.8 0,75.95 25.4,189.81 25.4,313.27 0,109.87 5.6,210.91 -70.91,310.09 -21.76,28.21 -30.57,22.23 -47.63,45.51 136.36,-3.04 255.41,-123.47 307.48,-217.46 62.61,-113.03 132.79,-228.94 132.79,-400.61 90.48,21.08 195.59,65.28 262.47,110.07l226.09 -188.77c130.81,-109.99 343.56,-289.33 411.77,-426.44 27.36,-55 42.51,-86.64 58.21,-153.46 121.45,-516.96 -225.22,-848.06 -681.22,-939.52 -425.71,-85.38 -883.83,-24.43 -1217.12,-247.62 12.44,53.39 89.26,168.79 124.71,205.5 146.74,151.94 320.46,279.14 544.11,302.55 53.53,5.61 94.04,16.89 152.45,16.89z"/>
   <path class="fil0" d="M13342.39 14749.21c-26.54,-23.07 -93.13,-56.05 -93.13,-118.53l0 -668.87c0,-106.4 83.77,-202.37 160.87,-254 38.62,10.31 63.25,36.23 79.21,73.19 19.71,45.66 14.16,86.65 13.9,146.97 -0.28,64.38 8.7,95.82 8.78,152.08l-0.29 533.69c0,23.59 -16.59,25.63 -37.02,39.19 -19.6,13 -25.3,18.09 -44.03,32.17 -32.25,24.23 -56.67,42.94 -88.29,64.11zm-423.33 -770.47l0 660.4c0,150.64 116.2,288.56 246.8,346.7 51.59,22.97 49.36,9.05 175.31,-85.45l170.56 -125.78c0,225.58 51.74,508.76 -145.27,625.21 -92.93,54.92 -210.33,19.79 -210.33,-108.74 0,-54.49 48,-74.67 67.73,-101.6 -62.81,-14.64 -139.7,-41.26 -204.83,40.7 -156.37,196.82 91.87,433.43 272.56,433.43 188.32,0 271.23,-56.72 400.09,-184.11 64.71,-63.97 117.82,-150.49 137.08,-243.92 27.73,-134.56 4.16,-155.85 4.5,-240.64l0.31 -1160.24c0.93,-147.38 -66.53,-265.4 -183.64,-332.83 -115.07,-66.26 -85.66,-51.05 -179.35,-13.01 -159.26,64.66 -551.52,307.21 -551.52,489.88z"/>
   <path class="fil0" d="M4697.92 13462.28c0,32.93 -3.79,35.37 7.16,60.56 33.07,76.08 18.24,76.24 18.24,193.44l8.46 1405.46c0,548.36 19.73,1130.61 16.88,1684.93 -1.66,322.21 58.85,423.65 137.21,709.46 11.73,42.81 29.21,62.76 41.71,102.22 13.38,42.3 11.76,72.69 66.67,77.26 0,-67.29 6.88,-43.72 29.75,-88.78l154.04 -471.6c2.53,-45.6 -10.03,-43.19 6.15,-104.76 26.3,-100.13 30.22,-179.11 15.57,-285.44 -13.83,-100.42 -9.21,-121.29 31.56,-124.68l0 -2040.47c-82.99,-43.91 -21.66,-44.71 -76.2,-59.27 -42.85,31.39 -42.19,151.76 -42.46,228.7 -0.19,56.88 8.32,77 8.93,126.56 8.02,649.77 -0.34,1351.11 -0.34,2006.94l-49.74 305.86c-17.01,56.69 -82.39,229.72 -85.73,269.88l-25.4 0c0,-67.68 -25.16,-96.03 -41.36,-144.91 -16.26,-49.08 -36.24,-100.93 -50.15,-144.58 -17.52,-54.95 -1.14,-125.13 -17.43,-168.84 -8.66,-23.23 -7.88,-11.56 -13.39,-28.94 -38.52,-121.68 10.98,-1257.46 -4.9,-1468.3 -4.65,-61.65 -25.9,-70.49 -25.37,-152.43 0.36,-57.19 5.12,-119.36 -3.38,-174.44 -23.21,-150.47 28.98,-73.44 28.98,-155.97 0,-41.31 -33.86,9.2 -33.86,-118.53l0 -770.47c0,-131.81 8.46,-232.89 8.46,-364.06 89.43,23.88 41.88,320.65 42.28,397.87l0.06 1871.2c0,56.48 19.34,77.18 24.52,119.4 21.53,175.24 -48.97,875.92 60.14,955.86l0 -3725.33c-76.11,0 -59.28,-9.21 -59.26,143.93 0,56.44 0,112.89 0,169.33 -34.38,-9.18 -67.74,-55.76 -67.74,-110.06 0,-33.58 8.81,-45.55 14.86,-69.82 8.74,-35.06 7.01,-44.27 10.89,-82.24 4.37,-42.84 12.22,-30.84 21.37,-63.29 7.56,-26.8 3.68,-60.44 3.68,-89.45l-25.4 0 0 -135.47c-39.81,-21.07 -42.04,-40.87 -84.66,-50.8 0,65.29 3.25,139.05 0.06,203.27l-23.85 128.54c-8.72,30.61 8.27,22.84 -27.01,32.26z"/>
   <path class="fil0" d="M16796.8 13682.41c28.3,7.56 36.87,23.87 57.25,44.35 20.22,20.31 35.13,33.26 48.87,61.2 29.1,59.18 20.88,117.38 20.88,199.25 0,143.93 0,287.87 0,431.8 0,162.52 -14.57,275.15 44.96,386.84 41.96,78.72 167.78,188.89 242.9,188.89 0.95,0 63.16,-47.34 72.57,-54.43 32.49,-24.51 210.16,-159.81 232.24,-165.7 11.79,50.61 38.38,99.88 69.68,133.52 38.24,41.09 66.62,60.18 116.58,86.61l61.68 -48.39c32.52,-24.35 165.93,-130.83 192.32,-137.87l0 -16.94c-119.35,-31.87 -140.33,-247.24 -122.1,-367.64 8.49,-56.13 3.57,-552.24 3.57,-631.42 0,-77.23 -14.16,-133.58 -47.19,-181.41 -29.61,-42.88 -73,-96.23 -122.08,-116.07 -40.77,-16.49 -76.9,26.94 -139.15,73.72l-140.32 96.76c13.37,50.03 118.54,69.74 118.54,220.13l0 728.13c0,26.4 -134.65,117.91 -160.87,135.47 -114.04,-60.34 -101.6,-113.99 -101.6,-279.4l0.01 -584.2c0.14,-117.18 -19.79,-214.36 -83.27,-306.2 -95.05,-137.52 -118.3,-86.8 -169.52,-48.18l-130.55 98.05c-25,18.61 -49.04,28.7 -65.4,53.13z"/>
   <path class="fil0" d="M15603 13690.88c44.6,11.91 73.91,63.03 93.5,101.23 30.01,58.53 25.08,92.53 25.03,178.17 -0.09,152.02 -11.76,681.9 14.87,789.46 24.54,99.19 91.69,181.63 171.4,235 31.92,-8.52 99.83,-66.42 130.62,-89.51 46.47,-34.83 85.59,-65.78 131.84,-96.75 -30.36,-41.44 -127,-66.42 -127,-245.54l0 -694.26c0,-22.51 144.92,-119.12 169.34,-135.47 110.84,58.65 101.6,117.75 101.6,279.4 0,139.84 -14.89,661.92 13.73,756.74 27.97,92.66 86.57,173.5 164.07,225.39 34.86,-8.12 99.71,-64.2 131.84,-88.29 30.8,-23.08 98.7,-80.98 130.62,-89.51 -9.72,-36.43 -20.96,-27.16 -48.93,-52.66 -78.96,-71.99 -69.6,-158.74 -69.6,-260.6 0.01,-143.94 0,-287.87 0,-431.8 0,-239.32 19.62,-358.64 -137.44,-506.03 -19.64,-18.44 -113.18,-78.17 -141.96,-78.17 -15.18,0 -198.15,137.95 -233.45,164.48 -29.5,22.19 -48.55,39.11 -79.82,55.65 -13.31,-57.15 -39.72,-98.51 -74.09,-137.58 -19.26,-21.89 -34.94,-33.44 -58.77,-51.41 -63.42,-47.84 -61.27,-25.15 -188.87,70.46 -24.87,18.63 -110.27,70.63 -118.53,101.6z"/>
   <path class="fil0" d="M5095.85 13919.48l25.4 0 0 389.46 -25.4 0 0 -389.46zm423.33 372.53c4,-3.99 47.99,4.61 15.27,4.55 -0.02,0 -1.22,-0.16 -1.32,-0.18 -7.5,-1.94 -28.23,9.92 -13.95,-4.37zm67.74 -16.93c0,-21.66 13.4,-1.36 5.03,0 -0.1,0.01 -5.03,23.63 -5.03,0zm16.93 -25.4c0,-22.99 30.29,-0.01 7.59,0.46 -8.55,0.18 -7.59,18.79 -7.59,-0.46zm50.8 -42.34l16.93 0 0 25.4c-32.44,-22.54 -3.56,0.04 -16.93,-25.4zm42.33 -25.4l0 25.4 -16.93 0c5.56,-23.21 -3.44,-13.18 16.93,-25.4zm8.47 -25.4l16.93 0 0 25.4 -16.93 0 0 -25.4zm25.4 0l0 -25.4 25.4 0c-6.6,18.25 2.3,5.82 -9.21,16.2 -3.97,3.58 -13.7,5.97 -16.19,9.2zm25.4 -50.8l25.4 0 0 16.94 -25.4 0 0 -16.94zm25.4 -50.8l25.4 0 0 42.34 -25.4 0 0 -42.34zm33.87 -16.93c0,-22.99 30.29,0 7.59,0.46 -8.55,0.18 -7.59,18.79 -7.59,-0.46zm33.86 -16.93c-21.89,2.71 -2.58,-28.62 -0.27,-10.51l0.27 10.51zm93.14 -524.94l25.4 0 0 76.2 -25.4 0 0 -76.2zm50.8 -211.66l25.4 0 0 50.8 -25.4 0 0 -50.8zm-635 -372.54l25.4 0 0 -25.4 -25.4 0 0 25.4zm423.33 651.94c0,185.15 13.73,192.67 -64.91,349.95 -117.96,235.91 -54.37,183.88 -251.48,315.79 -15.13,10.12 -172.62,79.32 -208.54,79.32l-25.4 0c0,-174.2 9.2,-745.55 -8.13,-880.87 -5.71,-44.6 -2.97,-18.4 -12.26,-47.23 -3.13,-9.7 -8.76,-38.18 -9.07,-47.5 -1.79,-52.92 4.06,-163.11 4.06,-235.13 -92.31,7.68 -118.54,172.46 -118.54,228.6 0,43.44 10.53,69.3 22.23,104.78 51.59,156.41 39.15,136.28 -7.66,231.52 -14.95,30.42 -15.04,30.28 -31.5,36.23l0 -313.26 -59.27 0 0 956.73c45.37,1.01 57.93,11.81 88.16,30.38 20.33,12.48 22.01,12.43 41.28,17.98l31.9 10.44c1.71,0.83 3.68,2.24 5.35,3.11 121.99,63.49 325.72,60.56 462.35,8.33 49.63,-18.97 160.61,-94.61 209.31,-129.36 23.73,-16.93 39.46,-35.72 61.28,-57.26 77.8,-76.77 39.43,-84.45 107.91,-120.69l0 -59.26c62.99,-5.25 72.12,-94.84 115.76,-189.04 28.92,-62.42 8.67,-69.21 24.73,-127.67 8.41,-30.61 13.6,-25.63 19.25,-56.95 15.02,-83.34 11.67,-113.51 -10.7,-198.71 -43.5,-165.59 50.91,-9.86 -109.53,-330.75 -43.28,-86.55 -46.52,-115.87 -127.51,-168.82 -56.38,-36.85 -115.07,-88 -208.34,-88 0,121.54 20.45,-18.63 169.51,177.63 19.78,26.04 45.04,58.79 61.98,90.42 22.2,41.42 28.21,73.19 39.45,121.42 -39.01,-26.13 -85.52,-140.48 -150.21,-213.86 -22.5,-25.53 -186.25,-141.8 -222.33,-150.21 2.14,95.82 106.4,106.22 187.97,243.83 71.91,121.3 150.99,221.65 125.3,331.91l-16.93 0c0,-85.16 -136.76,-308.71 -192.68,-357.66l-227.99 -186.88c-42.96,-32.33 -43.78,-31.2 -112.73,-31.2 13.12,49.13 95.11,60.27 150.51,111.95 23.1,21.56 40.34,41.07 63.31,63.69 34.44,33.92 35.45,33.9 57.19,78.28 61.21,124.93 126.92,232.14 126.92,398.02z"/>
   <path class="fil0" d="M13994.33 15562.01c0,129.69 31.67,190.26 120.46,277.47 58.07,57.03 139.22,99.4 212.42,143.19 41.88,25.05 446.05,260.43 446.05,273.61 0,81.05 -76.17,245.53 -143.93,245.53 -131.72,0 -412.21,-391.31 -675.29,-124.96 -45.38,45.95 -123.29,132.05 -129.05,201.16 299.16,-200.32 436.13,170.36 666.78,150.5 90.88,-7.82 104.29,-37.78 151.91,-93.81l392.05 -573.15 -239.74 -141.26c-162.86,-97.15 -463.35,-233.92 -538.3,-409.97 -24.89,-58.44 -26.3,-85.79 -26.3,-168.44 66.9,35.4 106.87,74.64 206,124.21 204.9,102.45 274.57,69.45 456.37,-79.91 63.44,-52.13 122.21,-103.86 167.37,-171.3 -38.2,8.9 -63.99,30.84 -106.72,45.68 -334.62,116.17 -424.02,-143.63 -621.42,-189.62l-239.38 175.49c-34.03,34.14 -99.28,234.49 -99.28,315.58zm-177.8 1016l2.52 2.53c-0.16,-0.17 -1.68,-3.37 -2.52,-2.53z"/>
   <path class="fil0" d="M18041.4 13978.74c0,247.6 330.48,313.04 485.36,437.51 159.97,128.56 136.3,324.49 48.04,324.49 -123.33,0 -247.1,-134.74 -270.93,-237.06 -26.39,17.67 -245.54,173.78 -245.54,186.26 0,168.94 287.03,379.64 451.69,282.36 20.9,-12.35 34.28,-24.45 53.9,-39.23 22.02,-16.58 35.47,-26.62 58.06,-43.55 41.78,-31.32 74.78,-56.08 116.1,-87.1 136.08,-102.13 149.99,-151.72 149.99,-324.14 0,-109.94 -24.56,-167.68 -74.85,-229.95 -130.78,-161.93 -500.89,-254.89 -500.89,-430.45 0,-103.05 160.42,-139.19 338.67,127 46.39,-12.39 184.04,-140.79 254,-177.8 -31.5,-135.22 -208.57,-287.87 -397.93,-287.87 -19.45,0 -117.69,79.8 -140.31,96.76l-141.56 103.97c-93.32,70.22 -183.8,139.31 -183.8,298.8z"/>
   <path class="fil0" d="M10294.39 14241.21l-12.92 -208.54c1.85,-26.56 4.05,-48.42 4.21,-79.56 0.47,-86.61 37.73,-196.6 67.98,-253.77 34.48,23.1 144.34,190.03 178.99,235.88 23.56,31.18 39.48,50.71 58.07,85.86l-296.33 220.13zm-287.87 8.47c0,262.72 84.69,533.29 284.33,663.94 65.7,43 148.79,81.12 249.07,81.12 17.86,0 337.87,-244.45 355.6,-270.93l-152.4 8.47c-166.03,0 -290.27,-98.21 -365.84,-218.36 -31.49,-50.08 -33.95,-88.19 -57.49,-137.24 47.59,-31.87 90.53,-70.15 139.09,-106.45 51.93,-38.82 92.32,-71.5 143.93,-110.07l284.25 -215.28c-10.69,-40.01 -143.61,-209.21 -169.28,-245.6l-177.86 -245.47c-367.24,85.56 -533.4,422 -533.4,795.87z"/>
   <path class="fil0" d="M12182.46 14241.21c0,-39.46 -5.48,-35.5 -7.97,-68.23 -12.22,-160.7 -5.6,-335.99 67.24,-473.64 24.9,16.68 217.08,283.98 237.06,321.74 -29.84,15.79 -47.94,31 -74.24,52.75 -24.84,20.54 -45.88,35.22 -72.1,54.9 -52.48,39.39 -96.96,76.97 -149.99,112.48zm-287.87 8.47c0,320.35 124.54,668.05 462.1,740.28 88.02,18.84 69.27,12.69 157.19,-53.26 40.95,-30.72 253.48,-188.65 269.71,-212.89l-152.4 8.47c-147.53,0 -247.84,-66.52 -323.76,-158.85 -16.72,-20.33 -27.92,-37 -42.08,-59.51 -21.35,-33.96 -47.59,-94.76 -57.49,-137.24 23.02,-15.42 44.3,-34.16 66.57,-51.97l216.54 -164.46c27.26,-20.56 44.71,-35.9 71.26,-55.73 26.33,-19.67 45.5,-34.1 71.6,-55.41 35.01,-28.6 120.3,-84.05 141.3,-112.7 -106.95,-159.7 -245.13,-330.27 -347.14,-482.6 -370.82,86.39 -533.4,420.81 -533.4,795.87z"/>
   <path class="fil0" d="M13968.93 13690.88c44.6,11.91 73.91,63.03 93.5,101.23 30.02,58.53 25.08,92.53 25.03,178.17 -0.07,123.45 -7.77,728.49 5.89,798.44 24.75,126.81 141.99,226.02 180.38,226.02 17.24,0 158.58,-110.16 194.68,-135.52 22.46,-15.77 45.24,-35.64 67.78,-50.74 -11.15,-15.22 -118.53,-89.43 -118.53,-194.74l0 -745.06c0,-27.29 43.45,-49.45 72.56,-71.38 29.82,-22.45 59.97,-45.12 88.31,-64.09 78.8,41.7 73.97,60.95 101.6,118.53 33.85,-9.03 216.15,-155.25 262.47,-186.26 -11.37,-42.58 -54.76,-80.48 -88.1,-106.64 -141.95,-111.37 -139.91,-75.78 -288.06,35.28 -54.05,40.52 -103.11,77.44 -157.25,113.69 -12.1,-25.23 -11.55,-43.88 -27.88,-73.72 -22.88,-41.79 -120.48,-162.13 -172.03,-135.46 -17.29,8.93 -41.34,30.24 -58.93,43.47 -32.55,24.47 -171.92,113.19 -181.42,148.78z"/>
   <path class="fil0" d="M10946.32 13690.88c44.84,11.97 73.67,63.09 93.42,101.32 32.65,63.2 25.14,86.63 25.12,178.08 -0.03,123.73 -7.81,728.31 5.89,798.44 23.66,121.23 140.97,226.02 180.37,226.02 20.61,0 219.99,-157.81 262.47,-186.26 -11.15,-15.22 -118.53,-89.43 -118.53,-194.74l0 -745.06c0,-34.14 136.97,-119.47 160.86,-135.47 78.81,41.7 73.97,60.95 101.6,118.53 31.92,-8.52 99.83,-66.43 130.63,-89.51 46.47,-34.83 85.59,-65.78 131.84,-96.75 -21.04,-78.82 -183,-177.8 -220.13,-177.8 -18.48,0 -269.63,190.91 -313.27,220.13 -12.03,-25.07 -11.91,-43.57 -27.97,-73.63 -22.36,-41.82 -120.36,-162.23 -171.95,-135.55l-214.25 159.07c-15.71,12.25 -19.94,10.11 -26.1,33.18z"/>
   <path class="fil0" d="M6670.65 12437.81l-254 0c-51.08,0 -71.64,-11.82 -111.22,-15.78 -19.53,-1.96 -37.13,-0.43 -56.76,-2.51 -24.72,-2.6 -26.3,-7.02 -60.7,-7.75 -47.72,-1.02 -118.03,26.04 -228.52,26.04l-736.6 0 0 76.2 1507.07 0 0 1498.6c0,25.34 -19,29.06 -34.93,41.27 -60.85,46.64 -69.32,106.74 -117.47,119.6 0,-70.84 -10.05,-1240.67 7.05,-1296.82 28.28,-92.88 18.35,-82.99 18.35,-201.79l-423.33 0c13.86,51.93 51.65,60.97 118.55,59.93 54.31,-0.85 64.32,-9.12 169.31,-9.12l50.8 0c0,221 8.47,413.66 8.47,635l0 541.86c0,83.79 -0.05,224.07 -24.37,288.9 -13.79,36.78 -9.08,54.27 -9.19,100.88 -0.16,63.85 -67.43,271.41 -90.26,341.54 -34.19,104.98 -113.86,415.42 -155.91,487.56l-162.06 269.73c-102.54,156.77 -374.78,450.86 -508.48,575.26l-182.95 138.78c-55.37,40.14 -60.58,0.95 -60.58,91.82 71.16,-1.58 87.66,-23.61 124.77,-61.49 41.02,-41.86 64.98,-44.2 108.97,-77.3l200.17 -180.83c29.32,-29.31 68.19,-63.24 92.46,-93.81 41.02,-51.68 17.54,-42.25 85.33,-109.4 37.17,-36.83 56.85,-53.45 87.65,-98.62 87,-127.6 151.28,-188.14 232.09,-343.64 87,-167.38 135.27,-386.8 195.67,-566.33 15.29,-45.45 27.65,-91.25 44.39,-141.88 14.06,-42.55 24.35,-71.59 27.14,-116.3 3.06,-48.83 -4.84,1.46 -4.84,-39.2 0,-48.51 97.54,-135.94 129.15,-167.18 42.82,-42.32 100.17,-130.45 158.72,-146.09l0 -1625.6 -25.4 0 0 -25.4 -84.67 0c-5.12,19.18 -8.14,33.87 -33.87,33.87z"/>
   <path class="fil0" d="M3292.45 14249.68c0,24.15 18.19,26.3 51.06,50.53l143.67 161.13c38.61,50.38 58.81,47.53 78.14,125.07l88 318.4c45.64,141.66 137.47,272.02 212.25,405.81 103,184.26 146.61,272.45 280.68,430.53 25.47,30.03 64.95,93.38 89.46,113.74l105.35 97.85c24.45,19.51 31.45,24.29 54.21,47.39 37.45,38.02 69.02,60.04 105.81,97.39 15.12,15.35 108.04,106.84 117.14,57.85 13.46,-72.54 -320.88,-294.74 -430.85,-480.75 -30.94,-52.32 -162.79,-205.36 -212.03,-295.96 -105.89,-194.83 -201.68,-345.42 -266.2,-555.08 -30.5,-99.12 -95.89,-317.09 -94.66,-413.34 0.93,-72.55 -2.72,-39.33 -19.61,-81.99 -28.38,-71.68 9.68,-211.87 -13.19,-291.61 -47.69,-166.3 -0.99,-541.28 -17.97,-744.03 -3.81,-45.57 -28.45,-50.92 -59.59,-67.4l-10.51 660.36c0.22,95.96 11.38,168.46 10.51,254.04 -1.11,107.99 23.75,171.59 25.4,245.53 -19.11,-12.79 -21.02,-21.11 -36.44,-39.76 -13.84,-16.74 -26.5,-27.27 -42,-42.67 -16.93,-16.81 -73.96,-73.59 -73.96,-86.9l0 -1701.8 982.19 -0.06c62.01,-0.32 88.25,8.74 143.58,8.81 129.66,0.19 220.43,22.29 220.43,-84.95 -261.67,0 -680.14,12.8 -924.22,-15.81 -112.31,-13.16 -211.48,44.82 -386.96,-2.29 -27.67,-7.43 -82.45,-15.77 -119.69,-15.77l0 1845.74z"/>
   <path class="fil0" d="M14984.93 13673.94c38.77,57.9 128.34,74.22 127.11,279.29l0.73 812.07c10.52,88.18 106.98,211.17 185.43,229.44 33.23,-17.58 246.59,-173.07 262.46,-194.73 -38.52,-10.29 -84.77,-70.01 -100.35,-102.85 -26.77,-56.44 -26.75,-94.75 -26.65,-176.55 0.14,-115.84 7.93,-748.67 -4.63,-808.17 -22.74,-107.86 -98.72,-180.89 -181.63,-224.76 -32.55,21.79 -234.85,178.89 -262.47,186.26z"/>
   <path class="fil0" d="M3038.45 16281.68c2.16,-17.41 44.7,2.08 7.93,0.8 -3.25,-0.11 -10.29,18.18 -7.93,-0.8zm16.93 -33.87l50.8 0 0 25.4c-60.67,0 -34.07,6.43 -50.8,-25.4zm59.27 -16.93c0,-22.99 30.29,-0.01 7.59,0.46 -8.55,0.18 -7.59,18.79 -7.59,-0.46zm-194.74 -8.47l0 16.94 -25.4 0c13.35,-19.21 1.6,-9.9 25.4,-16.94zm218.73 -15.52l235.98 -232.51c13.67,-11.42 21.72,-20.81 34.34,-33.39l186.29 -211.65c21.7,-21.6 37.91,-32.72 43.17,-58.42 2.05,-10 1.16,-22.35 1.16,-32.71 -90.9,0 -56.04,25.26 -113.69,64.11 -47.7,32.15 -39.79,18.14 -84.61,76.25 -47.4,61.43 -110.14,95.35 -163.72,149.55 -95.93,97.02 -97.98,118.19 -203.78,185.69 -34.05,21.73 -55.05,49.11 -83.41,77.45 -23.83,23.82 -18.59,22.69 -61.99,22.69 36.53,-69.04 66.23,-87.35 129.12,-150.29l177.77 -169.36c15.68,-14.32 23.73,-17.06 36.48,-31.25 65.25,-72.65 75.94,-146.36 107.34,-180.53 46.1,-50.16 48.83,-48.62 48.83,-95.11 -49.76,4.14 -10.24,16.93 -76.2,16.93 25.64,-48.46 41.27,-45.65 78.48,-82.38 45.86,-45.27 48.52,-35.27 48.52,-120.82l-159.29 103.18 -451.75 488.06c-19.39,24.41 -35.83,53.12 -54.44,81.03 -68.93,103.39 -156.64,222.89 -199.3,342.56 -13.46,37.74 -19.16,59.47 -38.44,97.03 -15.73,30.65 -49.75,132.75 -11.19,132.75 36.31,0 290.47,-136.89 338.68,-160.86 126.84,-63.07 347.89,-208.18 450.84,-311.16l252.03 -255.97c17.8,-24.97 30.61,-50.76 52.55,-74.45 24.12,-26.03 49.23,-36.36 65.84,-61.17 -23.26,-31.74 -29.11,-36.54 -50.8,-42.33l-179.9 192.64c-83.14,83.89 -178.26,157.73 -275.63,223.9 -23.88,16.24 -54.89,35.91 -69.41,57.6l-9.87 -7.06zm314.68 -653.35c-37.01,19.59 -20.98,-6.53 -25.4,33.87 30.52,-8.15 22.64,-0.77 25.4,-33.87zm-313.27 270.94c9,-9 32.11,13.44 9.43,4.4 -0.19,-0.08 -23.61,9.78 -9.43,-4.4zm50.8 -42.34c2.16,-17.4 44.7,2.08 7.93,0.81 -3.25,-0.11 -10.29,18.17 -7.93,-0.81zm25.4 -16.93c4.14,-49.78 31.86,-82.8 76.2,-93.13 -11.55,49.58 -28.24,80.33 -76.2,93.13zm127 -152.4l0 50.8 -42.34 0c7.4,-27.68 21.25,-36.68 42.34,-50.8z"/>
   <path class="fil0" d="M15772.33 15993.81c0,-108.12 1.27,-185.79 50.8,-279.4 214.1,17.82 186.27,517.55 186.27,711.2 -45.06,-21.62 -64.65,-22.27 -103.75,-57.12 -97.95,-87.33 -133.32,-229.08 -133.32,-374.68zm-194.73 101.6c0,460.4 324.03,566.71 392.27,519.87 71.33,-48.97 152.12,-120.53 242.73,-181.2 0,-217.71 64.28,-739.78 -215.15,-868.82 -34.25,-15.81 -42.3,-21.51 -77.96,-9.4 -114.71,38.97 -191.76,97.19 -250.61,190.57 -51.87,82.29 -91.28,217.73 -91.28,348.98z"/>
   <path class="fil0" d="M6838.17 16275.03c27.32,4.99 20.41,-1.92 27.22,23.58l-27.22 -23.58zm162.68 -27.22l16.94 0 0 25.4 -16.94 0 0 -25.4zm-186.26 0l25.4 0 0 16.94 -25.4 0 0 -16.94zm160.86 -16.93c0,-22.57 27.71,-1.3 9.91,0.33 -0.12,0.01 -2.13,0.13 -2.32,0.13 -8.55,0.18 -7.59,18.79 -7.59,-0.46zm-457.2 -567.27c14.63,30.48 10.18,56.32 32.2,86.34l372.2 381.33c27.89,27.09 40.27,33.81 44.34,82.67 -33.09,-8.84 -130.95,-93.19 -154.32,-116.63 -30.62,-30.7 -46.92,-29.87 -76.65,-58.81l-208.04 -206.83c-30.91,-24.65 -43.1,-36.13 -71.11,-64.35 -32.72,-32.98 -33.83,-52.92 -91.02,-52.92 8.97,38.48 64.38,114.65 88.04,149.03 52.35,76.1 111.04,106.39 141.8,163 13.9,25.57 0.99,14.75 22.03,37.24l130.35 106.72c9.72,8.88 51.01,58.43 58.05,68.95 -59.56,-1.33 -79.18,-50.5 -134.21,-94.4l-252.78 -221.35c-70.84,-58.59 -40.81,-99.12 -137.94,-99.12 0,107.86 13.81,52 84.66,160.86 41.66,64.01 91.69,117.05 157.3,155.98 80.08,47.52 83.42,112.89 370.25,273.21l130.95 80.72c28.96,17.59 47.72,16.24 75.6,34.47 33.77,22.08 32.21,20.56 75.37,34.69 28.43,9.31 57.39,19.52 88,22.07 3.51,42.13 5.48,26.59 40.92,43.75 27.88,13.49 22.51,15.52 69.15,15.52 -8.44,-17.59 -21.01,-65.52 -28.35,-90.19 -12.03,-40.48 -18.78,-57.38 -33.35,-93.65 -49.25,-122.63 -96.87,-220.44 -174.04,-325.49 -154.27,-209.99 -150.97,-186.26 -359.05,-394.49 -20.16,-20.18 -37.69,-40.91 -60.47,-58.06 -27.75,-20.88 -50.98,-28.12 -78.18,-48.82 -44.38,-33.76 -61.23,-104.99 -147.1,-106.91 2.32,103.93 57.33,50.54 107.49,171.92 0.53,1.3 1.43,4.08 2.58,5.88l-7.06 9.88c-1.45,-1.37 -28.5,-25.54 -32.86,-29.22 -19.9,-16.76 -16.24,-16.35 -44.75,-22.99z"/>
   <path class="fil0" d="M2902.98 15358.81c0,-14.32 24.84,-11.88 10.72,0 -0.01,0.01 -0.77,0.33 -0.81,0.33 -0.13,0.01 -2.13,0.13 -2.32,0.13 -8.55,0.18 -7.59,18.79 -7.59,-0.46zm127 -33.87l25.4 0 0 16.94c-24.75,-5.93 -12.19,1.09 -25.4,-16.94zm-389.47 -575.73c0,-22.99 30.29,0 7.59,0.46 -8.55,0.18 -7.59,18.79 -7.59,-0.46zm203.2 -135.47c0.31,-0.65 30.83,-23.95 16.86,-2.13 -0.09,0.13 -26.73,23.58 -16.86,2.13zm-237.06 -220.13l0 25.4 -25.4 0c0,159.98 -101.48,33.94 50.8,321.73 -22.86,1.91 -23.03,3.97 -42.34,8.47 36.9,158.37 -7.79,107.21 45.24,208.76 18.08,34.6 12.75,30.28 25.08,68.06 20.88,63.95 128.91,170.08 143.98,211.62 57.88,159.45 -48.36,72.74 167.99,365.41 56.88,76.96 40.17,85.95 117.25,85.95 0,-94.92 -37.64,-89.97 -78.05,-150.55 -18.49,-27.72 -80.44,-125.62 -82.82,-154.25 65.87,34.85 159.86,126.2 177.8,203.2l59.27 0 0 -25.4 25.4 0 0 -33.87c-47.54,-12.69 -103.24,-132.88 -127,-177.8l42.33 0c-1.3,-58.5 -15.63,-121.35 -76.2,-135.46 0,-121.57 43.03,4.29 82.71,-179.76 17.02,-78.95 1.96,-153.04 1.96,-243.58 -99.97,0 -88.14,82.69 -169.34,101.6l0 84.67 29.1 22.36c18.82,26.04 15.55,2.34 4.77,28.44l50.8 0 0 25.4 -25.4 0 0 25.4c-60.58,-40.56 -53.56,-87.3 -110.74,-117.86 -36.16,-19.33 -30.94,5.6 -41.66,-34.54l50.8 0c0,-209.23 -25.4,-96.55 -25.4,-262.47l16.93 0c0,93.08 25.4,30.18 25.4,127l59.27 0c6.81,-25.5 -0.1,-18.59 25.4,-25.4l0 -135.46c-43.21,-22.87 -26.61,-10.74 -51.26,-50.34l-99.22 -112.45c-24.1,-23.63 -32.29,-32.28 -35.79,-74.28l-59.26 0c0,74.14 -1.76,164.17 21.83,223.71 21.13,53.33 12.03,139.68 12.03,208.09l25.4 0c4.45,53.47 56.62,51.33 0,169.33l27.74 31.54c38.62,56.9 90.04,163.38 150.2,247.73 16.09,22.56 17.7,14.13 25.26,42.47 -17.34,-9.18 -44.11,-16.73 -58.04,-26.62l-92.05 -85.75c-20.57,-20.05 -30.89,-25.16 -53.11,-40.03 13.34,-25.21 22.83,-28.31 25.4,-59.27 -36.34,-3.02 -17.8,-0.34 -39.53,-19.73 -51.72,-46.16 -58.71,-51.16 -82.74,-112 -15.96,-40.42 -54.52,-153.12 -55.53,-198.47 37.11,9.91 30.35,32.28 101.6,33.87 0,-111.93 -37.91,-77.5 -85.03,-143.56 -55.89,-78.35 -73.47,-166.97 -2.02,-248.3 72.25,-82.23 87.05,-10.04 87.05,-133.08l-59.26 0c-9.81,42.08 -59.52,91.8 -101.6,101.6 41.01,-85.48 -6.86,-34.33 96.59,-157.4l66.43 -60.58c52.2,-52.85 42.58,-61.42 99.44,-61.42 0,126.88 5.98,56.13 39.97,103.98 32.8,46.18 -24.22,56.89 70.1,56.89 0,-145.8 -25.65,-61.37 -50.8,-169.33l-50.8 -16.94c37.45,-3.11 56.22,-21.22 84.83,-33.7 71.98,-31.43 67.57,-12.96 67.57,-101.76 -97.33,0 -250.81,85.77 -323.44,150.69 -22.26,19.9 -10,18.93 -40.63,27.11 0,-64.07 -15.27,-52.92 -59.26,-76.2l0 110.06 50.62 -25.74c0.23,84.23 -55.48,55.98 -73.3,155.47 -7.76,43.34 10.67,37.72 -28.12,48.07 0.98,44.08 13.63,44.94 16.93,84.67 13.28,-14 15.11,-16.1 33.87,-25.4zm160.86 423.33c9,9 32.12,-13.43 9.44,-4.4 -0.2,0.08 -23.62,-9.78 -9.44,4.4z"/>
   <path class="fil0" d="M17127 16095.41c-9.64,-128.74 -18.09,-135.2 4.69,-266.24 10.51,-60.44 27.66,-71.94 37.64,-114.76 6.22,7.15 11.91,13.69 19.32,23.01l64.03 88.37c22.43,30.53 67.86,81.06 77.52,117.22 -69.75,46.7 -132.35,104.96 -203.2,152.4zm423.33 338.67c-77.05,0 -165.43,38.48 -297.89,-66.18 -66.48,-52.52 -84.81,-129.97 -108.51,-179.35 40.03,-21.18 61.27,-43.83 97.89,-71.45l202.15 -153.45c20.94,-15.79 28.65,-23.73 47.02,-37.65 16.98,-12.86 38.8,-25.77 50.88,-42.26l-245.54 -338.66c-141.61,32.99 -257.4,131.19 -309.77,257.49 -59.12,142.55 -79.02,312.26 -39.35,481.09 68.15,290.05 304.56,359.87 360.43,339.73l242.69 -189.31z"/>
   <path class="fil0" d="M15095 15367.28c42.38,57.84 84.66,30.82 84.66,194.73l-42.33 0c-11.43,49.04 -30.91,69.5 -42.33,118.53l84.66 0 0 753.54c0,105.9 77.07,151.33 127,194.73 33.72,-17.84 57.44,-38.85 89.51,-62.89 27.03,-20.25 66.32,-55.98 96.76,-64.11 -15.74,-58.93 -84.67,-51.71 -84.67,-177.8l0 -643.47 59.27 0c9.72,-41.72 39.03,-78.79 42.33,-118.53l-101.6 0c0,-99.46 13.71,-182.68 -40.81,-255.52 -8.02,-10.72 -26.74,-29.31 -37.77,-38.43l-48.42 -36.25c-64.47,43.17 -121.79,92.3 -186.26,135.47z"/>
   <path class="fil0" d="M2852.18 12742.61c0,-14.33 24.84,-11.88 10.72,0 -6.91,5.81 -10.72,13.87 -10.72,0zm25.4 -25.4c0,-49.55 1.53,-49.76 42.33,-59.27 0,49.83 -1.53,49.5 -42.33,59.27zm50.8 -76.2c0,-53.68 11.29,-46.94 42.33,-67.74l0 50.8c-30.34,8.11 -11.21,7.73 -42.33,16.94zm372.53 -406.4c0,-22.99 30.29,-0.01 7.59,0.46 -8.55,0.18 -7.59,18.79 -7.59,-0.46zm25.4 -33.87l42.34 0 0 25.4 -42.34 0 0 -25.4zm50.81 -25.4l50.8 0 0 16.93 -50.8 0 0 -16.93zm50.8 -25.4l76.2 0 0 16.93 -76.2 0 0 -16.93zm372.53 -135.47l0 -25.4 50.8 0c-9.28,34.75 -6.31,25.4 -50.8,25.4zm67.73 -33.86c-8.51,3.62 -35.09,-0.22 -5.26,-11.82 22.31,-8.68 12.07,8.92 5.26,11.82zm-1447.8 1075.27c0,75.85 8.87,22.07 25.4,67.73 45.24,-10.54 71.36,-27.83 114.9,-45.97 80.7,-33.62 271.76,-120.93 323.21,-167.86 33.15,-30.24 56.25,-39.38 88.9,-71.96 91.13,-90.92 207.2,-142.5 218.06,-273.01 -43.27,0.96 -56.54,26.21 -120.59,82.61 -38.16,33.61 -62.01,68.34 -103.12,100.08 -43.65,33.71 -64.55,63.53 -107.5,95.7 -38.36,28.72 -90.39,56.5 -142.93,68.74 31.88,-60.23 94.43,-85.27 110.07,-152.4 44.47,0.99 32.33,8.69 67.73,16.94 7.15,-5.24 147.64,-153.6 152.2,-161.08 94.43,-155 118.74,-81.5 118.74,-202.99 -20.52,5.48 -74.45,55.88 -95.19,74.15 -37.7,33.2 -43.93,53.3 -91.08,78.25 1.13,-50.68 34.64,-73.43 91.08,-137.52 50.79,-57.68 87.9,-80.37 122.87,-114.2 34.48,-33.35 39.7,-56.59 99.32,-61.55 -37.09,70.1 -46.49,32.86 -50.8,84.67 30.51,-0.68 61.06,-5.17 82.33,-19.27 20.7,-13.71 17.49,-21.11 64.38,-45.69 28.68,-15.04 44.76,-21.23 69.79,-40.27 31.32,-23.84 27.46,-30.24 79.83,-30.24l0 -76.2 191.32 -79.62c40.77,-34.26 -2.49,-30.45 62.68,-30.45 -16.66,62.42 -168.14,154.53 -222.06,209.74 -33.63,34.43 -19.52,51.13 -91.2,52.73l0 59.27c74.74,-1.67 89.6,-22.11 165.89,-79.64l138.9 -115.1c48.24,-36.07 97.28,-72.83 144.28,-109.72 36.35,-28.54 76.18,-103.14 135.13,-118.88l0 -59.26c-112.38,-59.46 -173.87,2.26 -327.38,79.02 -118.18,59.09 -226.91,120.96 -347.62,168.85 -235.89,93.6 -246.97,163.59 -389.65,304.62 -148.47,146.75 -104.01,123.14 -222.29,302.64 -48.18,73.13 -91.75,123.57 -163.36,183.78l-170.96 133.83c-14.6,13 -21.28,4.53 -21.28,29.53z"/>
   <path class="fil0" d="M16568.2 15722.88c-5.27,-63.31 -73.27,-138.05 -127,-152.4 -26.82,17.96 -168.65,109.66 -177.8,143.93 74.53,19.9 85.12,125.55 84.72,194.68l1.76 557.04c8.29,50.54 41.4,98.84 81.47,130.19 9.17,7.17 10.23,7.07 19.89,13.99l23.82 18.5 186.27 -135.46c-15.94,-21.76 -27.92,-20.13 -55.81,-62.72 -15.53,-23.71 -28.86,-54.29 -28.86,-89.68l0 -499.54c0,-28.75 93.63,-84.92 118.54,-101.6 1.51,1.32 3.98,1.24 4.66,3.8 2.34,8.89 49.69,21.8 54.6,80.87 34.47,-8.03 68.75,-40.98 97.98,-62.89 26.93,-20.19 72.82,-49.48 88.29,-72.58 -15.93,-59.66 -100.89,-99.74 -152.4,-127l-220.13 160.87z"/>
   <path class="fil0" d="M5019.65 12708.74c7.36,27.57 14.77,34.97 42.33,42.34 0,55.46 -6.85,49.61 -25.4,84.66l76.2 0c-26.97,40.28 -70.08,52.51 -112.21,82.52 -27.42,19.54 -4.19,16.09 -40.19,19.08 -17.98,-77.18 -88.24,-43.72 -127,-101.6l76.2 0c0,-62.08 -21.96,-124.06 110.07,-127zm-84.67 76.2l0 50.8c50.2,-1.12 43.38,-15.78 84.67,-25.4l0 -59.26 -25.4 0 0 -25.4c-42.3,0.94 -59.27,16.5 -59.27,59.26zm-135.46 -16.93c0,26.2 11.26,32.54 25.4,59.27 -233.2,-54.33 -27.92,-50.8 -364.07,-50.8l0 -16.94c132.19,-13.17 86.71,-14.25 213.16,-1.49 20.18,2.04 35.75,-0.1 54.91,4.35 35.44,8.22 0.5,12.89 53.66,14.08l0 -76.2 -397.93 0c-67.24,0 -97.52,16.93 -160.87,16.93 -18.69,0 -44.09,-16.93 -186.26,-16.93 22.4,83.91 158.52,110.25 212.66,126 205.73,59.84 139.39,34.86 346.14,34.86 89.68,0 179.78,41.31 235.68,77.59 43.69,28.35 127.13,128.72 128.38,184.88 40.92,-27.4 50.13,-50.05 79.61,-89.73 178.35,-240.15 426.62,-151.41 570.06,-174.98 38.54,-6.34 83.15,-22.41 127.59,-33.31 69.1,-16.94 71.95,-12.82 114.39,-46.47 50.51,-40.05 55.57,-12.85 90.49,-78.84 -24.74,0 -59.44,-2.87 -82.69,1.98 -62.79,13.09 16.31,23.42 -145.91,23.42 -53.59,0 -62.78,-25.4 -101.6,-25.4 -68.33,0 -376.96,-12.43 -418.93,12.87 -24.98,15.06 -20.58,12.35 -21.34,46.39 24.75,5.93 12.2,-1.09 25.4,16.94 123.28,-28.73 163.15,-16.94 313.27,-16.94l0 16.94c-61.93,0 -159.47,-4.78 -205.39,6.28 -69.17,16.65 -92.15,44.52 -175.61,44.52 8.8,-32.97 34.17,-52.99 16.93,-127 -42.12,0 -118.34,-9.88 -154.77,-14.57 -55.39,-7.14 -110.42,-10.84 -166.96,-10.84l-3.3 39.04c-5.96,18.41 -22.1,21.88 -22.1,54.1z"/>
   <path class="fil0" d="M7051.65 12624.07c44.34,23.47 50.8,5.94 50.8,67.74 -26.27,-6.12 -24.52,-10.81 -50.8,-16.94l0 -50.8zm-50.8 -76.2c62.68,16.74 50.8,46.4 50.8,67.74 -26.27,-6.12 -24.52,-10.81 -50.8,-16.94l0 -50.8zm-25.4 -16.93c0,-22.99 30.29,0 7.59,0.46 -8.55,0.18 -7.59,18.79 -7.59,-0.46zm-448.73 -355.6c51.6,1.15 106.47,24.42 118.53,76.2 -60.35,-28.96 -82.69,-8.46 -118.53,-76.2zm-84.67 -25.4l76.2 0 0 16.93 -76.2 0 0 -16.93zm-338.67 -160.87l42.34 0 0 25.4 -42.34 0 0 -25.4zm-25.4 -16.93c0,-22.99 30.29,0 7.59,0.46 -8.55,0.18 -7.59,18.79 -7.59,-0.46zm-169.33 -33.87c63.06,14.7 55.23,55.52 134.98,102.09 65.39,38.18 51.43,51.57 132.62,104.45 118.95,77.48 172.77,180.29 291.2,182.93 -11.88,-51 -24.83,-37.13 -69.97,-82.43 -28.89,-28.98 -51.6,-51.49 -80.27,-80.59 -71.6,-72.69 -115.54,-60.51 -163.03,-150.25 54.46,4.54 205.68,98.81 254.01,110.07 -10.51,39.34 -13.33,7.49 -16.94,50.8 18.76,2.05 10.93,2.22 19.28,6.12l117.96 76.77c46.26,31.07 86.35,67.89 159.1,69.51l-25.4 -76.2c33.25,0.74 127.46,70.1 137.72,82.41l10.68 14.72c17.34,16.12 -9.71,9.68 29.4,12.94 6.81,-25.51 -0.11,-18.59 25.4,-25.4 2.31,104.07 101.6,66.6 101.6,177.8l-50.8 0c0,115.68 7.02,58.07 79.7,157.36 23.27,31.79 73.53,76.25 115.03,79.71l0 -42.34c23.48,6.27 21.9,11.01 47.24,45.89 49.92,68.69 51.77,60.09 84.72,101.56 16.95,21.34 30.74,30.9 37.37,55.75 -33.89,-16.26 -64.45,-23.87 -97.99,-45.94l-165.69 -122.17c-64.7,-48.91 -40.69,-43.55 -100.38,-43.55 14.71,63.14 59.84,112.8 103.97,150.03 25.74,21.72 45.25,33.59 78.65,48.35l125.89 68.83c51.77,34.22 159.52,90.27 221.64,108.57 77.05,22.69 14.46,45.91 87.91,47.55 6.81,-25.51 -0.1,-18.59 25.4,-25.4l0 -50.8c-111.6,-74.73 -219.58,-199.1 -301.05,-308.55l-110.39 -152.07c-83.3,-125.58 -113.06,-121.33 -170.75,-184.86 -117.12,-128.98 -39.42,-10.6 -143.62,-118.84 -43.88,-45.58 -352.65,-202.68 -394.59,-223.48 -21.88,-10.84 -37.62,-18.11 -56.68,-27.99 -44.09,-22.86 -56.41,-41.23 -166.3,-96.17 -148.36,-74.18 -167.29,-107.24 -307.62,-107.24l0 110.06z"/>
   <path class="fil0" d="M7322.59 14749.21c0,-22.99 30.28,0 7.58,0.46 -8.55,0.18 -7.58,18.79 -7.58,-0.46zm25.4 -25.4c0,-22.99 30.28,0 7.58,0.46 -8.55,0.18 -7.58,18.79 -7.58,-0.46zm0 -372.53c40.8,9.5 42.33,9.71 42.33,59.26 20.45,-14.98 19.47,-28.28 26.55,-59.48 7.79,-34.28 4.95,-29.42 -7.6,-51.87l-28.95 -64.92c-26.14,-43.44 -32.33,-17.95 -32.33,-77.73l50.8 0c-26.43,-49.94 -25.4,-24.91 -25.4,-101.6 -28.39,32.66 -14.7,53.18 -33.87,93.14 -24.65,-6.58 -44.92,-25.71 -59.1,-42.5 -24.22,-28.67 -20.04,-24.95 -54.22,-47.38 -177.98,-116.83 -100.79,-62.97 -98.35,-172.59 -33.19,-12.02 -23.76,-43.93 -79.63,-115.1 -36.49,-46.5 -72.77,-47.99 -72.77,-121.97l-59.26 0c0,99.09 4.23,61.37 38.46,130.87 17.33,35.17 12.34,67.35 12.34,114.67 24.74,-5.77 39.2,-14.79 59.26,-25.4 12.78,47.86 38.28,29.93 76.2,101.6 -96,0 -23.07,-25.4 -135.46,-25.4 0,25.45 1.66,46.65 6.43,61.3 9.74,29.97 10.87,28.04 35.21,40.99 33.95,18.07 71.28,19.33 93.82,50.11 -85.5,0 -19.53,-8.84 -87.73,47.73 -27.08,22.46 -22.33,-20.55 -22.33,121.6 0,28.74 14.86,25.4 42.33,25.4 34.78,0 18.17,-25.28 45.09,-81.91 17.52,-36.87 31.11,-52.09 31.11,-104.36 54.22,4.51 203.11,155.52 220.13,228.6 -54.3,-28.73 -144.75,-91 -120.99,0.98 14.25,55.17 30.24,20.67 92.65,86.64 31.13,32.91 -10.77,17.24 36.81,22.45 0,39.6 2.82,89.43 0.6,127.6 -3.59,61.68 -0.6,4.97 -42.93,92.54 -52.62,108.86 -93.14,64.73 -93.14,177.79 56.58,-4.7 31.66,-34.71 110.07,-76.2 0,43.62 -34.59,173.75 -53.43,209.05 -19.8,37.1 -91.32,119.95 -132.84,129.62 6.03,25.89 13.18,32.54 25.4,50.8 -19.07,28.49 -66.93,75.04 -96.7,98.03 -41.4,31.96 -68.26,62.7 -104.38,98.82 -101.82,101.82 -132.15,186.01 -196.85,201.08l0 59.27 25.4 0 0 25.4c47.82,-1.06 22.72,7.1 46.6,-21.13 40.99,-48.44 68.25,-65.86 96.85,-114.82 20.4,-34.93 101.71,-132.05 144.42,-143.45 -19.97,85.69 -110.31,228.28 -172.93,284.28 -34.1,30.5 -30.27,24.2 -30.27,79.79 78.49,0 84.69,-11.52 112.91,-64.89 39.83,-75.31 85.52,-53.9 171.84,-268.43 14.34,-35.65 7.27,-39.84 12.73,-80.4 9.23,-68.5 139.58,-267.07 186.99,-346.41 14.03,-23.49 18.47,-33.26 22.01,-62.65 9.44,-78.1 -5.81,-21.55 26.92,-66.22 -63.47,-132.27 25.4,-217.14 25.4,-270.94l-24.76 -127.64c-22.6,-62.21 -51.44,6.89 -51.44,-84.02z"/>
   <path class="fil0" d="M6899.25 14478.28c-3.83,-20.75 15.52,-3.46 9.33,1.39 -13.03,10.21 -8.14,5.03 -9.33,-1.39zm-1566.33 2032c51.25,-27.12 336.14,-223.54 391.75,-277.11 20.64,-19.88 34.47,-34.96 54.74,-55.33 148.5,-149.26 151.87,-96.83 343.57,-333.77l154.51 -184.16c41.37,-33.84 65.68,-73.48 98.51,-121.62l182.27 -266.46c78.45,-108.36 185.88,-337 207.93,-469.41 19.43,-116.71 38.46,-155.01 57.98,-280.68 5.75,-36.99 21.06,-55.71 24.27,-94.26l16.94 0c0,147.02 20.22,64.8 25.4,127 -45.09,12.04 -50.8,45.25 -50.8,101.6 40.46,-9.43 91.36,-64.65 116.63,-95.03 24.78,-29.79 13.84,-35.95 21.03,-80.58 6.08,-37.8 22.17,-40.58 23.2,-86.86 -80.64,0 -73.66,-7.3 -135.46,25.4l59.26 -237.07c-30.44,20.39 -94.28,93.88 -115.34,121.72 -28.35,37.46 -50.61,125.6 -68.04,177.5 -11.64,34.64 -41.27,291.77 -90.38,400.69 -26.66,59.15 -48.17,115.56 -73.14,172.4 -12.55,28.59 -22.42,53.73 -35.05,83.47 -11.69,27.52 -32.29,52.14 -49.91,77.1 -67.82,96.06 -137.6,189.04 -203.11,287.96 -62.38,94.19 -143.85,181.42 -159.38,204.68 -60.07,89.99 -95.84,113.98 -177.2,195.33 -81.39,81.39 -154.89,173.61 -247.48,243.59l-344.2 265.4c-39.74,29.86 -28.5,36.08 -28.5,98.5z"/>
   <path class="fil0" d="M4621.72 16484.88c0,-92.15 -19.16,-94.63 -93.14,-152.4 -119.79,-93.55 -385.02,-351.78 -484.72,-463.54l-136.91 -184.82c-96.6,-134.81 -73.66,-66.38 -158.47,-273.34 -19.31,-47.09 -42.04,-95.7 -64.22,-147.45 -38.7,-90.32 -235.08,-518.66 -254.82,-600.31 -12.5,-51.7 -20.81,-128.91 -45.13,-166.54 -17.52,-27.13 -72.35,-113.97 -91.86,-128.27 0,172.66 21.37,209.83 64.07,359.26l99.97 331.83c61.49,185.98 182.24,405.73 298.04,565.57 31.8,43.9 57.25,82.69 88.29,123.37 7.52,9.86 14.19,17.44 21.72,29.08 61.71,95.49 31.03,54.43 124.43,146.5 29.36,28.94 25.62,28.71 46.8,63.27 39.54,64.52 211.77,232.18 270.87,271 90.42,59.37 138.89,120.41 176.1,145.63 66.38,44.99 71.74,79.66 138.98,81.16z"/>
   <path class="fil0" d="M4088.32 16620.35l50.8 0 0 16.93 -50.8 0 0 -16.93zm-76.2 -25.4c0,-22.99 30.28,-0.01 7.58,0.46 -8.55,0.17 -7.58,18.79 -7.58,-0.46zm-84.67 -321.74c49.31,93.19 52.76,14.66 209.55,171.45 66.46,66.47 147.74,170.19 213.78,175.69l0 42.33 -177.8 0c10,-26.8 -18.38,-12.14 25.4,-16.93l0 -59.27c-106.85,0 -16.7,-39.32 -181.22,-72.78 -77.83,-15.83 -118.87,-3.42 -199.78,-3.42 25.16,52.43 -7.9,57.46 109.67,127.4 24.65,14.66 45.06,29.51 71.47,47.06 71.59,47.55 64.4,16.3 64.4,88.01l-321.74 0c27.17,51.33 42.31,38.84 96.05,64.81 203.09,98.17 156.4,8.29 361.15,-39.41l0 -50.8 110.07 0c4.15,-49.88 101.7,-74.8 118.53,-76.2l0 25.4c-47.14,12.58 -296.78,170.59 -364.06,186.26l0 25.4c83.27,0 209.75,-20.3 274.11,-56.09 30.46,-16.94 28.82,-27.48 64.31,-45.75 86.74,-44.66 120.39,-59.39 185.42,-144.78 18.32,-24.05 34.05,-34.22 34.96,-75.11 -84.02,1.87 -76.09,67.03 -186.27,76.2l0 -76.2c-28.53,-7.62 -62.18,-40.77 -82.5,-61.43 -45.52,-46.27 -59.16,-33.8 -69.9,-74.04 30.81,-7.18 27.15,-4.67 42.33,-25.4 -32.65,-8.72 -223.77,-160.86 -338.66,-160.86 -30.72,0 -20.31,7.52 -59.27,8.46z"/>
   <path class="fil0" d="M5011.18 17035.21c19.81,-22.79 51.88,-111.23 56.05,-130.21 8.84,-40.25 3.83,-636.1 3.16,-741.91 -0.83,-131.23 19.9,-88.52 25.24,-161.03l8.69 -363.85c0,-110.07 0,-220.13 0,-330.2 0,-118.21 -8.47,-205.01 -8.47,-321.73 0,-110.07 0.13,-220.14 0,-330.21 -0.14,-113.68 39.97,-237.06 -84.67,-237.06l0 2616.2z"/>
   <path class="fil0" d="M4858.78 12276.94l76.2 0 0 25.4 -76.2 0 0 -25.4zm0 -127l76.2 0 0 16.93 -76.2 0 0 -16.93zm76.2 -423.33l50.8 0 0 16.93 -50.8 0 0 -16.93zm0 -84.67c-76.33,0 -63.94,-21.56 -110.06,-25.4l0 135.47 43.6 13.12c-0.19,0.02 -104.71,-13.41 -62.21,73.79l20.09 25.53c0.56,0.79 1.87,2.79 2.38,3.6 0.51,0.82 1.62,2.93 2.1,3.79l10.97 24.1c-39.39,3.28 -38.84,1.96 -42.33,33.87l-25.4 0c13.4,25.32 24.54,46.21 25.4,84.66l84.66 0c-1.7,1.19 -4.6,0.5 -5.48,2.99 -3.53,10.12 -24.27,2.32 -55.47,29.2 -34.51,29.72 -23.71,52.21 -23.71,103.28 26.27,6.12 24.52,10.81 50.8,16.93 -11.94,16.3 -45.44,36.38 -67.74,42.34 18.25,38.03 16.94,48.95 16.94,93.13l50.8 0 0 25.4 -50.8 0 0 110.07c100.22,0 103.48,-21.45 205.84,-82.02 22.9,-13.55 56.13,-30.14 72.03,-46.51 19.76,-20.34 30.19,-57.31 43.86,-83.14 -59.25,1.32 -116.38,37.22 -177.8,42.33 1.51,-1.31 3.9,-5.32 4.59,-3.87l19.06 -14.8c8.79,-6.26 16.16,-10.79 25.43,-16.91 83.53,-55.16 128.72,-65.95 128.72,-142.22 -144.04,33.56 -66.07,50.8 -177.8,50.8 9.55,-35.76 72.54,-64.38 115.67,-87.53 50.03,-26.84 87.53,-50.2 87.53,-124.13 -96.54,8.03 -130.02,76.2 -237.07,76.2 29.12,-39.75 19.95,7.47 25.4,-42.34 20.03,0 37.39,1.62 56.49,-2.78 58.26,-13.4 47.99,-66.61 129.78,-73.42l0 -84.66c-36.94,3.07 -139.98,76.2 -237.07,76.2 17.95,-24.49 153.59,-106.35 195.09,-135.12 28.16,-19.51 38.37,-33.11 41.98,-76.55 -32.55,17.22 -82.8,49.82 -127,50.8 18.06,-67.63 68.4,-55.61 90.93,-78.4 16.81,-17.02 10.67,-18.14 10.67,-48.6 -60.46,14.09 -74.69,50.8 -160.87,50.8z"/>
   <path class="fil0" d="M2081.71 11244.01c25.51,-6.81 18.59,0.1 25.4,-25.4l127 0 0 50.8 25.4 0 0 84.66c-25.5,6.81 -18.59,-0.1 -25.4,25.4l-127 0 0 -50.8 -25.4 0 0 -84.66zm-169.33 119.76l0 -115.41 0 -12.82 0 -16.66c1.85,1.75 7.02,3 20.04,-14.1l29.12 -47.08c13.37,-17.62 14.36,-14.92 32.16,-27.11 71.85,-49.18 11.4,-54.77 101.28,-76.51 34.51,-8.35 63.68,-21.74 96.8,-21.74 65.55,0 155.37,55.22 189.98,89.42l26.72 32.55c94.66,155.99 13.57,238.46 -5.03,318.3 51.44,-11.99 10.56,-16.94 101.6,-16.94 -4.93,59.16 -41.49,94.83 -82.78,120.43 -23.24,14.41 -106.91,59.97 -128.89,65.84 9.64,-36.08 78.67,-118.15 101.6,-152.4 -87.01,0 -137.59,76.2 -194.73,76.2 -80.55,0 -131.15,-3.47 -207.26,-55.21 -36.44,-24.77 -17.45,-31.64 -38.14,-54.99 -36.64,-41.33 -41.88,20.32 -42.47,-91.77zm110.07 -102.83l0 101.6c0,20.93 80.66,101.6 101.6,101.6 93.61,0 89.7,7.34 93.13,-33.87l42.33 0c-17.89,67.02 -45.13,50.8 -160.86,50.8 -22.3,0 -37.71,-29.27 -69.89,-65.58 -82.68,-93.31 -50.3,-124.54 -23.17,-179.87 5.21,-10.62 15.26,-40.6 19.54,-48.19 15.88,-28.14 0.98,-19.62 48.12,-19.62 -11.19,23.32 -7.91,32.44 -26.72,57.95 -1.04,1.42 -2.82,3.18 -3.9,4.57 -15.94,20.57 -20.18,3.49 -20.18,30.61zm59.26 -110.07c19.3,-4.49 19.48,-6.56 42.34,-8.46l0 25.4 -42.34 0 0 -16.94zm287.87 84.67c0,124.75 12.21,71.72 -35.25,159.48 -11.91,22.02 -32.82,32.46 -66.35,35.25 19.08,-71.44 76.2,-67.59 76.2,-143.93 0,-37.64 4.81,9.39 -31.86,-44.34 -15.17,-22.22 -43.43,-97.5 -137.47,-99.59 45.31,-61.85 115.42,17 155.2,48 18.33,14.28 39.53,20.22 39.53,45.13z"/>
   <path class="fil0" d="M4977.32 11506.47c-53.45,0 -18.89,-4.27 -58.02,-18.18 -18.04,-6.42 -31.97,-7.22 -60.52,-7.22 -1.71,-76.72 -49.35,-54.31 -78.28,-151.32 -9.17,-30.75 20.2,-104.95 32.73,-122.83 16.58,-23.65 16.73,1.99 20.15,-39.11l42.34 0c-32,119.82 -120.25,98.63 -13.37,233.5 65.08,82.11 34.9,62.83 157.3,62.83 25.34,0 30.41,-23.89 65.64,-61.36 39.8,-42.34 31.78,-63.4 61.36,-74.11l0 -33.86c-35.54,-9.49 -49.92,-53.8 -50.8,-93.14 34.48,9.21 92.97,67.98 60.22,118.71 -56.2,87.07 -102.98,186.09 -178.75,186.09zm-118.54 -211.66c53.97,-5.91 17.15,-35.88 76.2,-42.34l0 93.14c-37.16,-8.66 -35.38,-22.01 -76.2,-25.4l0 -25.4zm101.6 -101.6c101.99,0 29.66,31.59 101.6,50.8l0 110.06c-41.17,9.6 -60.42,32.74 -101.6,42.34 -9.23,-17.46 -11.74,-20.07 -16.93,-42.34l76.2 0 0 -25.4 25.4 0 0 -59.26 -25.4 0 0 -25.4 -76.2 0c3.6,-43.32 6.43,-11.47 16.93,-50.8zm-33.86 -25.4l-42.34 0c20.81,-39.32 12.46,-23.3 84.67,-76.2 46.68,12.46 107.2,52.94 118.53,101.6 -23.28,-5.43 -35.72,-12.5 -50.84,-25.36 -46.46,-39.5 5.68,-33.91 -84.62,-33.91 -24.11,0 -25.4,9.81 -25.4,33.87zm-228.6 118.53c0,71.72 0.43,53.89 33.47,110.46 14.9,25.5 24.91,54.2 42.52,76.01 17.68,21.89 73.31,67.77 102.48,75.32 137.73,35.67 206.08,19.24 297.71,-73.47 12.82,-12.97 17.9,-17.26 31.01,-28.26 15.79,-13.24 26.21,-7.75 26.21,-33.06l0 -203.2c0,-37.58 9.76,8.49 -33.94,-42.27 -14.48,-16.82 -22.85,-29.56 -25.33,-59.33 -62.06,0 -22.07,1.26 -125.04,-61.22 -28.15,-17.08 -24.39,-4.67 -27.36,-40.38l-84.67 0c-27.57,52.1 -20.62,31.52 -67.34,59.66l-76.44 50.56c-39.68,23.17 -36.42,24.94 -54.72,72.28 -4.86,12.56 -38.56,96.71 -38.56,96.9z"/>
   <path class="fil0" d="M7508.85 11472.61c0,-14.33 24.84,-11.88 10.72,0 -6.9,5.8 -10.72,13.87 -10.72,0zm262.47 -93.14l-110.07 0 0 -127c31.15,-2.59 31.28,-2.71 33.87,-33.86l110.07 0c10.07,20.99 31.57,82.55 33.86,110.06 -54,14.42 -29.99,50.8 -67.73,50.8zm-135.47 -211.66c48.81,-92.25 152.87,-46.08 217.58,-5.91 56.11,34.83 15.68,67.53 70.29,82.11l0 160.86c-80.33,21.45 -41.09,76.2 -186.27,76.2 -40.23,0 -75.62,-16.47 -99.4,-36.06 -50.51,-41.61 -29.34,-54.11 -78.4,-65.54l0 -160.86 25.4 0 0 -50.8 42.34 0c-7.54,32.33 -114.11,136.32 9.8,227.26 23.52,17.26 34.88,17.45 63.03,30.11 41.42,18.62 31.55,38.96 71.1,38.96 24.97,0 24.04,-15.97 40.03,-27.7 6.23,-4.58 86.97,-40.16 86.97,-116.23 0,-100.68 -76.52,-133.38 -103.41,-150.59 -54.12,-34.64 0.68,-35.68 -82.86,-35.68 -5.84,21.9 -10.18,32.4 -76.2,33.87zm-160.86 76.2c0,145.41 25.4,146.31 25.4,211.66 -49.92,1.12 -72.2,11.18 -76.2,59.27 34.5,9.21 31.94,29.54 104.36,64.98 88.87,43.49 53.69,49.53 107.3,62.02 -10.81,-46.43 -13.92,-52.93 -44.22,-82.77 -22.48,-22.14 -48.61,-36.78 -57.38,-69.63 85.58,1.91 50.16,76.2 262.47,76.2 64.3,0 127.23,-118.46 203.2,-169.33 -64.86,-278.4 19.68,-197.91 -155.73,-318.4 -26.86,-18.45 -75.48,-45.67 -115.2,-45.67 -47.19,0 -254,61.08 -254,211.67z"/>
   <path class="fil0" d="M4198.38 12954.28c0,-22.99 30.29,-0.01 7.59,0.46 -8.55,0.17 -7.59,18.78 -7.59,-0.46zm-296.33 -16.94l0 745.07c34.85,-25.53 124.81,-131.16 133.68,-171.12 6.18,-27.81 5.27,-35.32 15.16,-61.04 12.48,-32.44 12.49,-15.3 12.51,-63.7 0.03,-109.12 8.91,-108.19 82.53,-222.26 165.46,-256.41 178.76,-104 213.32,-252.35 -81.43,0 -54.04,25.4 -135.47,25.4l25.75 -50.62c-113.62,-0.68 -230.67,40.9 -347.48,50.62z"/>
   <path class="fil0" d="M5891.72 16594.95c-4.47,-24.19 20.54,3.18 6.67,1.38 -15.32,-1.99 -3.11,17.88 -6.67,-1.38zm-186.27 -194.74l-33.87 0 0 84.67c-92.29,0 -100.41,107 -186.26,127l0 33.87 73.18 28.41c1.77,0.83 3.97,1.9 5.68,2.79 1.69,0.87 3.82,2.09 5.45,3.01 1.62,0.92 3.66,2.28 5.23,3.24l70.99 47.55c114.68,58.48 35.81,10.27 107.18,70.62 10.58,8.95 28.11,19.88 41.25,26.48 42.04,21.09 133.6,57.21 187.72,51.33l140.33 -36.69c30.18,-10.32 15.3,-10.48 57.26,-10.48l0 -59.26 -313.27 0c0,-78.36 32.05,-73.5 150.81,-153.99 32.63,-22.12 127.08,-96.53 137.05,-133.88 -58.6,6.41 6.19,20.55 -59.13,25.61 -14.38,1.12 -191.25,-33.68 -297.55,49.51 -33.33,26.08 -10.01,26.48 -66.65,26.48 26.26,35.84 37.31,16.99 76.2,50.8 -149.42,34.81 -35.68,25.4 -228.6,25.4 86.67,-129.43 86.55,-56.22 152.49,-152.32 51.96,-75.73 83.71,-97.55 166.51,-146.75 46.74,-27.76 93.06,-48.27 121.27,-90.4 -53.54,-4.45 -94.88,-29.48 -192.38,44.69l-120.89 82.31z"/>
   <path class="fil0" d="M3021.51 13436.88c-8.51,3.62 -35.08,-0.22 -5.26,-11.82 22.31,-8.68 12.07,8.92 5.26,11.82zm33.87 -42.34l0 16.94 -25.4 0c13.35,-19.21 1.6,-9.9 25.4,-16.94zm-101.6 -50.8l16.93 0 0 42.34 -16.93 0 0 -42.34zm-169.33 431.8l8.46 118.54c41.34,-21.87 43.34,-37.4 84.67,-59.27 0,-136.37 -11.05,-98 18.45,-184.76 8.4,-24.72 10.84,-53.82 24.27,-77.32 19.13,-33.47 21.46,-16.52 33.48,-68.12 80.72,19.32 70.69,-2.53 150.12,-78.48 19.49,-18.64 39.25,-27.01 53.13,-48.48 11.35,-17.56 23.27,-47.84 33.82,-67.77 -84.86,0 -56.45,34.38 -135.47,76.2 2.55,-10.97 3.8,-19.88 6.46,-27.42 12.61,-35.86 6.07,-12.92 30.66,-45.53 26.59,-35.25 54.78,-93.22 98.35,-104.85l0 -33.87c-25.51,-6.81 -18.59,0.11 -25.4,-25.4l-33.87 0c-8.36,35.9 -8.99,32.15 -33.69,50.98 -67.92,51.76 -63.47,106.06 -118.71,135.29 3.41,-40.96 20.45,-66.31 36.66,-98.82 69.63,-139.65 149.61,-117.79 149.61,-273.72l-141.89 154.44c-112.91,111.57 -155.59,248.06 -193.38,399.29 -21.17,84.67 -45.73,158.04 -45.73,259.07z"/>
   <path class="fil0" d="M2648.98 13834.81c0,48.32 4.91,61.71 7.98,102.09 8.32,109.41 25.89,13.36 25.89,118.04l33.86 0c12.9,-55.33 25.4,-27.91 25.4,-118.53 0,-66.33 -37,-116.47 -26.54,-162.67 5.74,-25.31 20.53,-52.09 24.42,-76.52 27.78,-174.37 40.77,-218.49 117.77,-390.23 23.22,-51.79 38.31,-93.51 62.15,-141.05 65.09,-129.78 115.35,-160.79 218.59,-289.41 19.44,-24.21 23.72,-35.82 26.95,-74.65 -60.57,1.34 -79.66,41.54 -112.19,74.08 -151.12,151.17 -136.88,127.56 -243.41,340.78 -75.88,151.86 -59.92,81.65 -115.6,273.87 -30.78,106.27 -45.27,210.47 -45.27,344.2z"/>
   <path class="fil0" d="M14993.4 13259.08c122.41,182.81 298.48,198.38 454.87,65.41 27.83,-23.66 85.23,-97.71 95.46,-141.61 -97.73,8.13 -186.38,28.85 -279.4,-110.07 -47.42,11.05 -196.02,146.63 -270.93,186.27z"/>
   <path class="fil0" d="M3749.65 12302.34l135.47 0c3.35,-40.33 2.97,-27.14 78.92,-65.01l310.39 -129.87c77.33,-31.09 374.17,-95.06 474.29,-118.39l0 -84.66c-166.69,0 -191.24,3.4 -379.2,61.07 -118.71,36.42 -440.76,184.74 -543.8,252.07 -33.38,21.8 -64.46,41.29 -76.07,84.79z"/>
   <path class="fil0" d="M4452.38 13911.01l0 1566.33c0,31.79 4.81,53.61 14.31,78.83 19.13,50.8 23.65,50.95 44.96,56.64l0 -1727.2c-41.19,0 -59.27,-5.73 -59.27,25.4z"/>
   <path class="fil0" d="M6975.45 15054.01l16.94 0 0 50.8 -16.94 0 0 -50.8zm-25.4 -16.93c14.63,-14.63 28.4,22.92 7.53,6.49 -0.73,-0.58 -19.98,5.96 -7.53,-6.49zm-84.66 50.8c79.66,18.56 14.73,51.32 76.2,67.73l0 59.27c-53.76,14.35 4.47,13.4 -62.61,64.39 -28.47,21.65 -46.18,31.54 -70.91,56.09 -54.94,54.55 -71.5,82.72 -179.75,82.72l0 67.73c25.51,6.81 18.59,-0.11 25.4,25.4 67.44,0 38.27,1.63 150.24,-112.22 83.5,-84.91 100.85,-35.08 165.29,-105.65 26.78,-29.34 88.3,-118.81 104.32,-158.15 18.16,-44.6 21.43,-51.82 48.34,-87.12 38.11,-50 18.87,-52.01 39.81,-95.66 -62.25,0 -101.16,17.8 -130.61,64.12 -4.22,6.64 -4.79,22.21 -30.26,29.01 0,-48.88 -12.06,-57.73 25.4,-67.73l0 -110.07c-92.51,-2.06 -56.25,-73.87 -160.86,-76.2l0 296.34z"/>
   <path class="fil0" d="M7263.32 13758.61c0,170.28 -33.87,168.25 -33.87,211.67 0,29.22 24.35,71.49 42.34,84.66 65.84,-17.58 92.9,-286.78 65.53,-361.86 -35.22,-96.62 -15.83,-53.84 -21.04,-123.78 -2.25,-30.12 -6.42,-44.62 -16.34,-67.44 -33.42,-76.96 -66.65,-143.32 -99.52,-222.22 -16.98,-40.75 -32.8,-72.25 -49.6,-111.27 -32.83,-76.27 -122.71,-261.67 -209.23,-281.83 0,69.14 6.89,64.8 31,112.93 84.44,168.61 62.77,57.99 158.89,298.32l88.52 216.32c32.83,87.52 -10.77,60.42 32.59,179.02 8.8,24.07 10.73,35.28 10.73,65.48z"/>
   <path class="fil0" d="M5222.85 11989.07c97.85,0 268.91,61.32 357.28,82.99 45.91,11.26 79.27,21.54 117.94,34.47 118,39.46 205.54,67.18 311.82,128.44 37.52,21.62 76.98,37.25 85.03,67.37l101.6 0c-12.6,-18.81 -20.58,-22.37 -40.55,-35.65 -19.57,-13.03 -27.26,-20.09 -44.18,-32.02l-138.69 -98.38c-183.29,-122 -122.26,-81 -389.41,-169.39 -152.46,-50.45 -140.05,-29.7 -190.7,-46.37 -72.82,-23.96 -79.89,-16.12 -170.14,-16.12l0 84.66z"/>
   <path class="fil0" d="M7000.85 13343.74c10.25,-10.25 31.08,14.47 10.98,8.84 -12.95,-3.63 -20.95,1.13 -10.98,-8.84zm-8.46 -16.93c-31.84,-23.33 -7.65,-30.81 -50.8,-42.33 0,73.55 8.52,216.73 84.66,237.06 7.35,-31.52 16.94,-63.21 16.94,-101.6l8.46 0c0,113.86 52.13,127.11 50.98,253.83 -1.02,112.4 10.53,181.17 84.49,220.31 0,-341.58 13.53,-167.45 -54.26,-487.61 -10.02,-47.29 -104.25,-240.96 -133.88,-272.53 -23.04,-24.55 -42.12,-57.75 -82.79,-61.13 0,88.08 45.96,124.24 76.2,254z"/>
   <path class="fil0" d="M6966.99 14656.08l0 84.66c34.41,8.02 47.58,12.13 50.8,50.8 72.74,-1.62 59.26,-54.65 59.26,-127l25.4 0c0,242.38 -25.4,59.87 -25.4,262.47 71.86,0 67.8,-20.62 91.24,-69.63 39.36,-82.29 8.28,-56.53 22.11,-147.22 30.08,-197.28 22.12,-113.08 22.12,-316.55 -49.55,11.54 -102.19,81.08 -137.71,116.29 -91.07,90.29 -52.69,131.45 -107.82,146.18z"/>
   <path class="fil0" d="M6230.39 15401.14c78.75,-18.34 235.42,-335.43 265.28,-395.11 28.81,-57.56 124.77,-298.39 132.19,-367.35 3.9,-36.29 2.45,-38.97 12.5,-72.16 9.24,-30.5 13.36,-33.62 13.36,-71.31 -43.55,3.62 -38.6,24.32 -66.52,94.34 -60.27,151.14 -165.03,465.81 -249.07,580.68 -34.32,46.92 -94.29,173.18 -107.74,230.91zm-25.4 0l0 25.4 25.4 0 0 -25.4 -25.4 0z"/>
   <path class="fil0" d="M4342.32 14800.01l14.65 383.9c17.3,93.52 -16.23,5.19 4.88,155.36l22.8 188.87 0 -1634.06c-41.27,59.39 -33.87,131.48 -33.87,203.2 0.01,79.01 -0.35,158.11 0.06,237.12 0.41,79.25 -8.53,141.08 -8.52,228.54 0,79.03 0,158.05 0,237.07z"/>
   <path class="fil0" d="M5696.98 14943.94l0 364.07c0,51.54 13.52,64.18 21.95,105.05 12.36,59.87 -20.7,93.32 37.32,98.15 0,-63.19 -4.67,-136.6 8.19,-186.57 7.9,-30.73 16.6,-46.73 13.45,-80.97 -3.35,-36.53 -0.35,-48.67 4.48,-87.34l-2.56 -286.75c-5.46,-32.15 -20.53,-41.63 -23.56,-78.04l-33.87 0c-1.2,54.11 -25.4,66.37 -25.4,152.4z"/>
   <path class="fil0" d="M4139.12 14148.08l0 905.93c0,68.15 25.4,32.71 25.4,118.53l8.46 0c0,-103.93 8.7,-183.33 8.48,-279.39 -0.19,-82.4 -7.44,-209.42 1.23,-286.64l15.69 -560.03c-39.27,20.78 -59.26,40.83 -59.26,101.6z"/>
   <path class="fil0" d="M2775.98 12090.67c-14.52,1.81 -11.96,-24.98 -0.58,-11.29 0,0 0.3,0.74 0.31,0.79l0.27 10.5zm-118.53 33.87c20.98,-1.75 28.34,-3.72 47.64,-11.62l23.52 -10.35c15.48,-4.19 13.48,-3.43 30.44,-3.43 -15.22,28.77 -25.4,57.06 -25.4,101.6 47.68,-11.11 48.98,-42.39 150.71,-103.28l124.63 -70.11c28.1,-20.94 20.06,-4.94 20.99,-46.74 -42.37,-9.87 -33.27,-17.68 -50.8,-50.8l-84.67 0c-8.27,30.98 -24.79,30.02 -56.37,45.22 -117.92,56.78 -180.69,65.78 -180.69,149.51z"/>
   <path class="fil0" d="M5324.45 16620.35c0,68.95 65.15,70.51 99.75,103.45 59.48,56.63 46.33,42.92 117.71,85.49 105.04,62.65 149.83,98.92 315.94,98.92 -10.26,-38.41 -177.13,-106.42 -260.79,-162.54l-189.21 -124.06c-36.43,-28.43 -13.69,-35.13 -74.93,-35.13 -5.44,22.7 -8.47,15.96 -8.47,33.87z"/>
   <path class="fil0" d="M3529.52 12971.21c0,23.61 2.53,39.46 6.26,53 10.29,37.3 10.64,16.77 19.14,48.6l33.86 0c3.7,-15.87 42.06,-83.43 21.44,-156.91 -13.68,-48.72 6.78,-17.97 -21.44,-29.36l0 -16.93c38.01,-10.15 25.25,-19.47 24.93,-68.2 -0.33,-51.49 -4.37,-43.44 39.82,-53.32 60.78,-13.6 93.4,-20.07 121.52,-73.22l-245.53 0 0 296.34z"/>
   <path class="fil0" d="M5510.72 15638.21l33.86 0 0 -177.8c0,-83.75 40.54,-86.97 19.38,-181.38 -13.54,-60.44 6.02,-3.43 6.02,-98.02 -41.14,-10.99 -25.4,-32.8 -25.4,-177.8 0,-14.25 75.65,-182.43 -33.86,-211.67l0 846.67z"/>
   <path class="fil0" d="M3114.65 14554.48l16.93 0 0 25.4 -16.93 0 0 -25.4zm-25.4 -16.94c-4.56,-24.68 18.1,2.17 8.64,1.59 -0.08,-0.01 -1.83,-0.19 -1.97,-0.21 -15.32,-1.98 -3.11,17.88 -6.67,-1.38zm16.93 152.4l33.87 0c17.12,-73.48 50.8,-54.95 50.8,-160.86 -43.32,3.6 -11.47,6.43 -50.8,16.93 0,-91.86 -35.05,-84.78 -50.8,-152.4l-110.07 0c0,55.96 17.63,67.81 28.85,123.55 17.07,84.88 -5.88,41.35 53.93,106.94 25.01,27.42 34.58,24.46 44.22,65.84z"/>
   <path class="fil0" d="M7161.72 12073.74c14.62,-14.62 28.4,22.92 7.53,6.49 -0.73,-0.58 -19.98,5.96 -7.53,-6.49zm-245.53 -93.13l0 33.86c59.55,0 35.9,7.83 86.09,40.92l210.24 119.95c0,-47.02 -7.24,-49.07 -25.4,-76.2 60.96,0 26.01,5.8 67.73,16.93 -19.99,-29.84 -33.15,-36.03 -60.5,-58.02l-127.11 -109.97c-34.58,-28.16 -42.38,-18.27 -100.25,-18.27 -8.96,38.43 -12.37,41.84 -50.8,50.8z"/>
   <path class="fil0" d="M3605.72 16061.55c60.68,14.13 25.88,38.35 180.62,115.71 35.4,17.7 60.74,29.89 95.83,48.1 55.6,28.85 52.32,22.45 129.95,22.45 -15.31,-65.71 -57.57,-39.23 -168.18,-128.16 -40.25,-32.36 -133.82,-117.37 -187.42,-117.37 -18.15,0 -47.71,22.06 -50.8,59.27z"/>
   <path class="fil0" d="M5019.65 12463.21l42.33 0 0 25.4 -42.33 0 0 -25.4zm-211.67 42.33l0 16.93c98.16,22.87 106.14,41.72 230.68,10.55 31.18,-7.81 46.39,-10.55 82.59,-10.55l0 -59.26 -50.8 0c30.97,-58.54 50.8,-31.54 50.8,-110.07 -79.91,42.28 -185.01,77.64 -237.63,109.5 -22.62,13.7 -51.3,36.4 -75.64,42.9z"/>
   <path class="fil0" d="M5417.58 16874.35l-33.86 0 0 93.13 25.4 0c0,50.8 9.78,49.77 20.35,89.71 8.68,32.82 5.05,76.3 5.05,113.49 118.44,-27.6 12.37,-133.1 84.66,-152.4l0 -169.33c-54.85,-12.78 -25.8,-17.82 -59.26,-42.34 -13.15,27.39 -10.88,67.74 -42.34,67.74z"/>
   <path class="fil0" d="M4426.98 16848.95c0,158.54 -11.34,108.01 21.9,232.32 14.4,53.85 7.32,43.56 3.5,89.41l59.27 0c0,-103.93 -15.76,-162.9 25.4,-177.8l0 -118.53 -50.8 0c0,-49.88 -2.3,-43.41 25.4,-50.8l0 -25.4 -50.8 0c-24.08,58.28 -33.87,5.99 -33.87,50.8z"/>
   <path class="fil0" d="M2843.71 13894.08l0 76.2c21.95,-5.12 50.34,-19.05 70.95,-30.66 30.24,-17.04 38.17,-28.31 39.12,-70.94l50.62 25.74c18.76,-39.04 64.53,-179.24 50.98,-237.41l-118.58 101.56c-34.95,54.07 -43.04,122.14 -93.09,135.51z"/>
   <path class="fil0" d="M2445.78 11802.81l0 50.8c128.66,0 72.43,-127 270.93,-127 0,-129.44 -28.49,-14.31 -50.8,-110.07 -38.28,0.85 -46.56,12.74 -71.26,30.34 -37.39,26.65 -148.87,115.25 -148.87,155.93z"/>
   <path class="fil0" d="M5620.78 15587.41l33.87 0c0,-183.9 -19.93,-328.57 -0.08,-516.59 5.25,-49.66 9.32,-25.64 13.82,-52.99l-5.27 -99.29c0,-27.32 57.07,-103.84 -42.34,-127l0 795.87z"/>
   <path class="fil0" d="M4841.85 12590.21l-67.73 0 0 59.26 397.93 0 0 -59.26c-177.18,0 -116.32,-25.4 -211.67,-25.4 -74.03,0 -78.52,25.4 -118.53,25.4z"/>
   <path class="fil0" d="M2530.45 11938.27c45.29,0 55.57,4.02 82.63,-18.97 101.62,-86.32 106.68,-69.2 205.23,-116.49l0 -59.27c-25.5,-6.81 -18.59,0.11 -25.4,-25.4 -119.57,63.27 -251.83,92.35 -262.46,220.13z"/>
   <path class="fil0" d="M2792.91 12234.61c0,38.98 39.81,42.33 67.74,42.33 35.96,0 108.91,-100.72 183.17,-138.56 60.34,-30.76 70.83,14.11 70.83,-73.11 -107.51,0 -169.7,64.47 -288.84,134.5 -19.07,11.21 -32.9,9.75 -32.9,34.84z"/>
   <path class="fil0" d="M7204.05 11667.34c5.4,64.9 67.98,1.02 209.48,146.12 28.82,29.55 35.53,35.88 86.86,40.15 -8.53,-36.58 -48.34,-124.34 -75.8,-144.34 -32.18,-23.44 -113.12,-53.28 -127.4,-92.73l-42.34 0c-3.22,38.68 -16.39,42.78 -50.8,50.8z"/>
   <path class="fil0" d="M5967.92 16247.81c145.22,0 153.54,-43.75 254.28,-101.32 48.55,-27.74 67.45,-16.22 67.45,-68.01 0,-35.96 -8.6,4.07 -25.4,-42.33 -41.92,9.76 -74.81,49.34 -112.37,73.89 -45.63,29.82 -164.88,55.87 -183.96,137.77z"/>
   <path class="fil0" d="M7077.05 11853.61l-25.4 0 0 59.26c95.88,22.34 144.65,101.6 262.47,101.6 0,-76.38 -43.51,-89.42 -91.46,-120.21 -46.55,-29.89 -87.47,-52.51 -145.61,-66.05l0 25.4z"/>
   <path class="fil0" d="M3851.25 16383.28c-76.32,-113.97 -215.31,-158.87 -249.94,-190.33 -35.03,-31.82 11.01,-29.8 -97.19,-29.8 0,88.64 37.09,67.86 145.54,133.85 79.46,48.35 120.48,86.28 201.59,86.28z"/>
   <polygon class="fil0" points="3952.85,14901.61 3986.72,14901.61 3986.72,14207.34 3952.85,14207.34 "/>
   <path class="fil0" d="M3131.58 13707.81c0,53.59 -25.4,62.78 -25.4,101.6l0 220.13c0,55.47 59.27,-12.58 59.27,-33.86l0 -448.74 -33.87 0 0 160.87z"/>
   <path class="fil0" d="M2784.45 11879.01c-50.9,4.23 -101.58,53.65 -146.08,82.52 -23.93,15.52 -30.88,15.06 -31.72,52.94 43.82,15.87 -9.08,0.4 24.98,17.36l34.28 8.04c13.9,-38.39 94.14,-62.39 128.5,-83.17 30.81,-18.63 54.72,-18.91 77.89,-32.68 39.6,-23.53 13.25,-40.58 5.28,-70.41l-93.13 0 0 25.4z"/>
   <path class="fil0" d="M2318.78 11667.34l41.53 26.2c13.29,10.83 -0.13,-9.87 15.45,18.42 7.75,14.08 7.42,17.27 10.75,31.58l16.94 0c8.37,-20.74 90.47,-66.89 111.23,-83.5 78.89,-63.1 90.97,-58.02 91.97,-102.77 -25.51,-6.81 -18.59,0.11 -25.4,-25.4 -13.59,0 -27.29,-1.59 -39.95,2.39 -37.84,11.91 -131.58,125.51 -222.52,133.08z"/>
   <path class="fil0" d="M6780.72 12166.87c0,54.15 12.8,9.45 70.63,56.37 25.46,20.65 43.93,29.14 69.92,48.62 92.27,69.16 76.32,110.65 130.38,115.15l0 -50.8 25.4 0c-1.2,-54 11.43,-10.57 -52.85,-74.15 -25.47,-25.19 -243.48,-172.5 -243.48,-95.19z"/>
   <path class="fil0" d="M7559.65 11752.01l0 -25.4 25.4 0 0 -59.27c-124.43,-65.84 -156.32,-135.47 -270.93,-135.47 0,87.71 52.21,80.78 112.91,115.7 123.47,71.01 55.69,102.72 132.62,104.44z"/>
   <path class="fil0" d="M3241.65 15214.88l25.4 0 0 50.8 -25.4 0 -8.47 -42.34c-0.94,42.31 -15.99,59.3 -16.93,101.6 33.06,7.71 67.32,17.54 76.2,50.8l59.27 0 0 -25.4 25.4 0 0 -33.86c-56.35,0 -89.57,-5.72 -101.61,-50.8 27.32,0 59.8,6 81.93,-11.21 22.19,-17.27 15.3,-14.73 19.68,-31.13 -8.46,-11.54 -104.88,-102.34 -135.47,-118.53l0 110.07z"/>
   <path class="fil0" d="M2894.51 12344.67l0 42.34c102.05,-2.28 70.83,-66.04 210.24,-153.83 32.77,-20.64 40.47,-36.09 60.7,-66.31l-110.07 0c-50.8,96.02 -160.87,96.24 -160.87,177.8z"/>
   <path class="fil0" d="M7398.79 11938.27c0,-73.25 -4.76,-87.7 -49.27,-120.06 -18.51,-13.46 -36.99,-17.34 -53.93,-30.74 -56.17,-44.42 23.14,-43.93 -142.34,-43.93 1.91,85.42 53.42,81.67 109.73,110.41 58.5,29.87 63.36,78.3 135.81,84.32z"/>
   <path class="fil0" d="M4029.05 14300.48c0,109.86 -5.95,289.61 7.77,390.16 3.13,22.96 3.15,28.16 7.55,43.25l18.55 40.72 0 -736.6c-28.18,40.55 -23.73,78.95 -25.57,118.37 -2.19,46.73 -8.3,84.51 -8.3,144.1z"/>
   <path class="fil0" d="M6128.78 16383.28c38.59,-3.21 102.7,-42.9 135.47,-59.27 20.14,-10.06 49.41,-22.52 67.58,-34.02 45.47,-28.78 18.6,-42.18 84.82,-42.18l0 -84.66c-99.68,0 -3.95,8.51 -172.27,98.66 -45.62,24.43 -111.14,67.97 -115.6,121.47z"/>
   <path class="fil0" d="M7601.99 14850.81c0,28.71 10.52,17.31 37.97,29.77l16.55 8.84c21.65,12.11 -12.15,3.16 21.68,12.19 24.02,-17.6 12.64,-21.17 46.59,-38.08 52.78,-26.29 46.54,9.08 46.54,-122.79 -45.55,1.02 -50.19,11.83 -59.27,50.8l-25.4 0c-4.54,-54.61 -42.83,-50.8 -84.66,-50.8l0 110.07z"/>
   <path class="fil0" d="M6865.39 12065.27c-44.77,0 -12.63,0.06 -25.4,8.47 22.65,6.05 49.92,30.5 72.84,45.69 73.99,49.02 100.46,56.97 149.08,104.92 31.56,31.14 41.88,27.19 99.81,27.19 -48.74,-72.79 -4.83,-51.31 -38.14,-80.39 -1.3,-1.13 -71.12,-33.34 -80.04,-38.5l-114.68 -63.12c-27.46,-12.87 -19.65,7.62 -29.61,-29.66l-33.86 0 0 25.4z"/>
   <path class="fil0" d="M5798.58 14977.81c0,68.94 5.83,105.08 8.51,169.29 3.17,75.72 25.36,51.82 25.36,160.91l25.39 -389.48c-0.33,-54.28 7.59,-86.97 8.48,-126.99 -67.46,5.62 -67.74,121.28 -67.74,186.27z"/>
   <path class="fil0" d="M2496.58 15528.14l-50.8 0 0 59.27c79.53,0 120.16,-9 180.86,22.34 32.43,16.75 34.81,28.46 81.61,28.46 -20.2,-75.62 -106.11,-108.97 -123.51,-122.03 -45.72,-34.3 8.5,-38.84 -88.16,-38.84l0 50.8z"/>
   <path class="fil0" d="M7288.72 15638.21c65.11,-15.17 95.02,-49.8 177.54,-51.07 37.52,-0.57 97.09,11.65 86.81,-18.31 -9.19,-26.76 -50.12,-34.17 -78.08,-40.69l0 -50.8 -59.27 0c-30.92,115.82 -127,28.76 -127,160.87z"/>
   <path class="fil0" d="M2310.31 14757.68l0 33.86c-93.88,0 -7.15,-17.84 -76.2,-25.4l0 110.07c54.6,0 86.63,34.2 119.08,0.71 10.1,-10.43 39.93,-96.83 41.79,-119.24 -6.37,-1.7 -84.67,-60.68 -84.67,0z"/>
   <path class="fil0" d="M3080.78 14207.34l-25.4 0 0 84.67c52.91,19.15 2.05,76.2 110.07,76.2l0 -160.87c-25.51,-6.81 -18.59,0.11 -25.4,-25.4l-59.27 0 0 25.4z"/>
   <path class="fil0" d="M5934.05 14783.08l0 457.2 33.87 0 0 -457.2c0,-23.85 -3.66,-15.68 -16.94,-25.4 -14.27,9.91 -16.93,1.21 -16.93,25.4z"/>
   <path class="fil0" d="M3817.38 11379.47c25.51,6.81 18.59,-0.1 25.4,25.4l67.74 0c6.81,-25.5 -0.11,-18.59 25.4,-25.4 0,-187.52 -17.16,-60.08 -25.4,-135.46l-59.27 0c0,116.39 -33.87,30.79 -33.87,135.46z"/>
   <path class="fil0" d="M6044.12 11269.41l-25.4 0 0 110.06c46.93,31.43 36.09,25.4 110.06,25.4 0,-122.92 -25.4,-25.8 -25.4,-160.86l-59.26 0 0 25.4z"/>
   <path class="fil0" d="M3766.58 15951.48l-25.4 0 0 33.86c65.27,17.43 12.38,101.61 194.74,101.61 -5.22,-19.54 -56.82,-70.62 -74.01,-86.87 -86.39,-81.65 -39.47,-72.76 -95.33,-74l0 25.4z"/>
   <path class="fil0" d="M3326.31 15054.01c0,-91.54 -26.06,-77.85 -47.07,-139.19 -25.28,-73.76 -37.59,-90.77 -37.59,-157.14l-25.4 0c0,224.84 1.39,131.04 51.62,253.17 12.88,31.31 15.89,39.62 58.44,43.16z"/>
   <path class="fil0" d="M6653.72 15375.74c57.04,-30.18 135.47,-50.5 135.47,-169.33 0,-26.07 -11.73,-25.4 -33.87,-25.4 -32.07,0 -36.79,56.5 -57.86,86.08 -27.01,37.9 -43.74,44.19 -43.74,108.65z"/>
   <path class="fil0" d="M3351.72 16451.01c3.86,46.48 31.91,65.36 42.33,110.07 46.87,-3.9 37.8,-21.5 84.67,-25.4l0 -84.67c-37.92,-13.72 4.21,1.72 -20.42,-13.45 -24.7,-15.21 32.67,-11.95 -64.25,-11.95 -35.93,0 -0.99,-1.09 -21.92,11.95 -27.3,17.01 17.47,-0.68 -20.41,13.45z"/>
   <path class="fil0" d="M6442.05 16451.01l0 59.27c54.8,28.99 -11.01,25.4 135.47,25.4 -35.37,-151.8 -34.04,-63.51 -50.8,-135.47l-33.87 0c-8.95,38.43 -12.37,41.85 -50.8,50.8z"/>
   <path class="fil0" d="M5358.32 12166.87l0 84.67c39.28,26.31 5.9,25.4 84.66,25.4l0 -84.67c22.27,-5.18 24.88,-7.69 42.34,-16.93 -24.52,-33.47 -29.56,-4.41 -42.34,-59.27 -85.05,1.9 1.05,30.84 -84.66,50.8z"/>
   <path class="fil0" d="M2792.91 14224.28c0,40.9 29.99,59.89 52.67,82.8 37.47,37.85 37.81,35.73 108.2,35.73 -21.5,-32.11 -38.62,-50.16 -61.98,-81.95 -45.55,-61.99 -11.32,-78.92 -98.89,-78.92l0 42.34z"/>
   <path class="fil0" d="M5569.98 11371.01l0 33.86c101.7,8.47 22.06,50.8 135.47,50.8 0,-94.35 -25.4,0.89 -25.4,-135.46l-59.27 0c-8.01,34.41 -12.12,47.58 -50.8,50.8z"/>
   <path class="fil0" d="M7576.59 14232.74l0 33.87c35.23,2.93 47.86,15.57 50.8,50.8l33.86 0 0 -50.8 25.4 0 0 -84.67 -32.56 -26.84c-74.04,51.97 -25.22,63.68 -77.5,77.64z"/>
   <path class="fil0" d="M6044.12 15054.01l33.86 0 0 -296.33c0,-25.6 -9.96,-23.41 -33.86,-25.4l0 321.73z"/>
   <path class="fil0" d="M7686.65 11354.07c88.07,0 110.07,-1.35 110.07,-110.06 -47.63,0 -84.25,-8.97 -108.4,36.21 -15.41,28.84 -2.47,37.72 -1.67,73.85z"/>
   <path class="fil0" d="M4537.05 17069.08l108.62 -53.72 1.45 -107.15 -59.27 0c-1.76,78.98 -50.8,77.78 -50.8,160.87z"/>
   <path class="fil0" d="M5807.05 12217.67l-25.4 0 0 67.74c49.77,11.59 49.17,50.16 87.25,47.86 50.73,-3.07 8.05,-58.43 8.03,-58.47 -15.38,-30.46 -5.45,1.6 -10.12,-40.69 -5.87,-53.18 -1.16,-41.84 -59.76,-41.84l0 25.4z"/>
   <path class="fil0" d="M7051.65 14342.81c59.53,-1.33 63.53,-20.97 91.24,-52.69 26.92,-30.81 46.43,-48.13 69.63,-82.78 -25.51,-6.81 -18.59,0.11 -25.4,-25.4l-33.87 0c-12.14,45.48 -78.72,62.69 -101.6,160.87z"/>
   <path class="fil0" d="M3554.92 16561.08l-25.4 0 0 33.87c35.23,2.93 47.86,15.56 50.8,50.8l59.26 0c6.81,-25.51 -0.1,-18.59 25.4,-25.4l0 -33.87 -25.4 0 0 -50.8 -84.66 0 0 25.4z"/>
   <path class="fil0" d="M6281.19 16645.75l110.06 0 0 -110.07c-69.85,0 -108.58,43.3 -110.06,110.07z"/>
   <path class="fil0" d="M4486.25 12175.34c0,12.57 18.28,37.35 25.4,50.8l110.07 0c-7.32,-15.25 -20.91,-65.36 -25.4,-84.67l-110.07 0 0 33.87z"/>
   <path class="fil0" d="M2335.71 13936.41c0,103.2 6.5,32.43 25.4,84.67 41.3,-3.44 46.81,-21.55 93.14,-25.4 -6.05,-72.7 -59.27,0.5 -59.27,-110.07 -20.33,1.69 -21.5,-7.88 -47.63,28.57 -14.47,20.17 -11.64,-12.15 -11.64,22.23z"/>
   <path class="fil0" d="M6281.19 11540.34c133.76,0 68.31,32.87 135.46,50.8l0 -84.67c-25.5,-6.81 -18.59,0.11 -25.4,-25.4l-110.06 0 0 59.27z"/>
   <path class="fil0" d="M7415.72 13470.74c49.41,13.2 17.01,25.4 110.07,25.4 0,-8.83 0.91,-25.59 -0.24,-33.62 -5.79,-40.35 -21.02,-26.69 -25.16,-76.44 -68.67,0 -84.67,15.99 -84.67,84.66z"/>
   <path class="fil0" d="M7551.19 13961.81c17.42,23.78 17.46,11.99 39.45,36.75 23.48,26.44 3.1,27.48 45.21,30.98 0,-87.88 25.4,-13.16 25.4,-118.53l-25.4 0 0 -25.4c-42.55,3.54 -21.47,4.75 -45.27,30.93 -28.76,31.63 -29.44,7.98 -39.39,45.27z"/>
   <path class="fil0" d="M2310.31 14207.34l-25.4 0c39.08,73.85 28.69,45.67 84.67,110.07 6.81,-25.51 -0.11,-18.59 25.4,-25.4l0 -84.67c-27.7,-10.02 -6.15,10.99 -25.4,-25.4l-59.27 0 0 25.4z"/>
   <path class="fil0" d="M4240.72 11455.67c82.23,0 50.46,-0.53 81.77,-28.29 24.15,-21.4 17.98,-5.34 36.76,-30.97 -18.79,-70.38 -118.53,-84.78 -118.53,59.26z"/>
   <path class="fil0" d="M2124.05 11269.41c0,50.47 9.86,84.66 67.73,84.66 18.29,0 16.67,-4.4 39.03,-28.71 10.59,-11.52 3.67,-2.57 11.77,-13.62 -16.12,-24.08 -60.71,-67.73 -93.13,-67.73 -19.51,0 -25.4,5.89 -25.4,25.4z"/>
   <path class="fil0" d="M4088.32 12327.74c104.41,-24.32 84.66,-15.1 84.66,-110.07 0,-31.13 -18.07,-25.4 -59.26,-25.4 0,50.65 1.01,27.67 -15.23,60.97 -15.49,31.77 -10.17,31.3 -10.17,74.5z"/>
   <path class="fil0" d="M3529.52 11565.74c108.68,0 9.08,-25.4 135.46,-25.4l0 -59.27 -110.06 0c-9.62,41.29 -24.29,34.48 -25.4,84.67z"/>
   <path class="fil0" d="M7500.39 13673.94l0 33.87c25.5,6.81 18.59,-0.11 25.4,25.4l59.26 0c6.81,-25.51 -0.1,-18.59 25.4,-25.4l0 -59.27 -25.4 0 0 -25.4 -33.86 0c-8.02,34.41 -12.13,47.58 -50.8,50.8z"/>
   <polygon class="fil0" points="3851.25,14579.88 3876.65,14579.88 3876.65,14258.14 3851.25,14258.14 "/>
   <path class="fil0" d="M2394.98 13682.41c0,34.66 -1.02,2.56 6.75,18.65 0.73,1.51 1.8,4.17 2.69,5.78l6.39 10.54c19.17,23.13 3.9,14.95 43.44,15.83 6.81,-25.51 -0.11,-18.59 25.4,-25.4l0 -59.27c-41.29,-9.62 -34.47,-24.28 -84.67,-25.4l0 59.27z"/>
   <path class="fil0" d="M2606.65 15409.61l0 16.93c35.32,30.61 20.98,25.4 84.66,25.4 0,-97.61 12.95,-84.66 -84.66,-84.66l0 42.33z"/>
   <path class="fil0" d="M7390.32 15265.68c61.7,0 108.27,-20.85 110.07,-101.6 -41.1,3.42 -108.54,32.87 -110.07,101.6z"/>
   <path class="fil0" d="M5383.72 11379.47l84.66 0 0 -33.86c0,-20.39 -30.41,-50.8 -50.8,-50.8l-33.86 0 0 84.66z"/>
   <path class="fil0" d="M7347.99 15451.94c9.17,-34.37 -0.83,0.99 13.29,-29.73 32.01,-69.64 -17.05,-54.93 -72.56,-54.93 1.59,19.13 6,36.86 12.72,55.01 12.04,32.55 7.64,28.79 46.55,29.65z"/>
   <path class="fil0" d="M2521.98 15265.68l59.27 0c10.65,-20.13 19.54,-28.87 25.4,-50.8 -21.82,-0.49 -39.4,-3.64 -58.65,-9.08 -31.31,-8.85 -5.33,-2.44 -24.74,-9.14 -5.83,-2 2.02,-4.79 -26.68,-7.18 3.78,45.36 16.85,44.18 25.4,76.2z"/>
   <path class="fil0" d="M2471.18 13470.74c35.37,0 53.32,-5.95 76.2,-16.93l8.47 -67.73 -59.27 0c-2.88,34.59 -12.51,60.3 -25.4,84.66z"/>
   <path class="fil0" d="M4486.25 11320.21c0.97,43.68 11.83,59.26 84.67,59.26 -10.51,-45.11 -8.58,-80.44 -59.27,-84.66 -6.59,24.69 -0.08,19.33 -25.4,25.4z"/>
   <path class="fil0" d="M3182.38 16544.15c0,19.5 5.89,25.4 25.4,25.4l59.27 0 0 -59.27 -84.67 0 0 33.87z"/>
   <path class="fil0" d="M2547.38 13267.54c38.24,52.19 42.26,41.77 67.73,42.34 10.52,-45.16 16.94,-10.7 16.94,-84.67 -32.4,0.72 -39.43,2.66 -56.96,17.82l-27.71 24.51z"/>
   <path class="fil0" d="M6069.52 16086.95c99.59,0 78.06,-45.75 90.56,-70.31 9.91,-19.45 15.84,4.27 19.51,-39.76 -30.05,8.02 -96.38,84.19 -110.07,110.07z"/>
   <path class="fil0" d="M5993.32 14503.68l76.2 0c-1.15,-51.61 -24,-58.11 -76.2,-59.27l0 59.27z"/>
   <path class="fil0" d="M5299.05 16959.01c0,28.91 34.2,44.96 59.27,50.8l0 -76.2 -59.27 0 0 25.4z"/>
   <path class="fil0" d="M4240.72 14283.54c0,16.99 5.06,31.93 11.42,47.84 0.39,0.96 6.67,14.62 8.17,17.24 1.25,2.19 5.47,8.49 6.68,10.25 0.87,1.26 3.03,3.72 3.76,4.72 0.73,0.98 2.52,3.11 3.83,4.62l-8.46 -211.67c0,81.77 -25.4,55.96 -25.4,127z"/>
   <path class="fil0" d="M3216.25 15401.14l0 -33.86c-14.31,-1.57 -3.35,2.39 -14.3,-2.64 -1.26,-0.58 -4.49,-1.69 -5.99,-2.48l-14.63 -10.76c-14.56,-9.71 -3.68,-3.07 -15.88,-9.52 2.16,26.03 0.12,19.41 12.55,38.25 13.75,20.85 9.6,18.63 38.25,21.01zm0 25.4l25.4 0 0 -25.4 -25.4 0 0 25.4z"/>
   <path class="fil0" d="M4240.72 14469.81c0,43.46 -4.27,13.2 11.43,30.9l22.43 19.9 0 -84.67c-19.18,5.12 -33.86,8.14 -33.86,33.87z"/>
  </g>
 </g>
</svg>
