<?xml version="1.0" encoding="UTF-8"?>
<!DOCTYPE svg PUBLIC "-//W3C//DTD SVG 1.1//EN" "http://www.w3.org/Graphics/SVG/1.1/DTD/svg11.dtd">
<!-- Creator: CorelDRAW -->
<svg xmlns="http://www.w3.org/2000/svg" xml:space="preserve" width="86mm" height="33mm" version="1.1" style="shape-rendering:geometricPrecision; text-rendering:geometricPrecision; image-rendering:optimizeQuality; fill-rule:evenodd; clip-rule:evenodd"
viewBox="0 0 8600 3300"
 xmlns:xlink="http://www.w3.org/1999/xlink"
 xmlns:xodm="http://www.corel.com/coreldraw/odm/2003">
 <defs>
  <style type="text/css">
   <![CDATA[
    .str1 {stroke:#FEFEFE;stroke-width:25;stroke-miterlimit:22.9256}
    .str0 {stroke:#FEFEFE;stroke-width:10;stroke-miterlimit:22.9256}
    .fil2 {fill:none}
    .fil1 {fill:#FEFEFE}
    .fil0 {fill:#FEFEFE;fill-rule:nonzero}
   ]]>
  </style>
 </defs>
 <g id="Camada_x0020_1">
  <metadata id="CorelCorpID_0Corel-Layer"/>
  <path class="fil0" d="M428.82 1418.96l280.94 0 0 59.31 -36.68 0c-23.41,0 -37.98,2.74 -43.7,8.33 -5.73,5.6 -8.58,18.99 -8.58,40.06l0 356.64 97.68 0c34.85,0 60.87,-2.98 78.16,-8.97 17.3,-5.98 29.65,-16 37.33,-29.91 7.41,-13.53 12.87,-29.93 16.39,-49.17 3.51,-19.38 5.33,-42.54 5.33,-69.45l0 -9.5 60.1 0 0 226.31 -486.97 0 0 -59.31 30.43 0c23.15,0 37.59,-2.73 43.19,-8.19 5.59,-5.46 8.32,-18.86 8.32,-40.19l0 -308.26c0,-21.33 -2.73,-34.72 -8.32,-40.19 -5.6,-5.46 -20.04,-8.2 -43.19,-8.2l-30.43 0 0 -59.31zm543.02 523.65l0 -59.31 33.55 0c23.15,0 37.59,-2.73 43.19,-8.19 5.59,-5.46 8.32,-18.86 8.32,-40.19l0 -308.26c0,-21.33 -2.73,-34.72 -8.32,-40.19 -5.6,-5.46 -20.04,-8.2 -43.19,-8.2l-33.55 0 0 -59.31 282.5 0 0 59.31 -33.43 0c-23.28,0 -37.72,2.74 -43.32,8.2 -5.59,5.47 -8.32,18.86 -8.32,40.19l0 308.26c0,21.33 2.73,34.73 8.32,40.19 5.6,5.46 20.04,8.19 43.32,8.19l33.43 0 0 59.31 -282.5 0zm774.29 0l0 -59.31 35.11 0c23.15,0 37.46,-2.73 43.05,-8.19 5.59,-5.46 8.45,-18.86 8.45,-40.19l0 -338.3 -168.82 445.99 -51.64 0 -158.81 -454.84 0 347.15c0,21.33 2.73,34.73 8.32,40.19 5.59,5.46 20.03,8.19 43.19,8.19l31.21 0 0 59.31 -244.25 0 0 -59.31 28.21 0c23.02,0 37.46,-2.73 43.05,-8.19 5.6,-5.46 8.34,-18.86 8.34,-40.19l0 -308.26c0,-21.33 -2.74,-34.72 -8.34,-40.19 -5.59,-5.46 -20.03,-8.2 -43.05,-8.2l-28.21 0 0 -59.31 243.48 0 116.67 339.74 129.93 -339.74 233.34 0 0 59.31 -29.79 0c-23.28,0 -37.84,2.74 -43.57,8.33 -5.73,5.6 -8.58,18.99 -8.58,40.06l0 308.26c0,21.06 2.85,34.47 8.58,40.06 5.73,5.59 20.29,8.32 43.57,8.32l29.79 0 0 59.31 -269.23 0zm307.61 0l0 -59.31 33.55 0c23.15,0 37.59,-2.73 43.18,-8.19 5.6,-5.46 8.32,-18.86 8.32,-40.19l0 -308.26c0,-21.33 -2.72,-34.72 -8.32,-40.19 -5.59,-5.46 -20.03,-8.2 -43.18,-8.2l-33.55 0 0 -59.31 282.5 0 0 59.31 -33.43 0c-23.29,0 -37.73,2.74 -43.32,8.2 -5.59,5.47 -8.32,18.86 -8.32,40.19l0 308.26c0,21.33 2.73,34.73 8.32,40.19 5.59,5.46 20.03,8.19 43.32,8.19l33.43 0 0 59.31 -282.5 0zm511.29 -465.9l-10.28 0c-41.75,0 -72.19,12.49 -91.18,37.46 -18.98,25.11 -28.86,65.69 -29.65,121.74l-60.09 0 0 -216.95 493.21 0 0 216.95 -60.09 0c-0.52,-55.4 -10.28,-95.72 -29.4,-121.09 -18.99,-25.35 -49.42,-38.11 -91.04,-38.11l-11.44 0 0 358.21c0,21.06 2.85,34.47 8.58,40.06 5.72,5.59 20.29,8.32 43.56,8.32l44.63 0 0 59.31 -303.58 0 0 -59.31 45.39 0c23.02,0 37.46,-2.73 43.06,-8.19 5.59,-5.46 8.32,-18.86 8.32,-40.19l0 -358.21zm338.05 465.9l0 -59.31 30.43 0c23.15,0 37.59,-2.73 43.18,-8.19 5.59,-5.46 8.32,-18.99 8.32,-40.45l0 -308.26c0,-21.2 -2.73,-34.6 -8.32,-39.93 -5.59,-5.46 -20.03,-8.2 -43.18,-8.2l-30.43 0 0 -59.31 515.06 0 0 208.37 -59.31 0c-1.56,-59.57 -11.32,-99.37 -29.14,-119.27 -17.96,-19.9 -54.23,-29.79 -109,-29.79l-125.64 0 0 160.76 29.66 0c32.78,0 54.23,-5.71 64.51,-17.03 10.14,-11.32 16.52,-37.32 18.99,-78.18l59.31 -0.38 0 262.6 -59.31 -0.38c-2.34,-44.89 -8.46,-73.89 -18.73,-86.89 -10.14,-13.14 -31.48,-19.64 -64,-19.64l-30.43 0 0 184.17 137.08 0c45.8,0 77.27,-10.66 94.3,-31.86 17.05,-21.2 27.84,-64.65 32.4,-130.46l59.31 0 0 221.63 -515.06 0zm589.07 0l0 -59.31 30.43 0c23.15,0 37.59,-2.73 43.18,-8.19 5.59,-5.46 8.32,-18.86 8.32,-40.19l0 -308.26c0,-21.33 -2.73,-34.72 -8.32,-40.19 -5.59,-5.46 -20.03,-8.2 -43.18,-8.2l-30.43 0 0 -59.31 297.19 0c91.44,0 160.63,22.12 207.58,66.34 46.96,44.22 70.37,109.26 70.37,195.1 0,85.84 -23.55,151 -70.49,195.49 -47.08,44.48 -116.29,66.72 -207.46,66.72l-297.19 0zm191.97 -59.31l68.54 0c40.98,0 71.54,-3.12 91.83,-9.5 20.42,-6.36 37.98,-17.17 52.68,-32.38 14.69,-15.22 26.27,-37.07 34.85,-65.55 8.45,-28.49 12.76,-60.22 12.76,-95.33 0,-34.99 -4.31,-66.6 -12.76,-94.83 -8.58,-28.22 -20.16,-49.95 -34.85,-65.16 -14.7,-15.22 -32.26,-26.02 -52.68,-32.52 -20.29,-6.5 -50.85,-9.76 -91.83,-9.76l-68.54 0 0 405.03zm684.42 59.31l0 -59.31 30.43 0c23.15,0 37.59,-2.73 43.18,-8.19 5.59,-5.46 8.32,-18.99 8.32,-40.45l0 -308.26c0,-21.2 -2.73,-34.6 -8.32,-39.93 -5.59,-5.46 -20.03,-8.2 -43.18,-8.2l-30.43 0 0 -59.31 515.06 0 0 208.37 -59.31 0c-1.56,-59.57 -11.32,-99.37 -29.14,-119.27 -17.96,-19.9 -54.24,-29.79 -109,-29.79l-125.64 0 0 160.76 29.66 0c32.78,0 54.23,-5.71 64.51,-17.03 10.14,-11.32 16.51,-37.32 18.98,-78.18l59.31 -0.38 0 262.6 -59.31 -0.38c-2.33,-44.89 -8.45,-73.89 -18.72,-86.89 -10.14,-13.14 -31.48,-19.64 -64,-19.64l-30.43 0 0 184.17 137.08 0c45.79,0 77.27,-10.66 94.3,-31.86 17.05,-21.2 27.84,-64.65 32.4,-130.46l59.31 0 0 221.63 -515.06 0zm589.07 0l0 -59.31 30.43 0c23.15,0 37.59,-2.73 43.18,-8.19 5.59,-5.46 8.32,-18.86 8.32,-40.19l0 -308.26c0,-21.33 -2.73,-34.72 -8.32,-40.19 -5.59,-5.46 -20.03,-8.2 -43.18,-8.2l-30.43 0 0 -59.31 297.18 0c91.45,0 160.64,22.12 207.59,66.34 46.96,44.22 70.37,109.26 70.37,195.1 0,85.84 -23.55,151 -70.49,195.49 -47.08,44.48 -116.29,66.72 -207.47,66.72l-297.18 0zm191.97 -59.31l68.54 0c40.98,0 71.54,-3.12 91.83,-9.5 20.41,-6.36 37.98,-17.17 52.67,-32.38 14.7,-15.22 26.28,-37.07 34.86,-65.55 8.45,-28.49 12.75,-60.22 12.75,-95.33 0,-34.99 -4.3,-66.6 -12.75,-94.83 -8.58,-28.22 -20.16,-49.95 -34.86,-65.16 -14.69,-15.22 -32.26,-26.02 -52.67,-32.52 -20.29,-6.5 -50.85,-9.76 -91.83,-9.76l-68.54 0 0 405.03zm442.49 59.31l0 -59.31 33.55 0c23.16,0 37.6,-2.73 43.19,-8.19 5.59,-5.46 8.32,-18.86 8.32,-40.19l0 -308.26c0,-21.33 -2.73,-34.72 -8.32,-40.19 -5.59,-5.46 -20.03,-8.2 -43.19,-8.2l-33.55 0 0 -59.31 282.51 0 0 59.31 -33.43 0c-23.29,0 -37.73,2.74 -43.32,8.2 -5.59,5.47 -8.32,18.86 -8.32,40.19l0 308.26c0,21.33 2.73,34.73 8.32,40.19 5.59,5.46 20.03,8.19 43.32,8.19l33.43 0 0 59.31 -282.51 0zm511.29 -465.9l-10.27 0c-41.75,0 -72.19,12.49 -91.18,37.46 -18.99,25.11 -28.87,65.69 -29.66,121.74l-60.08 0 0 -216.95 493.21 0 0 216.95 -60.1 0c-0.51,-55.4 -10.27,-95.72 -29.39,-121.09 -18.99,-25.35 -49.42,-38.11 -91.05,-38.11l-11.44 0 0 358.21c0,21.06 2.85,34.47 8.58,40.06 5.73,5.59 20.29,8.32 43.57,8.32l44.62 0 0 59.31 -303.58 0 0 -59.31 45.4 0c23.02,0 37.46,-2.73 43.05,-8.19 5.59,-5.46 8.32,-18.86 8.32,-40.19l0 -358.21zm339.61 465.9l0 -59.31 33.55 0c23.16,0 37.6,-2.73 43.19,-8.19 5.59,-5.46 8.32,-18.86 8.32,-40.19l0 -308.26c0,-21.33 -2.73,-34.72 -8.32,-40.19 -5.59,-5.46 -20.03,-8.2 -43.19,-8.2l-33.55 0 0 -59.31 282.51 0 0 59.31 -33.43 0c-23.29,0 -37.73,2.74 -43.32,8.2 -5.59,5.47 -8.32,18.86 -8.32,40.19l0 308.26c0,21.33 2.73,34.73 8.32,40.19 5.59,5.46 20.03,8.19 43.32,8.19l33.43 0 0 59.31 -282.51 0zm453.54 -262.21c0,67.63 14.57,120.32 43.84,158.03 29.13,37.72 69.58,56.57 121.47,56.57 51.78,0 92.09,-18.85 121.23,-56.44 29,-37.59 43.58,-90.27 43.58,-158.16 0,-67.63 -14.44,-120.18 -43.45,-157.64 -28.88,-37.46 -69.32,-56.19 -121.36,-56.19 -51.89,0 -92.34,18.73 -121.47,56.19 -29.27,37.46 -43.84,90.01 -43.84,157.64zm-123.3 0c0,-82.86 26.53,-149.58 79.47,-200.3 52.94,-50.59 122.66,-75.96 209.14,-75.96 86.63,0 156.22,25.37 209.02,75.96 52.68,50.72 79.09,117.44 79.09,200.3 0,83.11 -26.41,149.97 -79.34,200.83 -52.81,50.85 -122.4,76.22 -208.77,76.22 -86.48,0 -156.2,-25.5 -209.14,-76.36 -52.94,-50.99 -79.47,-117.83 -79.47,-200.69zm1155 262.21l-110.3 0 -260.4 -426.61 0 318.92c0,21.33 2.87,34.73 8.46,40.19 5.59,5.46 19.9,8.19 43.05,8.19l35.9 0 0 59.31 -257.53 0 0 -59.31 36.68 0c23.14,0 37.46,-2.73 43.05,-8.19 5.59,-5.46 8.46,-18.86 8.46,-40.19l0 -308.26c0,-21.33 -2.87,-34.72 -8.46,-40.19 -5.59,-5.46 -19.91,-8.2 -43.05,-8.2l-33.7 0 0 -59.31 224.12 0 231.77 380.2 0 -272.5c0,-21.33 -2.73,-34.72 -8.32,-40.19 -5.59,-5.46 -19.91,-8.2 -42.93,-8.2l-36.93 0 0 -59.31 247.38 0 0 59.31 -25.11 0c-23.41,0 -37.84,2.74 -43.56,8.33 -5.73,5.6 -8.58,18.99 -8.58,40.06l0 415.95z"/>
  <g id="_1483690532400">
   <path class="fil1 str0" d="M395.68 2211.96c590.04,-102 1000.28,-197.38 1659.97,-89.97 782.38,127.39 1121.49,59.87 1920.55,3.48l14.36 -0.82c-11.21,1.81 -12.8,2.22 -25,3.6 -725.31,82.25 -1233.32,117.59 -1940.77,5.76 -632.32,-99.95 -1014.6,-5.45 -1577.65,94.26 -17.37,3.25 -42.98,2.24 -57.19,-2.26 -14.21,-4.51 -11.64,-10.8 5.73,-14.05z"/>
  </g>
  <path class="fil2" d="M421.41 2220.11c2003.18,-375.15 1132.79,160.41 3542.61,-92.67l26.54 -2.79"/>
  <path class="fil2 str1" d="M4448.75 2220.12c2003.18,-375.15 1132.79,160.41 3542.61,-92.67l26.54 -2.79"/>
  <g id="_1483690552512">
   <path class="fil1" d="M4238.99 2138.25c0,1.59 -0.18,1.7 0.35,2.92 1.59,3.65 0.87,3.66 0.87,9.3l0.41 67.58c0,26.37 0.95,54.37 0.81,81.03 -0.08,15.5 2.83,20.37 6.6,34.12 0.56,2.06 1.4,3.02 2.01,4.91 0.64,2.04 0.56,3.5 3.2,3.72 0,-3.24 0.33,-2.1 1.43,-4.27l7.41 -22.68c0.12,-2.19 -0.48,-2.08 0.3,-5.04 1.26,-4.81 1.45,-8.61 0.74,-13.72 -0.66,-4.83 -0.44,-5.84 1.52,-6l0 -98.12c-3.99,-2.11 -1.04,-2.15 -3.66,-2.85 -2.06,1.51 -2.03,7.3 -2.04,11 -0.01,2.73 0.4,3.7 0.43,6.08 0.38,31.25 -0.02,64.97 -0.02,96.51l-2.39 14.71c-0.82,2.73 -3.96,11.05 -4.13,12.98l-1.22 0c0,-3.26 -1.21,-4.62 -1.99,-6.97 -0.78,-2.36 -1.74,-4.85 -2.41,-6.95 -0.84,-2.64 -0.05,-6.02 -0.84,-8.12 -0.41,-1.12 -0.37,-0.56 -0.64,-1.39 -1.85,-5.85 0.53,-60.47 -0.24,-70.61 -0.22,-2.97 -1.24,-3.39 -1.22,-7.33 0.02,-2.75 0.25,-5.74 -0.16,-8.39 -1.11,-7.24 1.4,-3.53 1.4,-7.5 0,-1.99 -1.63,0.44 -1.63,-5.7l0 -37.05c0,-6.34 0.4,-11.2 0.4,-17.51 4.3,1.15 2.02,15.42 2.04,19.13l0 89.99c0,2.71 0.93,3.71 1.18,5.74 1.03,8.43 -2.36,42.12 2.89,45.97l0 -179.15c-3.66,0 -2.85,-0.44 -2.85,6.92 0,2.71 0,5.43 0,8.14 -1.65,-0.44 -3.26,-2.68 -3.26,-5.29 0,-1.61 0.43,-2.19 0.72,-3.36 0.42,-1.68 0.34,-2.13 0.52,-3.95 0.21,-2.06 0.59,-1.48 1.03,-3.04 0.36,-1.29 0.18,-2.91 0.18,-4.31l-1.22 0 0 -6.51c-1.92,-1.01 -2.03,-1.97 -4.08,-2.44 0,3.14 0.16,6.68 0.01,9.77l-1.15 6.18c-0.42,1.47 0.4,1.1 -1.3,1.55z"/>
   <path class="fil1" d="M4258.13 2160.24l1.22 0 0 18.73 -1.22 0 0 -18.73zm20.36 17.91c0.19,-0.19 2.3,0.23 0.73,0.22 0,0 -0.06,0 -0.06,-0.01 -0.36,-0.09 -1.36,0.48 -0.67,-0.21zm3.25 -0.81c0,-1.04 0.65,-0.07 0.24,0 0,0 -0.24,1.14 -0.24,0zm0.82 -1.22c0,-1.11 1.45,0 0.36,0.02 -0.41,0.01 -0.36,0.9 -0.36,-0.02zm2.44 -2.04l0.81 0 0 1.22c-1.56,-1.08 -0.17,0.01 -0.81,-1.22zm2.04 -1.22l0 1.22 -0.82 0c0.27,-1.11 -0.16,-0.63 0.82,-1.22zm0.4 -1.22l0.82 0 0 1.22 -0.82 0 0 -1.22zm1.22 0l0 -1.22 1.23 0c-0.32,0.88 0.11,0.28 -0.45,0.78 -0.19,0.17 -0.66,0.28 -0.78,0.44zm1.23 -2.44l1.22 0 0 0.81 -1.22 0 0 -0.81zm1.22 -2.45l1.22 0 0 2.04 -1.22 0 0 -2.04zm1.63 -0.81c0,-1.11 1.45,0 0.36,0.02 -0.41,0.01 -0.36,0.91 -0.36,-0.02zm1.62 -0.81c-1.05,0.13 -0.12,-1.38 -0.01,-0.51l0.01 0.51zm4.48 -25.25l1.22 0 0 3.67 -1.22 0 0 -3.67zm2.45 -10.18l1.22 0 0 2.45 -1.22 0 0 -2.45zm-30.54 -17.91l1.22 0 0 -1.22 -1.22 0 0 1.22zm20.36 31.35c0,8.9 0.66,9.26 -3.12,16.83 -5.68,11.34 -2.62,8.84 -12.1,15.18 -0.73,0.49 -8.3,3.82 -10.03,3.82l-1.22 0c0,-8.38 0.44,-35.85 -0.39,-42.36 -0.27,-2.15 -0.14,-0.89 -0.59,-2.27 -0.15,-0.47 -0.42,-1.84 -0.43,-2.29 -0.09,-2.54 0.19,-7.84 0.19,-11.3 -4.44,0.37 -5.7,8.29 -5.7,10.99 0,2.09 0.51,3.33 1.07,5.04 2.48,7.52 1.88,6.55 -0.37,11.13 -0.72,1.46 -0.72,1.46 -1.51,1.74l0 -15.06 -2.85 0 0 46.01c2.18,0.05 2.78,0.57 4.24,1.46 0.97,0.6 1.05,0.6 1.98,0.86l1.53 0.5c0.09,0.04 0.18,0.11 0.26,0.15 5.87,3.06 15.67,2.92 22.24,0.41 2.38,-0.92 7.72,-4.55 10.06,-6.23 1.14,-0.81 1.9,-1.71 2.95,-2.75 3.74,-3.69 1.89,-4.06 5.19,-5.8l0 -2.85c3.03,-0.26 3.47,-4.56 5.56,-9.09 1.39,-3.01 0.42,-3.33 1.19,-6.14 0.41,-1.47 0.66,-1.24 0.93,-2.74 0.72,-4.01 0.56,-5.46 -0.52,-9.56 -2.09,-7.96 2.45,-0.47 -5.26,-15.9 -2.08,-4.16 -2.24,-5.57 -6.13,-8.12 -2.72,-1.77 -5.54,-4.23 -10.02,-4.23 0,5.84 0.98,-0.9 8.15,8.54 0.95,1.25 2.16,2.83 2.98,4.35 1.07,1.99 1.36,3.52 1.9,5.84 -1.88,-1.26 -4.12,-6.76 -7.23,-10.29 -1.08,-1.23 -8.95,-6.82 -10.69,-7.22 0.1,4.61 5.12,5.11 9.04,11.72 3.46,5.84 7.26,10.66 6.03,15.97l-0.82 0c0,-4.1 -6.58,-14.85 -9.26,-17.2l-10.97 -8.99c-2.06,-1.56 -2.1,-1.5 -5.42,-1.5 0.63,2.36 4.57,2.9 7.24,5.38 1.11,1.04 1.94,1.98 3.04,3.07 1.66,1.63 1.71,1.63 2.75,3.76 2.95,6.01 6.11,11.16 6.11,19.14z"/>
   <path class="fil1" d="M4333.86 2088.99l-12.22 0c-2.45,0 -3.44,-0.57 -5.35,-0.76 -0.93,-0.09 -1.78,-0.02 -2.72,-0.12 -1.19,-0.13 -1.27,-0.34 -2.92,-0.37 -2.3,-0.05 -5.68,1.25 -10.99,1.25l-35.43 0 0 3.66 72.48 0 0 72.07c0,1.22 -0.92,1.4 -1.68,1.98 -2.93,2.25 -3.34,5.14 -5.65,5.75 0,-3.4 -0.48,-59.66 0.34,-62.36 1.36,-4.46 0.88,-3.99 0.88,-9.7l-20.36 0c0.67,2.5 2.49,2.93 5.7,2.88 2.62,-0.04 3.1,-0.44 8.15,-0.44l2.44 0c0,10.63 0.41,19.89 0.41,30.54l0 26.06c0,4.02 -0.01,10.77 -1.18,13.89 -0.66,1.77 -0.43,2.61 -0.44,4.85 -0.01,3.07 -3.24,13.05 -4.34,16.42 -1.64,5.05 -5.47,19.98 -7.5,23.45l-7.79 12.97c-4.93,7.54 -18.02,21.68 -24.45,27.66l-8.8 6.68c-2.66,1.93 -2.91,0.04 -2.91,4.41 3.42,-0.07 4.21,-1.13 6,-2.95 1.97,-2.02 3.12,-2.13 5.24,-3.72l9.62 -8.7c1.41,-1.41 3.28,-3.04 4.45,-4.51 1.97,-2.48 0.84,-2.03 4.1,-5.26 1.79,-1.77 2.74,-2.57 4.22,-4.74 4.18,-6.14 7.27,-9.05 11.16,-16.53 4.18,-8.05 6.5,-18.6 9.41,-27.23 0.73,-2.19 1.33,-4.39 2.13,-6.82 0.68,-2.05 1.17,-3.45 1.31,-5.6 0.15,-2.34 -0.23,0.07 -0.23,-1.88 0,-2.33 4.69,-6.54 6.21,-8.04 2.06,-2.04 4.81,-6.27 7.63,-7.03l0 -78.17 -1.22 0 0 -1.22 -4.07 0c-0.25,0.92 -0.4,1.63 -1.63,1.63z"/>
   <path class="fil1" d="M4171.4 2176.12c0,1.16 0.88,1.26 2.46,2.43l6.91 7.75c1.86,2.42 2.83,2.28 3.76,6.01l4.23 15.31c2.19,6.82 6.61,13.08 10.21,19.52 4.95,8.86 7.05,13.1 13.49,20.7 1.23,1.45 3.13,4.49 4.3,5.47l5.07 4.71c1.18,0.93 1.51,1.16 2.61,2.28 1.8,1.82 3.32,2.88 5.09,4.68 0.72,0.74 5.19,5.14 5.63,2.78 0.65,-3.49 -15.43,-14.17 -20.72,-23.12 -1.49,-2.51 -7.83,-9.87 -10.2,-14.23 -5.09,-9.37 -9.69,-16.61 -12.8,-26.69 -1.46,-4.77 -4.61,-15.25 -4.55,-19.88 0.05,-3.49 -0.13,-1.89 -0.94,-3.94 -1.37,-3.45 0.46,-10.19 -0.64,-14.03 -2.29,-7.99 -0.04,-26.03 -0.86,-35.78 -0.18,-2.19 -1.37,-2.44 -2.87,-3.24l-0.5 31.76c0.01,4.61 0.55,8.1 0.5,12.22 -0.05,5.19 1.15,8.25 1.23,11.8 -0.92,-0.61 -1.02,-1.01 -1.76,-1.91 -0.66,-0.8 -1.27,-1.31 -2.02,-2.05 -0.81,-0.81 -3.55,-3.54 -3.55,-4.18l0 -81.84 47.23 0c2.98,-0.02 4.24,0.42 6.9,0.42 6.24,0.01 10.6,1.08 10.6,-4.08 -12.58,0 -32.7,0.61 -44.44,-0.76 -5.4,-0.63 -10.17,2.15 -18.61,-0.11 -1.33,-0.36 -3.96,-0.76 -5.76,-0.76l0 88.76z"/>
   <path class="fil1" d="M4159.19 2273.83c0.1,-0.83 2.15,0.1 0.38,0.04 -0.15,0 -0.49,0.88 -0.38,-0.04zm0.81 -1.62l2.45 0 0 1.22c-2.92,0 -1.64,0.31 -2.45,-1.22zm2.85 -0.82c0,-1.1 1.46,0 0.37,0.02 -0.41,0.01 -0.37,0.91 -0.37,-0.02zm-9.36 -0.41l0 0.82 -1.22 0c0.64,-0.92 0.08,-0.48 1.22,-0.82zm10.52 -0.74l11.35 -11.18c0.65,-0.55 1.04,-1 1.65,-1.61l8.96 -10.18c1.04,-1.04 1.82,-1.57 2.07,-2.81 0.1,-0.48 0.06,-1.07 0.06,-1.57 -4.37,0 -2.7,1.22 -5.47,3.08 -2.29,1.55 -1.91,0.88 -4.07,3.67 -2.28,2.96 -5.29,4.59 -7.87,7.19 -4.61,4.67 -4.71,5.69 -9.8,8.93 -1.64,1.05 -2.65,2.36 -4.01,3.73 -1.15,1.14 -0.9,1.09 -2.98,1.09 1.75,-3.32 3.18,-4.2 6.21,-7.23l8.54 -8.14c0.76,-0.69 1.15,-0.82 1.76,-1.51 3.14,-3.49 3.65,-7.03 5.16,-8.68 2.22,-2.41 2.35,-2.34 2.35,-4.57 -2.39,0.2 -0.49,0.81 -3.67,0.81 1.24,-2.33 1.99,-2.19 3.78,-3.96 2.2,-2.18 2.33,-1.7 2.33,-5.81l-7.66 4.96 -21.72 23.47c-0.93,1.18 -1.72,2.56 -2.62,3.9 -3.31,4.97 -7.53,10.72 -9.58,16.47 -0.65,1.82 -0.93,2.86 -1.85,4.67 -0.76,1.47 -2.39,6.38 -0.54,6.38 1.75,0 13.97,-6.58 16.29,-7.73 6.1,-3.04 16.73,-10.01 21.68,-14.97l12.12 -12.31c0.85,-1.2 1.47,-2.44 2.52,-3.58 1.16,-1.25 2.37,-1.74 3.17,-2.94 -1.12,-1.52 -1.4,-1.75 -2.44,-2.03l-8.65 9.26c-4,4.03 -8.58,7.59 -13.26,10.77 -1.15,0.78 -2.64,1.72 -3.34,2.77l-0.47 -0.34zm15.13 -31.42c-1.78,0.94 -1.01,-0.31 -1.22,1.63 1.47,-0.39 1.09,-0.04 1.22,-1.63zm-15.06 13.03c0.43,-0.43 1.54,0.65 0.45,0.21 -0.01,0 -1.14,0.47 -0.45,-0.21zm2.44 -2.04c0.1,-0.83 2.15,0.1 0.38,0.04 -0.16,0 -0.49,0.88 -0.38,-0.04zm1.22 -0.81c0.2,-2.4 1.53,-3.98 3.66,-4.48 -0.55,2.38 -1.35,3.86 -3.66,4.48zm6.11 -7.33l0 2.44 -2.04 0c0.36,-1.33 1.02,-1.76 2.04,-2.44z"/>
   <path class="fil1" d="M4341.91 2273.52c1.32,0.23 0.98,-0.1 1.31,1.13l-1.31 -1.13zm7.83 -1.31l0.81 0 0 1.22 -0.81 0 0 -1.22zm-8.96 0l1.22 0 0 0.81 -1.22 0 0 -0.81zm7.73 -0.82c0,-1.08 1.34,-0.06 0.48,0.02 0,0 -0.1,0 -0.11,0 -0.41,0.01 -0.37,0.91 -0.37,-0.02zm-21.98 -27.28c0.7,1.47 0.49,2.71 1.55,4.15l17.9 18.34c1.34,1.3 1.93,1.63 2.13,3.98 -1.59,-0.43 -6.3,-4.48 -7.42,-5.61 -1.48,-1.48 -2.26,-1.44 -3.69,-2.83l-10 -9.95c-1.49,-1.18 -2.08,-1.73 -3.42,-3.09 -1.58,-1.59 -1.63,-2.54 -4.38,-2.54 0.43,1.85 3.1,5.51 4.23,7.16 2.52,3.66 5.34,5.12 6.82,7.84 0.67,1.23 0.05,0.71 1.06,1.79l6.27 5.13c0.47,0.43 2.45,2.81 2.79,3.32 -2.86,-0.06 -3.81,-2.43 -6.45,-4.54l-12.16 -10.64c-3.4,-2.82 -1.96,-4.77 -6.63,-4.77 0,5.19 0.66,2.5 4.07,7.73 2,3.08 4.41,5.63 7.56,7.51 3.86,2.28 4.02,5.42 17.81,13.13l6.3 3.89c1.39,0.84 2.29,0.78 3.63,1.65 1.63,1.06 1.55,0.99 3.63,1.67 1.36,0.45 2.76,0.94 4.23,1.06 0.17,2.03 0.26,1.28 1.97,2.11 1.34,0.64 1.08,0.74 3.32,0.74 -0.4,-0.84 -1.01,-3.15 -1.36,-4.33 -0.58,-1.95 -0.91,-2.76 -1.61,-4.51 -2.36,-5.9 -4.65,-10.6 -8.37,-15.65 -7.41,-10.1 -7.25,-8.96 -17.26,-18.97 -0.97,-0.97 -1.81,-1.97 -2.91,-2.79 -1.33,-1.01 -2.45,-1.36 -3.76,-2.35 -2.13,-1.62 -2.94,-5.05 -7.07,-5.14 0.11,5 2.75,2.43 5.17,8.27 0.02,0.06 0.07,0.19 0.12,0.28l-0.34 0.47c-0.07,-0.06 -1.37,-1.22 -1.58,-1.4 -0.96,-0.81 -0.78,-0.79 -2.15,-1.11z"/>
   <path class="fil1" d="M4152.68 2229.46c0,-0.69 1.19,-0.58 0.51,0 0,0 -0.04,0.01 -0.04,0.01 0,0 -0.1,0.01 -0.11,0.01 -0.41,0.01 -0.36,0.9 -0.36,-0.02zm6.1 -1.63l1.22 0 0 0.81c-1.19,-0.28 -0.58,0.05 -1.22,-0.81zm-18.73 -27.69c0,-1.11 1.46,0 0.37,0.02 -0.41,0.01 -0.37,0.91 -0.37,-0.02zm9.78 -6.51c0.01,-0.04 1.48,-1.16 0.81,-0.11 -0.01,0.01 -1.29,1.14 -0.81,0.11zm-11.4 -10.59l0 1.22 -1.23 0c0,7.69 -4.88,1.63 2.45,15.47 -1.1,0.1 -1.11,0.19 -2.04,0.41 1.78,7.62 -0.37,5.16 2.18,10.04 0.87,1.66 0.61,1.46 1.2,3.27 1.01,3.08 6.2,8.18 6.93,10.18 2.78,7.67 -2.33,3.5 8.07,17.57 2.74,3.7 1.94,4.13 5.64,4.13 0,-4.56 -1.81,-4.32 -3.75,-7.24 -0.89,-1.33 -3.87,-6.04 -3.98,-7.41 3.16,1.67 7.68,6.07 8.55,9.77l2.85 0 0 -1.22 1.22 0 0 -1.63c-2.29,-0.61 -4.97,-6.39 -6.11,-8.55l2.04 0c-0.07,-2.82 -0.75,-5.84 -3.67,-6.52 0,-5.84 2.07,0.21 3.98,-8.64 0.82,-3.8 0.09,-7.36 0.09,-11.71 -4.8,0 -4.23,3.97 -8.14,4.88l0 4.07 1.4 1.08c0.91,1.25 0.75,0.11 0.23,1.37l2.44 0 0 1.22 -1.22 0 0 1.22c-2.91,-1.95 -2.57,-4.2 -5.32,-5.67 -1.74,-0.93 -1.49,0.27 -2.01,-1.66l2.45 0c0,-10.06 -1.23,-4.64 -1.23,-12.62l0.82 0c0,4.47 1.22,1.45 1.22,6.11l2.85 0c0.33,-1.23 0,-0.9 1.22,-1.23l0 -6.51c-2.08,-1.1 -1.28,-0.52 -2.46,-2.42l-4.77 -5.41c-1.16,-1.13 -1.56,-1.55 -1.73,-3.57l-2.85 0c0,3.57 -0.08,7.89 1.05,10.76 1.02,2.56 0.58,6.72 0.58,10l1.22 0c0.22,2.58 2.73,2.47 0,8.15l1.34 1.51c1.86,2.74 4.33,7.86 7.22,11.92 0.77,1.08 0.85,0.68 1.22,2.04 -0.84,-0.44 -2.13,-0.8 -2.8,-1.28l-4.42 -4.12c-0.99,-0.97 -1.49,-1.21 -2.56,-1.93 0.65,-1.21 1.1,-1.36 1.23,-2.85 -1.75,-0.14 -0.86,-0.02 -1.91,-0.95 -2.48,-2.22 -2.82,-2.46 -3.97,-5.38 -0.77,-1.95 -2.63,-7.37 -2.67,-9.55 1.78,0.48 1.45,1.55 4.88,1.63 0,-5.38 -1.82,-3.73 -4.09,-6.9 -2.69,-3.77 -3.53,-8.03 -0.1,-11.94 3.48,-3.96 4.19,-0.49 4.19,-6.4l-2.85 0c-0.47,2.02 -2.86,4.41 -4.88,4.88 1.97,-4.11 -0.33,-1.65 4.64,-7.57l3.19 -2.91c2.52,-2.54 2.05,-2.95 4.79,-2.95 0,6.1 0.28,2.7 1.92,5 1.58,2.22 -1.17,2.73 3.37,2.73 0,-7.01 -1.23,-2.95 -2.44,-8.14l-2.45 -0.81c1.81,-0.15 2.71,-1.02 4.08,-1.63 3.46,-1.51 3.25,-0.62 3.25,-4.89 -4.68,0 -12.06,4.13 -15.55,7.25 -1.07,0.95 -0.48,0.91 -1.95,1.3 0,-3.08 -0.74,-2.54 -2.85,-3.66l0 5.29 2.43 -1.24c0.01,4.05 -2.67,2.69 -3.53,7.48 -0.37,2.08 0.52,1.81 -1.35,2.31 0.05,2.12 0.66,2.16 0.82,4.07 0.64,-0.67 0.72,-0.77 1.63,-1.22zm7.73 20.36c0.43,0.43 1.55,-0.65 0.46,-0.21 -0.01,0 -1.14,-0.47 -0.46,0.21z"/>
   <path class="fil1" d="M4150.23 2103.65c0,-0.69 1.2,-0.58 0.52,0 -0.33,0.28 -0.52,0.66 -0.52,0zm1.22 -1.23c0,-2.38 0.08,-2.39 2.04,-2.85 0,2.4 -0.07,2.38 -2.04,2.85zm2.45 -3.66c0,-2.58 0.54,-2.26 2.03,-3.26l0 2.45c-1.46,0.39 -0.54,0.37 -2.03,0.81zm17.91 -19.54c0,-1.11 1.46,0 0.37,0.02 -0.41,0.01 -0.37,0.9 -0.37,-0.02zm1.22 -1.63l2.04 0 0 1.22 -2.04 0 0 -1.22zm2.45 -1.22l2.44 0 0 0.81 -2.44 0 0 -0.81zm2.44 -1.22l3.66 0 0 0.81 -3.66 0 0 -0.81zm17.91 -6.52l0 -1.22 2.45 0c-0.45,1.67 -0.31,1.22 -2.45,1.22zm3.26 -1.63c-0.41,0.18 -1.69,-0.01 -0.25,-0.57 1.07,-0.41 0.58,0.43 0.25,0.57zm-69.62 51.71c0,3.65 0.42,1.06 1.22,3.26 2.18,-0.51 3.43,-1.34 5.52,-2.21 3.89,-1.62 13.07,-5.82 15.55,-8.08 1.59,-1.45 2.7,-1.89 4.27,-3.46 4.39,-4.37 9.97,-6.85 10.49,-13.12 -2.08,0.04 -2.72,1.26 -5.8,3.97 -1.84,1.61 -2.98,3.28 -4.96,4.81 -2.1,1.62 -3.1,3.06 -5.17,4.6 -1.84,1.38 -4.35,2.72 -6.87,3.31 1.53,-2.9 4.54,-4.1 5.29,-7.33 2.14,0.05 1.56,0.42 3.26,0.81 0.34,-0.25 7.1,-7.38 7.32,-7.74 4.54,-7.46 5.71,-3.92 5.71,-9.76 -0.99,0.26 -3.58,2.68 -4.58,3.56 -1.81,1.6 -2.11,2.57 -4.38,3.77 0.05,-2.44 1.67,-3.54 4.38,-6.62 2.44,-2.77 4.23,-3.86 5.91,-5.49 1.66,-1.6 1.91,-2.72 4.77,-2.96 -1.78,3.37 -2.23,1.58 -2.44,4.07 1.47,-0.03 2.94,-0.25 3.96,-0.92 1,-0.66 0.84,-1.02 3.1,-2.2 1.38,-0.72 2.15,-1.02 3.35,-1.94 1.51,-1.14 1.32,-1.45 3.84,-1.45l0 -3.67 9.2 -3.83c1.96,-1.64 -0.12,-1.46 3.02,-1.46 -0.8,3 -8.09,7.43 -10.68,10.09 -1.62,1.65 -0.94,2.46 -4.39,2.53l0 2.85c3.6,-0.08 4.31,-1.06 7.98,-3.83l6.68 -5.53c2.32,-1.74 4.68,-3.5 6.94,-5.28 1.75,-1.37 3.66,-4.96 6.5,-5.72l0 -2.84c-5.41,-2.86 -8.37,0.1 -15.75,3.8 -5.68,2.84 -10.91,5.81 -16.71,8.11 -11.35,4.51 -11.88,7.87 -18.74,14.65 -7.14,7.06 -5,5.93 -10.69,14.56 -2.32,3.51 -4.41,5.94 -7.86,8.83l-8.22 6.44c-0.7,0.63 -1.02,0.22 -1.02,1.42z"/>
   <path class="fil1" d="M4254.46 2102.02c0.36,1.32 0.71,1.68 2.04,2.03 0,2.67 -0.33,2.39 -1.22,4.07l3.66 0c-1.3,1.94 -3.37,2.53 -5.39,3.97 -1.32,0.94 -0.21,0.78 -1.94,0.92 -0.86,-3.71 -4.24,-2.1 -6.1,-4.89l3.66 0c0,-2.98 -1.06,-5.96 5.29,-6.1zm-4.07 3.66l0 2.44c2.42,-0.05 2.09,-0.75 4.07,-1.22l0 -2.85 -1.22 0 0 -1.22c-2.03,0.05 -2.85,0.8 -2.85,2.85zm-6.51 -0.81c0,1.26 0.54,1.56 1.22,2.85 -11.22,-2.62 -1.34,-2.45 -17.51,-2.45l0 -0.81c6.36,-0.63 4.17,-0.69 10.25,-0.07 0.97,0.1 1.72,-0.01 2.64,0.21 1.71,0.39 0.03,0.62 2.58,0.67l0 -3.66 -19.13 0c-3.24,0 -4.69,0.81 -7.74,0.81 -0.9,0 -2.12,-0.81 -8.96,-0.81 1.08,4.04 7.63,5.3 10.23,6.06 9.89,2.88 6.7,1.68 16.65,1.68 4.31,0 8.64,1.98 11.33,3.73 2.1,1.36 6.11,6.19 6.17,8.89 1.97,-1.32 2.41,-2.41 3.83,-4.32 8.58,-11.55 20.52,-7.28 27.41,-8.41 1.86,-0.31 4,-1.08 6.14,-1.6 3.32,-0.82 3.46,-0.62 5.5,-2.24 2.43,-1.92 2.67,-0.62 4.35,-3.79 -1.19,0 -2.86,-0.14 -3.97,0.1 -3.02,0.63 0.78,1.12 -7.02,1.12 -2.58,0 -3.02,-1.22 -4.89,-1.22 -3.28,0 -18.12,-0.6 -20.14,0.62 -1.2,0.72 -0.99,0.59 -1.03,2.23 1.19,0.29 0.59,-0.05 1.22,0.81 5.93,-1.38 7.85,-0.81 15.07,-0.81l0 0.81c-2.98,0 -7.67,-0.23 -9.88,0.31 -3.33,0.8 -4.43,2.14 -8.44,2.14 0.42,-1.59 1.64,-2.55 0.81,-6.11 -2.02,0 -5.69,-0.47 -7.44,-0.7 -2.67,-0.34 -5.31,-0.52 -8.03,-0.52l-0.16 1.88c-0.29,0.88 -1.06,1.05 -1.06,2.6z"/>
   <path class="fil1" d="M4352.18 2097.95c2.13,1.12 2.44,0.28 2.44,3.25 -1.26,-0.29 -1.18,-0.52 -2.44,-0.81l0 -2.44zm-2.44 -3.67c3.01,0.81 2.44,2.23 2.44,3.26 -1.26,-0.3 -1.18,-0.52 -2.44,-0.82l0 -2.44zm-1.23 -0.81c0,-1.11 1.46,0 0.37,0.02 -0.41,0.01 -0.37,0.9 -0.37,-0.02zm-21.57 -17.1c2.48,0.05 5.12,1.17 5.7,3.66 -2.91,-1.39 -3.98,-0.41 -5.7,-3.66zm-4.08 -1.22l3.67 0 0 0.81 -3.67 0 0 -0.81zm-16.28 -7.74l2.03 0 0 1.22 -2.03 0 0 -1.22zm-1.22 -0.81c0,-1.11 1.45,0 0.36,0.02 -0.41,0.01 -0.36,0.9 -0.36,-0.02zm-8.15 -1.63c3.04,0.7 2.66,2.67 6.5,4.91 3.14,1.83 2.47,2.48 6.37,5.02 5.72,3.72 8.31,8.67 14.01,8.8 -0.58,-2.46 -1.2,-1.79 -3.37,-3.97 -1.39,-1.39 -2.48,-2.47 -3.86,-3.87 -3.44,-3.5 -5.56,-2.91 -7.84,-7.23 2.62,0.22 9.89,4.75 12.22,5.29 -0.51,1.9 -0.64,0.36 -0.82,2.45 0.9,0.1 0.53,0.1 0.93,0.29l5.67 3.69c2.23,1.5 4.15,3.27 7.65,3.35l-1.22 -3.67c1.6,0.04 6.13,3.37 6.62,3.96l0.52 0.71c0.83,0.78 -0.47,0.47 1.41,0.62 0.33,-1.22 0,-0.89 1.22,-1.22 0.11,5.01 4.89,3.21 4.89,8.55l-2.44 0c0,5.57 0.33,2.8 3.83,7.57 1.12,1.53 3.53,3.67 5.53,3.83l0 -2.03c1.13,0.3 1.05,0.53 2.27,2.2 2.4,3.31 2.49,2.89 4.08,4.89 0.81,1.02 1.47,1.48 1.79,2.68 -1.63,-0.78 -3.1,-1.15 -4.71,-2.21l-7.97 -5.88c-3.11,-2.35 -1.95,-2.09 -4.82,-2.09 0.7,3.04 2.87,5.42 5,7.22 1.23,1.04 2.17,1.61 3.78,2.32l6.05 3.31c2.49,1.65 7.67,4.34 10.66,5.22 3.7,1.09 0.69,2.21 4.23,2.29 0.32,-1.23 -0.01,-0.9 1.22,-1.22l0 -2.45c-5.37,-3.59 -10.56,-9.57 -14.48,-14.83l-5.31 -7.32c-4,-6.04 -5.43,-5.83 -8.21,-8.89 -5.63,-6.2 -1.89,-0.51 -6.9,-5.71 -2.11,-2.19 -16.96,-9.75 -18.98,-10.75 -1.05,-0.52 -1.81,-0.87 -2.73,-1.34 -2.12,-1.1 -2.71,-1.99 -7.99,-4.63 -7.14,-3.57 -8.05,-5.16 -14.8,-5.16l0 5.3z"/>
   <path class="fil1" d="M4365.21 2200.14c0,-1.11 1.45,0 0.36,0.02 -0.41,0.01 -0.36,0.91 -0.36,-0.02zm1.22 -1.22c0,-1.11 1.46,0 0.36,0.02 -0.41,0.01 -0.36,0.9 -0.36,-0.02zm0 -17.92c1.96,0.46 2.04,0.47 2.04,2.85 0.98,-0.72 0.93,-1.36 1.27,-2.86 0.38,-1.64 0.24,-1.41 -0.36,-2.49l-1.4 -3.12c-1.25,-2.09 -1.55,-0.87 -1.55,-3.74l2.44 0c-1.27,-2.4 -1.22,-1.2 -1.22,-4.89 -1.36,1.57 -0.71,2.56 -1.63,4.48 -1.18,-0.31 -2.16,-1.23 -2.84,-2.04 -1.16,-1.38 -0.96,-1.2 -2.61,-2.28 -8.56,-5.62 -4.84,-3.03 -4.73,-8.3 -1.59,-0.58 -1.14,-2.11 -3.83,-5.53 -1.75,-2.24 -3.5,-2.31 -3.5,-5.87l-2.84 0c0,4.77 0.2,2.95 1.84,6.29 0.84,1.7 0.6,3.24 0.6,5.52 1.19,-0.28 1.88,-0.71 2.85,-1.22 0.61,2.3 1.84,1.44 3.66,4.88 -4.61,0 -1.11,-1.22 -6.51,-1.22 0,1.23 0.08,2.24 0.31,2.95 0.47,1.44 0.52,1.35 1.69,1.97 1.63,0.87 3.43,0.93 4.51,2.41 -4.11,0 -0.94,-0.43 -4.22,2.3 -1.3,1.08 -1.07,-0.99 -1.07,5.84 0,1.38 0.71,1.22 2.04,1.22 1.67,0 0.87,-1.21 2.16,-3.93 0.85,-1.78 1.5,-2.51 1.5,-5.02 2.61,0.21 9.77,7.48 10.59,10.99 -2.62,-1.38 -6.97,-4.38 -5.82,0.05 0.68,2.65 1.45,0.99 4.45,4.16 1.5,1.59 -0.52,0.83 1.77,1.08 0,1.91 0.14,4.3 0.03,6.14 -0.17,2.97 -0.03,0.24 -2.06,4.45 -2.53,5.23 -4.48,3.11 -4.48,8.55 2.72,-0.23 1.52,-1.67 5.29,-3.67 0,2.1 -1.66,8.36 -2.57,10.06 -0.95,1.78 -4.39,5.77 -6.39,6.23 0.29,1.25 0.64,1.57 1.23,2.44 -0.92,1.37 -3.22,3.61 -4.66,4.72 -1.99,1.53 -3.28,3.01 -5.01,4.75 -4.9,4.9 -6.36,8.94 -9.47,9.67l0 2.85 1.22 0 0 1.22c2.3,-0.05 1.09,0.34 2.24,-1.01 1.97,-2.33 3.28,-3.17 4.66,-5.53 0.98,-1.68 4.89,-6.35 6.94,-6.89 -0.96,4.12 -5.3,10.97 -8.31,13.67 -1.64,1.46 -1.46,1.16 -1.46,3.83 3.78,0 4.07,-0.55 5.43,-3.12 1.92,-3.62 4.11,-2.59 8.27,-12.91 0.69,-1.71 0.35,-1.91 0.61,-3.86 0.44,-3.3 6.71,-12.85 8.99,-16.66 0.67,-1.13 0.89,-1.6 1.06,-3.01 0.45,-3.76 -0.28,-1.04 1.29,-3.19 -3.05,-6.36 1.22,-10.44 1.22,-13.03l-1.19 -6.14c-1.08,-2.99 -2.47,0.34 -2.47,-4.04z"/>
   <path class="fil1" d="M4344.85 2187.11c-0.18,-1 0.75,-0.16 0.45,0.07 -0.63,0.49 -0.39,0.24 -0.45,-0.07zm-75.32 97.72c2.46,-1.31 16.16,-10.75 18.84,-13.33 0.99,-0.95 1.65,-1.68 2.63,-2.66 7.14,-7.18 7.3,-4.66 16.52,-16.05l7.43 -8.86c1.99,-1.62 3.16,-3.53 4.74,-5.84l8.76 -12.82c3.78,-5.21 8.94,-16.2 10,-22.57 0.94,-5.61 1.85,-7.45 2.79,-13.5 0.28,-1.78 1.01,-2.68 1.17,-4.53l0.81 0c0,7.07 0.97,3.12 1.22,6.11 -2.16,0.58 -2.44,2.17 -2.44,4.88 1.95,-0.45 4.39,-3.11 5.61,-4.57 1.19,-1.43 0.67,-1.73 1.01,-3.87 0.29,-1.82 1.07,-1.95 1.12,-4.18 -3.88,0 -3.55,-0.35 -6.52,1.22l2.85 -11.4c-1.46,0.98 -4.53,4.52 -5.54,5.85 -1.37,1.81 -2.44,6.04 -3.28,8.54 -0.56,1.67 -1.98,14.03 -4.34,19.27 -1.28,2.84 -2.32,5.56 -3.52,8.29 -0.6,1.37 -1.08,2.58 -1.69,4.01 -0.56,1.33 -1.55,2.51 -2.4,3.71 -3.26,4.62 -6.61,9.09 -9.76,13.85 -3,4.53 -6.92,8.72 -7.67,9.84 -2.89,4.33 -4.61,5.48 -8.52,9.39 -3.91,3.92 -7.45,8.35 -11.9,11.72l-16.55 12.76c-1.91,1.44 -1.37,1.74 -1.37,4.74z"/>
   <path class="fil1" d="M4235.33 2283.61c0,-4.43 -0.92,-4.55 -4.48,-7.33 -5.76,-4.5 -18.52,-16.92 -23.31,-22.29l-6.58 -8.89c-4.65,-6.48 -3.55,-3.19 -7.63,-13.15 -0.92,-2.26 -2.02,-4.6 -3.08,-7.09 -1.86,-4.34 -11.31,-24.94 -12.26,-28.86 -0.6,-2.49 -1,-6.2 -2.17,-8.01 -0.84,-1.31 -3.48,-5.48 -4.42,-6.17 0,8.3 1.03,10.09 3.09,17.28l4.8 15.95c2.96,8.95 8.77,19.51 14.34,27.2 1.52,2.11 2.75,3.98 4.24,5.93 0.36,0.48 0.68,0.84 1.05,1.4 2.96,4.59 1.49,2.62 5.98,7.05 1.41,1.39 1.23,1.38 2.25,3.04 1.9,3.1 10.18,11.16 13.03,13.03 4.34,2.86 6.67,5.79 8.46,7 3.2,2.17 3.45,3.83 6.69,3.91z"/>
   <path class="fil1" d="M4209.68 2290.12l2.44 0 0 0.82 -2.44 0 0 -0.82zm-3.67 -1.22c0,-1.11 1.46,0 0.37,0.02 -0.41,0.01 -0.37,0.91 -0.37,-0.02zm-4.07 -15.47c2.37,4.48 2.54,0.7 10.08,8.24 3.19,3.2 7.1,8.19 10.28,8.45l0 2.04 -8.55 0c0.48,-1.29 -0.89,-0.59 1.22,-0.82l0 -2.85c-5.14,0 -0.8,-1.89 -8.72,-3.5 -3.74,-0.76 -5.71,-0.16 -9.6,-0.16 1.21,2.52 -0.38,2.76 5.27,6.12 1.19,0.71 2.17,1.42 3.44,2.27 3.44,2.28 3.1,0.78 3.1,4.23l-15.48 0c1.31,2.47 2.04,1.87 4.62,3.12 9.77,4.72 7.52,0.39 17.37,-1.9l0 -2.44 5.29 0c0.2,-2.4 4.89,-3.6 5.7,-3.67l0 1.23c-2.26,0.6 -14.27,8.2 -17.5,8.95l0 1.22c4,0 10.08,-0.97 13.18,-2.69 1.46,-0.82 1.38,-1.33 3.09,-2.2 4.17,-2.15 5.79,-2.86 8.92,-6.97 0.88,-1.15 1.63,-1.64 1.68,-3.61 -4.04,0.09 -3.66,3.23 -8.96,3.67l0 -3.67c-1.37,-0.36 -2.99,-1.96 -3.97,-2.95 -2.19,-2.23 -2.84,-1.63 -3.36,-3.56 1.48,-0.35 1.31,-0.23 2.04,-1.22 -1.57,-0.42 -10.76,-7.74 -16.29,-7.74 -1.48,0 -0.98,0.36 -2.85,0.41z"/>
   <path class="fil1" d="M4254.06 2310.07c0.95,-1.09 2.49,-5.35 2.69,-6.26 0.43,-1.94 0.19,-30.59 0.15,-35.68 -0.04,-6.31 0.96,-4.25 1.22,-7.74l0.41 -17.5c0,-5.29 0,-10.58 0,-15.88 0,-5.68 -0.4,-9.86 -0.4,-15.47 0,-5.29 0,-10.59 0,-15.88 -0.01,-5.47 1.92,-11.4 -4.07,-11.4l0 125.81z"/>
   <path class="fil1" d="M4246.73 2081.25l3.66 0 0 1.22 -3.66 0 0 -1.22zm0 -6.1l3.66 0 0 0.81 -3.66 0 0 -0.81zm3.66 -20.36l2.44 0 0 0.81 -2.44 0 0 -0.81zm0 -4.07c-3.67,0 -3.07,-1.04 -5.29,-1.23l0 6.52 2.1 0.63c-0.01,0 -5.04,-0.64 -3,3.55l0.97 1.23c0.03,0.03 0.09,0.13 0.11,0.17 0.03,0.04 0.08,0.14 0.11,0.18l0.52 1.16c-1.89,0.16 -1.86,0.1 -2.03,1.63l-1.22 0c0.64,1.22 1.18,2.22 1.22,4.07l4.07 0c-0.08,0.06 -0.22,0.02 -0.26,0.14 -0.17,0.49 -1.17,0.12 -2.67,1.41 -1.66,1.43 -1.14,2.51 -1.14,4.97 1.26,0.29 1.18,0.52 2.44,0.81 -0.57,0.78 -2.18,1.75 -3.26,2.04 0.88,1.82 0.82,2.35 0.82,4.47l2.44 0 0 1.23 -2.44 0 0 5.29c4.82,0 4.97,-1.03 9.9,-3.95 1.1,-0.65 2.7,-1.45 3.46,-2.23 0.95,-0.98 1.45,-2.76 2.11,-4 -2.85,0.06 -5.6,1.79 -8.55,2.04 0.07,-0.07 0.19,-0.26 0.22,-0.19l0.92 -0.71c0.42,-0.3 0.77,-0.52 1.22,-0.82 4.02,-2.65 6.19,-3.17 6.19,-6.83 -6.93,1.61 -3.18,2.44 -8.55,2.44 0.46,-1.72 3.49,-3.1 5.56,-4.21 2.41,-1.29 4.21,-2.42 4.21,-5.97 -4.64,0.39 -6.25,3.66 -11.4,3.66 1.4,-1.91 0.96,0.36 1.22,-2.03 0.96,0 1.8,0.08 2.72,-0.14 2.8,-0.64 2.31,-3.2 6.24,-3.53l0 -4.07c-1.78,0.15 -6.73,3.67 -11.4,3.67 0.86,-1.18 7.38,-5.12 9.38,-6.5 1.35,-0.94 1.85,-1.59 2.02,-3.68 -1.57,0.83 -3.98,2.39 -6.11,2.44 0.87,-3.25 3.29,-2.67 4.37,-3.77 0.81,-0.82 0.52,-0.87 0.52,-2.34 -2.91,0.68 -3.59,2.45 -7.74,2.45z"/>
   <path class="fil1" d="M4113.18 2031.58c1.23,-0.33 0.9,0.01 1.22,-1.22l6.11 0 0 2.44 1.22 0 0 4.07c-1.22,0.33 -0.89,0 -1.22,1.22l-6.11 0 0 -2.44 -1.22 0 0 -4.07zm-8.14 5.76l0 -5.55 0 -0.62 0 -0.8c0.09,0.09 0.34,0.15 0.96,-0.68l1.4 -2.26c0.65,-0.85 0.69,-0.72 1.55,-1.3 3.45,-2.37 0.55,-2.64 4.87,-3.68 1.66,-0.4 3.06,-1.05 4.66,-1.05 3.15,0 7.47,2.66 9.13,4.3l1.29 1.57c4.55,7.5 0.65,11.46 -0.25,15.3 2.48,-0.57 0.51,-0.81 4.89,-0.81 -0.24,2.84 -2,4.56 -3.98,5.79 -1.12,0.69 -5.14,2.88 -6.2,3.17 0.46,-1.74 3.78,-5.69 4.89,-7.33 -4.19,0 -6.62,3.66 -9.37,3.66 -3.87,0 -6.3,-0.16 -9.96,-2.65 -1.76,-1.19 -0.84,-1.52 -1.84,-2.65 -1.76,-1.98 -2.01,0.98 -2.04,-4.41zm5.29 -4.95l0 4.89c0,1.01 3.88,4.89 4.89,4.89 4.5,0 4.31,0.35 4.48,-1.63l2.03 0c-0.86,3.22 -2.17,2.44 -7.73,2.44 -1.08,0 -1.82,-1.41 -3.36,-3.15 -3.98,-4.49 -2.42,-5.99 -1.12,-8.65 0.25,-0.51 0.74,-1.96 0.94,-2.32 0.76,-1.35 0.05,-0.94 2.32,-0.94 -0.54,1.12 -0.39,1.56 -1.29,2.78 -0.05,0.07 -0.14,0.16 -0.19,0.22 -0.76,0.99 -0.97,0.17 -0.97,1.47zm2.85 -5.29c0.93,-0.21 0.94,-0.31 2.04,-0.41l0 1.23 -2.04 0 0 -0.82zm13.85 4.07c0,6 0.58,3.45 -1.7,7.67 -0.57,1.06 -1.58,1.56 -3.19,1.7 0.92,-3.44 3.66,-3.25 3.66,-6.92 0,-1.81 0.24,0.45 -1.53,-2.14 -0.73,-1.06 -2.09,-4.68 -6.61,-4.79 2.18,-2.97 5.55,0.82 7.46,2.31 0.89,0.69 1.91,0.98 1.91,2.17z"/>
   <path class="fil1" d="M4252.43 2044.2c-2.57,0 -0.91,-0.2 -2.79,-0.87 -0.87,-0.31 -1.54,-0.35 -2.91,-0.35 -0.08,-3.69 -2.38,-2.61 -3.77,-7.28 -0.44,-1.48 0.97,-5.04 1.58,-5.9 0.79,-1.14 0.8,0.09 0.97,-1.88l2.03 0c-1.54,5.76 -5.78,4.74 -0.64,11.22 3.13,3.95 1.68,3.03 7.56,3.03 1.22,0 1.47,-1.15 3.16,-2.95 1.91,-2.04 1.53,-3.05 2.95,-3.57l0 -1.63c-1.71,-0.45 -2.4,-2.58 -2.44,-4.48 1.66,0.45 4.47,3.27 2.89,5.71 -2.7,4.19 -4.95,8.95 -8.59,8.95zm-5.7 -10.18c2.59,-0.28 0.82,-1.72 3.66,-2.03l0 4.48c-1.79,-0.42 -1.7,-1.06 -3.66,-1.23l0 -1.22zm4.88 -4.88c4.91,0 1.43,1.52 4.89,2.44l0 5.29c-1.98,0.46 -2.91,1.58 -4.89,2.04 -0.44,-0.84 -0.56,-0.97 -0.81,-2.04l3.66 0 0 -1.22 1.22 0 0 -2.85 -1.22 0 0 -1.22 -3.66 0c0.17,-2.08 0.31,-0.55 0.81,-2.44zm-1.63 -1.22l-2.03 0c1,-1.89 0.6,-1.12 4.07,-3.67 2.25,0.6 5.16,2.55 5.7,4.89 -1.12,-0.26 -1.72,-0.6 -2.44,-1.22 -2.24,-1.9 0.27,-1.63 -4.07,-1.63 -1.16,0 -1.23,0.47 -1.23,1.63zm-10.99 5.7c0,3.44 0.02,2.59 1.61,5.31 0.72,1.22 1.2,2.6 2.05,3.65 0.85,1.06 3.52,3.26 4.92,3.63 6.63,1.71 9.91,0.92 14.32,-3.54 0.62,-0.62 0.86,-0.83 1.49,-1.36 0.76,-0.63 1.26,-0.37 1.26,-1.59l0 -9.77c0,-1.81 0.47,0.41 -1.63,-2.03 -0.7,-0.81 -1.1,-1.42 -1.22,-2.85 -2.98,0 -1.06,0.06 -6.01,-2.95 -1.35,-0.82 -1.17,-0.22 -1.32,-1.94l-4.07 0c-1.32,2.51 -0.99,1.52 -3.24,2.87l-3.67 2.43c-1.91,1.11 -1.75,1.2 -2.63,3.48 -0.24,0.6 -1.86,4.65 -1.86,4.66z"/>
   <path class="fil1" d="M4374.17 2042.57c0,-0.69 1.19,-0.57 0.51,0 -0.33,0.28 -0.51,0.67 -0.51,0zm12.62 -4.48l-5.3 0 0 -6.1c1.5,-0.13 1.51,-0.13 1.63,-1.63l5.3 0c0.48,1.01 1.51,3.97 1.62,5.29 -2.59,0.69 -1.44,2.44 -3.25,2.44zm-6.52 -10.17c2.35,-4.44 7.35,-2.22 10.47,-0.29 2.69,1.68 0.75,3.25 3.38,3.95l0 7.74c-3.87,1.03 -1.98,3.66 -8.96,3.66 -1.94,0 -3.64,-0.79 -4.78,-1.73 -2.43,-2 -1.41,-2.61 -3.77,-3.16l0 -7.73 1.22 0 0 -2.44 2.04 0c-0.37,1.55 -5.49,6.55 0.47,10.92 1.13,0.83 1.67,0.84 3.03,1.45 1.99,0.9 1.52,1.88 3.42,1.88 1.2,0 1.15,-0.77 1.92,-1.34 0.3,-0.22 4.18,-1.93 4.18,-5.59 0,-4.84 -3.68,-6.41 -4.97,-7.24 -2.6,-1.66 0.03,-1.71 -3.98,-1.71 -0.28,1.05 -0.49,1.56 -3.67,1.63zm-7.73 3.66c0,6.99 1.22,7.04 1.22,10.18 -2.4,0.05 -3.47,0.54 -3.67,2.85 1.66,0.44 1.54,1.42 5.02,3.12 4.28,2.1 2.58,2.39 5.16,2.99 -0.52,-2.24 -0.67,-2.55 -2.12,-3.98 -1.08,-1.07 -2.34,-1.77 -2.76,-3.35 4.11,0.09 2.41,3.66 12.62,3.66 3.09,0 6.12,-5.69 9.77,-8.14 -3.12,-13.39 0.95,-9.52 -7.49,-15.31 -1.29,-0.89 -3.63,-2.2 -5.54,-2.2 -2.27,0 -12.21,2.94 -12.21,10.18z"/>
   <path class="fil1" d="M4214.97 2113.82c0,-1.1 1.46,0 0.36,0.03 -0.41,0.01 -0.36,0.9 -0.36,-0.03zm-14.25 -0.81l0 35.83c1.68,-1.23 6,-6.31 6.43,-8.23 0.3,-1.34 0.25,-1.7 0.73,-2.93 0.6,-1.56 0.6,-0.74 0.6,-3.07 0,-5.25 0.43,-5.2 3.97,-10.69 7.95,-12.33 8.59,-5 10.26,-12.13 -3.92,0 -2.6,1.22 -6.52,1.22l1.24 -2.43c-5.46,-0.04 -11.09,1.96 -16.71,2.43z"/>
   <path class="fil1" d="M4296.4 2288.9c-0.22,-1.16 0.99,0.15 0.32,0.07 -0.74,-0.1 -0.15,0.86 -0.32,-0.07zm-8.96 -9.37l-1.63 0 0 4.08c-4.43,0 -4.82,5.14 -8.95,6.1l0 1.63 3.52 1.37c0.08,0.04 0.19,0.09 0.27,0.13 0.08,0.04 0.18,0.1 0.26,0.15 0.08,0.04 0.18,0.11 0.25,0.15l3.42 2.29c5.51,2.81 1.72,0.49 5.15,3.4 0.51,0.43 1.35,0.95 1.98,1.27 2.03,1.01 6.43,2.75 9.03,2.47l6.75 -1.77c1.45,-0.49 0.74,-0.5 2.75,-0.5l0 -2.85 -15.06 0c0,-3.77 1.54,-3.53 7.25,-7.41 1.57,-1.06 6.11,-4.64 6.59,-6.43 -2.82,0.3 0.3,0.98 -2.84,1.23 -0.69,0.05 -9.2,-1.62 -14.31,2.38 -1.6,1.25 -0.48,1.27 -3.21,1.27 1.27,1.73 1.8,0.82 3.67,2.45 -7.19,1.67 -1.72,1.22 -10.99,1.22 4.16,-6.23 4.16,-2.71 7.33,-7.33 2.5,-3.64 4.02,-4.69 8.01,-7.06 2.24,-1.33 4.47,-2.32 5.83,-4.34 -2.58,-0.22 -4.57,-1.42 -9.25,2.15l-5.82 3.95z"/>
   <path class="fil1" d="M4158.38 2137.03c-0.41,0.18 -1.69,-0.01 -0.26,-0.57 1.08,-0.41 0.58,0.43 0.26,0.57zm1.62 -2.03l0 0.81 -1.22 0c0.64,-0.92 0.08,-0.48 1.22,-0.81zm-4.88 -2.45l0.81 0 0 2.04 -0.81 0 0 -2.04zm-8.14 20.77l0.4 5.7c1.99,-1.05 2.09,-1.8 4.07,-2.85 0,-6.56 -0.53,-4.71 0.89,-8.89 0.41,-1.19 0.52,-2.58 1.17,-3.71 0.92,-1.61 1.03,-0.8 1.61,-3.28 3.88,0.93 3.4,-0.12 7.22,-3.77 0.93,-0.9 1.89,-1.3 2.55,-2.34 0.55,-0.84 1.12,-2.3 1.63,-3.25 -4.08,0 -2.72,1.65 -6.52,3.66 0.13,-0.53 0.19,-0.96 0.31,-1.32 0.61,-1.72 0.3,-0.62 1.48,-2.19 1.28,-1.69 2.63,-4.48 4.73,-5.04l0 -1.63c-1.23,-0.33 -0.9,0.01 -1.22,-1.22l-1.63 0c-0.4,1.73 -0.43,1.55 -1.62,2.45 -3.27,2.49 -3.05,5.1 -5.71,6.51 0.16,-1.97 0.98,-3.19 1.76,-4.76 3.35,-6.71 7.2,-5.66 7.2,-13.16l-6.83 7.43c-5.43,5.36 -7.48,11.93 -9.3,19.2 -1.01,4.07 -2.19,7.6 -2.19,12.46z"/>
   <path class="fil1" d="M4140.46 2156.17c0,2.32 0.24,2.97 0.38,4.91 0.4,5.26 1.25,0.64 1.25,5.67l1.63 0c0.62,-2.66 1.22,-1.34 1.22,-5.7 0,-3.19 -1.78,-5.6 -1.28,-7.82 0.28,-1.22 0.99,-2.5 1.18,-3.68 1.33,-8.38 1.96,-10.51 5.66,-18.76 1.12,-2.49 1.84,-4.5 2.99,-6.79 3.13,-6.24 5.55,-7.73 10.51,-13.91 0.94,-1.17 1.14,-1.73 1.3,-3.59 -2.92,0.06 -3.83,1.99 -5.4,3.56 -7.26,7.27 -6.58,6.13 -11.7,16.39 -3.65,7.3 -2.88,3.92 -5.56,13.17 -1.48,5.11 -2.18,10.12 -2.18,16.55z"/>
   <path class="fil1" d="M4193.39 2082.47l6.52 0c0.16,-1.94 0.14,-1.3 3.79,-3.12l14.93 -6.25c3.72,-1.49 17.99,-4.57 22.8,-5.69l0 -4.07c-8.01,0 -9.19,0.16 -18.23,2.93 -5.71,1.76 -21.2,8.89 -26.15,12.13 -1.61,1.04 -3.1,1.98 -3.66,4.07z"/>
   <path class="fil1" d="M4227.18 2159.83l0 75.33c0,1.52 0.24,2.57 0.69,3.79 0.92,2.44 1.14,2.45 2.16,2.72l0 -83.06c-1.98,0 -2.85,-0.27 -2.85,1.22z"/>
   <path class="fil1" d="M4348.51 2214.8l0.82 0 0 2.44 -0.82 0 0 -2.44zm-1.22 -0.82c0.71,-0.7 1.37,1.11 0.37,0.32 -0.04,-0.03 -0.97,0.28 -0.37,-0.32zm-4.07 2.45c3.83,0.89 0.71,2.46 3.67,3.25l0 2.85c-2.59,0.69 0.21,0.65 -3.01,3.1 -1.37,1.04 -2.22,1.52 -3.41,2.7 -2.65,2.62 -3.44,3.98 -8.65,3.98l0 3.25c1.23,0.33 0.9,0 1.22,1.22 3.25,0 1.84,0.08 7.23,-5.39 4.01,-4.09 4.85,-1.69 7.95,-5.08 1.28,-1.41 4.24,-5.72 5.01,-7.61 0.88,-2.14 1.03,-2.49 2.33,-4.19 1.83,-2.4 0.91,-2.5 1.91,-4.6 -2.99,0 -4.86,0.86 -6.28,3.09 -0.2,0.31 -0.23,1.06 -1.45,1.39 0,-2.35 -0.58,-2.78 1.22,-3.26l0 -5.29c-4.45,-0.1 -2.71,-3.55 -7.74,-3.66l0 14.25z"/>
   <path class="fil1" d="M4362.36 2152.5c0,8.19 -1.63,8.09 -1.63,10.18 0,1.41 1.17,3.44 2.04,4.07 3.16,-0.84 4.46,-13.79 3.15,-17.4 -1.7,-4.64 -0.76,-2.59 -1.01,-5.95 -0.11,-1.45 -0.31,-2.15 -0.79,-3.24 -1.61,-3.7 -3.21,-6.89 -4.79,-10.69 -0.81,-1.96 -1.57,-3.47 -2.38,-5.35 -1.58,-3.67 -5.9,-12.58 -10.06,-13.55 0,3.32 0.33,3.11 1.49,5.43 4.06,8.11 3.02,2.79 7.64,14.34l4.26 10.41c1.57,4.2 -0.52,2.9 1.56,8.61 0.43,1.15 0.52,1.69 0.52,3.14z"/>
   <path class="fil1" d="M4264.23 2067.41c4.71,0 12.94,2.95 17.19,3.99 2.2,0.54 3.81,1.04 5.67,1.66 5.67,1.9 9.88,3.23 14.99,6.17 1.81,1.04 3.7,1.8 4.09,3.24l4.89 0c-0.61,-0.9 -0.99,-1.07 -1.95,-1.71 -0.94,-0.63 -1.31,-0.97 -2.13,-1.54l-6.67 -4.73c-8.81,-5.87 -5.88,-3.9 -18.72,-8.15 -7.33,-2.42 -6.74,-1.43 -9.17,-2.23 -3.51,-1.15 -3.85,-0.77 -8.19,-0.77l0 4.07z"/>
   <path class="fil1" d="M4349.74 2132.55c0.49,-0.49 1.49,0.7 0.52,0.43 -0.62,-0.18 -1,0.05 -0.52,-0.43zm-0.41 -0.81c-1.53,-1.12 -0.37,-1.48 -2.44,-2.04 0,3.54 0.41,10.43 4.07,11.4 0.35,-1.51 0.81,-3.04 0.81,-4.88l0.41 0c0,5.47 2.51,6.11 2.45,12.2 -0.05,5.41 0.51,8.72 4.06,10.6 0,-16.43 0.65,-8.05 -2.61,-23.45 -0.48,-2.27 -5.01,-11.59 -6.43,-13.11 -1.11,-1.18 -2.03,-2.77 -3.98,-2.94 0,4.24 2.21,5.98 3.66,12.22z"/>
   <path class="fil1" d="M4348.11 2195.66l0 4.07c1.65,0.39 2.29,0.59 2.44,2.45 3.5,-0.08 2.85,-2.63 2.85,-6.11l1.22 0c0,11.65 -1.22,2.88 -1.22,12.62 3.46,0 3.26,-0.99 4.39,-3.35 1.89,-3.95 0.4,-2.72 1.06,-7.08 1.45,-9.48 1.07,-5.44 1.07,-15.22 -2.39,0.56 -4.92,3.9 -6.63,5.59 -4.38,4.34 -2.53,6.32 -5.18,7.03z"/>
   <path class="fil1" d="M4312.69 2231.49c3.78,-0.88 11.32,-16.13 12.75,-19 1.39,-2.77 6,-14.35 6.36,-17.66 0.19,-1.75 0.12,-1.88 0.6,-3.47 0.45,-1.47 0.64,-1.62 0.64,-3.43 -2.09,0.17 -1.85,1.17 -3.2,4.53 -2.89,7.27 -7.93,22.4 -11.97,27.93 -1.65,2.25 -4.54,8.32 -5.18,11.1zm-1.23 0l0 1.22 1.23 0 0 -1.22 -1.23 0z"/>
   <path class="fil1" d="M4221.89 2202.58l0.71 18.46c0.83,4.5 -0.78,0.25 0.23,7.48l1.1 9.08 0 -78.58c-1.99,2.85 -1.63,6.32 -1.63,9.77 0,3.8 -0.02,7.6 0,11.4 0.02,3.81 -0.41,6.79 -0.41,10.99 0,3.8 0,7.6 0,11.4z"/>
   <path class="fil1" d="M4287.04 2209.5l0 17.51c0,2.48 0.65,3.09 1.05,5.05 0.6,2.88 -0.99,4.49 1.8,4.72 0,-3.03 -0.23,-6.56 0.39,-8.97 0.38,-1.48 0.8,-2.25 0.65,-3.89 -0.17,-1.76 -0.02,-2.34 0.21,-4.2l-0.12 -13.79c-0.26,-1.55 -0.99,-2 -1.13,-3.75l-1.63 0c-0.06,2.6 -1.22,3.19 -1.22,7.32z"/>
   <path class="fil1" d="M4212.12 2171.23l0 43.57c0,3.28 1.22,1.57 1.22,5.7l0.41 0c0,-5 0.42,-8.82 0.41,-13.44 -0.01,-3.96 -0.36,-10.07 0.06,-13.78l0.75 -26.93c-1.89,1 -2.85,1.96 -2.85,4.88z"/>
   <path class="fil1" d="M4146.57 2072.3c-0.7,0.08 -0.58,-1.21 -0.03,-0.55 0,0 0.01,0.04 0.02,0.04l0.01 0.51zm-5.7 1.62c1.01,-0.08 1.36,-0.18 2.29,-0.55l1.13 -0.5c0.74,-0.2 0.65,-0.17 1.46,-0.17 -0.73,1.39 -1.22,2.75 -1.22,4.89 2.3,-0.54 2.36,-2.04 7.25,-4.97l5.99 -3.37c1.35,-1.01 0.97,-0.24 1.01,-2.25 -2.03,-0.47 -1.6,-0.85 -2.44,-2.44l-4.07 0c-0.4,1.49 -1.19,1.44 -2.71,2.17 -5.67,2.73 -8.69,3.17 -8.69,7.19z"/>
   <path class="fil1" d="M4269.12 2290.12c0,3.32 3.13,3.39 4.8,4.98 2.86,2.72 2.23,2.06 5.66,4.11 5.05,3.01 7.2,4.75 15.19,4.75 -0.49,-1.84 -8.52,-5.11 -12.54,-7.81l-9.1 -5.97c-1.75,-1.37 -0.66,-1.69 -3.6,-1.69 -0.26,1.09 -0.41,0.77 -0.41,1.63z"/>
   <path class="fil1" d="M4182.81 2114.64c0,1.13 0.12,1.9 0.3,2.55 0.49,1.79 0.51,0.8 0.92,2.33l1.62 0c0.18,-0.76 2.03,-4.01 1.04,-7.54 -0.66,-2.34 0.32,-0.86 -1.04,-1.41l0 -0.82c1.83,-0.48 1.22,-0.93 1.2,-3.28 -0.01,-2.47 -0.21,-2.09 1.92,-2.56 2.92,-0.65 4.49,-0.97 5.84,-3.52l-11.8 0 0 14.25z"/>
   <path class="fil1" d="M4278.08 2242.89l1.63 0 0 -8.55c0,-4.03 1.95,-4.18 0.93,-8.72 -0.65,-2.91 0.29,-0.17 0.29,-4.71 -1.98,-0.53 -1.22,-1.58 -1.22,-8.56 0,-0.68 3.63,-8.77 -1.63,-10.17l0 40.71z"/>
   <path class="fil1" d="M4162.85 2190.78l0.82 0 0 1.22 -0.82 0 0 -1.22zm-1.22 -0.82c-0.22,-1.19 0.87,0.11 0.42,0.08 -0.01,0 -0.09,-0.01 -0.1,-0.01 -0.73,-0.1 -0.15,0.86 -0.32,-0.07zm0.82 7.33l1.63 0c0.82,-3.53 2.44,-2.64 2.44,-7.74 -2.08,0.18 -0.55,0.31 -2.44,0.82 0,-4.42 -1.69,-4.08 -2.45,-7.33l-5.29 0c0,2.69 0.85,3.26 1.39,5.94 0.82,4.08 -0.29,1.99 2.59,5.14 1.2,1.32 1.66,1.18 2.13,3.17z"/>
   <path class="fil1" d="M4357.47 2071.48c0.71,-0.7 1.37,1.1 0.36,0.31 -0.03,-0.02 -0.96,0.29 -0.36,-0.31zm-11.8 -4.48l0 1.63c2.86,0 1.72,0.38 4.14,1.97l10.11 5.77c0,-2.26 -0.35,-2.36 -1.23,-3.67 2.94,0 1.25,0.28 3.26,0.82 -0.96,-1.44 -1.59,-1.74 -2.91,-2.79l-6.11 -5.29c-1.66,-1.36 -2.04,-0.88 -4.82,-0.88 -0.43,1.85 -0.6,2.01 -2.44,2.44z"/>
   <path class="fil1" d="M4186.47 2263.25c2.92,0.68 1.24,1.84 8.69,5.56 1.7,0.85 2.92,1.44 4.6,2.32 2.68,1.38 2.52,1.08 6.25,1.08 -0.73,-3.16 -2.77,-1.89 -8.08,-6.17 -1.94,-1.55 -6.44,-5.64 -9.02,-5.64 -0.87,0 -2.29,1.06 -2.44,2.85z"/>
   <path class="fil1" d="M4254.46 2090.21l2.04 0 0 1.22 -2.04 0 0 -1.22zm-10.18 2.04l0 0.81c4.72,1.1 5.11,2.01 11.1,0.51 1.5,-0.38 2.23,-0.51 3.97,-0.51l0 -2.85 -2.44 0c1.49,-2.82 2.44,-1.52 2.44,-5.29 -3.84,2.03 -8.9,3.73 -11.43,5.26 -1.09,0.66 -2.47,1.75 -3.64,2.07z"/>
   <path class="fil1" d="M4273.6 2302.34l-1.63 0 0 4.47 1.22 0c0,2.45 0.47,2.4 0.98,4.32 0.42,1.58 0.24,3.67 0.24,5.46 5.7,-1.33 0.6,-6.41 4.08,-7.33l0 -8.15c-2.64,-0.61 -1.25,-0.85 -2.85,-2.03 -0.64,1.32 -0.53,3.26 -2.04,3.26z"/>
   <path class="fil1" d="M4225.96 2301.11c0,7.63 -0.54,5.2 1.06,11.18 0.69,2.59 0.35,2.09 0.16,4.3l2.85 0c0,-5 -0.75,-7.84 1.23,-8.55l0 -5.7 -2.45 0c0,-2.4 -0.11,-2.09 1.22,-2.45l0 -1.22 -2.44 0c-1.16,2.8 -1.63,0.29 -1.63,2.44z"/>
   <path class="fil1" d="M4149.83 2159.02l0 3.66c1.05,-0.24 2.42,-0.91 3.41,-1.47 1.45,-0.82 1.83,-1.36 1.88,-3.41l2.43 1.23c0.9,-1.87 3.11,-8.61 2.45,-11.41l-5.7 4.88c-1.68,2.6 -2.07,5.88 -4.47,6.52z"/>
   <path class="fil1" d="M4130.69 2058.45l0 2.45c6.19,0 3.48,-6.11 13.03,-6.11 0,-6.23 -1.37,-0.69 -2.44,-5.3 -1.85,0.05 -2.24,0.62 -3.43,1.46 -1.8,1.29 -7.16,5.55 -7.16,7.5z"/>
   <path class="fil1" d="M4283.37 2240.45l1.63 0c0,-8.85 -0.96,-15.8 0,-24.84 0.25,-2.39 0.44,-1.24 0.66,-2.55l-0.25 -4.78c0,-1.31 2.74,-4.99 -2.04,-6.1l0 38.27z"/>
   <path class="fil1" d="M4245.91 2096.32l-3.25 0 0 2.85 19.13 0 0 -2.85c-8.52,0 -5.59,-1.22 -10.18,-1.22 -3.56,0 -3.77,1.22 -5.7,1.22z"/>
   <path class="fil1" d="M4134.76 2064.97c2.18,0 2.67,0.19 3.97,-0.92 4.89,-4.15 5.13,-3.32 9.87,-5.6l0 -2.85c-1.22,-0.33 -0.89,0.01 -1.22,-1.22 -5.75,3.04 -12.11,4.44 -12.62,10.59z"/>
   <path class="fil1" d="M4147.38 2079.22c0,1.87 1.92,2.03 3.26,2.03 1.73,0 5.24,-4.84 8.81,-6.66 2.9,-1.48 3.4,0.68 3.4,-3.52 -5.17,0 -8.16,3.1 -13.89,6.47 -0.91,0.54 -1.58,0.47 -1.58,1.68z"/>
   <path class="fil1" d="M4359.51 2051.94c0.26,3.12 3.27,0.05 10.07,7.02 1.39,1.43 1.71,1.73 4.18,1.94 -0.41,-1.76 -2.33,-5.98 -3.65,-6.95 -1.54,-1.12 -5.44,-2.56 -6.12,-4.46l-2.04 0c-0.15,1.86 -0.79,2.06 -2.44,2.45z"/>
   <path class="fil1" d="M4300.06 2272.21c6.99,0 7.39,-2.11 12.23,-4.88 2.34,-1.33 3.25,-0.78 3.25,-3.27 0,-1.73 -0.42,0.2 -1.23,-2.03 -2.01,0.47 -3.59,2.37 -5.4,3.55 -2.19,1.43 -7.93,2.69 -8.85,6.63z"/>
   <path class="fil1" d="M4353.4 2060.9l-1.22 0 0 2.84c4.61,1.08 6.96,4.89 12.62,4.89 0,-3.67 -2.09,-4.3 -4.4,-5.78 -2.24,-1.44 -4.2,-2.53 -7,-3.18l0 1.23z"/>
   <path class="fil1" d="M4198.28 2278.72c-3.67,-5.48 -10.36,-7.64 -12.02,-9.15 -1.69,-1.53 0.53,-1.44 -4.68,-1.44 0,4.27 1.79,3.27 7,6.44 3.82,2.33 5.8,4.15 9.7,4.15z"/>
   <polygon class="fil1" points="4203.16,2207.47 4204.79,2207.47 4204.79,2174.08 4203.16,2174.08 "/>
   <path class="fil1" d="M4163.67 2150.06c0,2.58 -1.22,3.02 -1.22,4.89l0 10.58c0,2.67 2.85,-0.6 2.85,-1.63l0 -21.57 -1.63 0 0 7.73z"/>
   <path class="fil1" d="M4146.98 2062.12c-2.45,0.2 -4.89,2.58 -7.03,3.96 -1.15,0.75 -1.48,0.73 -1.52,2.55 2.1,0.76 -0.44,0.02 1.2,0.84l1.65 0.38c0.66,-1.84 4.52,-3 6.17,-4 1.49,-0.89 2.64,-0.91 3.75,-1.57 1.9,-1.13 0.64,-1.95 0.25,-3.38l-4.47 0 0 1.22z"/>
   <path class="fil1" d="M4124.58 2051.94l2 1.26c0.64,0.52 -0.01,-0.48 0.74,0.88 0.38,0.68 0.36,0.83 0.52,1.52l0.81 0c0.41,-1 4.35,-3.21 5.35,-4.01 3.8,-3.04 4.38,-2.79 4.43,-4.95 -1.23,-0.32 -0.9,0.01 -1.23,-1.22 -0.65,0 -1.31,-0.07 -1.92,0.12 -1.82,0.57 -6.32,6.03 -10.7,6.4z"/>
   <path class="fil1" d="M4339.15 2075.96c0,2.6 0.62,0.45 3.4,2.71 1.22,0.99 2.11,1.4 3.36,2.34 4.44,3.32 3.67,5.32 6.27,5.54l0 -2.45 1.22 0c-0.06,-2.59 0.55,-0.51 -2.54,-3.56 -1.23,-1.21 -11.71,-8.3 -11.71,-4.58z"/>
   <path class="fil1" d="M4376.61 2056.01l0 -1.22 1.22 0 0 -2.85c-5.98,-3.17 -7.52,-6.52 -13.03,-6.52 0,4.22 2.51,3.89 5.43,5.57 5.94,3.41 2.68,4.94 6.38,5.02z"/>
   <path class="fil1" d="M4168.96 2222.53l1.22 0 0 2.45 -1.22 0 -0.41 -2.04c-0.04,2.04 -0.76,2.85 -0.81,4.89 1.59,0.37 3.24,0.84 3.66,2.44l2.85 0 0 -1.22 1.23 0 0 -1.63c-2.71,0 -4.31,-0.28 -4.89,-2.44 1.31,0 2.88,0.29 3.94,-0.54 1.07,-0.83 0.74,-0.71 0.95,-1.5 -0.41,-0.55 -5.05,-4.92 -6.52,-5.7l0 5.29z"/>
   <path class="fil1" d="M4152.27 2084.51l0 2.04c4.91,-0.11 3.4,-3.18 10.11,-7.4 1.57,-0.99 1.94,-1.74 2.92,-3.19l-5.3 0c-2.44,4.62 -7.73,4.63 -7.73,8.55z"/>
   <path class="fil1" d="M4368.87 2064.97c0,-3.53 -0.23,-4.22 -2.37,-5.78 -0.89,-0.64 -1.78,-0.83 -2.59,-1.48 -2.7,-2.13 1.11,-2.11 -6.84,-2.11 0.09,4.11 2.56,3.93 5.27,5.31 2.82,1.44 3.05,3.77 6.53,4.06z"/>
   <path class="fil1" d="M4206.83 2178.56c0,5.28 -0.29,13.93 0.37,18.76 0.15,1.11 0.15,1.36 0.36,2.08l0.9 1.96 0 -35.42c-1.36,1.95 -1.15,3.8 -1.23,5.69 -0.11,2.25 -0.4,4.07 -0.4,6.93z"/>
   <path class="fil1" d="M4307.8 2278.72c1.86,-0.15 4.94,-2.06 6.51,-2.85 0.97,-0.48 2.38,-1.08 3.25,-1.64 2.19,-1.38 0.9,-2.02 4.08,-2.02l0 -4.08c-4.79,0 -0.19,0.41 -8.28,4.75 -2.19,1.17 -5.35,3.27 -5.56,5.84z"/>
   <path class="fil1" d="M4378.64 2205.03c0,1.38 0.51,0.83 1.83,1.43l0.8 0.42c1.04,0.59 -0.59,0.15 1.04,0.59 1.15,-0.85 0.61,-1.02 2.24,-1.83 2.54,-1.27 2.24,0.43 2.24,-5.91 -2.19,0.05 -2.42,0.57 -2.85,2.45l-1.22 0c-0.22,-2.63 -2.06,-2.45 -4.08,-2.45l0 5.3z"/>
   <path class="fil1" d="M4343.22 2071.07c-2.15,0 -0.61,0.01 -1.22,0.41 1.09,0.29 2.4,1.47 3.5,2.2 3.56,2.36 4.83,2.74 7.17,5.04 1.52,1.5 2.02,1.31 4.8,1.31 -2.34,-3.5 -0.23,-2.47 -1.83,-3.86 -0.06,-0.06 -3.42,-1.61 -3.85,-1.86l-5.52 -3.03c-1.32,-0.62 -0.94,0.36 -1.42,-1.43l-1.63 0 0 1.22z"/>
   <path class="fil1" d="M4291.92 2211.13c0,3.32 0.28,5.06 0.41,8.14 0.15,3.65 1.22,2.5 1.22,7.74l1.22 -18.73c-0.02,-2.61 0.37,-4.18 0.41,-6.1 -3.25,0.27 -3.26,5.83 -3.26,8.95z"/>
   <path class="fil1" d="M4133.13 2237.6l-2.44 0 0 2.85c3.82,0 5.78,-0.43 8.7,1.07 1.56,0.81 1.67,1.37 3.92,1.37 -0.97,-3.64 -5.1,-5.24 -5.94,-5.87 -2.2,-1.65 0.41,-1.86 -4.24,-1.86l0 2.44z"/>
   <path class="fil1" d="M4363.58 2242.89c3.13,-0.73 4.57,-2.39 8.54,-2.45 1.8,-0.03 4.67,0.56 4.17,-0.89 -0.44,-1.28 -2.41,-1.64 -3.75,-1.95l0 -2.44 -2.85 0c-1.49,5.56 -6.11,1.38 -6.11,7.73z"/>
   <path class="fil1" d="M4124.17 2200.55l0 1.63c-4.51,0 -0.34,-0.86 -3.66,-1.23l0 5.3c2.63,0 4.17,1.64 5.73,0.03 0.48,-0.5 1.92,-4.65 2.01,-5.73 -0.31,-0.08 -4.08,-2.92 -4.08,0z"/>
   <path class="fil1" d="M4161.23 2174.08l-1.23 0 0 4.07c2.55,0.93 0.1,3.67 5.3,3.67l0 -7.74c-1.23,-0.32 -0.9,0.01 -1.22,-1.22l-2.85 0 0 1.22z"/>
   <path class="fil1" d="M4298.44 2201.77l0 21.99 1.62 0 0 -21.99c0,-1.15 -0.17,-0.75 -0.81,-1.22 -0.69,0.47 -0.81,0.06 -0.81,1.22z"/>
   <path class="fil1" d="M4196.65 2038.09c1.22,0.33 0.89,0 1.22,1.23l3.26 0c0.32,-1.23 -0.01,-0.9 1.22,-1.23 0,-9.01 -0.83,-2.88 -1.22,-6.51l-2.85 0c0,5.6 -1.63,1.48 -1.63,6.51z"/>
   <path class="fil1" d="M4303.73 2032.8l-1.22 0 0 5.29c2.25,1.52 1.73,1.23 5.29,1.23 0,-5.92 -1.22,-1.24 -1.22,-7.74l-2.85 0 0 1.22z"/>
   <path class="fil1" d="M4194.2 2257.96l-1.22 0 0 1.62c3.14,0.84 0.6,4.89 9.37,4.89 -0.25,-0.94 -2.73,-3.4 -3.56,-4.18 -4.16,-3.92 -1.9,-3.5 -4.59,-3.56l0 1.23z"/>
   <path class="fil1" d="M4173.03 2214.8c0,-4.4 -1.25,-3.75 -2.26,-6.7 -1.22,-3.54 -1.81,-4.36 -1.81,-7.55l-1.22 0c0,10.81 0.07,6.3 2.48,12.17 0.62,1.51 0.77,1.91 2.81,2.08z"/>
   <path class="fil1" d="M4333.04 2230.27c2.75,-1.45 6.52,-2.43 6.52,-8.14 0,-1.26 -0.57,-1.22 -1.63,-1.22 -1.54,0 -1.77,2.71 -2.78,4.13 -1.3,1.83 -2.11,2.13 -2.11,5.23z"/>
   <path class="fil1" d="M4174.25 2281.98c0.19,2.23 1.54,3.14 2.04,5.29 2.25,-0.19 1.82,-1.03 4.07,-1.22l0 -4.07c-1.82,-0.66 0.2,0.08 -0.98,-0.65 -1.19,-0.73 1.57,-0.57 -3.09,-0.57 -1.73,0 -0.05,-0.06 -1.05,0.57 -1.32,0.82 0.84,-0.03 -0.99,0.65z"/>
   <path class="fil1" d="M4322.86 2281.98l0 2.85c2.64,1.39 -0.52,1.22 6.52,1.22 -1.7,-7.3 -1.64,-3.05 -2.44,-6.52l-1.63 0c-0.43,1.85 -0.6,2.02 -2.45,2.45z"/>
   <path class="fil1" d="M4270.75 2075.96l0 4.07c1.89,1.27 0.28,1.22 4.07,1.22l0 -4.07c1.07,-0.25 1.2,-0.37 2.04,-0.81 -1.18,-1.61 -1.42,-0.22 -2.04,-2.85 -4.09,0.09 0.05,1.48 -4.07,2.44z"/>
   <path class="fil1" d="M4147.38 2174.9c0,1.96 1.44,2.88 2.54,3.98 1.8,1.82 1.81,1.72 5.2,1.72 -1.04,-1.55 -1.86,-2.41 -2.98,-3.94 -2.19,-2.98 -0.55,-3.8 -4.76,-3.8l0 2.04z"/>
   <path class="fil1" d="M4280.93 2037.69l0 1.63c4.89,0.4 1.06,2.44 6.51,2.44 0,-4.54 -1.22,0.04 -1.22,-6.52l-2.85 0c-0.38,1.66 -0.58,2.29 -2.44,2.45z"/>
   <path class="fil1" d="M4377.42 2175.3l0 1.63c1.7,0.14 2.3,0.75 2.45,2.45l1.62 0 0 -2.45 1.23 0 0 -4.07 -1.57 -1.29c-3.56,2.5 -1.21,3.06 -3.73,3.73z"/>
   <path class="fil1" d="M4303.73 2214.8l1.63 0 0 -14.25c0,-1.23 -0.48,-1.13 -1.63,-1.22l0 15.47z"/>
   <path class="fil1" d="M4382.72 2036.87c4.23,0 5.29,-0.06 5.29,-5.29 -2.29,0 -4.05,-0.43 -5.21,1.74 -0.75,1.39 -0.12,1.82 -0.08,3.55z"/>
   <path class="fil1" d="M4231.26 2311.7l5.22 -2.58 0.07 -5.16 -2.85 0c-0.09,3.8 -2.44,3.74 -2.44,7.74z"/>
   <path class="fil1" d="M4292.33 2078.4l-1.22 0 0 3.26c2.39,0.56 2.36,2.41 4.19,2.3 2.44,-0.15 0.39,-2.81 0.39,-2.81 -0.74,-1.47 -0.26,0.08 -0.49,-1.96 -0.28,-2.55 -0.05,-2.01 -2.87,-2.01l0 1.22z"/>
   <path class="fil1" d="M4352.18 2180.6c2.86,-0.07 3.05,-1.01 4.39,-2.54 1.29,-1.48 2.23,-2.31 3.35,-3.98 -1.23,-0.32 -0.9,0.01 -1.23,-1.22l-1.62 0c-0.59,2.19 -3.79,3.02 -4.89,7.74z"/>
   <path class="fil1" d="M4184.03 2287.27l-1.22 0 0 1.63c1.69,0.14 2.3,0.75 2.44,2.44l2.85 0c0.33,-1.22 -0.01,-0.89 1.22,-1.22l0 -1.63 -1.22 0 0 -2.44 -4.07 0 0 1.22z"/>
   <path class="fil1" d="M4315.13 2291.34l5.29 0 0 -5.29c-3.36,0 -5.22,2.08 -5.29,5.29z"/>
   <path class="fil1" d="M4228.81 2076.37c0,0.6 0.88,1.79 1.22,2.44l5.3 0c-0.35,-0.73 -1.01,-3.14 -1.22,-4.07l-5.3 0 0 1.63z"/>
   <path class="fil1" d="M4125.4 2161.05c0,4.97 0.31,1.56 1.22,4.08 1.98,-0.17 2.25,-1.04 4.48,-1.23 -0.29,-3.49 -2.85,0.03 -2.85,-5.29 -0.98,0.08 -1.04,-0.38 -2.29,1.38 -0.7,0.97 -0.56,-0.59 -0.56,1.06z"/>
   <path class="fil1" d="M4315.13 2045.83c6.43,0 3.28,1.58 6.51,2.44l0 -4.07c-1.22,-0.33 -0.89,0.01 -1.22,-1.22l-5.29 0 0 2.85z"/>
   <path class="fil1" d="M4369.69 2138.66c2.37,0.64 0.81,1.22 5.29,1.22 0,-0.42 0.04,-1.23 -0.01,-1.61 -0.28,-1.94 -1.01,-1.29 -1.21,-3.68 -3.3,0 -4.07,0.77 -4.07,4.07z"/>
   <path class="fil1" d="M4376.2 2162.28c0.84,1.14 0.84,0.57 1.9,1.76 1.13,1.27 0.15,1.32 2.17,1.49 0,-4.22 1.22,-0.63 1.22,-5.7l-1.22 0 0 -1.22c-2.04,0.17 -1.03,0.23 -2.17,1.49 -1.39,1.52 -1.42,0.38 -1.9,2.18z"/>
   <path class="fil1" d="M4124.17 2174.08l-1.22 0c1.88,3.55 1.38,2.2 4.08,5.3 0.32,-1.23 -0.01,-0.9 1.22,-1.23l0 -4.07c-1.34,-0.48 -0.3,0.53 -1.22,-1.22l-2.86 0 0 1.22z"/>
   <path class="fil1" d="M4217.01 2041.76c3.95,0 2.42,-0.03 3.93,-1.36 1.16,-1.03 0.86,-0.26 1.77,-1.49 -0.91,-3.39 -5.7,-4.08 -5.7,2.85z"/>
   <path class="fil1" d="M4115.22 2032.8c0,2.43 0.47,4.07 3.26,4.07 0.87,0 0.8,-0.21 1.87,-1.38 0.51,-0.55 0.18,-0.12 0.57,-0.65 -0.78,-1.16 -2.92,-3.26 -4.48,-3.26 -0.94,0 -1.22,0.28 -1.22,1.22z"/>
   <path class="fil1" d="M4209.68 2083.7c5.02,-1.17 4.07,-0.73 4.07,-5.3 0,-1.49 -0.87,-1.22 -2.85,-1.22 0,2.44 0.05,1.33 -0.73,2.93 -0.75,1.53 -0.49,1.51 -0.49,3.59z"/>
   <path class="fil1" d="M4182.81 2047.05c5.22,0 0.43,-1.22 6.51,-1.22l0 -2.85 -5.29 0c-0.47,1.99 -1.17,1.66 -1.22,4.07z"/>
   <path class="fil1" d="M4373.76 2148.43l0 1.63c1.22,0.33 0.89,0 1.22,1.22l2.85 0c0.33,-1.22 -0.01,-0.89 1.22,-1.22l0 -2.85 -1.22 0 0 -1.22 -1.63 0c-0.38,1.65 -0.58,2.29 -2.44,2.44z"/>
   <polygon class="fil1" points="4198.28,2192 4199.5,2192 4199.5,2176.53 4198.28,2176.53 "/>
   <path class="fil1" d="M4128.25 2148.84c0,1.67 -0.05,0.12 0.32,0.9 0.04,0.07 0.09,0.2 0.13,0.27l0.31 0.51c0.92,1.11 0.19,0.72 2.09,0.76 0.32,-1.22 -0.01,-0.89 1.22,-1.22l0 -2.85c-1.99,-0.46 -1.66,-1.17 -4.07,-1.22l0 2.85z"/>
   <path class="fil1" d="M4138.43 2231.9l0 0.81c1.69,1.47 1,1.22 4.07,1.22 0,-4.69 0.62,-4.07 -4.07,-4.07l0 2.04z"/>
   <path class="fil1" d="M4368.47 2224.98c2.96,0 5.2,-1.01 5.29,-4.89 -1.98,0.17 -5.22,1.58 -5.29,4.89z"/>
   <path class="fil1" d="M4271.97 2038.09l4.07 0 0 -1.62c0,-0.98 -1.46,-2.45 -2.44,-2.45l-1.63 0 0 4.07z"/>
   <path class="fil1" d="M4366.43 2233.93c0.44,-1.65 -0.04,0.05 0.64,-1.43 1.54,-3.34 -0.82,-2.64 -3.49,-2.64 0.08,0.92 0.29,1.78 0.61,2.65 0.58,1.56 0.37,1.38 2.24,1.42z"/>
   <path class="fil1" d="M4134.35 2224.98l2.85 0c0.52,-0.97 0.94,-1.39 1.23,-2.45 -1.05,-0.02 -1.9,-0.17 -2.82,-0.43 -1.51,-0.43 -0.26,-0.12 -1.19,-0.44 -0.28,-0.1 0.09,-0.23 -1.29,-0.35 0.18,2.18 0.81,2.13 1.22,3.67z"/>
   <path class="fil1" d="M4131.91 2138.66c1.7,0 2.57,-0.29 3.67,-0.81l0.4 -3.26 -2.85 0c-0.14,1.66 -0.6,2.9 -1.22,4.07z"/>
   <path class="fil1" d="M4228.81 2035.24c0.05,2.11 0.57,2.85 4.07,2.85 -0.5,-2.16 -0.41,-3.86 -2.85,-4.07 -0.31,1.19 0,0.93 -1.22,1.22z"/>
   <path class="fil1" d="M4166.11 2286.46c0,0.93 0.28,1.22 1.22,1.22l2.85 0 0 -2.85 -4.07 0 0 1.63z"/>
   <path class="fil1" d="M4135.58 2128.89c1.83,2.51 2.03,2.01 3.25,2.04 0.51,-2.18 0.82,-0.52 0.82,-4.08 -1.56,0.04 -1.9,0.13 -2.74,0.86l-1.33 1.18z"/>
   <path class="fil1" d="M4304.95 2264.47c4.79,0 3.75,-2.2 4.35,-3.38 0.48,-0.94 0.77,0.2 0.94,-1.91 -1.44,0.38 -4.63,4.05 -5.29,5.29z"/>
   <path class="fil1" d="M4301.29 2188.33l3.66 0c-0.06,-2.48 -1.15,-2.79 -3.66,-2.85l0 2.85z"/>
   <path class="fil1" d="M4267.9 2306.41c0,1.39 1.64,2.16 2.85,2.44l0 -3.66 -2.85 0 0 1.22z"/>
   <path class="fil1" d="M4217.01 2177.75c0,0.81 0.24,1.53 0.54,2.3 0.02,0.04 0.33,0.7 0.4,0.83 0.06,0.1 0.26,0.4 0.32,0.49 0.04,0.06 0.14,0.18 0.18,0.23 0.03,0.04 0.12,0.15 0.18,0.22l-0.4 -10.18c0,3.93 -1.22,2.69 -1.22,6.11z"/>
   <path class="fil1" d="M4167.74 2231.49l0 -1.63c-0.69,-0.07 -0.16,0.12 -0.69,-0.12 -0.06,-0.03 -0.21,-0.09 -0.29,-0.12l-0.7 -0.52c-0.7,-0.47 -0.18,-0.15 -0.76,-0.46 0.1,1.25 0,0.93 0.6,1.84 0.66,1 0.46,0.9 1.84,1.01zm0 1.22l1.22 0 0 -1.22 -1.22 0 0 1.22z"/>
   <path class="fil1" d="M4217.01 2186.7c0,2.09 -0.21,0.64 0.55,1.49l1.07 0.96 0 -4.07c-0.92,0.24 -1.62,0.39 -1.62,1.62z"/>
  </g>
 </g>
</svg>
