<?xml version="1.0" encoding="UTF-8"?>
<!DOCTYPE svg PUBLIC "-//W3C//DTD SVG 1.1//EN" "http://www.w3.org/Graphics/SVG/1.1/DTD/svg11.dtd">
<!-- Creator: CorelDRAW -->
<svg xmlns="http://www.w3.org/2000/svg" xml:space="preserve" width="87mm" height="35mm" version="1.1" style="shape-rendering:geometricPrecision; text-rendering:geometricPrecision; image-rendering:optimizeQuality; fill-rule:evenodd; clip-rule:evenodd"
viewBox="0 0 8700 3500"
 xmlns:xlink="http://www.w3.org/1999/xlink"
 xmlns:xodm="http://www.corel.com/coreldraw/odm/2003">
 <defs>
  <style type="text/css">
   <![CDATA[
    .fil0 {fill:#3E4095}
   ]]>
  </style>
 </defs>
 <g id="Camada_x0020_1">
  <metadata id="CorelCorpID_0Corel-Layer"/>
  <g id="_3044574911632">
   <path class="fil0" d="M3602.8 1427.96c0,-81.14 3.96,-157.52 38.59,-222.98 73.59,1.64 165.52,26.62 217.71,78.17 99.2,98 116.65,257.69 59.69,379.32 -10.58,22.6 -57.14,91.37 -71.57,91.37 -12.97,0 -33.98,-9.51 -46.63,-13.4 -16.23,-5 -31.35,-9.23 -50.88,-13.44 -51.63,-11.14 -70.24,-16.03 -129.76,-16.03 0,-84.72 -17.15,-190 -17.15,-283.01zm-38.59 -235.85c-10.24,15.29 -65.46,46.52 -100.48,131.08 -41.44,100.06 -49.79,198.58 -34.29,308.14 4.74,33.48 3.53,67.24 10.41,96.79 -50.5,24.23 -101,24.15 -183.82,86.32 -14.58,10.95 -43.45,30.58 -47.73,46.61 89.95,-20.96 140.9,-25.73 240.13,-25.73 0,38.46 12.87,96.13 12.87,158.66 0,55.64 2.83,106.82 -35.92,157.05 -11.02,14.28 -15.48,11.25 -24.12,23.04 69.06,-1.53 129.35,-62.53 155.73,-110.13 31.71,-57.25 67.25,-115.95 67.25,-202.89 45.82,10.67 99.06,33.06 132.93,55.74l114.51 -95.6c66.25,-55.71 174,-146.54 208.54,-215.98 13.86,-27.85 21.53,-43.88 29.48,-77.72 61.51,-261.82 -114.06,-429.51 -345.01,-475.83 -215.6,-43.24 -447.62,-12.37 -616.42,-125.41 6.3,27.04 45.2,85.49 63.16,104.08 74.32,76.95 162.3,141.37 275.57,153.23 27.11,2.84 47.63,8.55 77.21,8.55z"/>
   <path class="fil0" d="M5841.16 1976.82c-13.45,-11.68 -47.17,-28.38 -47.17,-60.03l0 -338.75c0,-53.89 42.42,-102.5 81.47,-128.64 19.56,5.22 32.04,18.34 40.12,37.06 9.98,23.13 7.17,43.89 7.04,74.44 -0.14,32.6 4.41,48.53 4.45,77.02l-0.15 270.29c0,11.95 -8.4,12.98 -18.75,19.85 -9.93,6.59 -12.81,9.16 -22.3,16.29 -16.33,12.28 -28.7,21.75 -44.71,32.47zm-214.4 -390.21l0 334.47c0,76.29 58.85,146.14 124.99,175.59 26.13,11.63 25,4.58 88.79,-43.28l86.38 -63.7c0,114.25 26.2,257.66 -73.57,316.64 -47.07,27.82 -106.53,10.02 -106.53,-55.07 0,-27.6 24.31,-37.82 34.3,-51.46 -31.81,-7.41 -70.75,-20.89 -103.73,20.62 -79.2,99.68 46.52,219.51 138.04,219.51 95.37,0 137.36,-28.73 202.63,-93.24 32.77,-32.4 59.67,-76.22 69.42,-123.54 14.05,-68.15 2.11,-78.93 2.28,-121.87l0.16 -587.62c0.47,-74.64 -33.7,-134.41 -93.01,-168.57 -58.28,-33.55 -43.38,-25.85 -90.83,-6.58 -80.66,32.74 -279.32,155.59 -279.32,248.1z"/>
   <path class="fil0" d="M1463.07 1325.04c0,16.68 -1.92,17.92 3.63,30.68 16.74,38.53 9.23,38.61 9.23,97.96l4.29 711.82c0,277.72 9.99,572.61 8.55,853.35 -0.84,163.18 29.8,214.56 69.49,359.31 5.94,21.68 14.79,31.79 21.12,51.77 6.78,21.42 5.96,36.82 33.77,39.13 0,-34.08 3.48,-22.14 15.07,-44.96l78.01 -238.85c1.28,-23.1 -5.08,-21.87 3.12,-53.06 13.32,-50.71 15.3,-90.71 7.88,-144.56 -7,-50.86 -4.66,-61.43 15.99,-63.15l0 -1033.42c-42.04,-22.23 -10.97,-22.64 -38.6,-30.01 -21.7,15.89 -21.36,76.86 -21.5,115.82 -0.1,28.81 4.21,39 4.52,64.1 4.06,329.08 -0.17,684.29 -0.17,1016.44l-25.19 154.9c-8.62,28.72 -41.73,116.35 -43.42,136.69l-12.87 0c0,-34.28 -12.74,-48.64 -20.94,-73.39 -8.24,-24.86 -18.36,-51.12 -25.4,-73.23 -8.87,-27.83 -0.58,-63.37 -8.83,-85.51 -4.38,-11.76 -3.99,-5.85 -6.78,-14.65 -19.51,-61.63 5.56,-636.86 -2.48,-743.64 -2.36,-31.22 -13.12,-35.7 -12.85,-77.2 0.18,-28.97 2.59,-60.45 -1.71,-88.35 -11.76,-76.21 14.67,-37.19 14.67,-78.99 0,-20.92 -17.14,4.66 -17.14,-60.03l0 -390.21c0,-66.76 4.28,-117.95 4.28,-184.39 45.29,12.1 21.21,162.4 21.41,201.51l0.03 947.69c0,28.6 9.8,39.09 12.42,60.47 10.91,88.75 -24.8,443.62 30.46,484.11l0 -1886.74c-38.55,0 -30.02,-4.66 -30.01,72.9 0,28.58 0,57.17 0,85.76 -17.41,-4.65 -34.31,-28.24 -34.31,-55.75 0,-17 4.46,-23.06 7.53,-35.36 4.42,-17.75 3.55,-22.42 5.51,-41.65 2.21,-21.69 6.19,-15.62 10.82,-32.05 3.83,-13.58 1.87,-30.61 1.87,-45.3l-12.87 0 0 -68.62c-20.16,-10.67 -21.29,-20.69 -42.87,-25.72 0,33.06 1.64,70.42 0.03,102.94l-12.08 65.11c-4.42,15.5 4.19,11.56 -13.68,16.33z"/>
   <path class="fil0" d="M7590.68 1436.53c14.33,3.83 18.67,12.09 28.99,22.46 10.24,10.29 17.8,16.85 24.75,31 14.74,29.97 10.58,59.45 10.58,100.91 0,72.9 0,145.8 0,218.69 0,82.31 -7.38,139.35 22.77,195.92 21.25,39.87 84.97,95.66 123.02,95.66 0.48,0 31.99,-23.97 36.75,-27.56 16.46,-12.42 106.44,-80.94 117.62,-83.92 5.97,25.63 19.44,50.58 35.29,67.62 19.37,20.81 33.74,30.48 59.05,43.86l31.24 -24.5c16.47,-12.34 84.03,-66.26 97.4,-69.83l0 -8.58c-60.45,-16.14 -71.07,-125.22 -61.84,-186.19 4.3,-28.43 1.81,-279.69 1.81,-319.79 0,-39.12 -7.17,-67.66 -23.9,-91.88 -15,-21.72 -36.97,-48.74 -61.83,-58.78 -20.65,-8.36 -38.95,13.64 -70.48,37.33l-71.06 49.01c6.77,25.33 60.03,35.32 60.03,111.48l0 368.77c0,13.37 -68.19,59.72 -81.47,68.61 -57.76,-30.56 -51.46,-57.73 -51.46,-141.5l0.01 -295.88c0.07,-59.34 -10.02,-108.56 -42.17,-155.07 -48.14,-69.65 -59.92,-43.97 -85.86,-24.41l-66.12 49.66c-12.66,9.43 -24.84,14.54 -33.12,26.91z"/>
   <path class="fil0" d="M6986.07 1440.82c22.58,6.03 37.43,31.92 47.35,51.27 15.2,29.64 12.7,46.86 12.68,90.24 -0.05,76.99 -5.96,345.35 7.53,399.83 12.43,50.23 46.44,91.99 86.81,119.01 16.16,-4.31 50.56,-33.63 66.15,-45.33 23.53,-17.64 43.35,-33.31 66.77,-49 -15.38,-20.99 -64.32,-33.64 -64.32,-124.35l0 -351.62c0,-11.4 73.4,-60.33 85.76,-68.61 56.14,29.7 51.46,59.64 51.46,141.5 0,70.83 -7.54,335.24 6.95,383.26 14.17,46.93 43.85,87.87 83.1,114.15 17.66,-4.11 50.5,-32.51 66.77,-44.71 15.6,-11.69 49.99,-41.01 66.16,-45.33 -4.93,-18.45 -10.62,-13.76 -24.79,-26.67 -39.99,-36.46 -35.25,-80.4 -35.25,-131.99 0.01,-72.9 0,-145.79 0,-218.69 0,-121.2 9.94,-181.63 -69.6,-256.28 -9.95,-9.34 -57.32,-39.59 -71.9,-39.59 -7.69,0 -100.36,69.86 -118.23,83.3 -14.94,11.24 -24.59,19.81 -40.43,28.19 -6.74,-28.95 -20.12,-49.9 -37.52,-69.68 -9.76,-11.09 -17.7,-16.94 -29.77,-26.04 -32.12,-24.23 -31.03,-12.74 -95.65,35.68 -12.6,9.44 -55.85,35.78 -60.03,51.46z"/>
   <path class="fil0" d="M1664.61 1556.6l12.86 0 0 197.24 -12.86 0 0 -197.24zm214.4 188.67c2.02,-2.02 24.3,2.33 7.73,2.3 -0.01,0 -0.62,-0.08 -0.67,-0.09 -3.8,-0.98 -14.3,5.03 -7.06,-2.21zm34.3 -8.57c0,-10.97 6.79,-0.69 2.55,0 -0.05,0 -2.55,11.96 -2.55,0zm8.58 -12.87c0,-11.64 15.34,0 3.84,0.23 -4.33,0.1 -3.84,9.52 -3.84,-0.23zm25.73 -21.44l8.57 0 0 12.86c-16.43,-11.41 -1.8,0.02 -8.57,-12.86zm21.43 -12.87l0 12.87 -8.57 0c2.82,-11.76 -1.74,-6.68 8.57,-12.87zm4.29 -12.86l8.58 0 0 12.86 -8.58 0 0 -12.86zm12.87 0l0 -12.86 12.86 0c-3.34,9.24 1.17,2.94 -4.66,8.2 -2.01,1.81 -6.94,3.02 -8.2,4.66zm12.86 -25.73l12.87 0 0 8.58 -12.87 0 0 -8.58zm12.87 -25.73l12.86 0 0 21.45 -12.86 0 0 -21.45zm17.15 -8.57c0,-11.65 15.34,0 3.84,0.23 -4.33,0.09 -3.84,9.52 -3.84,-0.23zm17.15 -8.58c-11.09,1.38 -1.31,-14.49 -0.14,-5.32l0.14 5.32zm47.17 -265.86l12.86 0 0 38.59 -12.86 0 0 -38.59zm25.73 -107.19l12.86 0 0 25.72 -12.86 0 0 -25.72zm-321.6 -188.68l12.86 0 0 -12.87 -12.86 0 0 12.87zm214.4 330.18c0,93.77 6.95,97.58 -32.88,177.24 -59.74,119.48 -27.53,93.12 -127.36,159.93 -7.67,5.13 -87.43,40.17 -105.62,40.17l-12.86 0c0,-88.22 4.65,-377.59 -4.12,-446.12 -2.89,-22.59 -1.51,-9.32 -6.21,-23.92 -1.59,-4.92 -4.44,-19.34 -4.59,-24.06 -0.91,-26.8 2.05,-82.61 2.05,-119.08 -46.75,3.89 -60.03,87.34 -60.03,115.77 0,22 5.33,35.1 11.25,53.07 26.13,79.22 19.83,69.02 -3.88,117.26 -7.57,15.4 -7.61,15.33 -15.95,18.35l0 -158.66 -30.02 0 0 484.55c22.98,0.51 29.34,5.98 44.65,15.38 10.3,6.32 11.15,6.3 20.91,9.11l16.16 5.29c0.86,0.42 1.86,1.13 2.71,1.57 61.78,32.16 164.96,30.67 234.16,4.22 25.13,-9.61 81.34,-47.91 106,-65.51 12.02,-8.58 19.99,-18.09 31.04,-29 39.4,-38.89 19.97,-42.77 54.65,-61.13l0 -30.01c31.9,-2.66 36.53,-48.03 58.63,-95.74 14.65,-31.62 4.39,-35.06 12.53,-64.66 4.25,-15.51 6.88,-12.98 9.74,-28.85 7.61,-42.2 5.92,-57.48 -5.41,-100.63 -22.04,-83.87 25.78,-5 -55.48,-167.52 -21.92,-43.83 -23.56,-58.68 -64.58,-85.5 -28.55,-18.66 -58.27,-44.57 -105.51,-44.57 0,61.56 10.36,-9.43 85.85,89.97 10.02,13.18 22.81,29.77 31.39,45.79 11.24,20.98 14.29,37.07 19.98,61.5 -19.76,-13.24 -43.31,-71.15 -76.08,-108.32 -11.39,-12.93 -94.33,-71.81 -112.6,-76.07 1.09,48.53 53.89,53.79 95.2,123.49 36.42,61.43 76.47,112.26 63.46,168.1l-8.57 0c0,-43.13 -69.27,-156.35 -97.59,-181.14l-115.47 -94.65c-21.75,-16.37 -22.17,-15.8 -57.09,-15.8 6.64,24.88 48.17,30.52 76.23,56.7 11.7,10.92 20.43,20.8 32.06,32.25 17.44,17.18 17.96,17.17 28.97,39.65 31,63.27 64.28,117.57 64.28,201.58z"/>
   <path class="fil0" d="M6171.34 2388.47c0,65.69 16.04,96.36 61.01,140.53 29.41,28.89 70.51,50.34 107.58,72.52 21.21,12.69 225.91,131.9 225.91,138.58 0,41.04 -38.58,124.35 -72.9,124.35 -66.71,0 -208.77,-198.19 -342.01,-63.29 -22.98,23.27 -62.44,66.88 -65.36,101.88 151.52,-101.45 220.89,86.28 337.7,76.22 46.03,-3.96 52.82,-19.13 76.94,-47.51l198.56 -290.28 -121.42 -71.54c-82.49,-49.2 -234.67,-118.47 -272.63,-207.63 -12.61,-29.6 -13.32,-43.45 -13.32,-85.31 33.88,17.93 54.12,37.8 104.33,62.91 103.77,51.88 139.06,35.17 231.13,-40.48 32.13,-26.4 61.9,-52.6 84.77,-86.75 -19.35,4.5 -32.41,15.62 -54.05,23.13 -169.47,58.84 -214.75,-72.74 -314.72,-96.03l-121.24 88.88c-17.24,17.29 -50.28,118.76 -50.28,159.82zm-90.05 514.57l1.28 1.28c-0.09,-0.09 -0.86,-1.71 -1.28,-1.28z"/>
   <path class="fil0" d="M8221.02 1586.61c0,125.4 167.38,158.54 245.82,221.58 81.01,65.11 69.03,164.34 24.33,164.34 -62.47,0 -125.15,-68.24 -137.22,-120.06 -13.36,8.95 -124.36,88.01 -124.36,94.34 0,85.56 145.37,192.27 228.77,143 10.58,-6.25 17.36,-12.38 27.3,-19.87 11.15,-8.4 17.96,-13.48 29.4,-22.05 21.16,-15.87 37.87,-28.41 58.8,-44.12 68.92,-51.72 75.97,-76.84 75.97,-164.16 0,-55.68 -12.44,-84.93 -37.91,-116.46 -66.24,-82.01 -253.68,-129.09 -253.68,-218.01 0,-52.19 81.24,-70.49 171.52,64.32 23.49,-6.27 93.21,-71.3 128.64,-90.05 -15.95,-68.48 -105.63,-145.79 -201.54,-145.79 -9.85,0 -59.6,40.41 -71.06,49l-71.69 52.66c-47.27,35.56 -93.09,70.56 -93.09,151.33z"/>
   <path class="fil0" d="M4297.46 1719.54l-6.54 -105.62c0.94,-13.45 2.05,-24.52 2.13,-40.29 0.24,-43.86 19.11,-99.57 34.43,-128.52 17.46,11.69 73.1,96.24 90.65,119.46 11.93,15.79 20,25.68 29.41,43.48l-150.08 111.49zm-145.79 4.29c0,133.06 42.89,270.09 144,336.26 33.27,21.78 75.36,41.08 126.14,41.08 9.05,0 171.12,-123.8 180.1,-137.21l-77.18 4.29c-84.09,0 -147.01,-49.74 -185.29,-110.59 -15.95,-25.37 -17.19,-44.67 -29.11,-69.51 24.1,-16.14 45.85,-35.53 70.44,-53.91 26.3,-19.66 46.76,-36.21 72.9,-55.75l143.96 -109.03c-5.42,-20.26 -72.74,-105.95 -85.74,-124.38l-90.08 -124.33c-185.99,43.34 -270.14,213.73 -270.14,403.08z"/>
   <path class="fil0" d="M5253.7 1719.54c0,-19.98 -2.78,-17.98 -4.04,-34.55 -6.19,-81.39 -2.84,-170.17 34.05,-239.88 12.61,8.44 109.95,143.82 120.07,162.94 -15.12,8 -24.28,15.7 -37.6,26.72 -12.58,10.4 -23.24,17.84 -36.52,27.8 -26.58,19.95 -49.11,38.99 -75.96,56.97zm-145.8 4.29c0,162.25 63.08,338.34 234.04,374.92 44.58,9.55 35.08,6.43 79.61,-26.97 20.74,-15.56 128.38,-95.54 136.6,-107.82l-77.19 4.29c-74.72,0 -125.52,-33.69 -163.97,-80.45 -8.47,-10.3 -14.14,-18.74 -21.31,-30.14 -10.82,-17.2 -24.11,-47.99 -29.12,-69.51 11.66,-7.81 22.44,-17.3 33.72,-26.32l109.66 -83.29c13.81,-10.41 22.65,-18.18 36.09,-28.23 13.34,-9.96 23.05,-17.27 36.27,-28.06 17.73,-14.48 60.92,-42.57 71.56,-57.08 -54.17,-80.88 -124.15,-167.27 -175.81,-244.42 -187.81,43.76 -270.15,213.13 -270.15,403.08z"/>
   <path class="fil0" d="M6158.47 1440.82c22.59,6.03 37.44,31.92 47.36,51.27 15.2,29.64 12.7,46.86 12.67,90.24 -0.03,62.52 -3.93,368.95 2.99,404.37 12.53,64.23 71.91,114.47 91.35,114.47 8.73,0 80.32,-55.79 98.6,-68.63 11.38,-7.99 22.91,-18.05 34.33,-25.7 -5.65,-7.71 -60.03,-45.29 -60.03,-98.63l0 -377.34c0,-13.82 22,-25.05 36.75,-36.15 15.1,-11.37 30.37,-22.85 44.72,-32.46 39.91,21.12 37.46,30.87 51.46,60.03 17.14,-4.57 109.47,-78.63 132.93,-94.33 -5.76,-21.57 -27.73,-40.76 -44.62,-54.01 -71.89,-56.41 -70.86,-38.38 -145.89,17.87 -27.38,20.52 -52.22,39.22 -79.64,57.58 -6.13,-12.78 -5.85,-22.23 -14.12,-37.34 -11.59,-21.17 -61.02,-82.11 -87.13,-68.61 -8.76,4.53 -20.94,15.32 -29.84,22.02 -16.49,12.39 -87.08,57.33 -91.89,75.35z"/>
   <path class="fil0" d="M4627.64 1440.82c22.71,6.06 37.31,31.95 47.31,51.32 16.54,32 12.74,43.87 12.73,90.19 -0.02,62.66 -3.96,368.86 2.98,404.37 11.98,61.4 71.39,114.47 91.35,114.47 10.44,0 111.42,-79.92 132.93,-94.33 -5.65,-7.71 -60.03,-45.29 -60.03,-98.63l0 -377.34c0,-17.29 69.37,-60.51 81.47,-68.61 39.91,21.12 37.46,30.87 51.45,60.03 16.17,-4.32 50.56,-33.64 66.16,-45.33 23.54,-17.64 43.35,-33.32 66.78,-49 -10.66,-39.92 -92.69,-90.05 -111.49,-90.05 -9.36,0 -136.56,96.69 -158.66,111.49 -6.09,-12.7 -6.03,-22.07 -14.17,-37.3 -11.32,-21.18 -60.95,-82.16 -87.08,-68.65l-108.51 80.57c-7.96,6.2 -10.1,5.12 -13.22,16.8z"/>
   <path class="fil0" d="M2462.18 806.19l-128.64 0c-25.87,0 -36.28,-5.99 -56.33,-7.99 -9.89,-0.99 -18.8,-0.22 -28.75,-1.27 -12.52,-1.32 -13.32,-3.56 -30.74,-3.93 -24.17,-0.52 -59.78,13.19 -115.74,13.19l-373.05 0 0 38.59 763.27 0 0 758.98c0,12.84 -9.63,14.72 -17.69,20.91 -30.82,23.62 -35.11,54.06 -59.5,60.57 0,-35.88 -5.09,-628.35 3.57,-656.79 14.33,-47.04 9.3,-42.03 9.3,-102.2l-214.4 0c7.02,26.3 26.16,30.88 60.04,30.35 27.5,-0.43 32.57,-4.62 85.75,-4.62l25.73 0c0,111.93 4.28,209.51 4.28,321.61l0 274.43c0,42.43 -0.02,113.48 -12.34,146.31 -6.98,18.63 -4.6,27.49 -4.65,51.1 -0.08,32.33 -34.15,137.46 -45.72,172.97 -17.31,53.17 -57.66,210.4 -78.96,246.93l-82.07 136.61c-51.94,79.4 -189.82,228.34 -257.53,291.35l-92.66 70.28c-28.04,20.33 -30.68,0.49 -30.68,46.51 36.04,-0.8 44.4,-11.96 63.19,-31.14 20.78,-21.21 32.91,-22.39 55.19,-39.15l101.38 -91.59c14.85,-14.84 34.54,-32.03 46.83,-47.51 20.77,-26.17 8.88,-21.4 43.21,-55.41 18.83,-18.65 28.8,-27.07 44.4,-49.94 44.06,-64.63 76.61,-95.29 117.54,-174.04 44.06,-84.77 68.51,-195.9 99.1,-286.83 7.74,-23.02 14,-46.21 22.48,-71.85 7.12,-21.55 12.33,-36.26 13.75,-58.9 1.55,-24.74 -2.46,0.73 -2.46,-19.86 0,-24.57 49.41,-68.85 65.41,-84.67 21.69,-21.43 50.74,-66.07 80.39,-73.99l0 -823.3 -12.86 0 0 -12.86 -42.89 0c-2.59,9.71 -4.12,17.15 -17.15,17.15z"/>
   <path class="fil0" d="M751.25 1723.83c0,12.23 9.22,13.32 25.86,25.59l72.77 81.61c19.55,25.51 29.78,24.07 39.57,63.34l44.57 161.26c23.11,71.74 69.62,137.77 107.5,205.53 52.16,93.32 74.25,137.98 142.15,218.04 12.9,15.21 32.89,47.3 45.31,57.61l53.35 49.55c12.39,9.89 15.93,12.31 27.46,24.01 18.97,19.25 34.95,30.4 53.59,49.32 7.66,7.77 54.72,54.11 59.32,29.3 6.82,-36.74 -162.51,-149.28 -218.2,-243.48 -15.67,-26.5 -82.45,-104.01 -107.39,-149.89 -53.63,-98.68 -102.14,-174.95 -134.82,-281.13 -15.45,-50.2 -48.56,-160.59 -47.94,-209.34 0.47,-36.75 -1.38,-19.92 -9.93,-41.53 -14.38,-36.3 4.9,-107.3 -6.68,-147.69 -24.16,-84.22 -0.5,-274.13 -9.1,-376.82 -1.93,-23.08 -14.41,-25.79 -30.18,-34.13l-5.33 334.44c0.11,48.6 5.77,85.32 5.33,128.66 -0.57,54.7 12.02,86.91 12.86,124.36 -9.68,-6.48 -10.65,-10.7 -18.46,-20.14 -7,-8.48 -13.42,-13.81 -21.27,-21.61 -8.57,-8.51 -37.45,-37.27 -37.45,-44.01l0 -861.9 497.44 -0.03c31.4,-0.16 44.69,4.43 72.71,4.46 65.67,0.1 111.64,11.29 111.64,-43.02 -132.52,0 -344.46,6.48 -468.08,-8.01 -56.88,-6.66 -107.1,22.7 -195.98,-1.16 -14.01,-3.76 -41.76,-7.98 -60.62,-7.98l0 934.79z"/>
   <path class="fil0" d="M6673.04 1432.24c19.63,29.33 65,37.59 64.37,141.45l0.37 411.28c5.33,44.66 54.18,106.95 93.92,116.2 16.83,-8.9 124.88,-87.65 132.92,-98.62 -19.51,-5.21 -42.93,-35.46 -50.82,-52.09 -13.56,-28.58 -13.55,-47.98 -13.5,-89.41 0.07,-58.67 4.02,-379.18 -2.34,-409.31 -11.52,-54.63 -50,-91.61 -91.99,-113.83 -16.49,11.03 -118.94,90.6 -132.93,94.33z"/>
   <path class="fil0" d="M622.61 2752.96c1.1,-8.82 22.64,1.05 4.02,0.4 -1.65,-0.05 -5.21,9.21 -4.02,-0.4zm8.58 -17.15l25.72 0 0 12.86c-30.72,0 -17.25,3.26 -25.72,-12.86zm30.01 -8.58c0,-11.64 15.35,0 3.85,0.23 -4.33,0.1 -3.85,9.52 -3.85,-0.23zm-98.62 -4.29l0 8.58 -12.87 0c6.76,-9.73 0.81,-5.01 12.87,-8.58zm110.77 -7.86l119.52 -117.76c6.92,-5.78 11,-10.54 17.39,-16.91l94.35 -107.19c10.99,-10.94 19.2,-16.57 21.86,-29.59 1.04,-5.06 0.59,-11.32 0.59,-16.56 -46.04,0 -28.38,12.79 -57.58,32.47 -24.16,16.28 -20.15,9.18 -42.85,38.61 -24.01,31.12 -55.78,48.3 -82.92,75.75 -48.58,49.13 -49.62,59.85 -103.2,94.04 -17.25,11.01 -27.89,24.87 -42.25,39.23 -12.07,12.06 -9.41,11.49 -31.39,11.49 18.5,-34.97 33.54,-44.24 65.39,-76.12l90.03 -85.77c7.95,-7.26 12.02,-8.64 18.48,-15.83 33.05,-36.79 38.46,-74.13 54.36,-91.43 23.35,-25.41 24.73,-24.63 24.73,-48.17 -25.2,2.1 -5.18,8.57 -38.59,8.57 12.99,-24.54 20.9,-23.12 39.75,-41.72 23.22,-22.93 24.57,-17.86 24.57,-61.19l-80.67 52.26 -228.8 247.18c-9.82,12.36 -18.14,26.9 -27.57,41.04 -34.91,52.36 -79.33,112.88 -100.94,173.49 -6.81,19.12 -9.7,30.12 -19.46,49.14 -7.97,15.53 -25.2,67.24 -5.67,67.24 18.39,0 147.11,-69.33 171.53,-81.47 64.24,-31.94 176.19,-105.44 228.33,-157.59l127.64 -129.64c9.02,-12.65 15.51,-25.71 26.62,-37.71 12.21,-13.18 24.93,-18.41 33.34,-30.98 -11.78,-16.07 -14.74,-18.5 -25.72,-21.44l-91.12 97.57c-42.1,42.49 -90.28,79.88 -139.59,113.39 -12.1,8.23 -27.8,18.19 -35.16,29.18l-5 -3.58zm159.38 -330.89c-18.75,9.92 -10.63,-3.31 -12.87,17.15 15.46,-4.13 11.47,-0.39 12.87,-17.15zm-158.66 137.22c4.56,-4.56 16.26,6.8 4.77,2.22 -0.09,-0.04 -11.95,4.96 -4.77,-2.22zm25.73 -21.45c1.09,-8.81 22.64,1.06 4.01,0.41 -1.64,-0.05 -5.21,9.2 -4.01,-0.41zm12.86 -8.57c2.1,-25.21 16.14,-41.94 38.59,-47.17 -5.85,25.11 -14.3,40.69 -38.59,47.17zm64.32 -77.19l0 25.73 -21.44 0c3.75,-14.02 10.76,-18.58 21.44,-25.73z"/>
   <path class="fil0" d="M7071.83 2607.16c0,-54.75 0.64,-94.09 25.72,-141.5 108.44,9.02 94.34,262.12 94.34,360.19 -22.82,-10.95 -32.74,-11.27 -52.54,-28.92 -49.61,-44.23 -67.52,-116.02 -67.52,-189.77zm-98.63 51.46c0,233.18 164.11,287.02 198.67,263.3 36.13,-24.81 77.04,-61.05 122.93,-91.78 0,-110.26 32.56,-374.67 -108.96,-440.02 -17.35,-8.01 -21.42,-10.89 -39.48,-4.76 -58.1,19.74 -97.12,49.22 -126.93,96.52 -26.27,41.67 -46.23,110.27 -46.23,176.74z"/>
   <path class="fil0" d="M2547.02 2749.59c13.84,2.53 10.34,-0.97 13.79,11.94l-13.79 -11.94zm82.39 -13.78l8.58 0 0 12.86 -8.58 0 0 -12.86zm-94.33 0l12.86 0 0 8.58 -12.86 0 0 -8.58zm81.47 -8.58c0,-11.43 14.03,-0.66 5.02,0.17 -0.06,0 -1.08,0.06 -1.18,0.06 -4.33,0.1 -3.84,9.52 -3.84,-0.23zm-231.55 -287.3c7.4,15.44 5.15,28.53 16.3,43.73l188.51 193.13c14.12,13.72 20.39,17.12 22.45,41.87 -16.75,-4.48 -66.32,-47.2 -78.15,-59.07 -15.51,-15.55 -23.77,-15.13 -38.82,-29.79l-105.37 -104.75c-15.65,-12.48 -21.83,-18.3 -36.01,-32.59 -16.57,-16.7 -17.14,-26.8 -46.1,-26.8 4.54,19.49 32.61,58.07 44.59,75.48 26.51,38.54 56.24,53.88 71.82,82.55 7.04,12.95 0.5,7.47 11.15,18.86l66.02 54.05c4.92,4.5 25.83,29.59 29.4,34.92 -30.16,-0.67 -40.1,-25.58 -67.97,-47.81l-128.03 -112.1c-35.87,-29.68 -20.66,-50.2 -69.86,-50.2 0,54.62 7,26.33 42.88,81.47 21.1,32.41 46.44,59.28 79.67,78.99 40.55,24.07 42.25,57.18 187.51,138.37l66.33 40.88c14.66,8.91 24.16,8.23 38.28,17.46 17.11,11.18 16.32,10.42 38.18,17.57 14.39,4.72 29.06,9.89 44.56,11.18 1.78,21.34 2.78,13.47 20.73,22.16 14.12,6.83 11.4,7.86 35.02,7.86 -4.27,-8.91 -10.64,-33.19 -14.36,-45.68 -6.09,-20.5 -9.51,-29.06 -16.89,-47.43 -24.94,-62.11 -49.06,-111.65 -88.14,-164.85 -78.13,-106.35 -76.46,-94.33 -181.85,-199.79 -10.21,-10.22 -19.09,-20.72 -30.62,-29.41 -14.06,-10.57 -25.82,-14.24 -39.6,-24.72 -22.48,-17.1 -31.01,-53.18 -74.5,-54.15 1.18,52.64 29.04,25.6 54.44,87.07 0.27,0.66 0.72,2.07 1.31,2.98l-3.58 5c-0.73,-0.69 -14.43,-12.93 -16.64,-14.8 -10.08,-8.48 -8.23,-8.28 -22.66,-11.64z"/>
   <path class="fil0" d="M554 2285.56c0,-7.25 12.58,-6.01 5.43,0 0,0.01 -0.39,0.17 -0.41,0.17 -0.06,0 -1.08,0.07 -1.17,0.07 -4.33,0.09 -3.85,9.51 -3.85,-0.24zm64.32 -17.15l12.87 0 0 8.58c-12.54,-3.01 -6.18,0.55 -12.87,-8.58zm-197.25 -291.59c0,-11.64 15.34,0 3.85,0.24 -4.33,0.09 -3.85,9.51 -3.85,-0.24zm102.91 -68.61c0.16,-0.33 15.62,-12.13 8.54,-1.08 -0.04,0.07 -13.53,11.95 -8.54,1.08zm-120.06 -111.48l0 12.86 -12.86 0c0,81.02 -51.4,17.19 25.73,162.94 -11.58,0.97 -11.67,2.01 -21.45,4.29 18.69,80.21 -3.94,54.3 22.92,105.73 9.15,17.53 6.45,15.34 12.7,34.47 10.57,32.39 65.29,86.14 72.92,107.18 29.31,80.75 -24.49,36.84 85.08,185.07 28.81,38.97 20.34,43.53 59.38,43.53 0,-48.08 -19.06,-45.57 -39.53,-76.25 -9.36,-14.04 -40.74,-63.62 -41.94,-78.12 33.36,17.65 80.96,63.91 90.04,102.91l30.02 0 0 -12.87 12.87 0 0 -17.15c-24.08,-6.43 -52.29,-67.3 -64.32,-90.05l21.43 0c-0.65,-29.63 -7.91,-61.46 -38.59,-68.6 0,-61.57 21.8,2.17 41.89,-91.04 8.62,-39.99 0.99,-77.51 0.99,-123.37 -50.63,0 -44.63,41.88 -85.76,51.46l0 42.88 14.74 11.32c9.53,13.19 7.87,1.19 2.41,14.41l25.73 0 0 12.86 -12.86 0 0 12.87c-30.68,-20.55 -27.13,-44.22 -56.09,-59.69 -18.31,-9.79 -15.67,2.83 -21.1,-17.5l25.73 0c0,-105.96 -12.86,-48.9 -12.86,-132.93l8.57 0c0,47.14 12.87,15.29 12.87,64.32l30.01 0c3.45,-12.91 -0.05,-9.41 12.87,-12.86l0 -68.61c-21.89,-11.58 -13.48,-5.44 -25.96,-25.49l-50.25 -56.95c-12.21,-11.97 -16.36,-16.35 -18.13,-37.62l-30.01 0c0,37.55 -0.89,83.14 11.05,113.3 10.7,27.01 6.1,70.74 6.1,105.39l12.86 0c2.25,27.08 28.68,25.99 0,85.75l14.05 15.98c19.56,28.82 45.6,82.74 76.07,125.46 8.15,11.43 8.96,7.16 12.79,21.51 -8.78,-4.65 -22.34,-8.47 -29.39,-13.48l-46.62 -43.43c-10.42,-10.15 -15.65,-12.74 -26.9,-20.27 6.76,-12.77 11.56,-14.34 12.86,-30.02 -18.4,-1.53 -9.01,-0.17 -20.02,-9.99 -26.19,-23.38 -29.73,-25.91 -41.9,-56.73 -8.08,-20.47 -27.61,-77.54 -28.12,-100.51 18.79,5.02 15.37,16.35 51.45,17.15 0,-56.69 -19.2,-39.25 -43.06,-72.71 -28.31,-39.68 -37.21,-84.56 -1.03,-125.75 36.6,-41.65 44.09,-5.09 44.09,-67.4l-30.01 0c-4.97,21.31 -30.15,46.49 -51.46,51.46 20.77,-43.3 -3.47,-17.39 48.92,-79.72l33.65 -30.68c26.43,-26.77 21.56,-31.11 50.36,-31.11 0,64.26 3.03,28.43 20.24,52.66 16.61,23.39 -12.26,28.82 35.5,28.82 0,-73.85 -12.99,-31.09 -25.72,-85.76l-25.73 -8.58c18.96,-1.58 28.47,-10.75 42.96,-17.07 36.46,-15.92 34.22,-6.56 34.22,-51.54 -49.29,0 -127.02,43.44 -163.81,76.32 -11.27,10.08 -5.06,9.59 -20.57,13.73 0,-32.45 -7.74,-26.8 -30.02,-38.59l0 55.74 25.64 -13.04c0.12,42.66 -28.1,28.35 -37.12,78.74 -3.93,21.95 5.4,19.11 -14.25,24.35 0.5,22.32 6.91,22.76 8.58,42.88 6.72,-7.09 7.65,-8.15 17.15,-12.86zm81.47 214.4c4.56,4.55 16.27,-6.81 4.78,-2.23 -0.1,0.04 -11.96,-4.96 -4.78,2.23z"/>
   <path class="fil0" d="M7757.91 2658.62c-4.88,-65.2 -9.16,-68.47 2.38,-134.84 5.32,-30.61 14.01,-36.43 19.06,-58.12 3.15,3.62 6.03,6.93 9.79,11.65l32.42 44.76c11.36,15.46 34.37,41.05 39.27,59.37 -35.33,23.65 -67.03,53.15 -102.92,77.18zm214.4 171.52c-39.02,0 -83.78,19.49 -150.87,-33.51 -33.67,-26.6 -42.95,-65.83 -54.95,-90.84 20.27,-10.72 31.03,-22.2 49.57,-36.18l102.39 -77.72c10.6,-8 14.51,-12.02 23.81,-19.07 8.6,-6.51 19.65,-13.05 25.77,-21.4l-124.36 -171.52c-71.72,16.71 -130.36,66.44 -156.88,130.41 -29.95,72.2 -40.03,158.15 -19.93,243.65 34.51,146.9 154.24,182.26 182.54,172.06l122.91 -95.88z"/>
   <path class="fil0" d="M6728.78 2289.85c21.47,29.3 42.88,15.61 42.88,98.62l-21.44 0c-5.79,24.84 -15.65,35.2 -21.44,60.04l42.88 0 0 381.63c0,53.64 39.03,76.65 64.32,98.63 17.08,-9.04 29.09,-19.68 45.33,-31.85 13.69,-10.26 33.59,-28.36 49.01,-32.47 -7.97,-29.85 -42.88,-26.19 -42.88,-90.05l0 -325.89 30.02 0c4.92,-21.13 19.76,-39.91 21.43,-60.04l-51.45 0c0,-50.37 6.94,-92.52 -20.67,-129.41 -4.06,-5.43 -13.54,-14.84 -19.13,-19.46l-24.52 -18.36c-32.65,21.87 -61.68,46.75 -94.34,68.61z"/>
   <path class="fil0" d="M528.27 960.56c0,-7.26 12.58,-6.02 5.43,0 -3.5,2.94 -5.43,7.02 -5.43,0zm12.87 -12.87c0,-25.09 0.77,-25.2 21.44,-30.01 0,25.23 -0.78,25.07 -21.44,30.01zm25.73 -38.59c0,-27.18 5.71,-23.77 21.43,-34.31l0 25.73c-15.36,4.11 -5.67,3.92 -21.43,8.58zm188.67 -205.82c0,-11.65 15.34,-0.01 3.84,0.23 -4.33,0.09 -3.84,9.52 -3.84,-0.23zm12.86 -17.16l21.45 0 0 12.87 -21.45 0 0 -12.87zm25.74 -12.86l25.72 0 0 8.57 -25.72 0 0 -8.57zm25.72 -12.87l38.6 0 0 8.58 -38.6 0 0 -8.58zm188.68 -68.61l0 -12.86 25.72 0c-4.7,17.6 -3.19,12.86 -25.72,12.86zm34.3 -17.14c-4.31,1.83 -17.77,-0.12 -2.67,-5.99 11.3,-4.4 6.12,4.52 2.67,5.99zm-733.26 544.58c0,38.41 4.5,11.18 12.87,34.3 22.91,-5.34 36.14,-14.09 58.19,-23.28 40.87,-17.03 137.64,-61.25 163.69,-85.02 16.79,-15.31 28.49,-19.94 45.03,-36.44 46.15,-46.05 104.94,-72.17 110.44,-138.27 -21.92,0.49 -28.64,13.27 -61.08,41.84 -19.32,17.02 -31.4,34.61 -52.22,50.69 -22.11,17.07 -32.7,32.17 -54.45,48.46 -19.43,14.55 -45.78,28.62 -72.39,34.82 16.15,-30.51 47.83,-43.19 55.75,-77.19 22.52,0.5 16.37,4.4 34.3,8.58 3.62,-2.65 74.78,-77.79 77.09,-81.58 47.82,-78.5 60.13,-41.27 60.13,-102.8 -10.39,2.77 -37.7,28.3 -48.21,37.55 -19.09,16.81 -22.25,26.99 -46.13,39.63 0.58,-25.67 17.55,-37.19 46.13,-69.65 25.73,-29.21 44.52,-40.7 62.23,-57.84 17.46,-16.89 20.11,-28.66 50.3,-31.17 -18.78,35.5 -23.54,16.64 -25.72,42.88 15.45,-0.34 30.92,-2.62 41.69,-9.76 10.49,-6.94 8.86,-10.69 32.61,-23.14 14.52,-7.61 22.67,-10.75 35.34,-20.39 15.87,-12.08 13.91,-15.32 40.43,-15.32l0 -38.59 96.9 -40.32c20.65,-17.36 -1.26,-15.43 31.75,-15.43 -8.44,31.62 -85.16,78.27 -112.47,106.23 -17.03,17.44 -9.88,25.9 -46.19,26.71l0 30.01c37.85,-0.84 45.38,-11.19 84.02,-40.33l70.35 -58.29c24.43,-18.27 49.26,-36.89 73.07,-55.57 18.41,-14.46 38.58,-52.24 68.44,-60.21l0 -30.01c-56.92,-30.12 -88.06,1.14 -165.81,40.02 -59.85,29.92 -114.92,61.26 -176.05,85.51 -119.47,47.41 -125.09,82.85 -197.35,154.28 -75.19,74.32 -52.67,62.37 -112.58,153.28 -24.4,37.03 -46.47,62.58 -82.73,93.07l-86.59 67.78c-7.39,6.59 -10.78,2.3 -10.78,14.96z"/>
   <path class="fil0" d="M7474.9 2469.95c-2.67,-32.06 -37.11,-69.92 -64.32,-77.19 -13.58,9.1 -85.41,55.54 -90.05,72.9 37.75,10.08 43.11,63.59 42.91,98.6l0.89 282.12c4.2,25.59 20.97,50.06 41.26,65.93 4.65,3.63 5.18,3.58 10.08,7.09l12.06 9.37 94.34 -68.61c-8.07,-11.02 -14.14,-10.19 -28.27,-31.76 -7.86,-12.01 -14.61,-27.5 -14.61,-45.42l0 -253c0,-14.56 47.42,-43.01 60.03,-51.46 0.77,0.67 2.02,0.63 2.36,1.93 1.19,4.5 25.17,11.04 27.66,40.96 17.45,-4.07 34.81,-20.76 49.62,-31.86 13.64,-10.22 36.88,-25.06 44.71,-36.75 -8.06,-30.22 -51.09,-50.52 -77.18,-64.33l-111.49 81.48z"/>
   <path class="fil0" d="M1626.01 943.41c3.73,13.96 7.48,17.71 21.44,21.44 0,28.09 -3.47,25.12 -12.86,42.88l38.59 0c-13.66,20.4 -35.49,26.59 -56.83,41.79 -13.89,9.9 -2.12,8.15 -20.36,9.66 -9.1,-39.09 -44.69,-22.14 -64.32,-51.45l38.6 0c0,-31.45 -11.13,-62.84 55.74,-64.32zm-42.88 38.59l0 25.73c25.43,-0.57 21.97,-8 42.88,-12.87l0 -30.01 -12.86 0 0 -12.87c-21.42,0.48 -30.02,8.36 -30.02,30.02zm-68.6 -8.58c0,13.27 5.7,16.48 12.86,30.02 -118.11,-27.51 -14.14,-25.73 -184.39,-25.73l0 -8.58c66.95,-6.67 43.92,-7.21 107.96,-0.75 10.22,1.03 18.11,-0.05 27.81,2.2 17.95,4.17 0.25,6.53 27.18,7.13l0 -38.59 -201.54 0c-34.05,0 -49.39,8.57 -81.47,8.57 -9.47,0 -22.33,-8.57 -94.34,-8.57 11.35,42.5 80.29,55.84 107.71,63.81 104.19,30.31 70.59,17.66 175.3,17.66 45.42,0 91.05,20.92 119.37,39.3 22.12,14.35 64.38,65.19 65.01,93.63 20.73,-13.88 25.39,-25.35 40.32,-45.44 90.33,-121.63 216.07,-76.69 288.72,-88.62 19.52,-3.22 42.11,-11.35 64.62,-16.87 34.99,-8.58 36.44,-6.5 57.93,-23.54 25.58,-20.28 28.14,-6.51 45.83,-39.93 -12.53,0 -30.1,-1.45 -41.88,1 -31.8,6.63 8.26,11.86 -73.9,11.86 -27.14,0 -31.79,-12.86 -51.45,-12.86 -34.61,0 -190.92,-6.29 -212.17,6.52 -12.66,7.63 -10.43,6.25 -10.81,23.49 12.53,3.01 6.18,-0.55 12.86,8.58 62.44,-14.55 82.63,-8.58 158.66,-8.58l0 8.58c-31.36,0 -80.76,-2.42 -104.02,3.18 -35.03,8.44 -46.67,22.55 -88.94,22.55 4.46,-16.7 17.3,-26.84 8.57,-64.32 -21.33,0 -59.93,-5 -78.38,-7.38 -28.05,-3.61 -55.93,-5.49 -84.56,-5.49l-1.67 19.77c-3.02,9.33 -11.19,11.08 -11.19,27.4z"/>
   <path class="fil0" d="M2655.14 900.52c22.46,11.89 25.73,3.01 25.73,34.31 -13.31,-3.1 -12.42,-5.47 -25.73,-8.58l0 -25.73zm-25.73 -38.59c31.75,8.48 25.73,23.5 25.73,34.31 -13.3,-3.1 -12.42,-5.48 -25.73,-8.58l0 -25.73zm-12.86 -8.57c0,-11.65 15.34,0 3.84,0.23 -4.33,0.09 -3.84,9.52 -3.84,-0.23zm-227.27 -180.1c26.14,0.58 53.93,12.37 60.04,38.59 -30.57,-14.67 -41.88,-4.28 -60.04,-38.59zm-42.88 -12.87l38.6 0 0 8.58 -38.6 0 0 -8.58zm-171.52 -81.47l21.44 0 0 12.86 -21.44 0 0 -12.86zm-12.86 -8.57c0,-11.65 15.34,0 3.84,0.23 -4.33,0.09 -3.84,9.52 -3.84,-0.23zm-85.76 -17.16c31.93,7.45 27.97,28.12 68.36,51.71 33.12,19.33 26.05,26.12 67.17,52.9 60.24,39.24 87.5,91.31 147.48,92.64 -6.02,-25.83 -12.58,-18.8 -35.44,-41.74 -14.63,-14.68 -26.13,-26.08 -40.65,-40.82 -36.27,-36.81 -58.52,-30.65 -82.57,-76.1 27.58,2.3 104.17,50.05 128.64,55.75 -5.32,19.92 -6.75,3.79 -8.58,25.73 9.51,1.04 5.54,1.12 9.77,3.1l59.74 38.88c23.43,15.74 43.73,34.38 80.58,35.2l-12.86 -38.59c16.83,0.38 64.55,35.5 69.74,41.74l5.41 7.45c8.79,8.17 -4.91,4.91 14.89,6.56 3.45,-12.92 -0.05,-9.42 12.87,-12.87 1.17,52.71 51.45,33.73 51.45,90.05l-25.72 0c0,58.59 3.55,29.41 40.36,79.7 11.79,16.1 37.24,38.62 58.26,40.37l0 -21.44c11.89,3.17 11.09,5.57 23.92,23.24 25.29,34.79 26.22,30.43 42.91,51.43 8.59,10.81 15.57,15.65 18.93,28.24 -17.17,-8.24 -32.64,-12.09 -49.63,-23.27l-83.92 -61.87c-32.76,-24.77 -20.6,-22.06 -50.83,-22.06 7.45,31.98 30.3,57.13 52.65,75.98 13.04,11.01 22.92,17.02 39.84,24.49l63.75 34.86c26.22,17.33 80.8,45.72 112.26,54.99 39.02,11.49 7.32,23.25 44.52,24.08 3.45,-12.92 -0.05,-9.41 12.86,-12.86l0 -25.73c-56.52,-37.85 -111.21,-100.84 -152.47,-156.27l-55.9 -77.02c-42.19,-63.6 -57.27,-61.45 -86.48,-93.62 -59.32,-65.33 -19.97,-5.37 -72.74,-60.19 -22.22,-23.08 -178.6,-102.65 -199.85,-113.18 -11.08,-5.49 -19.05,-9.18 -28.7,-14.18 -22.33,-11.58 -28.57,-20.88 -84.23,-48.71 -75.13,-37.57 -84.72,-54.31 -155.79,-54.31l0 55.74z"/>
   <path class="fil0" d="M2792.36 1976.82c0,-11.64 15.34,0 3.84,0.24 -4.33,0.09 -3.84,9.51 -3.84,-0.24zm12.87 -12.86c0,-11.64 15.33,0 3.83,0.23 -4.33,0.09 -3.83,9.52 -3.83,-0.23zm0 -188.67c20.66,4.81 21.43,4.92 21.43,30.01 10.36,-7.59 9.87,-14.32 13.45,-30.12 3.95,-17.37 2.51,-14.9 -3.85,-26.27l-14.66 -32.88c-13.24,-22 -16.37,-9.09 -16.37,-39.37l25.72 0c-13.38,-25.29 -12.86,-12.62 -12.86,-51.46 -14.38,16.54 -7.44,26.94 -17.15,47.17 -12.49,-3.33 -22.75,-13.02 -29.94,-21.52 -12.26,-14.52 -10.15,-12.64 -27.46,-24 -90.14,-59.17 -51.04,-31.89 -49.81,-87.41 -16.81,-6.08 -12.03,-22.24 -40.33,-58.29 -18.48,-23.55 -36.85,-24.3 -36.85,-61.77l-30.01 0c0,50.18 2.14,31.08 19.47,66.28 8.78,17.81 6.25,34.11 6.25,58.07 12.53,-2.92 19.86,-7.49 30.02,-12.86 6.47,24.24 19.38,15.16 38.59,51.46 -48.62,0 -11.68,-12.87 -68.61,-12.87 0,12.89 0.85,23.63 3.26,31.05 4.93,15.18 5.51,14.2 17.83,20.76 17.2,9.15 36.1,9.79 47.52,25.38 -43.3,0 -9.89,-4.48 -44.43,24.17 -13.72,11.37 -11.31,-10.41 -11.31,61.59 0,14.55 7.52,12.86 21.44,12.86 17.61,0 9.2,-12.8 22.83,-41.48 8.88,-18.68 15.76,-26.39 15.76,-52.86 27.46,2.29 102.87,78.77 111.49,115.78 -27.5,-14.55 -73.31,-46.09 -61.28,0.49 7.22,27.95 15.32,10.47 46.92,43.88 15.77,16.67 -5.45,8.74 18.65,11.37 0,20.06 1.42,45.3 0.3,64.63 -1.82,31.24 -0.3,2.52 -21.74,46.87 -26.65,55.13 -47.17,32.78 -47.17,90.04 28.65,-2.38 16.03,-17.58 55.74,-38.59 0,22.09 -17.52,88 -27.06,105.87 -10.03,18.79 -46.25,60.75 -67.28,65.65 3.06,13.11 6.68,16.48 12.87,25.73 -9.66,14.43 -33.9,38 -48.98,49.65 -20.96,16.18 -34.57,31.75 -52.86,50.05 -51.57,51.56 -66.93,94.2 -99.7,101.84l0 30.01 12.87 0 0 12.87c24.21,-0.54 11.5,3.59 23.6,-10.7 20.76,-24.54 34.56,-33.36 49.05,-58.16 10.33,-17.69 51.51,-66.87 73.14,-72.65 -10.11,43.4 -55.87,115.62 -87.58,143.98 -17.27,15.45 -15.33,12.26 -15.33,40.41 39.75,0 42.89,-5.84 57.18,-32.86 20.17,-38.15 43.32,-27.3 87.03,-135.95 7.27,-18.06 3.68,-20.18 6.45,-40.72 4.67,-34.7 70.69,-135.26 94.7,-175.45 7.11,-11.89 9.36,-16.84 11.15,-31.73 4.78,-39.55 -2.94,-10.91 13.63,-33.53 -32.14,-66.99 12.87,-109.98 12.87,-137.22l-12.54 -64.65c-11.45,-31.51 -26.05,3.49 -26.05,-42.55z"/>
   <path class="fil0" d="M2577.96 1839.61c-1.94,-10.51 7.86,-1.75 4.72,0.7 -6.6,5.17 -4.12,2.55 -4.72,-0.7zm-793.29 1029.13c25.96,-13.74 170.24,-113.22 198.41,-140.35 10.45,-10.07 17.46,-17.7 27.72,-28.02 75.21,-75.6 76.92,-49.04 174.01,-169.04l78.25 -93.27c20.95,-17.14 33.26,-37.22 49.89,-61.6l92.31 -134.95c39.74,-54.88 94.14,-170.68 105.31,-237.74 9.84,-59.11 19.48,-78.5 29.37,-142.15 2.91,-18.74 10.66,-28.22 12.29,-47.74l8.58 0c0,74.46 10.24,32.82 12.86,64.32 -22.83,6.1 -25.73,22.92 -25.73,51.46 20.5,-4.78 46.27,-32.75 59.07,-48.13 12.55,-15.09 7.01,-18.21 10.65,-40.81 3.08,-19.15 11.23,-20.55 11.75,-43.99 -40.84,0 -37.3,-3.7 -68.6,12.86l30.01 -120.07c-15.42,10.33 -47.75,47.55 -58.41,61.65 -14.36,18.97 -25.64,63.61 -34.46,89.9 -5.9,17.54 -20.91,147.77 -45.78,202.93 -13.5,29.96 -24.39,58.53 -37.04,87.31 -6.36,14.48 -11.36,27.22 -17.75,42.28 -5.92,13.94 -16.36,26.41 -25.28,39.05 -34.35,48.65 -69.69,95.74 -102.87,145.84 -31.59,47.7 -72.85,91.88 -80.72,103.66 -30.42,45.58 -48.54,57.73 -89.74,98.93 -41.22,41.22 -78.45,87.92 -125.34,123.37l-174.32 134.41c-20.13,15.12 -14.44,18.27 -14.44,49.89z"/>
   <path class="fil0" d="M1424.48 2855.87c0,-46.67 -9.71,-47.92 -47.17,-77.18 -60.67,-47.38 -195,-178.16 -245.5,-234.77l-69.34 -93.6c-48.92,-68.28 -37.3,-33.62 -80.26,-138.44 -9.77,-23.85 -21.29,-48.47 -32.52,-74.67 -19.6,-45.75 -119.06,-262.69 -129.06,-304.04 -6.33,-26.18 -10.54,-65.29 -22.85,-84.34 -8.88,-13.74 -36.65,-57.73 -46.53,-64.97 0,87.45 10.83,106.27 32.45,181.95l50.63 168.06c31.15,94.19 92.3,205.49 150.95,286.44 16.1,22.23 28.99,41.88 44.71,62.48 3.81,5 7.19,8.84 11,14.73 31.26,48.36 15.72,27.57 63.02,74.2 14.87,14.65 12.98,14.54 23.71,32.04 20.02,32.68 107.25,117.59 137.18,137.25 45.8,30.07 70.34,60.99 89.19,73.76 33.62,22.78 36.33,40.34 70.39,41.1z"/>
   <path class="fil0" d="M1154.33 2924.48l25.73 0 0 8.58 -25.73 0 0 -8.58zm-38.59 -12.86c0,-11.64 15.33,-0.01 3.84,0.23 -4.33,0.09 -3.84,9.52 -3.84,-0.23zm-42.88 -162.95c24.97,47.2 26.72,7.42 106.13,86.83 33.65,33.67 74.82,86.2 108.27,88.98l0 21.44 -90.05 0c5.06,-13.57 -9.31,-6.15 12.86,-8.57l0 -30.02c-54.11,0 -8.46,-19.92 -91.78,-36.86 -39.42,-8.02 -60.2,-1.73 -101.18,-1.73 12.74,26.55 -4,29.1 55.54,64.52 12.49,7.42 22.82,14.95 36.2,23.83 36.26,24.09 32.62,8.26 32.62,44.58l-162.95 0c13.76,25.99 21.43,19.67 48.64,32.82 102.86,49.72 79.21,4.2 182.91,-19.96l0 -25.73 55.75 0c2.1,-25.26 51.5,-37.88 60.03,-38.59l0 12.87c-23.88,6.37 -150.31,86.39 -184.38,94.33l0 12.86c42.17,0 106.23,-10.28 138.82,-28.4 15.43,-8.58 14.6,-13.92 32.57,-23.18 43.93,-22.61 60.98,-30.07 93.91,-73.32 9.28,-12.18 17.25,-17.33 17.71,-38.04 -42.56,0.95 -38.54,33.95 -94.34,38.59l0 -38.59c-14.45,-3.86 -31.49,-20.65 -41.78,-31.11 -23.06,-23.44 -29.97,-17.12 -35.41,-37.5 15.61,-3.64 13.75,-2.37 21.44,-12.87 -16.53,-4.41 -113.33,-81.46 -171.52,-81.46 -15.55,0 -10.28,3.8 -30.01,4.28z"/>
   <path class="fil0" d="M1621.72 3134.59c10.04,-11.54 26.28,-56.33 28.39,-65.94 4.48,-20.39 1.94,-322.16 1.6,-375.75 -0.42,-66.46 10.08,-44.83 12.78,-81.56l4.4 -184.27c0,-55.75 0,-111.49 0,-167.24 0,-59.86 -4.28,-103.83 -4.28,-162.94 0,-55.75 0.06,-111.49 0,-167.24 -0.08,-57.57 20.24,-120.06 -42.89,-120.06l0 1325z"/>
   <path class="fil0" d="M1544.54 724.72l38.59 0 0 12.86 -38.59 0 0 -12.86zm0 -64.33l38.59 0 0 8.58 -38.59 0 0 -8.58zm38.59 -214.4l25.73 0 0 8.58 -25.73 0 0 -8.58zm0 -42.88c-38.66,0 -32.38,-10.92 -55.74,-12.86l0 68.61 22.08 6.64c-0.09,0.01 -53.03,-6.79 -31.51,37.38l10.18 12.93c0.28,0.4 0.95,1.41 1.2,1.82 0.26,0.41 0.83,1.48 1.07,1.92l5.55 12.2c-19.95,1.66 -19.67,1 -21.43,17.16l-12.87 0c6.79,12.82 12.43,23.4 12.87,42.87l42.87 0c-0.86,0.61 -2.33,0.26 -2.77,1.52 -1.79,5.12 -12.29,1.17 -28.1,14.79 -17.47,15.05 -12,26.44 -12,52.3 13.3,3.1 12.41,5.48 25.72,8.58 -6.04,8.25 -23.01,18.42 -34.3,21.44 9.24,19.26 8.58,24.79 8.58,47.17l25.72 0 0 12.86 -25.72 0 0 55.75c50.75,0 52.4,-10.86 104.25,-41.54 11.59,-6.86 28.42,-15.26 36.48,-23.56 10,-10.3 15.29,-29.02 22.21,-42.1 -30.01,0.67 -58.94,18.85 -90.05,21.44 0.77,-0.67 1.98,-2.7 2.33,-1.96l9.65 -7.5c4.45,-3.17 8.18,-5.46 12.88,-8.56 42.3,-27.94 65.19,-33.41 65.19,-72.03 -72.95,16.99 -33.46,25.73 -90.05,25.73 4.84,-18.12 36.74,-32.61 58.58,-44.34 25.34,-13.59 44.33,-25.42 44.33,-62.86 -48.89,4.06 -65.85,38.59 -120.06,38.59 14.74,-20.13 10.1,3.78 12.86,-21.44 10.15,0 18.94,0.82 28.61,-1.41 29.51,-6.79 24.31,-33.74 65.73,-37.19l0 -42.87c-18.71,1.55 -70.9,38.59 -120.07,38.59 9.09,-12.4 77.79,-53.86 98.81,-68.43 14.26,-9.88 19.43,-16.77 21.26,-38.77 -16.49,8.72 -41.94,25.23 -64.32,25.73 9.15,-34.26 34.64,-28.17 46.05,-39.71 8.51,-8.62 5.41,-9.19 5.41,-24.62 -30.63,7.14 -37.83,25.73 -81.48,25.73z"/>
   <path class="fil0" d="M138.06 201.58c12.92,-3.45 9.42,0.05 12.87,-12.87l64.32 0 0 25.73 12.86 0 0 42.88c-12.92,3.45 -9.42,-0.05 -12.86,12.86l-64.32 0 0 -25.73 -12.87 0 0 -42.87zm-85.76 60.65l0 -58.45 0 -6.49 0 -8.44c0.94,0.89 3.56,1.52 10.15,-7.14l14.75 -23.85c6.77,-8.92 7.27,-7.55 16.29,-13.73 36.39,-24.9 5.77,-27.73 51.29,-38.75 17.48,-4.22 32.25,-11.01 49.03,-11.01 33.2,0 78.69,27.97 96.21,45.29l13.54 16.49c47.94,79 6.87,120.77 -2.55,161.2 26.05,-6.07 5.35,-8.58 51.46,-8.58 -2.5,29.97 -21.02,48.03 -41.93,61 -11.77,7.3 -54.14,30.37 -65.28,33.34 4.89,-18.27 39.85,-59.84 51.46,-77.18 -44.07,0 -69.68,38.59 -98.62,38.59 -40.8,0 -66.43,-1.76 -104.97,-27.96 -18.46,-12.55 -8.84,-16.03 -19.32,-27.85 -18.56,-20.93 -21.21,10.29 -21.51,-46.48zm55.75 -52.08l0 51.46c0,10.6 40.85,51.45 51.45,51.45 47.41,0 45.43,3.72 47.17,-17.15l21.44 0c-9.06,33.94 -22.86,25.73 -81.47,25.73 -11.29,0 -19.1,-14.83 -35.4,-33.22 -41.87,-47.25 -25.47,-63.07 -11.73,-91.09 2.64,-5.38 7.73,-20.56 9.9,-24.41 8.04,-14.25 0.49,-9.94 24.37,-9.94 -5.67,11.82 -4.01,16.43 -13.54,29.35 -0.52,0.72 -1.42,1.61 -1.97,2.32 -8.07,10.42 -10.22,1.77 -10.22,15.5zm30.01 -55.75c9.78,-2.27 9.87,-3.32 21.44,-4.28l0 12.86 -21.44 0 0 -8.58zm145.8 42.89c0,63.18 6.18,36.32 -17.86,80.77 -6.03,11.15 -16.62,16.44 -33.6,17.85 9.66,-36.18 38.59,-34.23 38.59,-72.89 0,-19.07 2.44,4.75 -16.13,-22.46 -7.69,-11.25 -22,-49.38 -69.63,-50.44 22.95,-31.32 58.46,8.61 78.61,24.31 9.28,7.23 20.02,10.24 20.02,22.86z"/>
   <path class="fil0" d="M1604.57 334.5c-27.07,0 -9.56,-2.16 -29.38,-9.21 -9.14,-3.25 -16.19,-3.65 -30.65,-3.65 -0.87,-38.86 -25,-27.51 -39.65,-76.64 -4.64,-15.57 10.23,-53.15 16.58,-62.21 8.4,-11.98 8.47,1.01 10.2,-19.81l21.45 0c-16.21,60.69 -60.9,49.96 -6.77,118.26 32.96,41.59 17.67,31.82 79.66,31.82 12.84,0 15.4,-12.1 33.25,-31.07 20.15,-21.45 16.09,-32.11 31.07,-37.54l0 -17.15c-18,-4.8 -25.28,-27.24 -25.72,-47.17 17.46,4.67 47.08,34.43 30.49,60.13 -28.46,44.09 -52.15,94.24 -90.53,94.24zm-60.03 -107.2c27.33,-2.99 8.68,-18.17 38.59,-21.44l0 47.17c-18.82,-4.38 -17.92,-11.14 -38.59,-12.86l0 -12.87zm51.45 -51.45c51.66,0 15.03,16 51.46,25.73l0 55.74c-20.85,4.86 -30.6,16.58 -51.46,21.44 -4.67,-8.84 -5.94,-10.16 -8.57,-21.44l38.59 0 0 -12.87 12.87 0 0 -30.01 -12.87 0 0 -12.86 -38.59 0c1.82,-21.94 3.26,-5.81 8.57,-25.73zm-17.14 -12.87l-21.45 0c10.54,-19.91 6.31,-11.8 42.88,-38.59 23.65,6.31 54.3,26.81 60.04,51.46 -11.8,-2.75 -18.1,-6.33 -25.75,-12.85 -23.53,-20 2.87,-17.17 -42.86,-17.17 -12.21,0 -12.86,4.97 -12.86,17.15zm-115.78 60.04c0,36.32 0.22,27.29 16.95,55.94 7.55,12.91 12.62,27.45 21.54,38.49 8.95,11.09 37.12,34.33 51.9,38.15 69.75,18.07 104.37,9.75 150.78,-37.21 6.49,-6.57 9.06,-8.74 15.7,-14.31 8,-6.71 13.28,-3.93 13.28,-16.74l0 -102.92c0,-19.03 4.94,4.3 -17.19,-21.41 -7.34,-8.51 -11.58,-14.97 -12.83,-30.04 -31.43,0 -11.18,0.63 -63.33,-31.01 -14.26,-8.65 -12.35,-2.36 -13.86,-20.45l-42.88 0c-13.96,26.39 -10.44,15.96 -34.1,30.22l-38.72 25.6c-20.09,11.74 -18.44,12.63 -27.71,36.61 -2.46,6.36 -19.53,48.98 -19.53,49.08z"/>
   <path class="fil0" d="M2886.7 317.35c0,-7.25 12.58,-6.01 5.42,0 -3.49,2.94 -5.42,7.03 -5.42,0zm132.93 -47.17l-55.75 0 0 -64.32c15.78,-1.31 15.84,-1.37 17.15,-17.15l55.75 0c5.1,10.63 15.99,41.81 17.15,55.74 -27.35,7.31 -15.19,25.73 -34.3,25.73zm-68.61 -107.2c24.72,-46.72 77.42,-23.33 110.19,-2.99 28.42,17.64 7.94,34.2 35.6,41.59l0 81.47c-40.68,10.86 -20.81,38.59 -94.34,38.59 -20.37,0 -38.3,-8.34 -50.34,-18.26 -25.58,-21.08 -14.86,-27.41 -39.71,-33.2l0 -81.47 12.87 0 0 -25.73 21.44 0c-3.82,16.38 -57.79,69.05 4.96,115.1 11.92,8.74 17.67,8.84 31.93,15.25 20.97,9.43 15.98,19.73 36.01,19.73 12.64,0 12.17,-8.08 20.27,-14.03 3.16,-2.31 44.05,-20.33 44.05,-58.86 0,-50.99 -38.76,-67.55 -52.38,-76.27 -27.41,-17.54 0.35,-18.07 -41.96,-18.07 -2.96,11.09 -5.16,16.41 -38.59,17.15zm-81.47 38.6c0,73.64 12.86,74.1 12.86,107.19 -25.28,0.57 -36.57,5.67 -38.59,30.02 17.47,4.67 16.17,14.96 52.85,32.91 45.01,22.03 27.19,25.09 54.35,31.41 -5.48,-23.51 -7.05,-26.8 -22.4,-41.92 -11.39,-11.21 -24.62,-18.62 -29.06,-35.26 43.34,0.97 25.4,38.59 132.93,38.59 32.57,0 64.44,-59.99 102.91,-85.76 -32.85,-141 9.97,-100.23 -78.87,-161.26 -13.6,-9.34 -38.23,-23.13 -58.34,-23.13 -23.9,0 -128.64,30.94 -128.64,107.21z"/>
   <path class="fil0" d="M1210.07 1067.76c0,-11.64 15.34,0 3.85,0.23 -4.33,0.09 -3.85,9.52 -3.85,-0.23zm-150.08 -8.58l0 377.35c17.65,-12.93 63.21,-66.43 67.71,-86.66 3.13,-14.09 2.66,-17.89 7.67,-30.92 6.32,-16.43 6.33,-7.75 6.34,-32.26 0.01,-55.27 4.51,-54.79 41.8,-112.57 83.8,-129.86 90.53,-52.67 108.04,-127.8 -41.25,0 -27.37,12.86 -68.61,12.86l13.04 -25.63c-57.55,-0.35 -116.83,20.71 -175.99,25.63z"/>
   <path class="fil0" d="M2067.68 2911.62c-2.26,-12.25 10.4,1.61 3.38,0.7 -7.76,-1.01 -1.57,9.05 -3.38,-0.7zm-94.34 -98.63l-17.15 0 0 42.88c-46.74,0 -50.85,54.19 -94.33,64.32l0 17.16 37.06 14.39c0.9,0.42 2.01,0.96 2.88,1.41 0.85,0.44 1.93,1.06 2.76,1.52 0.82,0.47 1.85,1.16 2.64,1.64l35.96 24.09c58.08,29.61 18.13,5.2 54.28,35.76 5.36,4.54 14.24,10.07 20.89,13.41 21.29,10.68 67.67,28.98 95.08,26l71.07 -18.58c15.28,-5.23 7.75,-5.31 29,-5.31l0 -30.01 -158.66 0c0,-39.69 16.23,-37.23 76.38,-77.99 16.52,-11.21 64.36,-48.89 69.41,-67.81 -29.68,3.25 3.13,10.41 -29.95,12.97 -7.28,0.57 -96.86,-17.05 -150.7,25.08 -16.88,13.21 -5.07,13.41 -33.75,13.41 13.3,18.15 18.89,8.6 38.59,25.73 -75.68,17.63 -18.07,12.86 -115.78,12.86 43.9,-65.55 43.84,-28.47 77.23,-77.14 26.32,-38.36 42.4,-49.41 84.33,-74.33 23.68,-14.06 47.14,-24.44 61.42,-45.78 -27.11,-2.25 -48.05,-14.93 -97.43,22.63l-61.23 41.69z"/>
   <path class="fil0" d="M614.03 1312.18c-4.31,1.83 -17.76,-0.11 -2.66,-5.99 11.3,-4.39 6.11,4.52 2.66,5.99zm17.16 -21.44l0 8.58 -12.87 0c6.76,-9.73 0.81,-5.02 12.87,-8.58zm-51.46 -25.73l8.57 0 0 21.44 -8.57 0 0 -21.44zm-85.76 218.69l4.29 60.03c20.93,-11.07 21.95,-18.94 42.88,-30.01 0,-69.07 -5.6,-49.64 9.34,-93.58 4.26,-12.52 5.49,-27.26 12.29,-39.16 9.69,-16.95 10.87,-8.36 16.96,-34.5 40.88,9.79 35.8,-1.28 76.03,-39.74 9.87,-9.45 19.88,-13.68 26.91,-24.56 5.75,-8.89 11.78,-24.23 17.13,-34.32 -42.98,0 -28.59,17.41 -68.61,38.59 1.29,-5.55 1.92,-10.07 3.27,-13.89 6.38,-18.16 3.07,-6.54 15.53,-23.05 13.46,-17.86 27.74,-47.22 49.81,-53.11l0 -17.15c-12.92,-3.45 -9.42,0.05 -12.87,-12.87l-17.15 0c-4.23,18.19 -4.55,16.29 -17.06,25.82 -34.4,26.22 -32.15,53.72 -60.13,68.52 1.73,-20.74 10.36,-33.58 18.57,-50.05 35.27,-70.72 75.77,-59.65 75.77,-138.62l-71.86 78.21c-57.18,56.51 -78.8,125.64 -97.94,202.23 -10.72,42.88 -23.16,80.04 -23.16,131.21z"/>
   <path class="fil0" d="M425.36 1513.72c0,24.47 2.49,31.25 4.04,51.7 4.22,55.41 13.11,6.77 13.11,59.78l17.15 0c6.54,-28.02 12.87,-14.13 12.87,-60.03 0,-33.59 -18.74,-58.99 -13.44,-82.38 2.9,-12.82 10.39,-26.39 12.36,-38.76 14.07,-88.31 20.65,-110.65 59.65,-197.63 11.76,-26.23 19.4,-47.36 31.48,-71.44 32.96,-65.73 58.42,-81.43 110.7,-146.58 9.85,-12.26 12.02,-18.14 13.65,-37.8 -30.67,0.68 -40.34,21.04 -56.82,37.52 -76.53,76.56 -69.32,64.6 -123.27,172.59 -38.43,76.91 -30.35,41.35 -58.55,138.7 -15.59,53.82 -22.93,106.6 -22.93,174.33z"/>
   <path class="fil0" d="M6677.33 1222.13c61.99,92.59 151.17,100.47 230.37,33.13 14.1,-11.98 43.17,-49.49 48.35,-71.72 -49.5,4.12 -94.4,14.61 -141.51,-55.75 -24.01,5.6 -99.27,74.26 -137.21,94.34z"/>
   <path class="fil0" d="M982.81 737.58l68.61 0c1.69,-20.43 1.5,-13.75 39.97,-32.93l157.2 -65.77c39.16,-15.75 189.5,-48.14 240.21,-59.96l0 -42.88c-84.42,0 -96.86,1.73 -192.05,30.93 -60.12,18.45 -223.23,93.57 -275.42,127.67 -16.9,11.04 -32.64,20.91 -38.52,42.94z"/>
   <path class="fil0" d="M1338.71 1552.31l0 793.28c0,16.1 2.44,27.15 7.25,39.93 9.69,25.73 11.98,25.8 22.77,28.68l0 -874.76c-20.86,0 -30.02,-2.9 -30.02,12.87z"/>
   <path class="fil0" d="M2616.55 2131.19l8.58 0 0 25.73 -8.58 0 0 -25.73zm-12.87 -8.57c7.41,-7.41 14.39,11.61 3.82,3.29 -0.37,-0.3 -10.12,3.01 -3.82,-3.29zm-42.87 25.73c40.34,9.4 7.46,25.99 38.59,34.3l0 30.02c-27.23,7.26 2.26,6.78 -31.71,32.61 -14.42,10.96 -23.39,15.97 -35.91,28.41 -27.83,27.62 -36.21,41.89 -91.04,41.89l0 34.3c12.92,3.45 9.42,-0.05 12.87,12.87 34.15,0 19.38,0.82 76.09,-56.84 42.29,-43 51.07,-17.76 83.71,-53.51 13.56,-14.86 44.72,-60.17 52.83,-80.09 9.2,-22.59 10.86,-26.25 24.49,-44.13 19.3,-25.32 9.55,-26.34 20.16,-48.44 -31.53,0 -51.24,9.01 -66.15,32.47 -2.14,3.36 -2.43,11.25 -15.33,14.69 0,-24.75 -6.1,-29.23 12.87,-34.3l0 -55.75c-46.86,-1.04 -28.49,-37.41 -81.47,-38.59l0 150.09z"/>
   <path class="fil0" d="M2762.34 1475.12c0,86.24 -17.15,85.22 -17.15,107.21 0,14.79 12.33,36.2 21.44,42.87 33.35,-8.9 47.05,-145.24 33.19,-183.27 -17.84,-48.93 -8.02,-27.26 -10.65,-62.68 -1.14,-15.26 -3.26,-22.6 -8.28,-34.16 -16.93,-38.98 -33.76,-72.59 -50.4,-112.55 -8.6,-20.63 -16.61,-36.59 -25.12,-56.35 -16.63,-38.63 -62.15,-132.53 -105.97,-142.74 0,35.02 3.49,32.82 15.7,57.2 42.77,85.39 31.79,29.37 80.47,151.09l44.83 109.55c16.63,44.33 -5.45,30.6 16.51,90.67 4.46,12.19 5.43,17.87 5.43,33.16z"/>
   <path class="fil0" d="M1728.93 578.92c49.55,0 136.19,31.06 180.94,42.03 23.26,5.7 40.15,10.91 59.74,17.46 59.76,19.98 104.09,34.02 157.92,65.05 19,10.95 38.99,18.86 43.07,34.12l51.45 0c-6.38,-9.53 -10.42,-11.33 -20.54,-18.06 -9.91,-6.6 -13.8,-10.17 -22.37,-16.21l-70.24 -49.83c-92.83,-61.79 -61.92,-41.02 -197.22,-85.79 -77.22,-25.55 -70.93,-15.04 -96.59,-23.48 -36.88,-12.14 -40.46,-8.17 -86.16,-8.17l0 42.88z"/>
   <path class="fil0" d="M2629.41 1265.01c5.19,-5.19 15.74,7.33 5.56,4.48 -6.55,-1.84 -10.61,0.57 -5.56,-4.48zm-4.28 -8.58c-16.13,-11.81 -3.88,-15.6 -25.73,-21.43 0,37.25 4.32,109.76 42.88,120.06 3.72,-15.97 8.58,-32.02 8.58,-51.46l4.28 0c0,57.67 26.4,64.38 25.82,128.56 -0.52,56.92 5.33,91.75 42.79,111.57 0,-172.99 6.85,-84.8 -27.48,-246.95 -5.07,-23.95 -52.8,-122.04 -67.8,-138.03 -11.67,-12.43 -21.34,-29.25 -41.93,-30.96 0,44.61 23.27,62.93 38.59,128.64z"/>
   <path class="fil0" d="M2612.26 1929.66l0 42.87c17.43,4.07 24.1,6.15 25.73,25.73 36.84,-0.82 30.02,-27.68 30.02,-64.32l12.86 0c0,122.76 -12.86,30.32 -12.86,132.93 36.39,0 34.33,-10.44 46.2,-35.26 19.94,-41.68 4.2,-28.63 11.2,-74.56 15.24,-99.92 11.21,-57.27 11.21,-160.32 -25.1,5.84 -51.76,41.06 -69.75,58.89 -46.12,45.73 -26.68,66.58 -54.61,74.04z"/>
   <path class="fil0" d="M2239.21 2307c39.88,-9.29 119.23,-169.88 134.35,-200.11 14.59,-29.15 63.19,-151.12 66.95,-186.05 1.97,-18.38 1.24,-19.73 6.33,-36.54 4.68,-15.45 6.77,-17.03 6.77,-36.12 -22.06,1.84 -19.55,12.32 -33.69,47.78 -30.53,76.55 -83.59,235.92 -126.15,294.09 -17.38,23.77 -47.75,87.71 -54.56,116.95zm-12.87 0l0 12.86 12.87 0 0 -12.86 -12.87 0z"/>
   <path class="fil0" d="M1282.97 2002.55l7.42 194.43c8.76,47.37 -8.22,2.63 2.47,78.69l11.55 95.65 0 -827.59c-20.9,30.08 -17.15,66.59 -17.15,102.92 0,40.01 -0.18,80.07 0.03,120.09 0.2,40.14 -4.32,71.45 -4.32,115.75 0,40.02 0,80.04 0,120.06z"/>
   <path class="fil0" d="M1969.05 2075.45l0 184.38c0,26.11 6.85,32.51 11.12,53.21 6.26,30.32 -10.48,47.26 18.9,49.71 0,-32.01 -2.36,-69.19 4.15,-94.49 4,-15.57 8.41,-23.67 6.81,-41.01 -1.69,-18.5 -0.18,-24.65 2.27,-44.24l-1.3 -145.22c-2.76,-16.29 -10.39,-21.09 -11.93,-39.53l-17.15 0c-0.61,27.41 -12.87,33.62 -12.87,77.19z"/>
   <path class="fil0" d="M1180.06 1672.37l0 458.82c0,34.52 12.86,16.57 12.86,60.03l4.29 0c0,-52.63 4.4,-92.85 4.29,-141.5 -0.09,-41.73 -3.77,-106.06 0.63,-145.17l7.94 -283.63c-19.89,10.52 -30.01,20.68 -30.01,51.45z"/>
   <path class="fil0" d="M489.68 630.38c-7.35,0.91 -6.06,-12.65 -0.29,-5.72 0,0 0.15,0.37 0.15,0.4l0.14 5.32zm-60.03 17.15c10.63,-0.89 14.35,-1.88 24.13,-5.88l11.91 -5.25c7.84,-2.12 6.83,-1.73 15.42,-1.73 -7.71,14.57 -12.87,28.9 -12.87,51.45 24.15,-5.62 24.81,-21.47 76.33,-52.3l63.12 -35.51c14.23,-10.61 10.16,-2.5 10.63,-23.67 -21.46,-5 -16.85,-8.96 -25.73,-25.73l-42.88 0c-4.19,15.69 -12.55,15.2 -28.55,22.9 -59.72,28.76 -91.51,33.31 -91.51,75.72z"/>
   <path class="fil0" d="M1780.38 2924.48c0,34.92 33,35.71 50.52,52.4 30.13,28.68 23.47,21.73 59.62,43.29 53.2,31.73 75.88,50.1 160.01,50.1 -5.2,-19.45 -89.71,-53.89 -132.08,-82.32l-95.83 -62.83c-18.45,-14.4 -6.93,-17.79 -37.95,-17.79 -2.75,11.5 -4.29,8.08 -4.29,17.15z"/>
   <path class="fil0" d="M871.32 1076.34c0,11.95 1.28,19.98 3.17,26.84 5.21,18.89 5.39,8.49 9.69,24.61l17.15 0c1.88,-8.04 21.3,-42.25 10.86,-79.47 -6.93,-24.67 3.44,-9.1 -10.86,-14.87l0 -8.57c19.25,-5.14 12.79,-9.86 12.63,-34.54 -0.17,-26.08 -2.21,-22 20.17,-27.01 30.78,-6.88 47.3,-10.16 61.54,-37.08l-124.35 0 0 150.09z"/>
   <path class="fil0" d="M1874.72 2427.07l17.15 0 0 -90.05c0,-42.42 20.53,-44.05 9.81,-91.86 -6.85,-30.61 3.05,-1.74 3.05,-49.65 -20.83,-5.56 -12.86,-16.61 -12.86,-90.05 0,-7.21 38.31,-92.39 -17.15,-107.2l0 428.81z"/>
   <path class="fil0" d="M661.2 1878.2l8.58 0 0 12.86 -8.58 0 0 -12.86zm-12.86 -8.58c-2.31,-12.5 9.17,1.1 4.38,0.81 -0.04,-0.01 -0.93,-0.1 -1,-0.11 -7.76,-1 -1.58,9.06 -3.38,-0.7zm8.57 77.19l17.16 0c8.67,-37.22 25.73,-27.83 25.73,-81.47 -21.94,1.82 -5.81,3.25 -25.73,8.57 0,-46.52 -17.75,-42.94 -25.73,-77.18l-55.75 0c0,28.34 8.93,34.34 14.62,62.57 8.64,42.99 -2.98,20.94 27.31,54.16 12.67,13.89 17.51,12.39 22.39,33.35z"/>
   <path class="fil0" d="M2710.89 621.8c7.4,-7.4 14.38,11.61 3.81,3.29 -0.37,-0.29 -10.12,3.02 -3.81,-3.29zm-124.35 -47.16l0 17.14c30.16,0 18.18,3.97 43.6,20.73l106.48 60.75c0,-23.81 -3.67,-24.85 -12.87,-38.59 30.88,0 13.17,2.93 34.3,8.57 -10.12,-15.11 -16.78,-18.25 -30.64,-29.38l-64.37 -55.7c-17.52,-14.26 -21.47,-9.25 -50.78,-9.25 -4.53,19.46 -6.26,21.19 -25.72,25.73z"/>
   <path class="fil0" d="M909.91 2641.47c30.73,7.16 13.11,19.43 91.48,58.61 17.93,8.96 30.76,15.13 48.53,24.36 28.16,14.61 26.5,11.37 65.82,11.37 -7.76,-33.28 -29.16,-19.87 -85.18,-64.91 -20.38,-16.39 -67.77,-59.45 -94.92,-59.45 -9.19,0 -24.16,11.18 -25.73,30.02z"/>
   <path class="fil0" d="M1626.01 819.05l21.44 0 0 12.87 -21.44 0 0 -12.87zm-107.2 21.44l0 8.58c49.71,11.58 53.76,21.13 116.83,5.34 15.79,-3.96 23.5,-5.34 41.83,-5.34l0 -30.02 -25.73 0c15.69,-29.64 25.73,-15.97 25.73,-55.74 -40.47,21.41 -93.7,39.32 -120.35,55.46 -11.46,6.93 -25.98,18.43 -38.31,21.72z"/>
   <path class="fil0" d="M1827.55 3053.12l-17.15 0 0 47.17 12.86 0c0,25.73 4.96,25.21 10.31,45.44 4.4,16.62 2.56,38.64 2.56,57.47 59.98,-13.97 6.26,-67.41 42.88,-77.18l0 -85.76c-27.78,-6.47 -13.07,-9.03 -30.02,-21.44 -6.66,13.87 -5.51,34.3 -21.44,34.3z"/>
   <path class="fil0" d="M1325.85 3040.26c0,80.29 -5.74,54.7 11.09,117.66 7.29,27.27 3.71,22.06 1.77,45.28l30.02 0c0,-52.63 -7.98,-82.5 12.86,-90.05l0 -60.03 -25.72 0c0,-25.26 -1.17,-21.98 12.86,-25.72l0 -12.87 -25.73 0c-12.19,29.52 -17.15,3.04 -17.15,25.73z"/>
   <path class="fil0" d="M523.98 1543.73l0 38.6c11.12,-2.6 25.5,-9.65 35.94,-15.53 15.31,-8.63 19.33,-14.34 19.81,-35.93l25.64 13.04c9.5,-19.78 32.68,-90.78 25.82,-120.24l-60.06 51.43c-17.7,27.39 -21.8,61.86 -47.15,68.63z"/>
   <path class="fil0" d="M322.45 484.59l0 25.73c65.16,0 36.68,-64.33 137.21,-64.33 0,-65.55 -14.43,-7.24 -25.72,-55.74 -19.39,0.43 -23.59,6.45 -36.09,15.36 -18.94,13.5 -75.4,58.37 -75.4,78.98z"/>
   <path class="fil0" d="M1930.46 2401.34l17.16 0c0,-93.14 -10.1,-166.41 -0.05,-261.63 2.66,-25.15 4.73,-12.99 7,-26.84l-2.66 -50.29c0,-13.83 28.9,-52.59 -21.45,-64.32l0 403.08z"/>
   <path class="fil0" d="M1535.96 883.37l-34.3 0 0 30.02 201.54 0 0 -30.02c-89.74,0 -58.91,-12.86 -107.21,-12.86 -37.49,0 -39.76,12.86 -60.03,12.86z"/>
   <path class="fil0" d="M365.33 553.19c22.94,0 28.14,2.04 41.85,-9.61 51.47,-43.71 54.03,-35.04 103.94,-58.99l0 -30.02c-12.91,-3.45 -9.42,0.05 -12.86,-12.86 -60.56,32.04 -127.55,46.77 -132.93,111.48z"/>
   <path class="fil0" d="M498.26 703.28c0,19.74 20.16,21.44 34.3,21.44 18.22,0 55.16,-51.02 92.77,-70.18 30.56,-15.58 35.87,7.15 35.87,-37.03 -54.44,0 -85.94,32.65 -146.28,68.12 -9.66,5.68 -16.66,4.94 -16.66,17.65z"/>
   <path class="fil0" d="M2732.33 415.98c2.73,32.87 34.43,0.51 106.09,74 14.6,14.97 17.99,18.17 43.99,20.34 -4.32,-18.53 -24.48,-62.98 -38.39,-73.11 -16.3,-11.87 -57.29,-26.98 -64.52,-46.96l-21.45 0c-1.63,19.59 -8.3,21.66 -25.72,25.73z"/>
   <path class="fil0" d="M2106.27 2735.81c73.55,0 77.77,-22.16 128.79,-51.32 24.59,-14.05 34.16,-8.21 34.16,-34.44 0,-18.22 -4.36,2.06 -12.87,-21.44 -21.23,4.94 -37.88,24.99 -56.91,37.42 -23.11,15.1 -83.5,28.3 -93.17,69.78z"/>
   <path class="fil0" d="M2668.01 510.32l-12.87 0 0 30.01c48.56,11.31 73.26,51.45 132.93,51.45 0,-38.68 -22.03,-45.28 -46.32,-60.88 -23.57,-15.14 -44.3,-26.59 -73.74,-33.45l0 12.87z"/>
   <path class="fil0" d="M1034.26 2804.42c-38.65,-57.73 -109.04,-80.47 -126.58,-96.4 -17.74,-16.11 5.58,-15.09 -49.22,-15.09 0,44.89 18.78,34.37 73.71,67.79 40.24,24.49 61.01,43.7 102.09,43.7z"/>
   <polygon class="fil0" points="1085.72,2054.01 1102.87,2054.01 1102.87,1702.39 1085.72,1702.39 "/>
   <path class="fil0" d="M669.78 1449.4c0,27.14 -12.87,31.79 -12.87,51.45l0 111.49c0,28.09 30.02,-6.37 30.02,-17.15l0 -227.27 -17.15 0 0 81.48z"/>
   <path class="fil0" d="M493.97 523.18c-25.78,2.14 -51.44,27.17 -73.98,41.79 -12.12,7.86 -15.64,7.63 -16.07,26.81 22.2,8.04 -4.6,0.21 12.65,8.8l17.37 4.07c7.04,-19.44 47.67,-31.6 65.08,-42.12 15.6,-9.44 27.71,-9.58 39.44,-16.55 20.06,-11.92 6.71,-20.56 2.68,-35.66l-47.17 0 0 12.86z"/>
   <path class="fil0" d="M258.13 415.98l21.03 13.27c6.73,5.48 -0.06,-5 7.83,9.33 3.92,7.13 3.75,8.74 5.44,15.99l8.58 0c4.24,-10.5 45.82,-33.88 56.33,-42.29 39.96,-31.96 46.08,-29.39 46.58,-52.05 -12.92,-3.45 -9.41,0.06 -12.86,-12.86 -6.88,0 -13.82,-0.81 -20.23,1.21 -19.17,6.03 -66.64,63.56 -112.7,67.4z"/>
   <path class="fil0" d="M2517.93 668.97c0,27.42 6.48,4.79 35.77,28.55 12.89,10.46 22.25,14.76 35.41,24.62 46.73,35.03 38.65,56.04 66.03,58.32l0 -25.73 12.87 0c-0.61,-27.35 5.78,-5.35 -26.77,-37.55 -12.9,-12.76 -123.31,-87.37 -123.31,-48.21z"/>
   <path class="fil0" d="M2912.42 458.86l0 -12.87 12.87 0 0 -30.01c-63.02,-33.35 -79.17,-68.61 -137.22,-68.61 0,44.42 26.44,40.91 57.19,58.59 62.53,35.97 28.2,52.03 67.16,52.9z"/>
   <path class="fil0" d="M725.53 2212.67l12.86 0 0 25.73 -12.86 0 -4.29 -21.45c-0.48,21.43 -8.1,30.03 -8.58,51.46 16.74,3.9 34.1,8.88 38.59,25.73l30.02 0 0 -12.87 12.87 0 0 -17.15c-28.54,0 -45.37,-2.89 -51.47,-25.72 13.84,0 30.29,3.03 41.5,-5.68 11.24,-8.75 7.75,-7.46 9.97,-15.77 -4.29,-5.84 -53.12,-51.83 -68.61,-60.03l0 55.75z"/>
   <path class="fil0" d="M549.71 759.02l0 21.44c51.69,-1.15 35.88,-33.45 106.48,-77.91 16.6,-10.45 20.5,-18.28 30.74,-33.58l-55.74 0c-25.73,48.63 -81.48,48.74 -81.48,90.05z"/>
   <path class="fil0" d="M2830.95 553.19c0,-37.1 -2.41,-44.41 -24.95,-60.8 -9.37,-6.82 -18.73,-8.79 -27.31,-15.57 -28.45,-22.5 11.72,-22.25 -72.09,-22.25 0.97,43.26 27.05,41.36 55.57,55.92 29.63,15.13 32.09,39.65 68.78,42.7z"/>
   <path class="fil0" d="M1124.31 1749.56c0,55.64 -3.01,146.68 3.94,197.6 1.58,11.63 1.59,14.26 3.82,21.9l9.4 20.63 0 -373.06c-14.28,20.54 -12.02,39.98 -12.95,59.95 -1.11,23.67 -4.21,42.8 -4.21,72.98z"/>
   <path class="fil0" d="M2187.74 2804.42c19.55,-1.63 52.02,-21.73 68.61,-30.02 10.2,-5.1 25.03,-11.41 34.23,-17.23 23.03,-14.58 9.42,-21.36 42.96,-21.36l0 -42.88c-50.49,0 -2,4.31 -87.25,49.97 -23.1,12.37 -56.29,34.42 -58.55,61.52z"/>
   <path class="fil0" d="M2933.87 2028.28c0,14.54 5.33,8.77 19.23,15.08l8.38 4.47c10.96,6.14 -6.15,1.6 10.98,6.18 12.16,-8.92 6.4,-10.72 23.6,-19.29 26.73,-13.31 23.57,4.6 23.57,-62.19 -23.07,0.52 -25.42,6 -30.02,25.73l-12.87 0c-2.3,-27.66 -21.69,-25.73 -42.87,-25.73l0 55.75z"/>
   <path class="fil0" d="M2560.81 617.51c-22.68,0 -6.4,0.03 -12.87,4.29 11.48,3.07 25.29,15.45 36.89,23.14 37.48,24.83 50.88,28.86 75.51,53.14 15.98,15.77 21.21,13.77 50.55,13.77 -24.69,-36.86 -2.45,-25.99 -19.32,-40.71 -0.66,-0.58 -36.02,-16.89 -40.54,-19.5l-58.08 -31.97c-13.9,-6.52 -9.95,3.86 -14.99,-15.02l-17.15 0 0 12.86z"/>
   <path class="fil0" d="M2020.51 2092.6c0,34.92 2.95,53.22 4.31,85.74 1.61,38.35 12.84,26.24 12.84,81.49l12.86 -197.25c-0.16,-27.49 3.85,-44.05 4.3,-64.32 -34.17,2.85 -34.31,61.43 -34.31,94.34z"/>
   <path class="fil0" d="M348.18 2371.32l-25.73 0 0 30.02c40.28,0 60.85,-4.56 91.6,11.31 16.42,8.49 17.63,14.42 41.33,14.42 -10.23,-38.3 -53.74,-55.19 -62.55,-61.81 -23.16,-17.37 4.3,-19.67 -44.65,-19.67l0 25.73z"/>
   <path class="fil0" d="M2775.21 2427.07c32.97,-7.69 48.12,-25.22 89.92,-25.87 19,-0.29 49.17,5.9 43.96,-9.27 -4.65,-13.55 -25.38,-17.31 -39.54,-20.61l0 -25.73 -30.02 0c-15.66,58.66 -64.32,14.57 -64.32,81.48z"/>
   <path class="fil0" d="M253.84 1981.11l0 17.15c-47.55,0 -3.62,-9.03 -38.59,-12.86l0 55.74c27.65,0 43.87,17.33 60.3,0.36 5.12,-5.28 20.23,-49.04 21.17,-60.39 -3.23,-0.86 -42.88,-30.73 -42.88,0z"/>
   <path class="fil0" d="M644.05 1702.39l-12.86 0 0 42.88c26.79,9.7 1.04,38.59 55.74,38.59l0 -81.47c-12.92,-3.45 -9.41,0.05 -12.86,-12.87l-30.02 0 0 12.87z"/>
   <path class="fil0" d="M2089.12 1993.98l0 231.55 17.15 0 0 -231.55c0,-12.08 -1.85,-7.94 -8.57,-12.87 -7.23,5.02 -8.58,0.62 -8.58,12.87z"/>
   <path class="fil0" d="M1017.11 270.18c12.92,3.45 9.42,-0.05 12.86,12.87l34.31 0c3.45,-12.92 -0.05,-9.42 12.87,-12.87 0,-94.97 -8.69,-30.43 -12.87,-68.6l-30.02 0c0,58.94 -17.15,15.59 -17.15,68.6z"/>
   <path class="fil0" d="M2144.87 214.44l-12.87 0 0 55.74c23.77,15.92 18.28,12.87 55.74,12.87 0,-62.26 -12.86,-13.07 -12.86,-81.47l-30.01 0 0 12.86z"/>
   <path class="fil0" d="M991.38 2585.73l-12.86 0 0 17.15c33.05,8.82 6.27,51.46 98.63,51.46 -2.65,-9.9 -28.78,-35.77 -37.49,-44 -43.75,-41.35 -19.99,-36.85 -48.28,-37.48l0 12.87z"/>
   <path class="fil0" d="M768.4 2131.19c0,-46.36 -13.2,-39.43 -23.84,-70.49 -12.8,-37.36 -19.03,-45.97 -19.03,-79.59l-12.87 0c0,113.88 0.71,66.37 26.14,128.22 6.53,15.86 8.05,20.07 29.6,21.86z"/>
   <path class="fil0" d="M2453.61 2294.14c28.88,-15.29 68.61,-25.58 68.61,-85.76 0,-13.21 -5.95,-12.87 -17.16,-12.87 -16.24,0 -18.63,28.62 -29.3,43.6 -13.68,19.19 -22.15,22.38 -22.15,55.03z"/>
   <path class="fil0" d="M781.27 2838.72c1.96,23.54 16.16,33.1 21.44,55.74 23.74,-1.97 19.14,-10.88 42.88,-12.86l0 -42.88c-19.2,-6.95 2.13,0.87 -10.34,-6.81 -12.51,-7.71 16.55,-6.06 -32.54,-6.06 -18.2,0 -0.5,-0.55 -11.1,6.06 -13.83,8.61 8.85,-0.35 -10.34,6.81z"/>
   <path class="fil0" d="M2346.4 2838.72l0 30.02c27.76,14.68 -5.57,12.86 68.61,12.86 -17.91,-76.88 -17.24,-32.16 -25.73,-68.61l-17.15 0c-4.53,19.46 -6.26,21.2 -25.73,25.73z"/>
   <path class="fil0" d="M1797.54 668.97l0 42.88c19.89,13.33 2.98,12.87 42.87,12.87l0 -42.89c11.28,-2.62 12.6,-3.89 21.45,-8.57 -12.42,-16.95 -14.97,-2.23 -21.45,-30.02 -43.07,0.96 0.53,15.62 -42.87,25.73z"/>
   <path class="fil0" d="M498.26 1710.97c0,20.71 15.18,30.33 26.67,41.93 18.98,19.17 19.15,18.1 54.8,18.1 -10.89,-16.26 -19.56,-25.41 -31.39,-41.51 -23.07,-31.39 -5.73,-39.97 -50.08,-39.97l0 21.45z"/>
   <path class="fil0" d="M1904.73 265.9l0 17.15c51.51,4.29 11.18,25.72 68.61,25.72 0,-47.78 -12.86,0.45 -12.86,-68.6l-30.02 0c-4.06,17.43 -6.14,24.1 -25.73,25.73z"/>
   <path class="fil0" d="M2921 1715.25l0 17.16c17.85,1.48 24.24,7.88 25.73,25.72l17.15 0 0 -25.72 12.86 0 0 -42.89 -16.49 -13.59c-37.49,26.32 -12.77,32.25 -39.25,39.32z"/>
   <path class="fil0" d="M2144.87 2131.19l17.15 0 0 -150.08c0,-12.96 -5.05,-11.85 -17.15,-12.86l0 162.94z"/>
   <path class="fil0" d="M2976.74 257.32c44.61,0 55.75,-0.69 55.75,-55.74 -24.12,0 -42.67,-4.55 -54.9,18.34 -7.8,14.6 -1.25,19.1 -0.85,37.4z"/>
   <path class="fil0" d="M1381.59 3151.75l55.02 -27.21 0.73 -54.27 -30.02 0c-0.89,40 -25.73,39.4 -25.73,81.48z"/>
   <path class="fil0" d="M2024.8 694.7l-12.86 0 0 34.31c25.2,5.86 24.9,25.4 44.18,24.23 25.7,-1.55 4.08,-29.59 4.07,-29.61 -7.79,-15.43 -2.76,0.81 -5.12,-20.61 -2.98,-26.93 -0.59,-21.19 -30.27,-21.19l0 12.87z"/>
   <path class="fil0" d="M2655.14 1771c30.15,-0.68 32.18,-10.62 46.21,-26.69 13.63,-15.6 23.52,-24.37 35.27,-41.92 -12.92,-3.45 -9.42,0.05 -12.87,-12.87l-17.15 0c-6.15,23.04 -39.87,31.75 -51.46,81.48z"/>
   <path class="fil0" d="M884.18 2894.46l-12.86 0 0 17.16c17.84,1.48 24.24,7.88 25.73,25.73l30.01 0c3.45,-12.92 -0.05,-9.42 12.87,-12.87l0 -17.15 -12.87 0 0 -25.73 -42.88 0 0 12.86z"/>
   <path class="fil0" d="M2264.93 2937.35l55.74 0 0 -55.75c-35.37,0 -54.99,21.93 -55.74,55.75z"/>
   <path class="fil0" d="M1355.87 673.26c0,6.37 9.25,18.92 12.86,25.73l55.75 0c-3.71,-7.73 -10.59,-33.11 -12.87,-42.88l-55.74 0 0 17.15z"/>
   <path class="fil0" d="M266.7 1565.17c0,52.27 3.29,16.43 12.87,42.88 20.91,-1.74 23.7,-10.91 47.17,-12.86 -3.07,-36.82 -30.02,0.25 -30.02,-55.75 -10.3,0.86 -10.89,-3.99 -24.12,14.47 -7.33,10.22 -5.9,-6.15 -5.9,11.26z"/>
   <path class="fil0" d="M2264.93 351.66c67.75,0 34.6,16.64 68.61,25.72l0 -42.88c-12.92,-3.45 -9.42,0.06 -12.87,-12.86l-55.74 0 0 30.02z"/>
   <path class="fil0" d="M2839.53 1329.33c25.02,6.68 8.61,12.86 55.74,12.86 0,-4.47 0.47,-12.96 -0.12,-17.02 -2.93,-20.44 -10.64,-13.52 -12.74,-38.72 -34.78,0 -42.88,8.1 -42.88,42.88z"/>
   <path class="fil0" d="M2908.14 1578.04c8.82,12.04 8.84,6.07 19.98,18.61 11.89,13.39 1.57,13.92 22.9,15.69 0,-44.51 12.86,-6.67 12.86,-60.03l-12.86 0 0 -12.87c-21.55,1.8 -10.88,2.41 -22.93,15.67 -14.57,16.02 -14.91,4.04 -19.95,22.93z"/>
   <path class="fil0" d="M253.84 1702.39l-12.87 0c19.8,37.4 14.53,23.13 42.89,55.74 3.44,-12.92 -0.06,-9.41 12.86,-12.86l0 -42.88c-14.03,-5.08 -3.11,5.56 -12.86,-12.87l-30.02 0 0 12.87z"/>
   <path class="fil0" d="M1231.52 308.77c41.64,0 25.55,-0.26 41.41,-14.32 12.23,-10.84 9.1,-2.71 18.62,-15.69 -9.52,-35.64 -60.03,-42.94 -60.03,30.01z"/>
   <path class="fil0" d="M159.5 214.44c0,25.56 5,42.88 34.31,42.88 9.26,0 8.44,-2.23 19.76,-14.54 5.37,-5.84 1.86,-1.3 5.97,-6.9 -8.17,-12.2 -30.75,-34.3 -47.17,-34.3 -9.88,0 -12.87,2.98 -12.87,12.86z"/>
   <path class="fil0" d="M1154.33 750.44c52.88,-12.31 42.88,-7.64 42.88,-55.74 0,-15.77 -9.15,-12.87 -30.02,-12.87 0,25.66 0.52,14.02 -7.71,30.88 -7.84,16.09 -5.15,15.85 -5.15,37.73z"/>
   <path class="fil0" d="M871.32 364.52c55.04,0 4.6,-12.86 68.61,-12.86l0 -30.02 -55.75 0c-4.87,20.91 -12.3,17.46 -12.86,42.88z"/>
   <path class="fil0" d="M2882.41 1432.24l0 17.16c12.92,3.44 9.42,-0.06 12.86,12.86l30.02 0c3.45,-12.92 -0.05,-9.42 12.86,-12.86l0 -30.02 -12.86 0 0 -12.87 -17.15 0c-4.06,17.43 -6.14,24.1 -25.73,25.73z"/>
   <polygon class="fil0" points="1034.26,1891.06 1047.13,1891.06 1047.13,1728.12 1034.26,1728.12 "/>
   <path class="fil0" d="M296.72 1436.53c0,17.55 -0.52,1.3 3.42,9.45 0.37,0.76 0.91,2.11 1.36,2.92l3.24 5.34c9.71,11.72 1.97,7.57 22,8.02 3.45,-12.92 -0.06,-9.42 12.86,-12.86l0 -30.02c-20.91,-4.87 -17.46,-12.3 -42.88,-12.87l0 30.02z"/>
   <path class="fil0" d="M403.92 2311.29l0 8.57c17.89,15.51 10.63,12.87 42.88,12.87 0,-49.44 6.56,-42.88 -42.88,-42.88l0 21.44z"/>
   <path class="fil0" d="M2826.66 2238.4c31.25,0 54.84,-10.56 55.75,-51.46 -20.81,1.73 -54.97,16.65 -55.75,51.46z"/>
   <path class="fil0" d="M1810.4 270.18l42.88 0 0 -17.15c0,-10.32 -15.4,-25.73 -25.73,-25.73l-17.15 0 0 42.88z"/>
   <path class="fil0" d="M2805.23 2332.73c4.64,-17.41 -0.42,0.5 6.73,-15.06 16.21,-35.27 -8.64,-27.82 -36.75,-27.82 0.8,9.69 3.04,18.67 6.44,27.86 6.1,16.49 3.87,14.58 23.58,15.02z"/>
   <path class="fil0" d="M361.04 2238.4l30.02 0c5.39,-10.2 9.89,-14.63 12.86,-25.73 -11.05,-0.25 -19.95,-1.85 -29.7,-4.6 -15.86,-4.48 -2.7,-1.24 -12.53,-4.63 -2.95,-1.01 1.02,-2.43 -13.51,-3.64 1.91,22.98 8.53,22.38 12.86,38.6z"/>
   <path class="fil0" d="M335.31 1329.33c17.92,0 27.01,-3.02 38.59,-8.58l4.29 -34.3 -30.01 0c-1.46,17.52 -6.34,30.54 -12.87,42.88z"/>
   <path class="fil0" d="M1355.87 240.17c0.49,22.12 5.99,30.01 42.88,30.01 -5.32,-22.84 -4.35,-40.74 -30.02,-42.88 -3.34,12.51 -0.04,9.79 -12.86,12.87z"/>
   <path class="fil0" d="M695.51 2885.89c0,9.88 2.98,12.86 12.86,12.86l30.02 0 0 -30.01 -42.88 0 0 17.15z"/>
   <path class="fil0" d="M373.9 1226.42c19.37,26.43 21.41,21.15 34.31,21.44 5.33,-22.87 8.58,-5.42 8.58,-42.88 -16.41,0.36 -19.97,1.34 -28.85,9.02l-14.04 12.42z"/>
   <path class="fil0" d="M2157.73 2654.34c50.44,0 39.54,-23.17 45.87,-35.61 5.02,-9.85 8.02,2.16 9.88,-20.14 -15.22,4.06 -48.82,42.64 -55.75,55.75z"/>
   <path class="fil0" d="M2119.14 1852.47l38.59 0c-0.58,-26.14 -12.15,-29.43 -38.59,-30.02l0 30.02z"/>
   <path class="fil0" d="M1767.52 3096c0,14.64 17.32,22.77 30.02,25.73l0 -38.59 -30.02 0 0 12.86z"/>
   <path class="fil0" d="M1231.52 1740.98c0,8.6 2.56,16.17 5.78,24.23 0.2,0.49 3.38,7.4 4.14,8.73 0.63,1.11 2.77,4.3 3.38,5.19 0.44,0.64 1.53,1.89 1.9,2.39 0.37,0.5 1.28,1.58 1.94,2.34l-4.28 -107.2c0,41.41 -12.86,28.34 -12.86,64.32z"/>
   <path class="fil0" d="M712.66 2307l0 -17.15c-7.25,-0.79 -1.7,1.21 -7.24,-1.34 -0.64,-0.29 -2.28,-0.85 -3.03,-1.25l-7.41 -5.45c-7.38,-4.92 -1.87,-1.56 -8.05,-4.82 1.1,13.18 0.06,9.83 6.36,19.37 6.96,10.56 4.86,9.44 19.37,10.64zm0 12.86l12.87 0 0 -12.86 -12.87 0 0 12.86z"/>
   <path class="fil0" d="M1231.52 1835.32c0,22.01 -2.17,6.68 5.78,15.65l11.36 10.08 0 -42.89c-9.71,2.6 -17.14,4.13 -17.14,17.16z"/>
  </g>
 </g>
</svg>
