<?xml version="1.0" encoding="UTF-8"?>
<!DOCTYPE svg PUBLIC "-//W3C//DTD SVG 1.1//EN" "http://www.w3.org/Graphics/SVG/1.1/DTD/svg11.dtd">
<!-- Creator: CorelDRAW -->
<svg xmlns="http://www.w3.org/2000/svg" xml:space="preserve" width="8.4666mm" height="5.9266mm" version="1.1" style="shape-rendering:geometricPrecision; text-rendering:geometricPrecision; image-rendering:optimizeQuality; fill-rule:evenodd; clip-rule:evenodd"
viewBox="0 0 846.66 592.66"
 xmlns:xlink="http://www.w3.org/1999/xlink"
 xmlns:xodm="http://www.corel.com/coreldraw/odm/2003">
 <defs>
  <style type="text/css">
   <![CDATA[
    .fil0 {fill:#3E4095}
   ]]>
  </style>
 </defs>
 <g id="Camada_x0020_1">
  <metadata id="CorelCorpID_0Corel-Layer"/>
  <g id="_3045261974832">
   <path class="fil0" d="M363.05 273.51c0,-6.69 0.33,-13 3.18,-18.4 6.08,0.13 13.67,2.2 17.97,6.45 8.19,8.09 9.63,21.27 4.93,31.31 -0.87,1.87 -4.72,7.54 -5.91,7.54 -1.07,0 -2.8,-0.78 -3.85,-1.1 -1.33,-0.42 -2.58,-0.77 -4.19,-1.11 -4.27,-0.92 -5.8,-1.33 -10.72,-1.33 0,-6.99 -1.41,-15.68 -1.41,-23.36zm-3.19 -19.46c-0.84,1.26 -5.4,3.84 -8.29,10.82 -3.42,8.25 -4.11,16.39 -2.83,25.43 0.39,2.76 0.29,5.55 0.86,7.99 -4.17,2 -8.34,1.99 -15.17,7.12 -1.21,0.91 -3.59,2.53 -3.94,3.85 7.42,-1.73 11.63,-2.12 19.82,-2.12 0,3.17 1.06,7.93 1.06,13.09 0,4.59 0.23,8.82 -2.96,12.96 -0.91,1.18 -1.28,0.93 -2,1.91 5.7,-0.13 10.68,-5.16 12.86,-9.09 2.62,-4.73 5.55,-9.57 5.55,-16.75 3.78,0.88 8.17,2.73 10.97,4.6l9.45 -7.89c5.47,-4.6 14.36,-12.09 17.21,-17.83 1.15,-2.3 1.78,-3.62 2.44,-6.41 5.08,-21.61 -9.42,-35.45 -28.48,-39.28 -17.79,-3.56 -36.94,-1.02 -50.88,-10.35 0.52,2.24 3.73,7.06 5.22,8.59 6.13,6.36 13.39,11.67 22.74,12.65 2.24,0.24 3.93,0.71 6.37,0.71z"/>
   <path class="fil0" d="M547.8 318.82c-1.11,-0.97 -3.89,-2.35 -3.89,-4.96l0 -27.96c0,-4.45 3.5,-8.46 6.72,-10.62 1.62,0.43 2.65,1.52 3.31,3.06 0.83,1.91 0.59,3.62 0.58,6.15 -0.01,2.69 0.37,4 0.37,6.35l-0.01 22.31c0,0.99 -0.7,1.07 -1.55,1.64 -0.82,0.54 -1.06,0.76 -1.84,1.35 -1.35,1.01 -2.37,1.79 -3.69,2.68zm-17.7 -32.21l0 27.6c0,6.3 4.86,12.07 10.32,14.5 2.16,0.96 2.06,0.38 7.33,-3.57l7.13 -5.26c0,9.43 2.16,21.27 -6.07,26.13 -3.89,2.3 -8.8,0.83 -8.8,-4.54 0,-2.28 2.01,-3.12 2.83,-4.25 -2.62,-0.61 -5.84,-1.72 -8.56,1.7 -6.53,8.23 3.84,18.12 11.4,18.12 7.87,0 11.33,-2.37 16.72,-7.7 2.71,-2.67 4.93,-6.29 5.73,-10.19 1.16,-5.63 0.17,-6.52 0.19,-10.06l0.01 -48.5c0.04,-6.16 -2.78,-11.1 -7.67,-13.92 -4.81,-2.77 -3.59,-2.13 -7.5,-0.54 -6.66,2.7 -23.06,12.84 -23.06,20.48z"/>
   <path class="fil0" d="M186.44 265.02c0,1.38 -0.16,1.48 0.3,2.53 1.38,3.18 0.76,3.19 0.76,8.09l0.35 58.75c0,22.92 0.83,47.26 0.71,70.43 -0.07,13.47 2.46,17.71 5.74,29.66 0.49,1.79 1.22,2.62 1.74,4.27 0.56,1.77 0.49,3.04 2.79,3.23 0,-2.81 0.28,-1.82 1.24,-3.71l6.44 -19.71c0.11,-1.91 -0.42,-1.81 0.26,-4.38 1.1,-4.19 1.26,-7.49 0.65,-11.93 -0.58,-4.2 -0.39,-5.07 1.32,-5.22l0 -85.29c-3.47,-1.84 -0.91,-1.87 -3.19,-2.48 -1.79,1.31 -1.76,6.34 -1.77,9.56 -0.01,2.38 0.34,3.22 0.37,5.29 0.34,27.16 -0.01,56.48 -0.01,83.9l-2.08 12.78c-0.71,2.37 -3.45,9.6 -3.59,11.28l-1.06 0c0,-2.83 -1.05,-4.01 -1.73,-6.05 -0.68,-2.06 -1.51,-4.22 -2.09,-6.05 -0.74,-2.3 -0.05,-5.23 -0.73,-7.06 -0.37,-0.97 -0.33,-0.48 -0.56,-1.21 -1.61,-5.08 0.46,-52.56 -0.21,-61.37 -0.19,-2.58 -1.08,-2.95 -1.06,-6.38 0.02,-2.39 0.22,-4.99 -0.14,-7.29 -0.97,-6.29 1.21,-3.07 1.21,-6.52 0,-1.73 -1.41,0.39 -1.41,-4.95l0 -32.21c0,-5.51 0.35,-9.74 0.35,-15.22 3.74,1 1.75,13.4 1.77,16.63l0 78.22c0,2.36 0.81,3.23 1.03,4.99 0.9,7.33 -2.05,36.62 2.51,39.96l0 -155.73c-3.18,0 -2.48,-0.38 -2.48,6.02 0,2.36 0,4.72 0,7.08 -1.44,-0.38 -2.83,-2.33 -2.83,-4.6 0,-1.41 0.37,-1.91 0.62,-2.92 0.37,-1.47 0.29,-1.85 0.46,-3.44 0.18,-1.79 0.51,-1.29 0.89,-2.64 0.32,-1.12 0.15,-2.53 0.15,-3.74l-1.06 0 0 -5.67c-1.66,-0.88 -1.76,-1.7 -3.54,-2.12 0,2.73 0.14,5.81 0.01,8.5l-1 5.37c-0.37,1.28 0.34,0.96 -1.13,1.35z"/>
   <path class="fil0" d="M692.2 274.22c1.19,0.32 1.54,1 2.4,1.86 0.84,0.84 1.46,1.39 2.04,2.55 1.21,2.48 0.87,4.91 0.87,8.33 0,6.02 0,12.04 0,18.05 0,6.8 -0.61,11.5 1.88,16.17 1.75,3.29 7.01,7.9 10.15,7.9 0.04,0 2.64,-1.98 3.04,-2.28 1.36,-1.02 8.78,-6.68 9.71,-6.92 0.49,2.11 1.6,4.17 2.91,5.58 1.6,1.72 2.78,2.51 4.87,3.62l2.58 -2.02c1.36,-1.02 6.94,-5.47 8.04,-5.77l0 -0.7c-4.99,-1.34 -5.87,-10.34 -5.1,-15.37 0.35,-2.35 0.15,-23.09 0.15,-26.4 0,-3.23 -0.6,-5.58 -1.98,-7.58 -1.24,-1.79 -3.05,-4.02 -5.1,-4.85 -1.71,-0.69 -3.22,1.12 -5.82,3.08l-5.86 4.04c0.56,2.09 4.95,2.92 4.95,9.21l0 30.43c0,1.11 -5.63,4.93 -6.72,5.67 -4.77,-2.53 -4.25,-4.77 -4.25,-11.68l0 -24.42c0.01,-4.9 -0.83,-8.97 -3.48,-12.8 -3.97,-5.75 -4.95,-3.63 -7.09,-2.02l-5.45 4.1c-1.05,0.78 -2.05,1.2 -2.74,2.22z"/>
   <path class="fil0" d="M642.3 274.58c1.86,0.49 3.09,2.63 3.91,4.23 1.25,2.44 1.05,3.86 1.04,7.44 0,6.36 -0.49,28.51 0.62,33.01 1.03,4.14 3.84,7.59 7.17,9.82 1.33,-0.36 4.17,-2.78 5.46,-3.74 1.94,-1.46 3.58,-2.75 5.51,-4.05 -1.27,-1.73 -5.31,-2.77 -5.31,-10.26l0 -29.02c0,-0.94 6.06,-4.98 7.08,-5.67 4.63,2.46 4.25,4.93 4.25,11.68 0,5.85 -0.62,27.67 0.57,31.64 1.17,3.87 3.62,7.25 6.86,9.42 1.46,-0.34 4.17,-2.68 5.51,-3.69 1.29,-0.97 4.13,-3.39 5.46,-3.74 -0.4,-1.53 -0.87,-1.14 -2.04,-2.2 -3.3,-3.01 -2.91,-6.64 -2.91,-10.9 0,-6.01 0,-12.03 0,-18.05 0,-10 0.82,-14.99 -5.75,-21.15 -0.82,-0.77 -4.73,-3.27 -5.93,-3.27 -0.64,0 -8.29,5.77 -9.76,6.88 -1.23,0.92 -2.03,1.63 -3.34,2.32 -0.55,-2.39 -1.66,-4.12 -3.09,-5.75 -0.81,-0.91 -1.47,-1.4 -2.46,-2.15 -2.65,-2 -2.56,-1.05 -7.9,2.95 -1.04,0.78 -4.61,2.95 -4.95,4.25z"/>
   <path class="fil0" d="M203.07 284.13l1.07 0 0 16.28 -1.07 0 0 -16.28zm17.7 15.57c0.17,-0.16 2.01,0.2 0.64,0.19 0,0 -0.05,0 -0.06,0 -0.31,-0.08 -1.18,0.41 -0.58,-0.19zm2.83 -0.7c0,-0.91 0.56,-0.06 0.21,0 0,0 -0.21,0.98 -0.21,0zm0.71 -1.07c0,-0.96 1.27,0 0.32,0.02 -0.36,0.01 -0.32,0.79 -0.32,-0.02zm2.12 -1.77l0.71 0 0 1.07c-1.36,-0.95 -0.15,0 -0.71,-1.07zm1.77 -1.06l0 1.06 -0.71 0c0.24,-0.97 -0.14,-0.55 0.71,-1.06zm0.36 -1.06l0.7 0 0 1.06 -0.7 0 0 -1.06zm1.06 0l0 -1.06 1.06 0c-0.28,0.76 0.1,0.24 -0.38,0.68 -0.17,0.15 -0.58,0.25 -0.68,0.38zm1.06 -2.12l1.06 0 0 0.71 -1.06 0 0 -0.71zm1.06 -2.13l1.06 0 0 1.77 -1.06 0 0 -1.77zm1.42 -0.7c0,-0.96 1.26,0 0.32,0.02 -0.36,0 -0.32,0.78 -0.32,-0.02zm1.41 -0.71c-0.91,0.11 -0.1,-1.2 -0.01,-0.44l0.01 0.44zm3.9 -21.95l1.06 0 0 3.19 -1.06 0 0 -3.19zm2.12 -8.84l1.06 0 0 2.12 -1.06 0 0 -2.12zm-26.54 -15.58l1.06 0 0 -1.06 -1.06 0 0 1.06zm17.69 27.26c0,7.74 0.58,8.05 -2.71,14.63 -4.93,9.86 -2.27,7.68 -10.51,13.2 -0.64,0.42 -7.22,3.31 -8.72,3.31l-1.06 0c0,-7.28 0.38,-31.16 -0.34,-36.82 -0.24,-1.87 -0.13,-0.77 -0.52,-1.98 -0.13,-0.4 -0.36,-1.59 -0.37,-1.98 -0.08,-2.21 0.17,-6.82 0.17,-9.83 -3.86,0.32 -4.96,7.21 -4.96,9.56 0,1.81 0.44,2.89 0.93,4.38 2.16,6.53 1.64,5.69 -0.32,9.67 -0.63,1.28 -0.63,1.27 -1.32,1.52l0 -13.1 -2.48 0 0 40c1.9,0.04 2.43,0.49 3.69,1.27 0.85,0.52 0.92,0.52 1.73,0.75l1.33 0.44c0.07,0.03 0.15,0.09 0.22,0.13 5.1,2.65 13.62,2.53 19.33,0.34 2.07,-0.79 6.71,-3.95 8.75,-5.4 0.99,-0.71 1.65,-1.5 2.56,-2.4 3.25,-3.21 1.65,-3.53 4.51,-5.04l0 -2.48c2.64,-0.22 3.02,-3.96 4.84,-7.9 1.21,-2.61 0.36,-2.9 1.03,-5.34 0.36,-1.28 0.57,-1.07 0.81,-2.38 0.63,-3.48 0.49,-4.74 -0.45,-8.31 -1.82,-6.92 2.13,-0.41 -4.58,-13.82 -1.81,-3.62 -1.94,-4.85 -5.33,-7.06 -2.35,-1.54 -4.81,-3.68 -8.71,-3.68 0,5.08 0.86,-0.78 7.09,7.43 0.83,1.09 1.88,2.45 2.59,3.78 0.93,1.73 1.18,3.06 1.65,5.07 -1.63,-1.09 -3.57,-5.87 -6.28,-8.94 -0.94,-1.06 -7.78,-5.92 -9.29,-6.28 0.09,4.01 4.45,4.44 7.85,10.2 3.01,5.07 6.32,9.26 5.24,13.87l-0.71 0c0,-3.56 -5.71,-12.9 -8.05,-14.95l-9.53 -7.81c-1.8,-1.35 -1.83,-1.31 -4.71,-1.31 0.55,2.06 3.97,2.52 6.29,4.68 0.96,0.9 1.69,1.72 2.65,2.67 1.44,1.41 1.48,1.41 2.39,3.27 2.56,5.22 5.3,9.7 5.3,16.64z"/>
   <path class="fil0" d="M575.05 352.79c0,5.42 1.33,7.96 5.04,11.6 2.43,2.39 5.82,4.16 8.88,5.99 1.75,1.04 18.64,10.88 18.64,11.44 0,3.38 -3.18,10.26 -6.01,10.26 -5.51,0 -17.23,-16.36 -28.23,-5.22 -1.9,1.92 -5.16,5.52 -5.4,8.4 12.51,-8.37 18.23,7.13 27.88,6.3 3.8,-0.33 4.36,-1.58 6.35,-3.93l16.39 -23.95 -10.03 -5.91c-6.8,-4.06 -19.37,-9.78 -22.5,-17.14 -1.04,-2.44 -1.1,-3.58 -1.1,-7.04 2.8,1.48 4.47,3.12 8.61,5.19 8.57,4.29 11.48,2.91 19.08,-3.34 2.65,-2.18 5.11,-4.34 7,-7.16 -1.6,0.37 -2.68,1.29 -4.46,1.91 -13.99,4.86 -17.73,-6 -25.98,-7.92l-10.01 7.33c-1.42,1.43 -4.15,9.8 -4.15,13.19zm-7.43 42.47l0.1 0.11c0,-0.01 -0.07,-0.14 -0.1,-0.11z"/>
   <path class="fil0" d="M744.23 286.61c0,10.35 13.81,13.08 20.29,18.29 6.69,5.37 5.7,13.56 2.01,13.56 -5.16,0 -10.33,-5.63 -11.33,-9.91 -1.1,0.74 -10.26,7.27 -10.26,7.79 0,7.06 12,15.87 18.88,11.8 0.87,-0.51 1.43,-1.02 2.25,-1.64 0.92,-0.69 1.48,-1.11 2.43,-1.82 1.75,-1.31 3.13,-2.34 4.85,-3.64 5.69,-4.27 6.27,-6.34 6.27,-13.55 0,-4.6 -1.02,-7.01 -3.13,-9.61 -5.46,-6.77 -20.94,-10.66 -20.94,-18 0,-4.3 6.71,-5.81 14.16,5.31 1.94,-0.51 7.7,-5.88 10.62,-7.43 -1.32,-5.65 -8.72,-12.03 -16.63,-12.03 -0.82,0 -4.92,3.33 -5.87,4.04l-5.92 4.35c-3.9,2.93 -7.68,5.82 -7.68,12.49z"/>
   <path class="fil0" d="M420.39 297.58l-0.54 -8.72c0.07,-1.11 0.16,-2.02 0.17,-3.32 0.02,-3.62 1.58,-8.22 2.84,-10.61 1.44,0.96 6.04,7.94 7.49,9.86 0.98,1.3 1.65,2.12 2.42,3.59l-12.38 9.2zm-12.04 0.35c0,10.99 3.54,22.3 11.89,27.76 2.74,1.8 6.22,3.39 10.41,3.39 0.75,0 14.12,-10.22 14.86,-11.33l-6.37 0.36c-6.94,0 -12.13,-4.11 -15.29,-9.13 -1.32,-2.09 -1.42,-3.69 -2.4,-5.74 1.99,-1.33 3.78,-2.93 5.81,-4.45 2.17,-1.62 3.86,-2.99 6.02,-4.6l11.88 -9c-0.45,-1.67 -6,-8.74 -7.08,-10.26l-7.43 -10.26c-15.35,3.57 -22.3,17.64 -22.3,33.26z"/>
   <path class="fil0" d="M499.31 297.58c0,-1.65 -0.23,-1.48 -0.33,-2.85 -0.51,-6.72 -0.24,-14.05 2.81,-19.8 1.04,0.7 9.07,11.87 9.91,13.45 -1.25,0.66 -2.01,1.29 -3.1,2.2 -1.04,0.86 -1.92,1.48 -3.02,2.3 -2.19,1.65 -4.05,3.22 -6.27,4.7zm-12.03 0.35c0,13.4 5.2,27.93 19.31,30.95 3.68,0.79 2.9,0.53 6.58,-2.23 1.71,-1.28 10.59,-7.88 11.27,-8.9l-6.37 0.36c-6.17,0 -10.36,-2.78 -13.53,-6.64 -0.7,-0.85 -1.17,-1.55 -1.76,-2.49 -0.9,-1.42 -1.99,-3.96 -2.41,-5.74 0.97,-0.64 1.86,-1.42 2.79,-2.17l9.05 -6.87c1.14,-0.86 1.87,-1.5 2.98,-2.33 1.1,-0.83 1.9,-1.43 2.99,-2.32 1.46,-1.2 5.03,-3.51 5.91,-4.71 -4.47,-6.68 -10.25,-13.81 -14.51,-20.17 -15.51,3.61 -22.3,17.59 -22.3,33.26z"/>
   <path class="fil0" d="M573.99 274.58c1.86,0.49 3.09,2.63 3.91,4.23 1.25,2.44 1.05,3.86 1.05,7.44 -0.01,5.17 -0.33,30.46 0.24,33.38 1.04,5.3 5.94,9.45 7.54,9.45 0.72,0 6.63,-4.61 8.14,-5.67 0.94,-0.65 1.89,-1.49 2.83,-2.12 -0.46,-0.63 -4.95,-3.73 -4.95,-8.14l0 -31.14c0,-1.14 1.81,-2.07 3.03,-2.99 1.25,-0.93 2.51,-1.88 3.69,-2.68 3.3,1.75 3.1,2.55 4.25,4.96 1.42,-0.38 9.04,-6.49 10.97,-7.79 -0.47,-1.78 -2.29,-3.36 -3.68,-4.45 -5.93,-4.66 -5.85,-3.17 -12.04,1.47 -2.26,1.69 -4.31,3.24 -6.58,4.75 -0.5,-1.05 -0.48,-1.83 -1.16,-3.08 -0.96,-1.75 -5.04,-6.78 -7.19,-5.66 -0.73,0.37 -1.73,1.26 -2.47,1.82 -1.36,1.02 -7.18,4.73 -7.58,6.22z"/>
   <path class="fil0" d="M447.64 274.58c1.87,0.5 3.08,2.63 3.9,4.23 1.37,2.64 1.05,3.62 1.05,7.44 0,5.18 -0.32,30.45 0.25,33.38 0.99,5.07 5.89,9.45 7.54,9.45 0.86,0 9.2,-6.6 10.97,-7.79 -0.47,-0.63 -4.95,-3.73 -4.95,-8.14l0 -31.14c0,-1.43 5.72,-5 6.72,-5.67 3.29,1.75 3.09,2.55 4.25,4.96 1.33,-0.36 4.17,-2.78 5.46,-3.74 1.94,-1.46 3.58,-2.75 5.51,-4.05 -0.88,-3.29 -7.65,-7.43 -9.2,-7.43 -0.77,0 -11.27,7.98 -13.1,9.2 -0.5,-1.05 -0.5,-1.82 -1.17,-3.07 -0.93,-1.75 -5.03,-6.79 -7.19,-5.67l-8.95 6.65c-0.66,0.51 -0.83,0.42 -1.09,1.39z"/>
   <path class="fil0" d="M268.9 222.19l-10.61 0c-2.14,0 -3,-0.49 -4.65,-0.66 -0.82,-0.08 -1.55,-0.01 -2.38,-0.1 -1.03,-0.11 -1.09,-0.29 -2.53,-0.32 -2,-0.05 -4.94,1.08 -9.56,1.08l-30.79 0 0 3.19 63 0 0 62.64c0,1.06 -0.79,1.22 -1.46,1.73 -2.54,1.95 -2.9,4.46 -4.91,5 0,-2.96 -0.42,-51.86 0.3,-54.21 1.18,-3.88 0.76,-3.47 0.76,-8.44l-17.69 0c0.58,2.17 2.16,2.55 4.95,2.51 2.27,-0.04 2.69,-0.38 7.08,-0.38l2.12 0c0,9.24 0.36,17.29 0.36,26.54l0 22.65c0,3.51 0,9.37 -1.02,12.08 -0.58,1.54 -0.38,2.27 -0.39,4.22 0,2.67 -2.81,11.34 -3.77,14.27 -1.43,4.39 -4.76,17.37 -6.52,20.39l-6.77 11.27c-4.29,6.55 -15.67,18.85 -21.26,24.05l-7.64 5.8c-2.32,1.68 -2.54,0.04 -2.54,3.84 2.98,-0.07 3.67,-0.99 5.22,-2.57 1.71,-1.75 2.72,-1.85 4.55,-3.23l8.37 -7.56c1.23,-1.23 2.85,-2.65 3.87,-3.92 1.71,-2.17 0.73,-1.77 3.56,-4.58 1.56,-1.54 2.38,-2.23 3.67,-4.12 3.64,-5.33 6.32,-7.87 9.7,-14.37 3.64,-6.99 5.66,-16.16 8.18,-23.67 0.64,-1.9 1.16,-3.81 1.86,-5.93 0.58,-1.78 1.01,-2.99 1.13,-4.86 0.13,-2.04 -0.2,0.06 -0.2,-1.64 0,-2.03 4.08,-5.68 5.4,-6.99 1.79,-1.77 4.18,-5.45 6.63,-6.11l0 -67.95 -1.06 0 0 -1.06 -3.54 0c-0.21,0.8 -0.34,1.41 -1.42,1.41z"/>
   <path class="fil0" d="M127.69 297.93c0,1.01 0.76,1.1 2.13,2.12l6.01 6.73c1.61,2.11 2.46,1.99 3.26,5.23l3.68 13.31c1.91,5.92 5.75,11.37 8.88,16.96 4.3,7.71 6.12,11.39 11.73,18 1.06,1.26 2.71,3.91 3.74,4.76l4.4 4.09c1.02,0.81 1.32,1.01 2.27,1.98 1.56,1.59 2.88,2.51 4.42,4.07 0.63,0.64 4.52,4.46 4.9,2.42 0.56,-3.04 -13.42,-12.32 -18.01,-20.1 -1.3,-2.19 -6.81,-8.58 -8.87,-12.37 -4.42,-8.15 -8.43,-14.44 -11.12,-23.21 -1.28,-4.14 -4.01,-13.25 -3.96,-17.27 0.04,-3.04 -0.11,-1.65 -0.82,-3.43 -1.19,-3 0.4,-8.86 -0.55,-12.19 -2,-6.95 -0.04,-22.63 -0.75,-31.1 -0.16,-1.91 -1.19,-2.13 -2.49,-2.82l-0.44 27.6c0.01,4.02 0.47,7.05 0.44,10.62 -0.05,4.52 0.99,7.18 1.06,10.27 -0.8,-0.54 -0.88,-0.89 -1.53,-1.67 -0.57,-0.69 -1.1,-1.14 -1.75,-1.78 -0.71,-0.7 -3.09,-3.08 -3.09,-3.63l0 -71.14 41.05 0c2.6,-0.02 3.69,0.36 6.01,0.36 5.42,0.01 9.21,0.94 9.21,-3.55 -10.94,0 -28.43,0.54 -38.63,-0.66 -4.7,-0.55 -8.84,1.88 -16.18,-0.09 -1.16,-0.31 -3.45,-0.66 -5,-0.66l0 77.15z"/>
   <path class="fil0" d="M616.46 273.87c1.62,2.42 5.37,3.1 5.32,11.67l0.03 33.95c0.44,3.68 4.47,8.83 7.75,9.59 1.39,-0.74 10.31,-7.23 10.97,-8.14 -1.61,-0.43 -3.55,-2.93 -4.2,-4.3 -1.12,-2.36 -1.11,-3.96 -1.11,-7.38 0.01,-4.84 0.33,-31.3 -0.19,-33.78 -0.95,-4.51 -4.13,-7.57 -7.6,-9.4 -1.36,0.91 -9.81,7.48 -10.97,7.79z"/>
   <path class="fil0" d="M117.07 382.88c0.09,-0.73 1.87,0.08 0.33,0.03 -0.13,0 -0.43,0.76 -0.33,-0.03zm0.71 -1.42l2.12 0 0 1.06c-2.54,0 -1.42,0.27 -2.12,-1.06zm2.47 -0.71c0,-0.96 1.27,0 0.32,0.02 -0.36,0.01 -0.32,0.79 -0.32,-0.02zm-8.14 -0.35l0 0.71 -1.06 0c0.56,-0.81 0.07,-0.42 1.06,-0.71zm9.15 -0.65l9.86 -9.72c0.57,-0.48 0.91,-0.87 1.44,-1.39l7.79 -8.85c0.9,-0.91 1.58,-1.37 1.8,-2.44 0.09,-0.42 0.05,-0.94 0.05,-1.37 -3.8,0 -2.34,1.05 -4.75,2.68 -2,1.34 -1.67,0.76 -3.54,3.19 -1.98,2.56 -4.61,3.98 -6.85,6.25 -4.01,4.05 -4.09,4.94 -8.51,7.76 -1.43,0.91 -2.3,2.05 -3.49,3.24 -1,0.99 -0.78,0.95 -2.59,0.95 1.53,-2.89 2.77,-3.66 5.4,-6.29l7.43 -7.08c0.65,-0.6 0.99,-0.71 1.52,-1.3 2.73,-3.04 3.18,-6.12 4.49,-7.55 1.93,-2.1 2.04,-2.03 2.04,-3.98 -2.08,0.18 -0.43,0.71 -3.19,0.71 1.08,-2.02 1.73,-1.91 3.29,-3.44 1.91,-1.89 2.02,-1.48 2.02,-5.05l-6.65 4.31 -18.89 20.4c-0.81,1.02 -1.5,2.22 -2.27,3.39 -2.89,4.32 -6.55,9.32 -8.34,14.32 -0.56,1.58 -0.8,2.49 -1.6,4.06 -0.66,1.28 -2.08,5.55 -0.47,5.55 1.52,0 12.14,-5.73 14.16,-6.73 5.3,-2.63 14.54,-8.7 18.84,-13.01l10.54 -10.7c0.74,-1.04 1.28,-2.12 2.2,-3.11 1,-1.09 2.05,-1.52 2.75,-2.56 -0.97,-1.32 -1.22,-1.52 -2.13,-1.76l-7.52 8.05c-3.47,3.51 -7.45,6.59 -11.52,9.36 -1,0.68 -2.29,1.5 -2.9,2.41l-0.41 -0.3zm13.15 -27.31c-1.54,0.82 -0.87,-0.27 -1.06,1.41 1.28,-0.34 0.95,-0.03 1.06,-1.41zm-13.09 11.32c0.37,-0.37 1.34,0.57 0.39,0.19 -0.01,0 -0.99,0.41 -0.39,-0.19zm2.12 -1.77c0.09,-0.72 1.87,0.09 0.33,0.04 -0.13,-0.01 -0.43,0.76 -0.33,-0.04zm1.06 -0.7c0.18,-2.08 1.33,-3.46 3.19,-3.9 -0.49,2.08 -1.18,3.36 -3.19,3.9zm5.31 -6.37l0 2.12 -1.77 0c0.31,-1.16 0.89,-1.53 1.77,-2.12z"/>
   <path class="fil0" d="M649.38 370.84c0,-4.52 0.05,-7.76 2.12,-11.68 8.95,0.75 7.79,21.64 7.79,29.73 -1.89,-0.9 -2.71,-0.93 -4.34,-2.38 -4.09,-3.65 -5.57,-9.58 -5.57,-15.67zm-8.14 4.25c0,19.25 13.54,23.69 16.39,21.73 2.99,-2.04 6.36,-5.04 10.15,-7.57 0,-9.1 2.69,-30.93 -8.99,-36.32 -1.43,-0.66 -1.77,-0.9 -3.26,-0.39 -4.8,1.62 -8.02,4.06 -10.48,7.96 -2.17,3.44 -3.81,9.1 -3.81,14.59z"/>
   <path class="fil0" d="M275.91 382.6c1.14,0.21 0.85,-0.08 1.13,0.98l-1.13 -0.98zm6.8 -1.14l0.71 0 0 1.06 -0.71 0 0 -1.06zm-7.79 0l1.06 0 0 0.71 -1.06 0 0 -0.71zm6.73 -0.71c0,-0.94 1.15,-0.05 0.41,0.02 -0.01,0 -0.09,0 -0.1,0 -0.35,0.01 -0.31,0.79 -0.31,-0.02zm-19.12 -23.71c0.62,1.27 0.43,2.35 1.35,3.61l15.56 15.94c1.16,1.13 1.68,1.41 1.85,3.46 -1.38,-0.37 -5.47,-3.9 -6.45,-4.88 -1.28,-1.28 -1.96,-1.25 -3.2,-2.46l-8.7 -8.64c-1.29,-1.03 -1.8,-1.51 -2.97,-2.69 -1.37,-1.38 -1.42,-2.22 -3.81,-2.22 0.38,1.61 2.69,4.8 3.68,6.23 2.19,3.18 4.64,4.45 5.93,6.82 0.58,1.07 0.04,0.61 0.92,1.55l5.45 4.47c0.41,0.37 2.13,2.44 2.43,2.88 -2.49,-0.06 -3.31,-2.11 -5.61,-3.95l-10.57 -9.25c-2.96,-2.45 -1.71,-4.15 -5.77,-4.15 0,4.51 0.58,2.18 3.54,6.73 1.74,2.68 3.84,4.89 6.58,6.52 3.35,1.99 3.49,4.72 15.48,11.42l5.47 3.37c1.21,0.74 1.99,0.68 3.16,1.45 1.41,0.92 1.35,0.86 3.15,1.45 1.19,0.38 2.4,0.81 3.68,0.92 0.15,1.76 0.23,1.11 1.71,1.83 1.17,0.56 0.94,0.65 2.89,0.65 -0.35,-0.74 -0.88,-2.74 -1.18,-3.77 -0.51,-1.7 -0.79,-2.4 -1.4,-3.92 -2.06,-5.13 -4.05,-9.21 -7.27,-13.61 -6.45,-8.77 -6.31,-7.78 -15.01,-16.49 -0.85,-0.84 -1.58,-1.71 -2.53,-2.42 -1.16,-0.88 -2.13,-1.18 -3.27,-2.04 -1.85,-1.41 -2.56,-4.39 -6.15,-4.47 0.1,4.34 2.4,2.11 4.5,7.18 0.02,0.06 0.05,0.17 0.1,0.25l-0.29 0.41c-0.06,-0.05 -1.19,-1.06 -1.38,-1.22 -0.83,-0.7 -0.67,-0.68 -1.87,-0.96z"/>
   <path class="fil0" d="M111.41 344.3c0,-0.6 1.03,-0.5 0.44,0 0,0 -0.03,0.01 -0.03,0.01 0,0 -0.09,0.01 -0.1,0.01 -0.35,0.01 -0.31,0.78 -0.31,-0.02zm5.31 -1.42l1.06 0 0 0.71c-1.04,-0.25 -0.51,0.05 -1.06,-0.71zm-16.29 -24.06c0,-0.97 1.27,0 0.32,0.02 -0.36,0 -0.32,0.78 -0.32,-0.02zm8.5 -5.67c0.01,-0.02 1.29,-1 0.7,-0.09 0,0.01 -1.11,0.99 -0.7,0.09zm-9.91 -9.2l0 1.06 -1.06 0c0,6.69 -4.24,1.42 2.12,13.45 -0.95,0.08 -0.96,0.17 -1.77,0.36 1.54,6.62 -0.32,4.48 1.89,8.72 0.76,1.45 0.54,1.27 1.05,2.85 0.87,2.67 5.39,7.11 6.02,8.84 2.42,6.67 -2.02,3.04 7.02,15.28 2.38,3.22 1.68,3.59 4.9,3.59 0,-3.97 -1.57,-3.76 -3.26,-6.29 -0.77,-1.16 -3.36,-5.25 -3.46,-6.45 2.75,1.46 6.68,5.28 7.43,8.49l2.48 0 0 -1.06 1.06 0 0 -1.41c-1.99,-0.53 -4.32,-5.56 -5.31,-7.44l1.77 0c-0.05,-2.44 -0.65,-5.07 -3.18,-5.66 0,-5.08 1.79,0.18 3.45,-7.51 0.71,-3.3 0.08,-6.4 0.08,-10.18 -4.17,0 -3.68,3.45 -7.07,4.24l0 3.54 1.21 0.94c0.79,1.09 0.65,0.09 0.2,1.19l2.13 0 0 1.06 -1.07 0 0 1.06c-2.53,-1.7 -2.24,-3.65 -4.63,-4.93 -1.51,-0.81 -1.29,0.24 -1.74,-1.44l2.13 0c0,-8.75 -1.07,-4.04 -1.07,-10.97l0.71 0c0,3.89 1.06,1.26 1.06,5.31l2.48 0c0.29,-1.07 0,-0.78 1.06,-1.07l0 -5.66c-1.8,-0.95 -1.11,-0.45 -2.14,-2.1l-4.15 -4.7c-1,-0.99 -1.35,-1.35 -1.49,-3.11l-2.48 0c0,3.1 -0.07,6.86 0.91,9.35 0.89,2.23 0.51,5.84 0.51,8.7l1.06 0c0.18,2.24 2.36,2.15 0,7.08l1.16 1.32c1.61,2.38 3.76,6.83 6.28,10.35 0.67,0.95 0.74,0.59 1.05,1.78 -0.72,-0.38 -1.84,-0.7 -2.42,-1.11l-3.85 -3.59c-0.86,-0.84 -1.29,-1.05 -2.22,-1.67 0.55,-1.06 0.95,-1.18 1.06,-2.48 -1.52,-0.13 -0.75,-0.01 -1.65,-0.82 -2.17,-1.93 -2.46,-2.14 -3.46,-4.69 -0.67,-1.69 -2.28,-6.4 -2.32,-8.29 1.55,0.41 1.27,1.35 4.24,1.41 0,-4.68 -1.58,-3.24 -3.55,-6 -2.34,-3.27 -3.07,-6.98 -0.09,-10.38 3.02,-3.43 3.64,-0.42 3.64,-5.56l-2.47 0c-0.41,1.76 -2.49,3.84 -4.25,4.25 1.71,-3.58 -0.29,-1.44 4.04,-6.58l2.77 -2.54c2.19,-2.2 1.78,-2.56 4.16,-2.56 0,5.3 0.25,2.34 1.67,4.34 1.37,1.93 -1.01,2.38 2.93,2.38 0,-6.09 -1.07,-2.56 -2.12,-7.08l-2.13 -0.7c1.57,-0.13 2.35,-0.89 3.55,-1.41 3.01,-1.32 2.83,-0.54 2.83,-4.26 -4.07,0 -10.49,3.59 -13.53,6.3 -0.93,0.83 -0.41,0.79 -1.69,1.14 0,-2.68 -0.64,-2.22 -2.48,-3.19l0 4.6 2.12 -1.08c0,3.53 -2.32,2.35 -3.07,6.5 -0.32,1.82 0.45,1.58 -1.17,2.01 0.04,1.85 0.57,1.88 0.7,3.54 0.56,-0.58 0.64,-0.67 1.42,-1.06zm6.72 17.7c0.38,0.37 1.35,-0.56 0.4,-0.19 -0.01,0.01 -0.99,-0.41 -0.4,0.19z"/>
   <path class="fil0" d="M706.01 375.09c-0.41,-5.38 -0.76,-5.65 0.19,-11.13 0.44,-2.53 1.16,-3.01 1.57,-4.8 0.26,0.3 0.5,0.58 0.81,0.97l2.68 3.69c0.94,1.28 2.84,3.39 3.24,4.9 -2.92,1.95 -5.53,4.39 -8.49,6.37zm17.69 14.16c-3.22,0 -6.91,1.61 -12.45,-2.77 -2.78,-2.19 -3.55,-5.43 -4.54,-7.5 1.68,-0.88 2.56,-1.83 4.1,-2.98l8.45 -6.42c0.87,-0.66 1.19,-0.99 1.96,-1.57 0.71,-0.54 1.62,-1.08 2.13,-1.77l-10.27 -14.15c-5.92,1.37 -10.76,5.48 -12.95,10.76 -2.47,5.96 -3.3,13.05 -1.64,20.11 2.85,12.12 12.73,15.04 15.07,14.2l10.14 -7.91z"/>
   <path class="fil0" d="M621.06 344.65c1.77,2.42 3.54,1.29 3.54,8.14l-1.77 0c-0.48,2.05 -1.29,2.91 -1.77,4.96l3.54 0 0 31.5c0,4.42 3.22,6.32 5.31,8.14 1.41,-0.75 2.4,-1.63 3.74,-2.63 1.13,-0.85 2.77,-2.34 4.05,-2.68 -0.66,-2.46 -3.54,-2.16 -3.54,-7.43l0 -26.9 2.48 0c0.4,-1.75 1.63,-3.3 1.76,-4.96l-4.24 0c0,-4.15 0.57,-7.63 -1.71,-10.68 -0.33,-0.45 -1.12,-1.22 -1.58,-1.6l-2.02 -1.52c-2.7,1.8 -5.09,3.86 -7.79,5.66z"/>
   <path class="fil0" d="M109.28 234.94c0,-0.6 1.04,-0.5 0.45,0 -0.29,0.24 -0.45,0.58 -0.45,0zm1.06 -1.07c0,-2.07 0.07,-2.08 1.77,-2.47 0,2.08 -0.06,2.07 -1.77,2.47zm2.13 -3.18c0,-2.25 0.47,-1.96 1.77,-2.83l0 2.12c-1.27,0.34 -0.47,0.32 -1.77,0.71zm15.57 -16.99c0,-0.96 1.27,0 0.32,0.02 -0.36,0.01 -0.32,0.78 -0.32,-0.02zm1.06 -1.42l1.77 0 0 1.07 -1.77 0 0 -1.07zm2.13 -1.06l2.12 0 0 0.71 -2.12 0 0 -0.71zm2.12 -1.06l3.19 0 0 0.71 -3.19 0 0 -0.71zm15.57 -5.66l0 -1.06 2.13 0c-0.39,1.45 -0.27,1.06 -2.13,1.06zm2.83 -1.42c-0.35,0.15 -1.46,-0.01 -0.22,-0.49 0.94,-0.37 0.51,0.37 0.22,0.49zm-60.52 44.95c0,3.17 0.37,0.92 1.06,2.83 1.9,-0.44 2.99,-1.16 4.81,-1.92 3.37,-1.41 11.36,-5.05 13.51,-7.02 1.38,-1.26 2.35,-1.64 3.71,-3 3.81,-3.81 8.67,-5.96 9.12,-11.42 -1.81,0.04 -2.36,1.1 -5.04,3.46 -1.6,1.4 -2.59,2.85 -4.31,4.18 -1.83,1.41 -2.7,2.66 -4.5,4 -1.6,1.2 -3.77,2.36 -5.97,2.87 1.33,-2.51 3.95,-3.56 4.6,-6.37 1.86,0.04 1.35,0.37 2.83,0.71 0.3,-0.22 6.17,-6.42 6.36,-6.73 3.95,-6.48 4.97,-3.41 4.97,-8.49 -0.86,0.23 -3.11,2.34 -3.98,3.1 -1.58,1.39 -1.84,2.23 -3.81,3.27 0.05,-2.12 1.45,-3.07 3.81,-5.75 2.12,-2.41 3.67,-3.36 5.14,-4.77 1.44,-1.39 1.66,-2.37 4.15,-2.57 -1.55,2.93 -1.95,1.37 -2.13,3.54 1.28,-0.03 2.56,-0.22 3.45,-0.81 0.86,-0.57 0.73,-0.88 2.69,-1.91 1.2,-0.63 1.87,-0.89 2.91,-1.68 1.31,-1 1.15,-1.27 3.34,-1.27l0 -3.18 8 -3.33c1.7,-1.43 -0.11,-1.27 2.62,-1.27 -0.7,2.61 -7.03,6.46 -9.28,8.76 -1.41,1.44 -0.82,2.14 -3.82,2.21l0 2.48c3.13,-0.07 3.75,-0.93 6.94,-3.33l5.8 -4.81c2.02,-1.51 4.07,-3.05 6.04,-4.59 1.52,-1.19 3.18,-4.31 5.64,-4.97l0 -2.48c-4.69,-2.48 -7.26,0.1 -13.68,3.31 -4.94,2.47 -9.49,5.05 -14.53,7.05 -9.86,3.92 -10.33,6.84 -16.29,12.74 -6.21,6.13 -4.35,5.15 -9.29,12.65 -2.02,3.06 -3.84,5.16 -6.83,7.68l-7.15 5.6c-0.61,0.54 -0.89,0.19 -0.89,1.23z"/>
   <path class="fil0" d="M682.65 359.52c-0.22,-2.65 -3.07,-5.77 -5.31,-6.37 -1.12,0.75 -7.05,4.58 -7.44,6.01 3.12,0.84 3.56,5.25 3.55,8.14l0.07 23.29c0.35,2.11 1.73,4.13 3.41,5.44 0.38,0.3 0.42,0.3 0.83,0.58l0.99 0.78 7.79 -5.66c-0.67,-0.91 -1.17,-0.85 -2.33,-2.63 -0.65,-0.99 -1.21,-2.27 -1.21,-3.75l0 -20.88c0,-1.2 3.91,-3.55 4.95,-4.24 0.07,0.05 0.17,0.05 0.2,0.15 0.1,0.38 2.08,0.92 2.28,3.38 1.44,-0.33 2.88,-1.71 4.1,-2.62 1.12,-0.85 3.04,-2.07 3.69,-3.04 -0.67,-2.49 -4.22,-4.17 -6.37,-5.31l-9.2 6.73z"/>
   <path class="fil0" d="M199.89 233.52c0.31,1.15 0.62,1.46 1.77,1.77 0,2.32 -0.29,2.07 -1.06,3.54l3.18 0c-1.13,1.68 -2.93,2.19 -4.69,3.45 -1.15,0.81 -0.17,0.67 -1.68,0.8 -0.75,-3.23 -3.69,-1.83 -5.31,-4.25l3.19 0c0,-2.6 -0.92,-5.19 4.6,-5.31zm-3.54 3.18l0 2.13c2.1,-0.05 1.81,-0.66 3.54,-1.06l0 -2.48 -1.06 0 0 -1.06c-1.77,0.04 -2.48,0.69 -2.48,2.47zm-5.66 -0.7c0,1.09 0.47,1.36 1.06,2.47 -9.75,-2.27 -1.17,-2.12 -15.22,-2.12l0 -0.71c5.53,-0.55 3.62,-0.59 8.91,-0.06 0.84,0.09 1.49,0 2.3,0.18 1.48,0.35 0.02,0.54 2.24,0.59l0 -3.18 -16.64 0c-2.81,0 -4.07,0.7 -6.72,0.7 -0.78,0 -1.84,-0.7 -7.79,-0.7 0.94,3.5 6.63,4.6 8.89,5.26 8.6,2.5 5.83,1.46 14.47,1.46 3.75,0 7.52,1.73 9.85,3.24 1.83,1.19 5.32,5.38 5.37,7.73 1.71,-1.14 2.1,-2.09 3.33,-3.75 7.45,-10.04 17.83,-6.33 23.83,-7.31 1.61,-0.27 3.47,-0.94 5.33,-1.4 2.89,-0.7 3.01,-0.53 4.78,-1.94 2.12,-1.67 2.33,-0.54 3.79,-3.29 -1.04,0 -2.49,-0.12 -3.46,0.08 -2.62,0.55 0.68,0.98 -6.1,0.98 -2.24,0 -2.62,-1.06 -4.25,-1.06 -2.85,0 -15.75,-0.52 -17.51,0.53 -1.04,0.63 -0.86,0.52 -0.89,1.94 1.03,0.25 0.51,-0.04 1.06,0.71 5.15,-1.2 6.82,-0.71 13.1,-0.71l0 0.71c-2.59,0 -6.67,-0.2 -8.59,0.26 -2.89,0.7 -3.85,1.86 -7.34,1.86 0.37,-1.37 1.43,-2.21 0.71,-5.3 -1.76,0 -4.95,-0.42 -6.47,-0.61 -2.32,-0.3 -4.62,-0.46 -6.98,-0.46l-0.14 1.64c-0.25,0.77 -0.92,0.91 -0.92,2.26z"/>
   <path class="fil0" d="M284.83 229.98c1.85,0.98 2.12,0.25 2.12,2.83 -1.09,-0.25 -1.02,-0.45 -2.12,-0.71l0 -2.12zm-2.12 -3.19c2.62,0.7 2.12,1.94 2.12,2.84 -1.1,-0.26 -1.02,-0.46 -2.12,-0.71l0 -2.13zm-1.06 -0.7c0,-0.96 1.26,0 0.31,0.02 -0.35,0 -0.31,0.78 -0.31,-0.02zm-18.76 -14.87c2.15,0.05 4.45,1.02 4.95,3.19 -2.52,-1.21 -3.45,-0.36 -4.95,-3.19zm-3.54 -1.06l3.18 0 0 0.71 -3.18 0 0 -0.71zm-14.16 -6.72l1.77 0 0 1.06 -1.77 0 0 -1.06zm-1.06 -0.71c0,-0.96 1.27,0 0.32,0.02 -0.36,0 -0.32,0.78 -0.32,-0.02zm-7.08 -1.42c2.64,0.62 2.31,2.32 5.64,4.27 2.74,1.6 2.15,2.16 5.55,4.37 4.97,3.23 7.22,7.53 12.17,7.64 -0.5,-2.13 -1.04,-1.55 -2.92,-3.44 -1.21,-1.21 -2.16,-2.16 -3.36,-3.37 -2.99,-3.04 -4.83,-2.53 -6.82,-6.28 2.28,0.19 8.6,4.13 10.62,4.6 -0.44,1.64 -0.55,0.31 -0.71,2.12 0.79,0.09 0.46,0.09 0.81,0.26l4.93 3.21c1.94,1.3 3.61,2.83 6.65,2.9l-1.06 -3.18c1.39,0.03 5.33,2.93 5.76,3.44l0.44 0.62c0.73,0.67 -0.4,0.4 1.23,0.54 0.29,-1.07 0,-0.78 1.06,-1.06 0.1,4.35 4.25,2.78 4.25,7.43l-2.12 0c0,4.83 0.29,2.43 3.33,6.58 0.97,1.33 3.07,3.18 4.81,3.33l0 -1.77c0.98,0.26 0.91,0.46 1.97,1.92 2.09,2.87 2.17,2.51 3.54,4.24 0.71,0.9 1.29,1.29 1.57,2.33 -1.42,-0.68 -2.7,-0.99 -4.1,-1.92l-6.93 -5.1c-2.7,-2.05 -1.7,-1.82 -4.19,-1.82 0.61,2.64 2.5,4.71 4.34,6.27 1.08,0.91 1.9,1.4 3.29,2.02l5.26 2.88c2.17,1.43 6.67,3.77 9.27,4.53 3.22,0.95 0.6,1.92 3.67,1.99 0.29,-1.06 0,-0.78 1.07,-1.06l0 -2.12c-4.67,-3.13 -9.18,-8.33 -12.59,-12.9l-4.61 -6.36c-3.48,-5.25 -4.73,-5.07 -7.14,-7.73 -4.9,-5.39 -1.65,-0.44 -6,-4.96 -1.84,-1.91 -14.75,-8.48 -16.5,-9.35 -0.91,-0.45 -1.57,-0.75 -2.37,-1.17 -1.84,-0.95 -2.36,-1.72 -6.95,-4.02 -6.2,-3.1 -6.99,-4.48 -12.86,-4.48l0 4.6z"/>
   <path class="fil0" d="M296.16 318.82c0,-0.97 1.26,0 0.31,0.02 -0.35,0 -0.31,0.78 -0.31,-0.02zm1.06 -1.07c0,-0.96 1.26,0 0.32,0.02 -0.36,0.01 -0.32,0.79 -0.32,-0.02zm0 -15.57c1.7,0.4 1.77,0.41 1.77,2.48 0.85,-0.63 0.81,-1.18 1.11,-2.49 0.32,-1.43 0.21,-1.23 -0.32,-2.17l-1.21 -2.71c-1.09,-1.82 -1.35,-0.75 -1.35,-3.25l2.12 0c-1.1,-2.09 -1.06,-1.04 -1.06,-4.25 -1.19,1.37 -0.61,2.23 -1.42,3.9 -1.03,-0.28 -1.87,-1.08 -2.47,-1.78 -1.01,-1.2 -0.83,-1.04 -2.26,-1.98 -7.44,-4.88 -4.22,-2.63 -4.11,-7.21 -1.39,-0.51 -1,-1.84 -3.33,-4.82 -1.53,-1.94 -3.04,-2 -3.04,-5.09l-2.48 0c0,4.14 0.18,2.56 1.61,5.47 0.72,1.47 0.51,2.81 0.51,4.79 1.04,-0.24 1.64,-0.62 2.48,-1.06 0.53,2 1.6,1.25 3.18,4.24 -4.01,0 -0.96,-1.06 -5.66,-1.06 0,1.07 0.07,1.95 0.27,2.57 0.41,1.25 0.46,1.17 1.47,1.71 1.42,0.75 2.98,0.81 3.92,2.09 -3.57,0 -0.81,-0.37 -3.66,2 -1.13,0.94 -0.94,-0.86 -0.94,5.08 0,1.2 0.63,1.06 1.77,1.06 1.46,0 0.76,-1.05 1.89,-3.42 0.73,-1.54 1.3,-2.18 1.3,-4.36 2.27,0.19 8.49,6.5 9.2,9.55 -2.27,-1.2 -6.05,-3.8 -5.06,0.04 0.6,2.31 1.27,0.87 3.88,3.63 1.3,1.37 -0.45,0.72 1.53,0.93 0,1.66 0.12,3.74 0.03,5.34 -0.15,2.58 -0.03,0.21 -1.79,3.87 -2.2,4.55 -3.9,2.7 -3.9,7.43 2.37,-0.2 1.33,-1.45 4.6,-3.19 0,1.83 -1.44,7.27 -2.23,8.74 -0.83,1.55 -3.82,5.02 -5.55,5.42 0.25,1.08 0.55,1.36 1.06,2.12 -0.8,1.2 -2.8,3.14 -4.04,4.1 -1.73,1.34 -2.86,2.62 -4.37,4.13 -4.25,4.26 -5.52,7.78 -8.23,8.41l0 2.48 1.07 0 0 1.06c1.99,-0.05 0.95,0.3 1.94,-0.88 1.72,-2.03 2.86,-2.76 4.05,-4.8 0.85,-1.46 4.25,-5.52 6.04,-6 -0.84,3.58 -4.61,9.54 -7.23,11.88 -1.43,1.28 -1.27,1.01 -1.27,3.34 3.29,0 3.55,-0.48 4.72,-2.71 1.67,-3.15 3.58,-2.26 7.19,-11.23 0.6,-1.49 0.3,-1.66 0.53,-3.36 0.39,-2.86 5.84,-11.16 7.82,-14.48 0.58,-0.98 0.77,-1.39 0.92,-2.62 0.39,-3.26 -0.25,-0.9 1.12,-2.76 -2.65,-5.53 1.06,-9.08 1.06,-11.33l-1.03 -5.34c-0.95,-2.6 -2.15,0.29 -2.15,-3.51z"/>
   <path class="fil0" d="M278.46 307.49c-0.16,-0.87 0.65,-0.14 0.39,0.06 -0.54,0.43 -0.34,0.21 -0.39,-0.06zm-65.48 84.94c2.15,-1.13 14.06,-9.34 16.38,-11.58 0.86,-0.83 1.44,-1.46 2.29,-2.31 6.21,-6.24 6.35,-4.05 14.36,-13.96l6.46 -7.69c1.73,-1.42 2.74,-3.08 4.12,-5.09l7.62 -11.14c3.28,-4.53 7.77,-14.08 8.69,-19.62 0.81,-4.88 1.61,-6.48 2.42,-11.73 0.24,-1.55 0.88,-2.33 1.02,-3.94l0.7 0c0,6.14 0.85,2.71 1.07,5.31 -1.89,0.5 -2.13,1.89 -2.13,4.24 1.69,-0.39 3.82,-2.7 4.88,-3.97 1.03,-1.24 0.58,-1.5 0.88,-3.37 0.25,-1.58 0.92,-1.69 0.97,-3.63 -3.37,0 -3.08,-0.3 -5.67,1.06l2.48 -9.91c-1.27,0.86 -3.94,3.93 -4.82,5.09 -1.18,1.57 -2.11,5.25 -2.84,7.42 -0.49,1.45 -1.73,12.2 -3.78,16.75 -1.12,2.47 -2.02,4.83 -3.06,7.21 -0.52,1.19 -0.94,2.24 -1.46,3.49 -0.49,1.15 -1.35,2.18 -2.09,3.22 -2.84,4.02 -5.75,7.9 -8.49,12.04 -2.61,3.93 -6.01,7.58 -6.66,8.55 -2.51,3.76 -4.01,4.77 -7.41,8.17 -3.4,3.4 -6.48,7.26 -10.35,10.18l-14.38 11.1c-1.67,1.24 -1.2,1.5 -1.2,4.11z"/>
   <path class="fil0" d="M183.25 391.37c0,-3.85 -0.8,-3.95 -3.89,-6.37 -5.01,-3.91 -16.09,-14.7 -20.26,-19.38l-5.73 -7.72c-4.03,-5.64 -3.07,-2.78 -6.62,-11.43 -0.81,-1.97 -1.76,-4 -2.68,-6.16 -1.62,-3.78 -9.83,-21.68 -10.66,-25.1 -0.52,-2.16 -0.87,-5.39 -1.88,-6.96 -0.74,-1.13 -3.03,-4.76 -3.84,-5.36 0,7.22 0.89,8.77 2.68,15.02l4.17 13.87c2.58,7.77 7.62,16.96 12.46,23.64 1.33,1.84 2.4,3.46 3.69,5.16 0.32,0.41 0.6,0.73 0.91,1.21 2.58,4 1.3,2.28 5.2,6.13 1.23,1.21 1.07,1.2 1.96,2.64 1.65,2.7 8.85,9.71 11.32,11.33 3.78,2.48 5.81,5.03 7.36,6.09 2.78,1.88 3,3.33 5.81,3.39z"/>
   <path class="fil0" d="M160.96 397.03l2.12 0 0 0.71 -2.12 0 0 -0.71zm-3.19 -1.06c0,-0.96 1.27,0 0.32,0.02 -0.36,0.01 -0.32,0.79 -0.32,-0.02zm-3.54 -13.45c2.06,3.9 2.21,0.62 8.76,7.17 2.78,2.78 6.18,7.11 8.94,7.34l0 1.77 -7.43 0c0.41,-1.12 -0.77,-0.5 1.06,-0.7l0 -2.48c-4.47,0 -0.7,-1.65 -7.58,-3.04 -3.25,-0.67 -4.97,-0.15 -8.35,-0.15 1.05,2.19 -0.33,2.4 4.59,5.33 1.03,0.61 1.88,1.23 2.98,1.97 3,1.98 2.69,0.68 2.69,3.67l-13.44 0c1.13,2.15 1.76,1.63 4.01,2.71 8.49,4.11 6.54,0.35 15.1,-1.64l0 -2.13 4.6 0c0.17,-2.08 4.25,-3.12 4.95,-3.18l0 1.06c-1.97,0.53 -12.4,7.13 -15.22,7.79l0 1.06c3.49,0 8.77,-0.85 11.46,-2.35 1.28,-0.71 1.21,-1.15 2.69,-1.91 3.63,-1.87 5.03,-2.48 7.75,-6.05 0.77,-1.01 1.43,-1.43 1.46,-3.14 -3.51,0.08 -3.18,2.8 -7.78,3.18l0 -3.18c-1.2,-0.32 -2.6,-1.71 -3.45,-2.57 -1.9,-1.93 -2.47,-1.41 -2.92,-3.09 1.28,-0.3 1.13,-0.2 1.77,-1.07 -1.37,-0.36 -9.36,-6.72 -14.16,-6.72 -1.28,0 -0.85,0.31 -2.48,0.35z"/>
   <path class="fil0" d="M199.53 414.38c0.83,-0.96 2.17,-4.65 2.35,-5.45 0.37,-1.68 0.16,-26.59 0.13,-31.01 -0.04,-5.49 0.83,-3.7 1.05,-6.73l0.37 -15.21c0,-4.6 0,-9.2 0,-13.8 0,-4.95 -0.36,-8.57 -0.36,-13.45 0,-4.61 0.01,-9.21 0,-13.81 0,-4.75 1.67,-9.91 -3.54,-9.91l0 109.37z"/>
   <path class="fil0" d="M193.16 215.47l3.19 0 0 1.06 -3.19 0 0 -1.06zm0 -5.31l3.19 0 0 0.71 -3.19 0 0 -0.71zm3.19 -17.7l2.12 0 0 0.71 -2.12 0 0 -0.71zm0 -3.54c-3.19,0 -2.67,-0.9 -4.6,-1.06l0 5.67 1.82 0.54c-0.01,0.01 -4.38,-0.56 -2.6,3.09l0.84 1.07c0.02,0.03 0.08,0.11 0.1,0.15 0.02,0.03 0.07,0.12 0.09,0.15l0.46 1.01c-1.65,0.14 -1.63,0.08 -1.77,1.42l-1.07 0c0.56,1.06 1.03,1.93 1.07,3.54l3.54 0c-0.08,0.05 -0.2,0.02 -0.23,0.12 -0.15,0.43 -1.02,0.1 -2.32,1.22 -1.44,1.25 -0.99,2.19 -0.99,4.32 1.09,0.26 1.02,0.45 2.12,0.71 -0.5,0.68 -1.9,1.52 -2.83,1.77 0.76,1.59 0.71,2.04 0.71,3.89l2.12 0 0 1.06 -2.12 0 0 4.6c4.19,0 4.32,-0.89 8.6,-3.42 0.96,-0.57 2.35,-1.26 3.01,-1.95 0.83,-0.85 1.26,-2.39 1.84,-3.47 -2.48,0.05 -4.87,1.55 -7.44,1.77 0.07,-0.06 0.17,-0.23 0.2,-0.17l0.79 -0.62c0.37,-0.26 0.68,-0.45 1.06,-0.7 3.5,-2.31 5.39,-2.76 5.39,-5.95 -6.03,1.41 -2.77,2.13 -7.44,2.13 0.4,-1.5 3.04,-2.7 4.84,-3.66 2.09,-1.12 3.66,-2.1 3.66,-5.19 -4.04,0.33 -5.44,3.18 -9.91,3.18 1.21,-1.66 0.83,0.32 1.06,-1.77 0.84,0 1.56,0.07 2.36,-0.11 2.44,-0.56 2.01,-2.79 5.43,-3.07l0 -3.54c-1.55,0.13 -5.86,3.18 -9.91,3.18 0.75,-1.02 6.42,-4.44 8.15,-5.64 1.18,-0.82 1.6,-1.39 1.76,-3.2 -1.37,0.72 -3.47,2.08 -5.31,2.12 0.75,-2.83 2.86,-2.32 3.8,-3.28 0.7,-0.71 0.44,-0.76 0.44,-2.03 -2.52,0.59 -3.12,2.12 -6.72,2.12z"/>
   <path class="fil0" d="M77.08 172.29c1.06,-0.28 0.77,0 1.06,-1.06l5.31 0 0 2.12 1.06 0 0 3.54c-1.07,0.29 -0.78,0 -1.06,1.06l-5.31 0 0 -2.12 -1.06 0 0 -3.54zm-7.08 5.01l0 -4.83 0 -0.53 0 -0.7c0.07,0.07 0.29,0.13 0.83,-0.59l1.22 -1.97c0.56,-0.73 0.6,-0.62 1.35,-1.13 3,-2.06 0.47,-2.29 4.23,-3.2 1.44,-0.35 2.66,-0.91 4.05,-0.91 2.74,0 6.49,2.31 7.94,3.74l1.12 1.36c3.95,6.52 0.56,9.97 -0.22,13.31 2.16,-0.51 0.45,-0.71 4.25,-0.71 -0.2,2.47 -1.73,3.96 -3.46,5.03 -0.97,0.6 -4.47,2.51 -5.39,2.75 0.41,-1.5 3.29,-4.93 4.25,-6.37 -3.64,0 -5.75,3.19 -8.14,3.19 -3.37,0 -5.48,-0.15 -8.66,-2.31 -1.53,-1.03 -0.73,-1.32 -1.6,-2.3 -1.53,-1.73 -1.75,0.85 -1.77,-3.83zm4.6 -4.3l0 4.24c0,0.88 3.37,4.25 4.25,4.25 3.91,0 3.75,0.31 3.89,-1.41l1.77 0c-0.75,2.8 -1.89,2.12 -6.73,2.12 -0.93,0 -1.57,-1.22 -2.92,-2.74 -3.45,-3.9 -2.1,-5.21 -0.97,-7.52 0.22,-0.44 0.64,-1.7 0.82,-2.02 0.66,-1.17 0.04,-0.82 2.01,-0.82 -0.47,0.98 -0.33,1.36 -1.12,2.43 -0.04,0.06 -0.11,0.13 -0.16,0.19 -0.66,0.86 -0.84,0.14 -0.84,1.28zm2.48 -4.6c0.8,-0.19 0.81,-0.28 1.77,-0.36l0 1.06 -1.77 0 0 -0.7zm12.03 3.54c0,5.21 0.51,2.99 -1.47,6.66 -0.5,0.92 -1.38,1.36 -2.78,1.48 0.8,-2.99 3.19,-2.83 3.19,-6.02 0,-1.57 0.2,0.39 -1.33,-1.85 -0.64,-0.93 -1.82,-4.08 -5.75,-4.17 1.89,-2.58 4.82,0.71 6.49,2.01 0.76,0.6 1.65,0.84 1.65,1.89z"/>
   <path class="fil0" d="M198.12 183.26c-2.24,0 -0.79,-0.18 -2.43,-0.76 -0.75,-0.27 -1.33,-0.3 -2.53,-0.3 -0.07,-3.21 -2.06,-2.27 -3.27,-6.33 -0.38,-1.28 0.85,-4.38 1.37,-5.13 0.69,-0.99 0.7,0.08 0.84,-1.64l1.77 0c-1.34,5.01 -5.02,4.13 -0.56,9.77 2.72,3.43 1.46,2.62 6.58,2.62 1.06,0 1.27,-1 2.74,-2.56 1.67,-1.77 1.33,-2.65 2.57,-3.1l0 -1.42c-1.49,-0.39 -2.09,-2.25 -2.13,-3.89 1.45,0.39 3.89,2.84 2.52,4.96 -2.35,3.64 -4.3,7.78 -7.47,7.78zm-4.96 -8.85c2.26,-0.24 0.72,-1.5 3.19,-1.77l0 3.9c-1.55,-0.36 -1.48,-0.92 -3.19,-1.06l0 -1.07zm4.25 -4.24c4.26,0 1.24,1.32 4.25,2.12l0 4.6c-1.72,0.4 -2.53,1.37 -4.25,1.77 -0.38,-0.73 -0.49,-0.84 -0.71,-1.77l3.19 0 0 -1.06 1.06 0 0 -2.48 -1.06 0 0 -1.06 -3.19 0c0.15,-1.81 0.27,-0.48 0.71,-2.12zm-1.41 -1.07l-1.77 0c0.87,-1.64 0.52,-0.97 3.53,-3.18 1.96,0.52 4.49,2.21 4.96,4.25 -0.97,-0.23 -1.49,-0.53 -2.13,-1.06 -1.94,-1.65 0.24,-1.42 -3.53,-1.42 -1.01,0 -1.06,0.41 -1.06,1.41zm-9.56 4.96c0,3 0.02,2.25 1.4,4.62 0.62,1.06 1.04,2.26 1.78,3.17 0.74,0.92 3.06,2.84 4.28,3.15 5.76,1.49 8.61,0.81 12.44,-3.07 0.54,-0.54 0.75,-0.72 1.3,-1.18 0.66,-0.55 1.1,-0.32 1.1,-1.38l0 -8.5c0,-1.57 0.4,0.36 -1.42,-1.76 -0.61,-0.71 -0.96,-1.24 -1.06,-2.48 -2.6,0 -0.92,0.05 -5.23,-2.56 -1.17,-0.72 -1.02,-0.2 -1.14,-1.69l-3.54 0c-1.15,2.18 -0.86,1.32 -2.82,2.49l-3.19 2.12c-1.66,0.97 -1.52,1.04 -2.29,3.02 -0.2,0.52 -1.61,4.04 -1.61,4.05z"/>
   <path class="fil0" d="M303.94 181.85c0,-0.6 1.04,-0.5 0.45,0 -0.29,0.24 -0.45,0.58 -0.45,0zm10.98 -3.9l-4.61 0 0 -5.31c1.31,-0.1 1.31,-0.11 1.42,-1.41l4.6 0c0.42,0.88 1.32,3.45 1.42,4.6 -2.26,0.6 -1.26,2.12 -2.83,2.12zm-5.67 -8.85c2.04,-3.85 6.39,-1.92 9.1,-0.24 2.34,1.45 0.65,2.82 2.94,3.43l0 6.72c-3.36,0.9 -1.72,3.19 -7.79,3.19 -1.68,0 -3.16,-0.69 -4.16,-1.51 -2.11,-1.74 -1.22,-2.26 -3.27,-2.74l0 -6.72 1.06 0 0 -2.13 1.77 0c-0.32,1.36 -4.77,5.7 0.41,9.5 0.98,0.73 1.46,0.73 2.63,1.26 1.73,0.78 1.32,1.63 2.98,1.63 1.04,0 1,-0.67 1.67,-1.16 0.26,-0.19 3.63,-1.67 3.63,-4.85 0,-4.21 -3.19,-5.58 -4.32,-6.3 -2.26,-1.45 0.03,-1.49 -3.46,-1.49 -0.25,0.91 -0.43,1.35 -3.19,1.41zm-6.72 3.19c0,6.08 1.06,6.12 1.06,8.85 -2.09,0.04 -3.02,0.47 -3.19,2.48 1.45,0.38 1.34,1.23 4.37,2.71 3.71,1.82 2.24,2.07 4.48,2.59 -0.45,-1.94 -0.58,-2.21 -1.85,-3.46 -0.94,-0.92 -2.03,-1.53 -2.4,-2.91 3.58,0.08 2.1,3.19 10.98,3.19 2.68,0 5.32,-4.95 8.49,-7.08 -2.71,-11.64 0.82,-8.27 -6.51,-13.31 -1.12,-0.77 -3.15,-1.91 -4.81,-1.91 -1.98,0 -10.62,2.56 -10.62,8.85z"/>
   <path class="fil0" d="M165.56 243.78c0,-0.96 1.26,0 0.31,0.02 -0.35,0.01 -0.31,0.79 -0.31,-0.02zm-12.39 -0.7l0 31.14c1.46,-1.07 5.22,-5.48 5.59,-7.15 0.26,-1.16 0.22,-1.48 0.63,-2.55 0.52,-1.36 0.52,-0.64 0.52,-2.67 0.01,-4.56 0.38,-4.52 3.45,-9.29 6.92,-10.72 7.48,-4.34 8.92,-10.55 -3.4,0 -2.26,1.07 -5.66,1.07l1.08 -2.12c-4.75,-0.03 -9.65,1.71 -14.53,2.12z"/>
   <path class="fil0" d="M236.34 395.97c-0.18,-1.01 0.86,0.14 0.28,0.06 -0.64,-0.08 -0.13,0.75 -0.28,-0.06zm-7.78 -8.14l-1.42 0 0 3.54c-3.86,0 -4.2,4.47 -7.79,5.31l0 1.42 3.06 1.18c0.08,0.04 0.17,0.08 0.24,0.12 0.07,0.04 0.16,0.09 0.23,0.13 0.07,0.03 0.15,0.09 0.22,0.13l2.97 1.99c4.79,2.44 1.49,0.43 4.48,2.95 0.44,0.38 1.17,0.83 1.72,1.11 1.76,0.88 5.58,2.39 7.85,2.14l5.86 -1.53c1.26,-0.43 0.64,-0.44 2.4,-0.44l0 -2.48 -13.1 0c0,-3.27 1.34,-3.07 6.31,-6.43 1.36,-0.93 5.31,-4.04 5.72,-5.6 -2.44,0.27 0.26,0.86 -2.47,1.07 -0.6,0.05 -7.99,-1.41 -12.44,2.07 -1.39,1.09 -0.41,1.11 -2.78,1.11 1.1,1.5 1.56,0.71 3.18,2.12 -6.24,1.46 -1.49,1.06 -9.55,1.06 3.62,-5.41 3.62,-2.35 6.37,-6.36 2.17,-3.17 3.5,-4.08 6.96,-6.14 1.96,-1.16 3.89,-2.02 5.07,-3.78 -2.24,-0.18 -3.96,-1.23 -8.04,1.87l-5.05 3.44z"/>
   <path class="fil0" d="M116.36 263.96c-0.35,0.15 -1.47,-0.01 -0.22,-0.5 0.93,-0.36 0.51,0.38 0.22,0.5zm1.42 -1.77l0 0.71 -1.06 0c0.55,-0.81 0.06,-0.42 1.06,-0.71zm-4.25 -2.13l0.71 0 0 1.77 -0.71 0 0 -1.77zm-7.08 18.05l0.36 4.96c1.72,-0.91 1.81,-1.56 3.53,-2.48 0,-5.7 -0.46,-4.09 0.78,-7.72 0.35,-1.03 0.45,-2.25 1.01,-3.23 0.8,-1.4 0.9,-0.69 1.4,-2.85 3.37,0.81 2.96,-0.11 6.28,-3.28 0.81,-0.78 1.64,-1.13 2.22,-2.03 0.47,-0.73 0.97,-2 1.41,-2.83 -3.55,0 -2.36,1.44 -5.66,3.18 0.1,-0.45 0.16,-0.83 0.27,-1.14 0.52,-1.5 0.25,-0.54 1.28,-1.91 1.11,-1.47 2.29,-3.89 4.11,-4.38l0 -1.41c-1.07,-0.29 -0.78,0 -1.06,-1.07l-1.42 0c-0.35,1.5 -0.37,1.35 -1.41,2.13 -2.83,2.17 -2.65,4.44 -4.96,5.66 0.14,-1.71 0.86,-2.77 1.53,-4.13 2.92,-5.84 6.26,-4.92 6.26,-11.44l-5.93 6.45c-4.72,4.67 -6.51,10.37 -8.09,16.69 -0.88,3.54 -1.91,6.61 -1.91,10.83z"/>
   <path class="fil0" d="M100.79 280.59c0,2.02 0.2,2.58 0.33,4.27 0.35,4.57 1.08,0.56 1.08,4.93l1.42 0c0.54,-2.31 1.06,-1.16 1.06,-4.95 0,-2.77 -1.54,-4.87 -1.11,-6.8 0.24,-1.06 0.86,-2.18 1.02,-3.2 1.16,-7.29 1.71,-9.13 4.93,-16.31 0.97,-2.17 1.6,-3.91 2.59,-5.9 2.73,-5.42 4.83,-6.72 9.14,-12.1 0.81,-1.01 0.99,-1.49 1.13,-3.12 -2.53,0.06 -3.33,1.74 -4.69,3.1 -6.32,6.32 -5.72,5.33 -10.18,14.25 -3.17,6.34 -2.5,3.41 -4.83,11.44 -1.29,4.45 -1.89,8.8 -1.89,14.39z"/>
   <path class="fil0" d="M616.82 256.52c5.11,7.65 12.47,8.3 19.01,2.74 1.16,-0.99 3.56,-4.09 3.99,-5.92 -4.08,0.34 -7.79,1.21 -11.68,-4.6 -1.98,0.46 -8.19,6.13 -11.32,7.78z"/>
   <path class="fil0" d="M146.8 216.53l5.66 0c0.14,-1.69 0.13,-1.13 3.3,-2.72l12.98 -5.43c3.23,-1.3 15.64,-3.97 19.82,-4.94l0 -3.54c-6.97,0 -7.99,0.14 -15.85,2.55 -4.96,1.52 -18.42,7.72 -22.73,10.54 -1.4,0.91 -2.7,1.72 -3.18,3.54z"/>
   <path class="fil0" d="M176.18 283.78l0 65.47c0,1.33 0.2,2.24 0.59,3.3 0.8,2.12 0.99,2.13 1.88,2.37l0 -72.2c-1.72,0 -2.47,-0.24 -2.47,1.06z"/>
   <path class="fil0" d="M281.65 331.56l0.7 0 0 2.12 -0.7 0 0 -2.12zm-1.07 -0.71c0.62,-0.61 1.19,0.96 0.32,0.27 -0.03,-0.02 -0.84,0.25 -0.32,-0.27zm-3.54 2.12c3.33,0.78 0.62,2.15 3.19,2.83l0 2.48c-2.25,0.6 0.19,0.56 -2.62,2.69 -1.19,0.91 -1.93,1.32 -2.96,2.35 -2.3,2.28 -2.99,3.46 -7.52,3.46l0 2.83c1.07,0.28 0.78,-0.01 1.07,1.06 2.82,0 1.6,0.07 6.28,-4.69 3.49,-3.55 4.21,-1.47 6.91,-4.42 1.12,-1.22 3.69,-4.96 4.36,-6.61 0.76,-1.86 0.89,-2.17 2.02,-3.64 1.59,-2.09 0.79,-2.18 1.66,-4 -2.6,0 -4.23,0.74 -5.46,2.68 -0.17,0.28 -0.2,0.93 -1.26,1.21 0,-2.04 -0.51,-2.41 1.06,-2.83l0 -4.6c-3.87,-0.09 -2.35,-3.09 -6.73,-3.18l0 12.38z"/>
   <path class="fil0" d="M293.68 277.41c0,7.11 -1.42,7.03 -1.42,8.84 0,1.23 1.02,2.99 1.77,3.54 2.76,-0.73 3.89,-11.98 2.74,-15.12 -1.47,-4.04 -0.66,-2.25 -0.88,-5.18 -0.09,-1.26 -0.27,-1.86 -0.68,-2.82 -1.4,-3.21 -2.79,-5.99 -4.16,-9.29 -0.71,-1.7 -1.37,-3.02 -2.07,-4.65 -1.38,-3.19 -5.13,-10.94 -8.75,-11.78 0,2.89 0.29,2.71 1.3,4.72 3.53,7.05 2.62,2.43 6.64,12.47l3.7 9.05c1.37,3.65 -0.45,2.52 1.36,7.48 0.37,1.01 0.45,1.47 0.45,2.74z"/>
   <path class="fil0" d="M208.38 203.44c4.09,0 11.24,2.56 14.94,3.46 1.92,0.48 3.31,0.91 4.93,1.45 4.93,1.65 8.59,2.8 13.03,5.36 1.57,0.91 3.22,1.56 3.56,2.82l4.24 0c-0.52,-0.79 -0.86,-0.93 -1.69,-1.49 -0.82,-0.54 -1.14,-0.84 -1.85,-1.34l-5.79 -4.11c-7.67,-5.1 -5.12,-3.39 -16.28,-7.08 -6.38,-2.11 -5.86,-1.24 -7.97,-1.94 -3.05,-1 -3.34,-0.67 -7.12,-0.67l0 3.54z"/>
   <path class="fil0" d="M282.71 260.06c0.43,-0.42 1.3,0.61 0.46,0.37 -0.54,-0.15 -0.88,0.05 -0.46,-0.37zm-0.36 -0.7c-1.33,-0.98 -0.32,-1.29 -2.12,-1.77 0,3.07 0.36,9.06 3.54,9.91 0.31,-1.32 0.71,-2.65 0.71,-4.25l0.35 0c0,4.76 2.18,5.31 2.13,10.61 -0.04,4.7 0.44,7.57 3.53,9.21 0,-14.28 0.57,-7 -2.26,-20.38 -0.42,-1.98 -4.36,-10.08 -5.6,-11.4 -0.96,-1.02 -1.76,-2.41 -3.46,-2.55 0,3.68 1.92,5.19 3.18,10.62z"/>
   <path class="fil0" d="M281.29 314.92l0 3.54c1.44,0.34 1.99,0.51 2.13,2.13 3.04,-0.07 2.47,-2.29 2.47,-5.31l1.06 0c0,10.13 -1.06,2.5 -1.06,10.97 3.01,0 2.84,-0.86 3.82,-2.91 1.64,-3.44 0.34,-2.37 0.92,-6.16 1.26,-8.24 0.93,-4.72 0.93,-13.23 -2.08,0.48 -4.28,3.39 -5.76,4.86 -3.81,3.78 -2.2,5.5 -4.51,6.11z"/>
   <path class="fil0" d="M250.5 346.07c3.29,-0.77 9.84,-14.02 11.09,-16.52 1.2,-2.4 5.22,-12.47 5.53,-15.35 0.16,-1.52 0.1,-1.63 0.52,-3.02 0.38,-1.28 0.56,-1.41 0.56,-2.98 -1.82,0.15 -1.62,1.01 -2.78,3.94 -2.52,6.32 -6.9,19.47 -10.42,24.28 -1.43,1.96 -3.94,7.24 -4.5,9.65zm-1.06 0l0 1.06 1.06 0 0 -1.06 -1.06 0z"/>
   <path class="fil0" d="M171.57 320.94l0.62 16.05c0.72,3.91 -0.68,0.21 0.2,6.49l0.95 7.9 0 -68.31c-1.72,2.48 -1.41,5.5 -1.41,8.49 0,3.31 -0.02,6.61 0,9.92 0.02,3.31 -0.36,5.89 -0.36,9.55 0,3.3 0,6.61 0,9.91z"/>
   <path class="fil0" d="M228.2 326.96l0 15.22c0,2.15 0.57,2.68 0.92,4.39 0.52,2.5 -0.87,3.9 1.56,4.1 0,-2.64 -0.2,-5.71 0.34,-7.8 0.33,-1.28 0.7,-1.95 0.56,-3.38 -0.14,-1.53 -0.01,-2.04 0.19,-3.66l-0.1 -11.98c-0.23,-1.35 -0.86,-1.74 -0.99,-3.26l-1.42 0c-0.05,2.26 -1.06,2.77 -1.06,6.37z"/>
   <path class="fil0" d="M163.08 293.69l0 37.87c0,2.85 1.06,1.36 1.06,4.95l0.36 0c0,-4.34 0.36,-7.66 0.35,-11.68 -0.01,-3.44 -0.31,-8.75 0.05,-11.98l0.66 -23.41c-1.64,0.87 -2.48,1.71 -2.48,4.25z"/>
   <path class="fil0" d="M106.1 207.68c-0.61,0.08 -0.5,-1.04 -0.03,-0.47 0,0 0.02,0.03 0.02,0.03l0.01 0.44zm-4.96 1.42c0.88,-0.07 1.19,-0.16 1.99,-0.49l0.99 -0.43c0.64,-0.18 0.56,-0.14 1.27,-0.14 -0.64,1.2 -1.06,2.38 -1.06,4.24 1.99,-0.46 2.05,-1.77 6.3,-4.31l5.21 -2.93c1.17,-0.88 0.84,-0.21 0.88,-1.96 -1.78,-0.41 -1.4,-0.74 -2.13,-2.12l-3.54 0c-0.34,1.29 -1.03,1.25 -2.35,1.89 -4.93,2.37 -7.56,2.75 -7.56,6.25z"/>
   <path class="fil0" d="M212.63 397.03c0,2.89 2.72,2.95 4.17,4.33 2.49,2.37 1.94,1.79 4.92,3.57 4.39,2.62 6.26,4.14 13.21,4.14 -0.43,-1.61 -7.41,-4.45 -10.9,-6.8l-7.91 -5.18c-1.53,-1.19 -0.58,-1.47 -3.14,-1.47 -0.22,0.95 -0.35,0.67 -0.35,1.41z"/>
   <path class="fil0" d="M137.6 244.49c0,0.99 0.1,1.65 0.26,2.22 0.43,1.56 0.44,0.7 0.8,2.03l1.41 0c0.16,-0.67 1.76,-3.49 0.9,-6.56 -0.57,-2.04 0.28,-0.75 -0.9,-1.23l0 -0.71c1.59,-0.42 1.06,-0.81 1.05,-2.85 -0.02,-2.15 -0.19,-1.81 1.66,-2.23 2.54,-0.56 3.91,-0.83 5.08,-3.06l-10.26 0 0 12.39z"/>
   <path class="fil0" d="M220.42 355.98l1.41 0 0 -7.43c0,-3.51 1.7,-3.64 0.81,-7.59 -0.56,-2.52 0.25,-0.14 0.25,-4.09 -1.72,-0.46 -1.06,-1.37 -1.06,-7.44 0,-0.59 3.16,-7.62 -1.41,-8.84l0 35.39z"/>
   <path class="fil0" d="M120.25 310.68l0.71 0 0 1.06 -0.71 0 0 -1.06zm-1.06 -0.71c-0.19,-1.03 0.76,0.09 0.36,0.06 0,0 -0.07,0 -0.08,0 -0.64,-0.09 -0.13,0.74 -0.28,-0.06zm0.71 6.37l1.42 0c0.71,-3.07 2.12,-2.3 2.12,-6.73 -1.81,0.15 -0.48,0.27 -2.12,0.71 0,-3.84 -1.47,-3.54 -2.13,-6.37l-4.6 0c0,2.34 0.74,2.84 1.21,5.17 0.71,3.54 -0.25,1.72 2.25,4.47 1.05,1.14 1.45,1.02 1.85,2.75z"/>
   <path class="fil0" d="M289.43 206.97c0.61,-0.61 1.19,0.96 0.32,0.28 -0.03,-0.03 -0.84,0.25 -0.32,-0.28zm-10.26 -3.89l0 1.42c2.49,0 1.5,0.32 3.6,1.71l8.79 5.01c0,-1.96 -0.31,-2.05 -1.07,-3.18 2.55,0 1.09,0.24 2.84,0.7 -0.84,-1.24 -1.39,-1.5 -2.53,-2.42l-5.32 -4.6c-1.44,-1.18 -1.77,-0.76 -4.19,-0.76 -0.37,1.6 -0.52,1.75 -2.12,2.12z"/>
   <path class="fil0" d="M140.78 373.68c2.54,0.59 1.08,1.6 7.55,4.83 1.48,0.74 2.54,1.25 4.01,2.01 2.32,1.21 2.19,0.94 5.43,0.94 -0.64,-2.75 -2.41,-1.64 -7.03,-5.36 -1.68,-1.35 -5.59,-4.9 -7.83,-4.9 -0.76,0 -2,0.92 -2.13,2.48z"/>
   <path class="fil0" d="M199.89 223.26l1.77 0 0 1.06 -1.77 0 0 -1.06zm-8.85 1.77l0 0.7c4.1,0.96 4.44,1.75 9.64,0.44 1.31,-0.32 1.94,-0.44 3.46,-0.44l0 -2.47 -2.13 0c1.3,-2.45 2.13,-1.32 2.13,-4.61 -3.34,1.77 -7.74,3.25 -9.94,4.58 -0.94,0.57 -2.14,1.52 -3.16,1.8z"/>
   <path class="fil0" d="M216.52 407.65l-1.41 0 0 3.9 1.06 0c0,2.12 0.41,2.08 0.85,3.75 0.36,1.37 0.21,3.18 0.21,4.74 4.95,-1.15 0.52,-5.56 3.54,-6.37l0 -7.08c-2.29,-0.53 -1.08,-0.74 -2.48,-1.77 -0.55,1.15 -0.45,2.83 -1.77,2.83z"/>
   <path class="fil0" d="M175.11 406.59c0,6.63 -0.47,4.52 0.92,9.71 0.6,2.25 0.3,1.82 0.15,3.74l2.47 0c0,-4.35 -0.66,-6.81 1.06,-7.43l0 -4.96 -2.12 0c0,-2.08 -0.1,-1.81 1.06,-2.12l0 -1.06 -2.12 0c-1.01,2.43 -1.42,0.25 -1.42,2.12z"/>
   <path class="fil0" d="M108.93 283.07l0 3.18c0.92,-0.21 2.1,-0.79 2.96,-1.28 1.27,-0.71 1.6,-1.18 1.64,-2.96l2.12 1.07c0.78,-1.63 2.69,-7.49 2.13,-9.92l-4.96 4.24c-1.46,2.27 -1.8,5.11 -3.89,5.67z"/>
   <path class="fil0" d="M92.29 195.65l0 2.12c5.38,0 3.03,-5.31 11.33,-5.31 0,-5.41 -1.19,-0.59 -2.12,-4.6 -1.6,0.04 -1.95,0.54 -2.98,1.27 -1.57,1.12 -6.23,4.82 -6.23,6.52z"/>
   <path class="fil0" d="M225.02 353.85l1.41 0c0,-7.68 -0.83,-13.73 0,-21.59 0.22,-2.08 0.39,-1.07 0.58,-2.22l-0.22 -4.15c0,-1.14 2.38,-4.34 -1.77,-5.3l0 33.26z"/>
   <path class="fil0" d="M192.46 228.56l-2.84 0 0 2.48 16.64 0 0 -2.48c-7.41,0 -4.86,-1.06 -8.85,-1.06 -3.09,0 -3.28,1.06 -4.95,1.06z"/>
   <path class="fil0" d="M95.83 201.31c1.9,0 2.33,0.17 3.46,-0.79 4.25,-3.61 4.46,-2.89 8.58,-4.87l0 -2.48c-1.07,-0.28 -0.78,0.01 -1.06,-1.06 -5,2.64 -10.53,3.86 -10.98,9.2z"/>
   <path class="fil0" d="M106.81 213.7c0,1.63 1.66,1.77 2.83,1.77 1.5,0 4.55,-4.21 7.65,-5.79 2.53,-1.29 2.96,0.59 2.96,-3.06 -4.49,0 -7.09,2.7 -12.07,5.62 -0.8,0.47 -1.37,0.41 -1.37,1.46z"/>
   <path class="fil0" d="M291.2 189.99c0.23,2.71 2.84,0.04 8.76,6.1 1.2,1.24 1.48,1.5 3.63,1.68 -0.36,-1.53 -2.02,-5.19 -3.17,-6.03 -1.34,-0.98 -4.73,-2.23 -5.32,-3.88l-1.77 0c-0.14,1.62 -0.69,1.79 -2.13,2.13z"/>
   <path class="fil0" d="M239.53 381.46c6.07,0 6.42,-1.83 10.63,-4.23 2.03,-1.16 2.82,-0.68 2.82,-2.85 0,-1.5 -0.36,0.17 -1.06,-1.77 -1.76,0.41 -3.13,2.07 -4.7,3.09 -1.91,1.25 -6.89,2.34 -7.69,5.76z"/>
   <path class="fil0" d="M285.89 197.77l-1.06 0 0 2.48c4.01,0.93 6.05,4.25 10.97,4.25 0,-3.2 -1.82,-3.74 -3.82,-5.03 -1.95,-1.25 -3.66,-2.19 -6.09,-2.76l0 1.06z"/>
   <path class="fil0" d="M151.05 387.12c-3.19,-4.76 -9,-6.64 -10.45,-7.95 -1.47,-1.33 0.46,-1.25 -4.06,-1.25 0,3.71 1.55,2.84 6.08,5.6 3.32,2.02 5.04,3.6 8.43,3.6z"/>
   <polygon class="fil0" points="155.29,325.19 156.71,325.19 156.71,296.16 155.29,296.16 "/>
   <path class="fil0" d="M120.96 275.28c0,2.24 -1.06,2.63 -1.06,4.25l0 9.2c0,2.32 2.48,-0.52 2.48,-1.41l0 -18.76 -1.42 0 0 6.72z"/>
   <path class="fil0" d="M106.45 198.83c-2.13,0.18 -4.24,2.25 -6.1,3.45 -1.01,0.65 -1.3,0.63 -1.33,2.22 1.83,0.66 -0.38,0.01 1.04,0.72l1.44 0.34c0.58,-1.61 3.93,-2.61 5.37,-3.48 1.29,-0.78 2.29,-0.79 3.25,-1.36 1.66,-0.99 0.56,-1.7 0.22,-2.95l-3.89 0 0 1.06z"/>
   <path class="fil0" d="M86.99 189.99l1.73 1.09c0.56,0.45 0,-0.41 0.65,0.77 0.32,0.59 0.31,0.72 0.45,1.32l0.7 0c0.35,-0.87 3.79,-2.79 4.65,-3.49 3.3,-2.64 3.81,-2.42 3.85,-4.29 -1.07,-0.29 -0.78,0 -1.06,-1.07 -0.57,0 -1.14,-0.06 -1.67,0.1 -1.58,0.5 -5.5,5.25 -9.3,5.57z"/>
   <path class="fil0" d="M273.51 210.87c0,2.26 0.53,0.39 2.95,2.35 1.06,0.87 1.83,1.22 2.92,2.04 3.86,2.89 3.19,4.62 5.45,4.81l0 -2.12 1.06 0c-0.05,-2.26 0.48,-0.45 -2.21,-3.1 -1.06,-1.06 -10.17,-7.21 -10.17,-3.98z"/>
   <path class="fil0" d="M306.07 193.53l0 -1.07 1.06 0 0 -2.47c-5.2,-2.76 -6.54,-5.67 -11.33,-5.67 0,3.67 2.19,3.38 4.72,4.84 5.16,2.97 2.33,4.29 5.55,4.37z"/>
   <path class="fil0" d="M125.56 338.28l1.07 0 0 2.13 -1.07 0 -0.35 -1.77c-0.04,1.76 -0.67,2.47 -0.71,4.24 1.38,0.33 2.82,0.74 3.19,2.13l2.47 0 0 -1.07 1.07 0 0 -1.41c-2.36,0 -3.75,-0.24 -4.25,-2.12 1.14,0 2.5,0.25 3.42,-0.47 0.93,-0.72 0.64,-0.62 0.83,-1.3 -0.36,-0.49 -4.39,-4.28 -5.67,-4.96l0 4.6z"/>
   <path class="fil0" d="M111.05 218.3l0 1.77c4.27,-0.1 2.96,-2.76 8.79,-6.43 1.37,-0.86 1.69,-1.51 2.54,-2.77l-4.6 0c-2.13,4.01 -6.73,4.02 -6.73,7.43z"/>
   <path class="fil0" d="M299.34 201.31c0,-3.06 -0.2,-3.66 -2.06,-5.02 -0.77,-0.56 -1.54,-0.72 -2.25,-1.28 -2.35,-1.86 0.97,-1.84 -5.95,-1.84 0.08,3.57 2.23,3.42 4.59,4.62 2.44,1.25 2.64,3.27 5.67,3.52z"/>
   <path class="fil0" d="M158.48 300.06c0,4.59 -0.25,12.1 0.32,16.31 0.13,0.96 0.14,1.17 0.32,1.81l0.77 1.7 0 -30.79c-1.17,1.69 -0.99,3.3 -1.06,4.94 -0.1,1.96 -0.35,3.54 -0.35,6.03z"/>
   <path class="fil0" d="M246.25 387.12c1.62,-0.13 4.3,-1.79 5.67,-2.47 0.84,-0.42 2.06,-0.94 2.82,-1.43 1.9,-1.2 0.78,-1.76 3.55,-1.76l0 -3.54c-4.17,0 -0.17,0.36 -7.2,4.13 -1.91,1.02 -4.65,2.84 -4.84,5.07z"/>
   <path class="fil0" d="M307.84 323.06c0,1.2 0.44,0.73 1.58,1.25l0.7 0.37c0.9,0.5 -0.51,0.13 0.9,0.51 1.01,-0.74 0.53,-0.89 1.95,-1.6 2.21,-1.09 1.95,0.38 1.95,-5.13 -1.91,0.04 -2.1,0.5 -2.48,2.13l-1.06 0c-0.19,-2.29 -1.79,-2.13 -3.54,-2.13l0 4.6z"/>
   <path class="fil0" d="M277.04 206.62c-1.87,0 -0.52,0 -1.06,0.35 0.95,0.26 2.09,1.28 3.05,1.91 3.09,2.05 4.2,2.39 6.23,4.39 1.32,1.3 1.75,1.14 4.17,1.14 -2.04,-3.05 -0.2,-2.15 -1.59,-3.36 -0.06,-0.05 -2.98,-1.4 -3.35,-1.61l-4.79 -2.64c-1.15,-0.54 -0.82,0.32 -1.24,-1.24l-1.42 0 0 1.06z"/>
   <path class="fil0" d="M232.45 328.37c0,2.88 0.24,4.39 0.36,7.08 0.13,3.16 1.06,2.16 1.06,6.73l1.06 -16.29c-0.02,-2.27 0.31,-3.63 0.35,-5.3 -2.82,0.23 -2.83,5.07 -2.83,7.78z"/>
   <path class="fil0" d="M94.42 351.38l-2.13 0 0 2.47c3.33,0 5.03,-0.37 7.56,0.94 1.36,0.7 1.46,1.19 3.42,1.19 -0.85,-3.16 -4.44,-4.56 -5.17,-5.1 -1.91,-1.44 0.36,-1.63 -3.68,-1.63l0 2.13z"/>
   <path class="fil0" d="M294.74 355.98c2.72,-0.64 3.97,-2.08 7.42,-2.14 1.57,-0.02 4.06,0.49 3.63,-0.76 -0.38,-1.12 -2.09,-1.43 -3.26,-1.7l0 -2.13 -2.48 0c-1.29,4.85 -5.31,1.21 -5.31,6.73z"/>
   <path class="fil0" d="M86.63 319.17l0 1.42c-3.92,0 -0.3,-0.75 -3.18,-1.07l0 4.6c2.28,0 3.62,1.43 4.97,0.03 0.43,-0.43 1.67,-4.04 1.75,-4.98 -0.27,-0.07 -3.54,-2.54 -3.54,0z"/>
   <path class="fil0" d="M118.84 296.16l-1.06 0 0 3.54c2.21,0.8 0.08,3.19 4.6,3.19l0 -6.73c-1.07,-0.28 -0.78,0.01 -1.06,-1.06l-2.48 0 0 1.06z"/>
   <path class="fil0" d="M238.11 320.23l0 19.11 1.42 0 0 -19.11c0,-1 -0.15,-0.65 -0.71,-1.06 -0.6,0.41 -0.71,0.05 -0.71,1.06z"/>
   <path class="fil0" d="M149.63 177.95c1.07,0.29 0.78,0 1.06,1.06l2.83 0c0.29,-1.06 0,-0.77 1.07,-1.06 0,-7.84 -0.72,-2.51 -1.07,-5.66l-2.47 0c0,4.87 -1.42,1.29 -1.42,5.66z"/>
   <path class="fil0" d="M242.71 173.35l-1.06 0 0 4.6c1.96,1.32 1.51,1.06 4.6,1.06 0,-5.13 -1.06,-1.07 -1.06,-6.72l-2.48 0 0 1.06z"/>
   <path class="fil0" d="M147.51 369.07l-1.06 0 0 1.42c2.72,0.73 0.51,4.25 8.14,4.25 -0.22,-0.82 -2.38,-2.96 -3.1,-3.63 -3.61,-3.42 -1.65,-3.05 -3.98,-3.1l0 1.06z"/>
   <path class="fil0" d="M129.1 331.56c0,-3.83 -1.09,-3.26 -1.96,-5.82 -1.06,-3.08 -1.58,-3.8 -1.58,-6.57l-1.06 0c0,9.4 0.06,5.48 2.16,10.58 0.54,1.31 0.66,1.66 2.44,1.81z"/>
   <path class="fil0" d="M268.2 345.01c2.38,-1.27 5.66,-2.11 5.66,-7.08 0,-1.09 -0.49,-1.06 -1.42,-1.06 -1.34,0 -1.53,2.36 -2.41,3.59 -1.13,1.59 -1.83,1.85 -1.83,4.55z"/>
   <path class="fil0" d="M130.16 389.96c0.17,1.94 1.34,2.73 1.77,4.6 1.96,-0.17 1.58,-0.9 3.54,-1.07l0 -3.53c-1.58,-0.58 0.18,0.07 -0.85,-0.57 -1.03,-0.63 1.37,-0.5 -2.69,-0.5 -1.5,0 -0.04,-0.04 -0.91,0.5 -1.14,0.71 0.73,-0.03 -0.86,0.57z"/>
   <path class="fil0" d="M259.35 389.96l0 2.47c2.29,1.21 -0.46,1.06 5.66,1.06 -1.48,-6.34 -1.42,-2.65 -2.12,-5.66l-1.42 0c-0.37,1.61 -0.52,1.75 -2.12,2.13z"/>
   <path class="fil0" d="M214.05 210.87l0 3.54c1.64,1.1 0.24,1.06 3.53,1.06l0 -3.54c0.94,-0.22 1.04,-0.32 1.77,-0.71 -1.02,-1.4 -1.23,-0.18 -1.77,-2.48 -3.55,0.08 0.05,1.29 -3.53,2.13z"/>
   <path class="fil0" d="M106.81 296.87c0,1.71 1.25,2.51 2.2,3.46 1.56,1.59 1.58,1.5 4.52,1.5 -0.9,-1.34 -1.61,-2.1 -2.59,-3.43 -1.9,-2.59 -0.47,-3.3 -4.13,-3.3l0 1.77z"/>
   <path class="fil0" d="M222.89 177.6l0 1.41c4.25,0.36 0.93,2.13 5.67,2.13 0,-3.95 -1.07,0.04 -1.07,-5.66l-2.47 0c-0.34,1.43 -0.51,1.98 -2.13,2.12z"/>
   <path class="fil0" d="M306.77 297.23l0 1.41c1.48,0.12 2.01,0.65 2.13,2.13l1.41 0 0 -2.13 1.07 0 0 -3.54 -1.37 -1.12c-3.09,2.17 -1.05,2.66 -3.24,3.25z"/>
   <path class="fil0" d="M242.71 331.56l1.42 0 0 -12.39c0,-1.07 -0.42,-0.98 -1.42,-1.06l0 13.45z"/>
   <path class="fil0" d="M311.38 176.89c3.68,0 4.6,-0.06 4.6,-4.6 -1.99,0 -3.53,-0.37 -4.53,1.51 -0.65,1.21 -0.11,1.58 -0.07,3.09z"/>
   <path class="fil0" d="M179.71 415.79l4.55 -2.24 0.06 -4.48 -2.48 0c-0.08,3.3 -2.13,3.25 -2.13,6.72z"/>
   <path class="fil0" d="M232.8 212.99l-1.06 0 0 2.83c2.08,0.49 2.06,2.1 3.65,2 2.12,-0.12 0.34,-2.44 0.33,-2.44 -0.64,-1.27 -0.22,0.07 -0.42,-1.7 -0.24,-2.22 -0.05,-1.75 -2.5,-1.75l0 1.06z"/>
   <path class="fil0" d="M284.83 301.83c2.49,-0.06 2.66,-0.88 3.82,-2.21 1.12,-1.28 1.94,-2.01 2.91,-3.46 -1.07,-0.28 -0.78,0.01 -1.07,-1.06l-1.41 0c-0.51,1.9 -3.29,2.62 -4.25,6.73z"/>
   <path class="fil0" d="M138.66 394.56l-1.06 0 0 1.41c1.47,0.12 2,0.65 2.12,2.13l2.48 0c0.28,-1.07 -0.01,-0.78 1.06,-1.07l0 -1.41 -1.06 0 0 -2.13 -3.54 0 0 1.07z"/>
   <path class="fil0" d="M252.62 398.1l4.6 0 0 -4.61c-2.92,0 -4.53,1.81 -4.6,4.61z"/>
   <path class="fil0" d="M177.59 211.22c0,0.53 0.77,1.56 1.06,2.13l4.6 0c-0.3,-0.64 -0.87,-2.74 -1.06,-3.54l-4.6 0 0 1.41z"/>
   <path class="fil0" d="M87.69 284.84c0,4.31 0.28,1.35 1.07,3.54 1.72,-0.15 1.95,-0.9 3.89,-1.06 -0.25,-3.04 -2.48,0.02 -2.48,-4.6 -0.85,0.07 -0.9,-0.33 -1.99,1.19 -0.61,0.84 -0.49,-0.51 -0.49,0.93z"/>
   <path class="fil0" d="M252.62 184.68c5.6,0 2.86,1.37 5.67,2.12l0 -3.54c-1.07,-0.28 -0.78,0.01 -1.07,-1.06l-4.6 0 0 2.48z"/>
   <path class="fil0" d="M300.05 265.37c2.07,0.55 0.71,1.06 4.6,1.06 0,-0.36 0.04,-1.07 -0.01,-1.4 -0.24,-1.69 -0.88,-1.12 -1.05,-3.2 -2.87,0 -3.54,0.67 -3.54,3.54z"/>
   <path class="fil0" d="M305.71 285.9c0.73,0.99 0.73,0.5 1.65,1.54 0.98,1.1 0.13,1.15 1.89,1.29 0,-3.67 1.06,-0.55 1.06,-4.95l-1.06 0 0 -1.06c-1.78,0.14 -0.9,0.19 -1.89,1.29 -1.2,1.32 -1.23,0.33 -1.65,1.89z"/>
   <path class="fil0" d="M86.63 296.16l-1.06 0c1.63,3.09 1.2,1.91 3.54,4.61 0.28,-1.07 -0.01,-0.78 1.06,-1.07l0 -3.54c-1.16,-0.41 -0.26,0.46 -1.06,-1.06l-2.48 0 0 1.06z"/>
   <path class="fil0" d="M167.33 181.14c3.43,0 2.11,-0.02 3.42,-1.18 1.01,-0.9 0.75,-0.23 1.53,-1.3 -0.78,-2.94 -4.95,-3.54 -4.95,2.48z"/>
   <path class="fil0" d="M78.85 173.35c0,2.11 0.41,3.54 2.83,3.54 0.76,0 0.69,-0.18 1.63,-1.2 0.44,-0.48 0.15,-0.11 0.49,-0.57 -0.67,-1.01 -2.54,-2.83 -3.89,-2.83 -0.82,0 -1.06,0.25 -1.06,1.06z"/>
   <path class="fil0" d="M160.96 217.59c4.36,-1.01 3.54,-0.63 3.54,-4.6 0,-1.3 -0.76,-1.06 -2.48,-1.06 0,2.12 0.04,1.16 -0.64,2.55 -0.65,1.33 -0.42,1.31 -0.42,3.11z"/>
   <path class="fil0" d="M137.6 185.74c4.54,0 0.38,-1.06 5.66,-1.06l0 -2.48 -4.6 0c-0.4,1.73 -1.02,1.44 -1.06,3.54z"/>
   <path class="fil0" d="M303.59 273.87l0 1.41c1.07,0.29 0.78,0 1.06,1.06l2.48 0c0.28,-1.06 -0.01,-0.77 1.06,-1.06l0 -2.47 -1.06 0 0 -1.07 -1.42 0c-0.33,1.44 -0.5,1.99 -2.12,2.13z"/>
   <polygon class="fil0" points="151.05,311.74 152.11,311.74 152.11,298.29 151.05,298.29 "/>
   <path class="fil0" d="M90.17 274.22c0,1.45 -0.04,0.11 0.28,0.78 0.03,0.06 0.08,0.18 0.12,0.24l0.26 0.44c0.8,0.97 0.17,0.63 1.82,0.66 0.28,-1.06 -0.01,-0.77 1.06,-1.06l0 -2.47c-1.73,-0.41 -1.44,-1.02 -3.54,-1.07l0 2.48z"/>
   <path class="fil0" d="M99.02 346.42l0 0.71c1.48,1.28 0.88,1.06 3.54,1.06 0,-4.08 0.54,-3.54 -3.54,-3.54l0 1.77z"/>
   <path class="fil0" d="M298.99 340.41c2.58,0 4.52,-0.88 4.6,-4.25 -1.72,0.14 -4.54,1.37 -4.6,4.25z"/>
   <path class="fil0" d="M215.11 177.95l3.54 0 0 -1.41c0,-0.86 -1.27,-2.13 -2.13,-2.13l-1.41 0 0 3.54z"/>
   <path class="fil0" d="M297.22 348.19c0.38,-1.43 -0.04,0.04 0.55,-1.24 1.34,-2.91 -0.71,-2.3 -3.03,-2.3 0.07,0.8 0.25,1.54 0.53,2.3 0.51,1.36 0.32,1.21 1.95,1.24z"/>
   <path class="fil0" d="M95.48 340.41l2.48 0c0.44,-0.85 0.81,-1.21 1.06,-2.13 -0.91,-0.02 -1.65,-0.15 -2.45,-0.38 -1.31,-0.37 -0.23,-0.1 -1.04,-0.38 -0.24,-0.08 0.09,-0.2 -1.11,-0.3 0.16,1.9 0.7,1.85 1.06,3.19z"/>
   <path class="fil0" d="M93.36 265.37c1.47,0 2.23,-0.25 3.18,-0.7l0.36 -2.84 -2.48 0c-0.12,1.45 -0.52,2.52 -1.06,3.54z"/>
   <path class="fil0" d="M177.59 175.48c0.04,1.82 0.5,2.47 3.54,2.47 -0.44,-1.88 -0.36,-3.36 -2.48,-3.54 -0.27,1.04 0,0.81 -1.06,1.07z"/>
   <path class="fil0" d="M123.09 393.85c0,0.81 0.24,1.06 1.06,1.06l2.48 0 0 -2.48 -3.54 0 0 1.42z"/>
   <path class="fil0" d="M96.54 256.88c1.6,2.18 1.77,1.74 2.83,1.77 0.44,-1.89 0.71,-0.45 0.71,-3.54 -1.35,0.03 -1.65,0.11 -2.38,0.74l-1.16 1.03z"/>
   <path class="fil0" d="M243.78 374.74c4.16,0 3.26,-1.92 3.78,-2.94 0.42,-0.82 0.66,0.18 0.82,-1.66 -1.26,0.33 -4.03,3.51 -4.6,4.6z"/>
   <path class="fil0" d="M240.59 308.55l3.19 0c-0.05,-2.16 -1.01,-2.43 -3.19,-2.48l0 2.48z"/>
   <path class="fil0" d="M211.57 411.19c0,1.21 1.43,1.88 2.48,2.12l0 -3.18 -2.48 0 0 1.06z"/>
   <path class="fil0" d="M167.33 299.35c0,0.71 0.21,1.33 0.47,2 0.02,0.04 0.28,0.61 0.35,0.72 0.05,0.09 0.22,0.36 0.28,0.43 0.03,0.05 0.12,0.15 0.15,0.2 0.03,0.04 0.11,0.13 0.16,0.19l-0.35 -8.85c0,3.42 -1.06,2.34 -1.06,5.31z"/>
   <path class="fil0" d="M124.5 346.07l0 -1.42c-0.6,-0.06 -0.14,0.1 -0.6,-0.11 -0.05,-0.02 -0.18,-0.07 -0.25,-0.1l-0.61 -0.45c-0.61,-0.41 -0.15,-0.13 -0.66,-0.4 0.09,1.09 0,0.81 0.52,1.6 0.58,0.87 0.4,0.78 1.6,0.88zm0 1.06l1.06 0 0 -1.06 -1.06 0 0 1.06z"/>
   <path class="fil0" d="M167.33 307.14c0,1.81 -0.18,0.55 0.48,1.29l0.93 0.83 0 -3.54c-0.8,0.21 -1.41,0.34 -1.41,1.42z"/>
  </g>
 </g>
</svg>
